<svg width="20" height="20" viewBox="0 0 20 20" fill="none" xmlns="http://www.w3.org/2000/svg">
<path fill-rule="evenodd" clip-rule="evenodd" d="M8.27699 5.98393C8.16447 6.5497 7.88672 7.06941 7.47884 7.47732L5.41634 9.53982L3.35384 7.47732C2.94597 7.06941 2.66821 6.5497 2.5557 5.98393C2.44318 5.41816 2.50096 4.83174 2.72172 4.2988C2.94249 3.76587 3.31632 3.31036 3.79596 2.98989C4.2756 2.66942 4.83949 2.49836 5.41634 2.49836C5.99319 2.49836 6.55709 2.66942 7.03673 2.98989C7.51636 3.31036 7.8902 3.76587 8.11096 4.2988C8.33173 4.83174 8.38951 5.41816 8.27699 5.98393ZM2.17468 8.65649L5.41634 11.8965V11.8982L8.65801 8.65649C9.29879 8.01541 9.73509 7.19874 9.91177 6.30971C10.0884 5.42069 9.99755 4.49925 9.65059 3.66188C9.30362 2.82451 8.71616 2.10882 7.96248 1.60529C7.20881 1.10176 6.32275 0.833008 5.41634 0.833008C4.50994 0.833008 3.62388 1.10176 2.8702 1.60529C2.11653 2.10882 1.52907 2.82451 1.1821 3.66188C0.835137 4.49925 0.744246 5.42069 0.920921 6.30971C1.0976 7.19874 1.5339 8.01541 2.17468 8.65649ZM4.53246 6.2987C4.76688 6.53312 5.08482 6.66482 5.41634 6.66482C5.74786 6.66482 6.06581 6.53312 6.30023 6.2987C6.53465 6.06428 6.66634 5.74634 6.66634 5.41482C6.66634 5.0833 6.53465 4.76536 6.30023 4.53094C6.06581 4.29652 5.74786 4.16482 5.41634 4.16482C5.08482 4.16482 4.76688 4.29652 4.53246 4.53094C4.29804 4.76536 4.16634 5.0833 4.16634 5.41482C4.16634 5.74634 4.29804 6.06428 4.53246 6.2987ZM0.833008 16.6663V11.6663H2.49967V14.208C2.82848 13.8723 3.23351 13.6211 3.6803 13.4756C4.12709 13.3301 4.60242 13.2948 5.06582 13.3725C5.52922 13.4502 5.96699 13.6388 6.34185 13.9221C6.71671 14.2054 7.01758 14.5751 7.21884 14.9997H11.9472C12.0872 14.7055 12.2747 14.438 12.4997 14.208V8.33301H10.833V6.66634H13.333C13.554 6.66634 13.766 6.75414 13.9223 6.91042C14.0785 7.0667 14.1663 7.27866 14.1663 7.49967V8.33301H16.6663L19.1663 11.713V16.6663H17.4705C17.3714 17.3616 17.0249 17.9977 16.4944 18.458C15.964 18.9182 15.2853 19.1716 14.583 19.1716C13.8807 19.1716 13.2021 18.9182 12.6716 18.458C12.1412 17.9977 11.7946 17.3616 11.6955 16.6663H7.47051C7.37144 17.3616 7.02485 17.9977 6.49441 18.458C5.96396 18.9182 5.28527 19.1716 4.58301 19.1716C3.88074 19.1716 3.20206 18.9182 2.67161 18.458C2.14116 17.9977 1.79457 17.3616 1.69551 16.6663H0.833008ZM14.1663 12.4997H17.4997V12.2622L15.8263 9.99967H14.1663V12.4997ZM14.583 17.4997C14.9146 17.4997 15.2327 17.3679 15.4672 17.1334C15.7017 16.8989 15.8334 16.5809 15.8334 16.2493C15.8334 15.9176 15.7017 15.5996 15.4672 15.3651C15.2327 15.1306 14.9146 14.9988 14.583 14.9988C14.2514 14.9988 13.9333 15.1306 13.6988 15.3651C13.4643 15.5996 13.3326 15.9176 13.3326 16.2493C13.3326 16.5809 13.4643 16.8989 13.6988 17.1334C13.9333 17.3679 14.2514 17.4997 14.583 17.4997ZM5.83301 16.2497C5.83301 16.0855 5.80068 15.923 5.73786 15.7713C5.67504 15.6197 5.58296 15.4819 5.46689 15.3658C5.35082 15.2497 5.21302 15.1576 5.06136 15.0948C4.90971 15.032 4.74716 14.9997 4.58301 14.9997C4.41886 14.9997 4.25631 15.032 4.10465 15.0948C3.953 15.1576 3.8152 15.2497 3.69912 15.3658C3.58305 15.4819 3.49098 15.6197 3.42816 15.7713C3.36534 15.923 3.33301 16.0855 3.33301 16.2497C3.33301 16.5812 3.4647 16.8991 3.69912 17.1336C3.93354 17.368 4.25149 17.4997 4.58301 17.4997C4.91453 17.4997 5.23247 17.368 5.46689 17.1336C5.70131 16.8991 5.83301 16.5812 5.83301 16.2497Z" fill="#0CAF40"/>
</svg>
