<svg width="20" height="18" viewBox="0 0 20 18" fill="none" xmlns="http://www.w3.org/2000/svg">
<path fill-rule="evenodd" clip-rule="evenodd" d="M0.833008 8.79219C0.833008 4.47094 4.1218 0.918081 8.33301 0.5V2.17517C7.74942 2.24898 7.17421 2.40019 6.62301 2.62802C6.52717 3.25302 6.73717 3.85302 6.82301 4.06302C7.01467 4.52969 7.64634 5.32719 8.70051 6.43302C8.98217 6.72886 8.96384 6.95636 8.86301 7.63052L8.85217 7.70636C8.78384 8.16802 8.66884 8.44136 7.11467 8.68802C6.32467 8.81302 6.11717 8.49802 5.82967 8.06052L5.73301 7.91719C5.45967 7.51719 5.25717 7.42552 4.95134 7.28719C4.81384 7.22469 4.64301 7.14552 4.41384 7.01636C3.87051 6.70552 3.87051 6.35469 3.87051 5.58636V5.49886C3.87051 5.17302 3.90217 4.88636 3.95217 4.63719C3.31271 5.43976 2.86709 6.37908 2.65002 7.38203C2.43295 8.38498 2.45028 9.4245 2.70066 10.4197C2.95104 11.4148 3.42772 12.3388 4.09359 13.1196C4.75945 13.9004 5.59654 14.517 6.53967 14.9214C7.00051 14.6105 7.63301 14.1697 7.85384 13.8672C7.8811 13.8298 7.91116 13.7552 7.94844 13.6626C8.06498 13.3731 8.25216 12.9081 8.64551 12.8589C8.78051 12.8422 8.96301 12.8539 9.15634 12.8664L9.15703 12.8664C9.6753 12.8997 10.3831 12.9452 10.6097 12.3297C10.7538 11.9397 10.7788 10.8797 10.313 10.3297C10.238 10.2422 10.2238 10.0797 10.2747 9.89719C10.3413 9.65802 10.4755 9.51219 10.518 9.48219C10.5957 9.52752 10.7489 9.70412 10.8576 9.82953L10.8576 9.82954L10.8672 9.84052C11.128 10.1447 11.4547 10.5239 11.8763 10.6405C12.0179 10.6798 12.1723 10.7126 12.3244 10.745L12.3622 10.753C12.8197 10.8489 13.3372 10.958 13.458 11.2147C13.5455 11.4013 13.5455 11.6574 13.5455 11.9279V11.9355C13.5455 12.283 13.5455 12.6755 13.7155 13.0564C13.7746 13.1923 13.8615 13.3143 13.9705 13.4147C15.033 12.3119 15.6834 10.8771 15.8125 9.35122C15.8283 9.16469 15.8362 8.97819 15.8363 8.79219H17.4997C17.4997 13.3947 13.7688 17.1255 9.16634 17.1255C4.56384 17.1255 0.833008 13.3947 0.833008 8.79219ZM10.7082 0.784503L13.0875 4.66869L10.3985 5.41839L9.09747 4.07551L8.33301 4.28862L9.71685 6.8843C9.774 6.99132 9.86386 7.07539 9.97216 7.12315C10.0805 7.17092 10.201 7.17964 10.3146 7.14793L10.6807 7.04574L10.6807 7.04577L18.5796 4.84334C18.7824 4.78682 18.9553 4.64877 19.0602 4.45956C19.1652 4.27035 19.1937 4.04547 19.1394 3.8344C19.0851 3.62333 18.9525 3.44336 18.7708 3.33407C18.589 3.22479 18.373 3.19514 18.1702 3.25166L15.3941 4.02608L11.7269 0.5L10.7082 0.784503Z" fill="#0073E6"/>
</svg>
