<svg width="20" height="18" viewBox="0 0 20 18" fill="none" xmlns="http://www.w3.org/2000/svg">
<path fill-rule="evenodd" clip-rule="evenodd" d="M17.4997 2.32533C17.4997 1.41533 16.7555 0.666992 15.8372 0.666992H2.49967V4.00033H0.833008V5.66699H2.49967V8.16699H0.833008V9.83366H2.49967V12.3337H0.833008V14.0003H2.49967V17.3337H9.16634V15.667H7.49967V2.33366H15.833V4.00033H17.4997V2.32533ZM4.16634 2.33366H5.83301V15.667H4.16634V2.33366ZM10.833 7.00366V11.3245C10.833 11.8732 10.9685 12.4134 11.2274 12.8972C11.4863 13.381 11.8606 13.7934 12.3172 14.0978L14.1663 15.3312L16.0155 14.0978C16.4719 13.7935 16.8462 13.3812 17.1051 12.8976C17.364 12.414 17.4995 11.8739 17.4997 11.3253V7.00366L14.4407 6.57999C14.2587 6.55478 14.074 6.55478 13.892 6.57999L10.833 7.00366ZM9.81884 5.52199L13.8536 4.88318C14.0608 4.85037 14.2719 4.85037 14.4791 4.88318L18.5138 5.52199C18.6989 5.56313 18.8644 5.66613 18.983 5.814C19.1016 5.96186 19.1663 6.14576 19.1663 6.33533V11.3245C19.1663 12.1476 18.963 12.958 18.5746 13.6837C18.1861 14.4094 17.6246 15.0279 16.9397 15.4845L14.1663 17.3337L11.393 15.4845C10.7082 15.028 10.1467 14.4096 9.7583 13.684C9.36987 12.9585 9.16654 12.1483 9.16634 11.3253V6.33533C9.16637 6.14576 9.23104 5.96186 9.34967 5.814C9.46829 5.66613 9.63379 5.56313 9.81884 5.52199ZM12.6211 12.3337L14.1663 11.4796L15.711 12.3337L15.4166 10.5249L16.6663 9.24355L14.9392 8.97932L14.1663 7.33366L13.394 8.97932L11.6663 9.24355L12.9161 10.5249L12.6211 12.3337Z" fill="#FFC01E"/>
</svg>
