<svg width="20" height="19" viewBox="0 0 20 19" fill="none" xmlns="http://www.w3.org/2000/svg">
<path fill-rule="evenodd" clip-rule="evenodd" d="M11.1029 3.37791L11.918 2.72192L17.5556 7.25859V9.99967H19.1663V6.85192C19.1664 6.72493 19.1385 6.5996 19.0846 6.4855C19.0307 6.3714 18.9523 6.27156 18.8555 6.19359L12.4125 1.00859C12.2712 0.894791 12.0971 0.833008 11.918 0.833008C11.7389 0.833008 11.5649 0.894791 11.4235 1.00859L8.53518 3.33301H2.49967C2.27866 3.33301 2.0667 3.42081 1.91042 3.57709C1.75414 3.73337 1.66634 3.94533 1.66634 4.16634V16.6663H0.833008V18.333H12.4997V16.6663H11.6663L11.6663 11.484V9.81738V8.33301H13.333V6.66634H11.6663V4.16634C11.6663 3.94533 11.5785 3.73337 11.4223 3.57709C11.3315 3.48635 11.222 3.41869 11.1029 3.37791ZM9.99967 8.33301L9.99967 10.6507V11.484L9.99967 16.6663H3.33301V4.99967H9.99967V6.66634V8.33301ZM4.99967 13.333H8.33301V14.9997H4.99967V13.333ZM8.33301 9.99967H4.99967V11.6663H8.33301V9.99967ZM4.99967 6.66634H8.33301V8.33301H4.99967V6.66634ZM18.1899 15.8918L15.8332 18.3327L13.4766 15.8918C12.1741 14.5435 12.1741 12.3585 13.4766 11.0102C13.7804 10.6909 14.146 10.4367 14.5511 10.263C14.9562 10.0892 15.3924 9.99967 15.8332 9.99967C16.274 9.99967 16.7102 10.0892 17.1153 10.263C17.5204 10.4367 17.886 10.6909 18.1899 11.0102C19.4924 12.3585 19.4924 14.5435 18.1899 15.8918ZM16.9915 14.7335C17.669 14.0318 17.669 12.8702 16.9915 12.1685C16.8431 12.01 16.6637 11.8836 16.4645 11.7972C16.2653 11.7108 16.0504 11.6662 15.8332 11.6662C15.616 11.6662 15.4012 11.7108 15.2019 11.7972C15.0027 11.8836 14.8233 12.01 14.6749 12.1685C13.9974 12.8702 13.9974 14.0318 14.6749 14.7343L15.8332 15.9327L16.9915 14.7335Z" fill="#FF821E"/>
</svg>
