<svg width="20" height="20" viewBox="0 0 20 20" fill="none" xmlns="http://www.w3.org/2000/svg">
<g clip-path="url(#clip0_398_46176)">
<path d="M20 0H0V20H20V0Z" fill="white"/>
<path d="M12.9855 3.76493L2.50394 3.15873C2.26267 3.14663 2.04492 3.41008 2.04492 3.63186V17.1289C2.04492 17.4354 2.3581 17.4972 2.59938 17.473L2.6686 17.3655L12.9848 16.4125C13.1743 16.393 13.3275 16.2196 13.3275 16.0247V4.13456C13.3282 3.93967 13.175 3.77434 12.9855 3.76493Z" fill="#004375"/>
<path d="M13.1583 3.65805L2.65596 3.14123C2.41469 3.12913 2.21777 3.30051 2.21777 3.52363V17.1262C2.21777 17.3494 2.41469 17.5093 2.65596 17.4851L13.1583 16.4044C13.3478 16.3849 13.5011 16.2102 13.5011 16.0133V4.03037C13.5011 3.83413 13.3485 3.66745 13.1583 3.65805Z" fill="#E6E6E6"/>
<path opacity="0.3" d="M2.65551 17.2996C2.52513 17.313 2.41895 17.2257 2.41895 17.1054V3.53235C2.41895 3.41205 2.52513 3.3193 2.65551 3.32535L13.1579 3.82134C13.2607 3.82604 13.3434 3.91677 13.3434 4.02296V16.0274C13.3434 16.1336 13.26 16.2283 13.1579 16.2391L2.65551 17.2996Z" fill="#94C9FF"/>
<path d="M12.4802 15.9179L3.49805 16.7828V4.26025L12.4802 4.59897V15.9179Z" fill="white"/>
<path d="M10.8058 4.07738C10.789 3.98598 10.7151 3.92146 10.623 3.91743L10.049 3.89189C9.78896 3.88046 9.59809 3.66876 9.6075 3.40061L9.62968 2.77962C9.63371 2.6647 9.55172 2.57263 9.43881 2.56591L9.25063 2.55448C9.10681 2.54574 9.01138 2.4194 9.03154 2.27289C9.06649 2.01683 8.89108 1.79572 8.63704 1.77892C8.38098 1.76144 8.14173 1.95701 8.10342 2.21643C8.09804 2.25474 8.0846 2.29305 8.06377 2.32732C8.00463 2.42208 7.90113 2.4745 7.79897 2.46846L7.60475 2.45703C7.48714 2.45031 7.3749 2.53297 7.34533 2.64924L7.18336 3.27964C7.11347 3.5525 6.85002 3.74941 6.56977 3.73664L5.94071 3.70842C5.83789 3.70371 5.73641 3.7642 5.68936 3.85829L5.31032 4.611C5.26865 4.74138 5.33586 4.7649 5.34997 4.77901C5.37484 4.80455 5.34123 4.74004 5.38559 4.74138L10.8428 4.92284C10.9026 4.92485 10.953 4.86504 10.9422 4.8059L10.8058 4.07738ZM8.55975 2.31657C8.48448 2.31186 8.43273 2.24667 8.44348 2.17073C8.45424 2.09479 8.52413 2.03699 8.5994 2.04237C8.67467 2.04707 8.72642 2.11226 8.71567 2.18821C8.70492 2.26348 8.63502 2.32127 8.55975 2.31657Z" fill="#A7A7A7"/>
<path d="M10.8374 4.15135C10.8206 4.05995 10.7467 3.99543 10.6546 3.9914L10.0806 3.96586C9.82055 3.95444 9.62968 3.74274 9.63909 3.47458L9.66127 2.8536C9.6653 2.73867 9.58331 2.6466 9.4704 2.63988L9.28223 2.62845C9.1384 2.61972 9.04297 2.49337 9.06313 2.34686C9.09808 2.0908 8.92267 1.86969 8.66863 1.85289C8.41257 1.83542 8.17332 2.03099 8.13501 2.29041C8.12963 2.32871 8.11619 2.36702 8.09536 2.4013C8.03622 2.49606 7.93272 2.54848 7.83057 2.54243L7.63634 2.53101C7.51873 2.52428 7.40649 2.60695 7.37692 2.72322L7.21495 3.35361C7.14506 3.62647 6.88161 3.82339 6.60136 3.81062L5.97231 3.78239C5.86948 3.77769 5.768 3.83817 5.72095 3.93226L5.34191 4.68497C5.31099 4.7468 5.3493 4.81334 5.41651 4.81535L10.8737 4.99681C10.9335 4.99883 10.9839 4.93901 10.9731 4.87987L10.8374 4.15135ZM8.59134 2.39054C8.51607 2.38584 8.46432 2.32065 8.47508 2.24471C8.48583 2.16876 8.55572 2.11097 8.63099 2.11634C8.70627 2.12105 8.75801 2.18624 8.74726 2.26218C8.73584 2.33745 8.66594 2.39525 8.59134 2.39054Z" fill="#E6E6E6"/>
<path d="M11.2686 6.31266L5.06543 6.17287V5.66882L11.2686 5.83818V6.31266Z" fill="#E6E6E6"/>
<path d="M11.8821 7.22795L4.28711 7.12714V6.64124L11.8821 6.77699V7.22795Z" fill="#E6E6E6"/>
<path d="M11.8112 9.09421L6.24512 9.12445V8.64728L11.8112 8.64258V9.09421Z" fill="#E6E6E6"/>
<path d="M5.7972 9.51844L4.38184 9.53121V8.29663L5.7972 8.29999V9.51844ZM4.54716 9.35379L5.67959 9.34572V8.47406L4.54716 8.47338V9.35379Z" fill="#E6E6E6"/>
<path d="M11.8112 10.9613L6.24512 11.0964V10.5977L11.8112 10.4895V10.9613Z" fill="#E6E6E6"/>
<path d="M5.7972 11.4769L4.38184 11.5159V10.3035L5.7972 10.2806V11.4769ZM4.54716 11.3351L5.67959 11.3069V10.4352L4.54716 10.4547V11.3351Z" fill="#E6E6E6"/>
<path d="M11.8112 12.808L6.24512 13.0459V12.5479L11.8112 12.3362V12.808Z" fill="#E6E6E6"/>
<path d="M5.7972 13.435L4.38184 13.5002V12.2878L5.7972 12.2388V13.435ZM4.54716 13.3161L5.67959 13.2677V12.396L4.54716 12.4357V13.3161Z" fill="#E6E6E6"/>
<path d="M11.8112 14.6542L6.24512 14.9962V14.4976L11.8112 14.1824V14.6542Z" fill="#E6E6E6"/>
<path d="M5.7972 15.3934L4.38184 15.4848V14.2724L5.7972 14.1971V15.3934ZM4.54716 15.3195L5.67959 15.2503V14.3571L4.54716 14.4169V15.3195Z" fill="#E6E6E6"/>
<path d="M5.00471 9.35375C4.97312 9.35509 4.94422 9.34098 4.92742 9.31678L4.62029 8.86515C4.5934 8.82617 4.60684 8.77308 4.65053 8.74754C4.69354 8.722 4.74999 8.73276 4.7762 8.77174L5.00269 9.10575L5.43819 8.40009C5.46305 8.35976 5.51749 8.34498 5.55983 8.36783C5.60217 8.39 5.61629 8.44108 5.59142 8.48141L5.08267 9.30939C5.06654 9.3356 5.03764 9.3524 5.00538 9.35375H5.00471Z" fill="#F85E7A"/>
<path d="M5.00471 11.3657C4.97312 11.3678 4.94422 11.3543 4.92742 11.3301L4.62029 10.8845C4.5934 10.8462 4.60684 10.7931 4.65053 10.7663C4.69354 10.7394 4.74999 10.7495 4.7762 10.7878L5.00269 11.1177L5.43819 10.404C5.46305 10.363 5.51749 10.3476 5.55983 10.3691C5.60217 10.3906 5.61629 10.441 5.59142 10.482L5.08267 11.3194C5.06654 11.3456 5.03764 11.363 5.00538 11.3657C5.00538 11.3657 5.00538 11.3657 5.00471 11.3657Z" fill="#F85E7A"/>
<path d="M5.00471 13.3411C4.97312 13.3438 4.94422 13.3304 4.92742 13.3069L4.62029 12.8667C4.5934 12.8284 4.60684 12.7753 4.65053 12.7477C4.69354 12.7202 4.74999 12.7289 4.7762 12.7672L5.00269 13.0932L5.43819 12.3714C5.46305 12.3304 5.51749 12.3136 5.55983 12.3344C5.60217 12.3552 5.61629 12.4056 5.59142 12.4466L5.08267 13.2934C5.06654 13.3203 5.03764 13.3385 5.00538 13.3411C5.00538 13.3411 5.00538 13.3411 5.00471 13.3411Z" fill="#F85E7A"/>
<path d="M5.00471 15.3398C4.97312 15.3425 4.94422 15.3304 4.92742 15.3069L4.62029 14.8727C4.5934 14.8351 4.60684 14.782 4.65053 14.7538C4.69354 14.7255 4.74999 14.7336 4.7762 14.7706L5.00269 15.0918L5.43819 14.3619C5.46305 14.3203 5.51749 14.3028 5.55983 14.3223C5.60217 14.3425 5.61629 14.3922 5.59142 14.4339L5.08267 15.2907C5.06654 15.3176 5.03764 15.3364 5.00538 15.3398C5.00538 15.3398 5.00538 15.3398 5.00471 15.3398Z" fill="#F85E7A"/>
<path d="M17.9459 16.6148C17.425 17.3271 16.3101 16.8783 12.9846 16.9037C9.50165 16.9306 8.28072 17.3893 7.7275 16.634C7.21808 15.9394 7.63991 13.4453 8.24768 12.7446C8.93767 11.9493 9.92655 11.6973 11.2112 11.5966C11.7153 11.5567 12.2647 11.5413 12.8594 11.5244C13.428 11.509 13.9343 11.4944 14.39 11.5021C15.5233 11.5221 16.3424 11.6796 17.0308 12.2897C17.9313 13.0895 18.5076 15.8472 17.9459 16.6148Z" fill="#0060A8"/>
<path d="M14.3877 11.7363C14.3854 11.7854 14.3785 11.8346 14.367 11.8799C14.1918 12.5722 13.8091 14.0198 13.4265 15.0195C13.1629 15.7094 12.8994 16.1866 12.705 16.056C12.5529 15.9545 12.3708 15.5988 12.1848 15.1316C11.8083 14.185 11.418 12.7781 11.232 12.0782C11.2113 12.0006 11.2044 11.9122 11.2098 11.83C11.7138 11.79 12.2632 11.7747 12.8579 11.7578C13.4265 11.7432 13.9321 11.7286 14.3877 11.7363Z" fill="white"/>
<path d="M11.9972 10.1719C11.9972 10.1719 12.2216 11.7839 11.9111 11.9383L12.7932 12.8996L13.6868 11.7608C13.6868 11.7608 13.3487 11.5065 13.4379 10.1719H11.9972Z" fill="#FFBB85"/>
<path d="M11.4758 7.8638C11.4443 7.90683 11.0302 9.93837 12.4624 10.1512C13.8946 10.364 13.9584 8.8619 13.94 8.22493C13.9215 7.58796 13.2661 7.35668 12.8912 7.31211C12.517 7.26832 11.5896 7.71089 11.4758 7.8638Z" fill="#FFBB85"/>
<path d="M11.3937 9.04996C11.3937 9.04996 11.3222 8.71803 11.0763 8.92472C10.8305 9.13141 11.2216 9.68155 11.5435 9.6585L11.3937 9.04996Z" fill="url(#paint0_linear_398_46176)"/>
<path d="M13.8973 8.81877C13.8558 8.84643 13.7383 9.62632 13.7383 9.62632C13.7383 9.62632 13.945 9.65091 14.0948 9.37046C14.2439 9.09077 14.3161 8.53525 13.8973 8.81877Z" fill="url(#paint1_linear_398_46176)"/>
<path d="M12.282 9.82764C12.4664 9.8845 12.7438 9.92369 13.0542 9.80613C13.0864 9.79383 13.1141 9.82918 13.0872 9.84839C12.9766 9.92753 12.8137 10.0113 12.6377 9.99822C12.4917 9.98746 12.358 9.93137 12.2551 9.87297C12.2251 9.8553 12.2482 9.81765 12.282 9.82764Z" fill="url(#paint2_linear_398_46176)"/>
<path d="M12.3633 12.7544L12.51 12.5915L13.044 12.5792L13.1747 12.7913L12.9019 13.1063H12.5623L12.3633 12.7544Z" fill="#1A1A1A"/>
<path d="M13.4272 15.0347C13.1637 15.7247 12.9001 16.1941 12.7057 16.0643C12.5536 15.9628 12.3715 15.6178 12.1855 15.1507L12.5628 13.1061H12.9024L13.4272 15.0347Z" fill="#1A1A1A"/>
<path d="M16.3545 11.876L15.1989 11.6071C15.0337 11.5687 14.8762 11.6402 14.8485 11.76L14.847 11.7662C14.8193 11.886 14.93 12.0151 15.0952 12.0535L16.2508 12.3225C16.416 12.3609 16.572 12.2948 16.6004 12.1749L16.6019 12.1688C16.6288 12.0481 16.519 11.9145 16.3545 11.876Z" fill="#004375"/>
<path d="M10.8069 11.8252C10.7793 11.7053 10.621 11.6339 10.4565 11.6723L9.30093 11.9412C9.13573 11.9796 9.02585 12.1133 9.05428 12.234L9.05582 12.2401C9.08348 12.36 9.24023 12.4261 9.40542 12.3876L10.561 12.1187C10.7262 12.0803 10.8369 11.952 10.8092 11.8313L10.8069 11.8252Z" fill="#004375"/>
<path d="M13.8515 8.27856C13.87 8.54826 13.8247 8.73497 13.7839 8.86559C13.6764 9.04692 13.7263 9.52254 13.4881 9.59399C13.3122 9.64701 12.9964 9.51024 12.7574 9.49488C12.2795 9.46414 12.1104 9.73691 11.8845 9.62703C11.7908 9.58093 11.5749 9.249 11.5288 9.00236C11.5019 8.84254 11.4835 8.62432 11.5142 8.37153C11.518 8.34157 11.5219 8.31083 11.5257 8.28087L10.8818 8.20557C10.8957 8.22554 10.9349 8.32159 10.9487 8.3431C11.0609 8.51291 11.2153 8.76416 11.3744 9.0961C11.4412 9.29587 11.5365 9.60398 11.6248 9.99431C11.7055 10.3493 11.7001 10.4215 11.7754 10.536C12.0344 10.9325 12.6252 10.8941 12.8734 10.8779C13.1585 10.8595 13.5135 10.8364 13.6917 10.5591C13.7885 10.4092 13.7763 10.274 13.7985 9.91133C13.8147 9.65239 13.8477 9.28972 13.9222 8.84945C13.9238 8.84945 13.9553 8.64661 14.039 8.39766C14.0536 8.35309 14.069 8.33158 14.0844 8.27779H13.8515V8.27856Z" fill="#001D33"/>
<path d="M12.6315 5.93213C11.6695 5.93213 10.8896 6.6275 10.8896 7.48575V7.87915H14.3742V7.48575C14.3742 6.6275 13.5943 5.93213 12.6315 5.93213Z" fill="url(#paint3_linear_398_46176)"/>
<path d="M14.3613 8.23258H10.9029C10.7861 8.23258 10.6924 8.14806 10.6924 8.04433C10.6924 7.9406 10.7869 7.85608 10.9029 7.85608H14.3613C14.4781 7.85608 14.5718 7.9406 14.5718 8.04433C14.5718 8.14882 14.4773 8.23258 14.3613 8.23258Z" fill="url(#paint4_linear_398_46176)"/>
<path d="M10.9434 8.21021C11.0164 8.50679 11.7448 8.74037 12.633 8.74037C13.5212 8.74037 14.2496 8.50756 14.3226 8.21021H10.9434Z" fill="url(#paint5_linear_398_46176)"/>
<path d="M14.8042 6.59587C14.125 6.25319 13.2252 5.86132 12.7028 5.78833C12.6828 5.78064 12.6613 5.77757 12.6374 5.77911C12.6359 5.77911 12.6336 5.77988 12.6313 5.77988C12.6298 5.77988 12.6275 5.77911 12.6251 5.77911C12.6013 5.7768 12.579 5.78064 12.5598 5.78833C12.0374 5.86132 11.1384 6.25395 10.4584 6.59587C9.74457 6.95547 10.9071 7.85599 10.9071 7.85599L12.6244 7.95126V7.95203H12.6305H12.6367V7.95126L14.354 7.85599C14.3547 7.85675 15.518 6.95624 14.8042 6.59587Z" fill="#0060A8"/>
<path d="M14.3613 8.23258H10.9029C10.7861 8.23258 10.6924 8.14806 10.6924 8.04433C10.6924 7.9406 10.7869 7.85608 10.9029 7.85608H14.3613C14.4781 7.85608 14.5718 7.9406 14.5718 8.04433C14.5718 8.14882 14.4773 8.23258 14.3613 8.23258Z" fill="#FF9F52"/>
<path d="M13.0352 6.78253C12.7394 6.78791 12.6702 6.64038 12.6702 6.64038C12.6702 6.64038 12.5995 6.78791 12.3037 6.78253C12.3083 6.92006 12.3091 7.05222 12.3091 7.16363C12.3091 7.24892 12.3467 7.33114 12.4144 7.39184C12.482 7.45254 12.5742 7.48635 12.6702 7.48635C12.7586 7.48635 12.8569 7.45254 12.9253 7.39184C12.9929 7.33114 13.0298 7.24892 13.0298 7.16363C13.029 7.05145 13.0313 6.92006 13.0352 6.78253Z" fill="#FF9F52"/>
<path d="M15.8599 13.8209C15.8599 13.9323 15.7692 14.0229 15.6578 14.0229H14.579C14.4676 14.0229 14.377 13.9323 14.377 13.8209C14.377 13.7094 14.4676 13.6188 14.579 13.6188H15.6578C15.7692 13.618 15.8599 13.7087 15.8599 13.8209Z" fill="#FF9F52"/>
</g>
<defs>
<linearGradient id="paint0_linear_398_46176" x1="11.1365" y1="8.01936" x2="11.7562" y2="14.2981" gradientUnits="userSpaceOnUse">
<stop stop-color="#FFC444"/>
<stop offset="0.9964" stop-color="#F36F56"/>
</linearGradient>
<linearGradient id="paint1_linear_398_46176" x1="13.9882" y1="8.38926" x2="13.8926" y2="14.6977" gradientUnits="userSpaceOnUse">
<stop stop-color="#FFC444"/>
<stop offset="0.9964" stop-color="#F36F56"/>
</linearGradient>
<linearGradient id="paint2_linear_398_46176" x1="12.9732" y1="7.21858" x2="12.7063" y2="9.52266" gradientUnits="userSpaceOnUse">
<stop stop-color="#FFC444"/>
<stop offset="0.9964" stop-color="#F36F56"/>
</linearGradient>
<linearGradient id="paint3_linear_398_46176" x1="11.5678" y1="4.68827" x2="13.4231" y2="9.68956" gradientUnits="userSpaceOnUse">
<stop stop-color="#FF9085"/>
<stop offset="1" stop-color="#FB6FBB"/>
</linearGradient>
<linearGradient id="paint4_linear_398_46176" x1="12.0816" y1="9.54321" x2="13.5347" y2="5.58737" gradientUnits="userSpaceOnUse">
<stop stop-color="#FF9085"/>
<stop offset="1" stop-color="#FB6FBB"/>
</linearGradient>
<linearGradient id="paint5_linear_398_46176" x1="12.1685" y1="6.96172" x2="13.1447" y2="9.59326" gradientUnits="userSpaceOnUse">
<stop stop-color="#444B8C"/>
<stop offset="0.9964" stop-color="#3E4177"/>
</linearGradient>
<clipPath id="clip0_398_46176">
<rect width="20" height="20" fill="white"/>
</clipPath>
</defs>
</svg>
