<svg width="33" height="33" viewBox="0 0 33 33" fill="none" xmlns="http://www.w3.org/2000/svg">
<g clip-path="url(#clip0_85_42808)">
<path d="M3.95586 4.37489C3.48711 4.61239 3.24336 5.25614 3.44336 5.76864C3.47461 5.85614 3.92461 6.54989 4.43711 7.30614L5.37461 8.68114H4.85586C4.39961 8.68114 4.32461 8.69989 4.20586 8.82489C4.03711 9.00614 4.03086 9.30614 4.18711 9.49989C4.29961 9.64364 4.35586 9.64989 5.18711 9.68114L6.06211 9.71239L6.59961 10.4936L7.13711 11.2749L4.27461 11.3061C1.18086 11.3374 1.25586 11.3311 1.04336 11.6874C0.955859 11.8436 0.943359 12.5936 0.943359 19.7749C0.943359 27.1249 0.949609 27.7061 1.04961 27.8749C1.28711 28.2686 0.643359 28.2436 10.7871 28.2311L20.0184 28.2124L20.2309 27.9811L20.4434 27.7436V26.6249V25.4999L20.2809 25.3749C20.0809 25.2186 19.8496 25.2499 19.6434 25.4749C19.5184 25.6124 19.5059 25.6811 19.5059 26.4686V27.3061H15.3184H11.1309V23.7749V20.2436H12.2559H13.3809V21.2874C13.3809 22.4561 13.4371 22.7561 13.6746 22.9124C13.9434 23.0936 14.2121 23.0374 14.7559 22.6874C15.0371 22.5124 15.2871 22.3686 15.3246 22.3686C15.3621 22.3686 15.6246 22.5124 15.9184 22.6936C16.2309 22.8874 16.5184 23.0124 16.6246 23.0124C16.8559 23.0124 17.1184 22.8436 17.1934 22.6436C17.2309 22.5561 17.2559 21.9811 17.2559 21.3624V20.2436H18.3809H19.5059V21.9561C19.5059 23.6499 19.5059 23.6749 19.6496 23.8249C19.8496 24.0499 20.0809 24.0811 20.2809 23.9249L20.4434 23.7999V21.8311C20.4434 20.2061 20.4246 19.8311 20.3496 19.6811C20.1434 19.2874 20.4059 19.3061 15.5871 19.3061H11.1934V16.6811V14.0561H12.1684C12.9246 14.0561 13.1309 14.0749 13.0934 14.1311C13.0621 14.1749 12.8121 14.5124 12.5246 14.8749C12.2371 15.2436 11.9871 15.6249 11.9684 15.7311C11.9121 15.9999 12.0434 16.3436 12.2559 16.4936C12.4371 16.6186 12.4996 16.6249 14.4746 16.6061L16.5059 16.5874L17.5246 16.0749L18.5371 15.5561L21.3496 15.5436C23.9059 15.5249 24.1871 15.5124 24.4121 15.4124C24.8746 15.2061 25.1871 14.7936 25.2809 14.2936L25.3246 14.0624L28.2434 14.0436L31.1621 14.0249L31.5684 13.8249C32.0496 13.5874 32.5184 13.1436 32.7434 12.7124C32.8684 12.4624 32.9059 12.2874 32.9309 11.8374C32.9621 11.1436 32.8371 10.7749 32.3809 10.1811C32.2059 9.95614 31.7184 9.26864 31.2934 8.64989C30.8684 8.03114 30.3746 7.38739 30.1996 7.22489C29.7996 6.84989 29.2371 6.58114 28.6621 6.49364C28.1371 6.40614 16.0371 6.47489 15.8684 6.56239C15.8121 6.59364 15.7434 6.67489 15.7246 6.74364C15.6684 6.91239 15.7996 7.28114 15.9309 7.34989C15.9871 7.37489 18.9184 7.41239 22.4434 7.43114C28.8121 7.46239 28.8496 7.46239 29.0934 7.59364L29.3371 7.72489L28.8434 7.75614C27.9559 7.80614 27.7184 8.06864 27.7684 8.95614C27.8059 9.61239 27.9809 10.0186 28.4059 10.4186C28.9371 10.9186 29.2184 10.9936 30.6371 10.9936H31.8246L31.9184 11.2124C32.1246 11.7186 31.9559 12.3811 31.5184 12.7436C31.0684 13.1124 31.0121 13.1186 27.8371 13.1186H24.9434L24.6559 12.8999C24.4996 12.7811 24.3246 12.6811 24.2684 12.6811C24.2121 12.6811 24.1246 12.6561 24.0746 12.6249C24.0121 12.5874 24.1996 12.4561 24.7309 12.1749C25.6371 11.6936 25.7559 11.5874 25.7559 11.2436C25.7559 11.0999 25.7246 10.9311 25.6871 10.8561C25.5246 10.5561 25.4996 10.5561 20.7434 10.5561C16.5496 10.5561 16.2746 10.5686 16.0371 10.6749C15.8371 10.7624 15.5996 11.0311 14.8809 11.9561L13.9746 13.1186H12.5559H11.1309V12.5186C11.1309 11.8561 11.0559 11.6499 10.7559 11.4686C10.6121 11.3874 10.3871 11.3686 9.46211 11.3686H8.34961L7.76836 10.5061L7.18711 9.64989L8.18711 9.61864C9.04961 9.59364 9.19961 9.56864 9.31211 9.46864C9.48711 9.31239 9.48711 8.98739 9.31211 8.83114C9.19336 8.72489 9.04336 8.70614 7.84336 8.68114L6.50586 8.64989L5.41211 7.03114C4.80586 6.13739 4.32461 5.36239 4.33086 5.31239C4.34961 5.22489 4.54961 5.21239 5.92461 5.19364C6.79336 5.18739 7.56211 5.20614 7.64336 5.23739C7.73086 5.26864 8.36836 5.72489 9.06836 6.24364C9.76211 6.76864 10.4246 7.24364 10.5309 7.31239C10.7059 7.41864 10.8621 7.43114 12.4309 7.43114H14.1371L14.2871 7.27489C14.4996 7.06864 14.5121 6.80614 14.3371 6.59989C14.2434 6.50614 14.0809 6.49364 12.6184 6.49364H11.0059L9.63086 5.46239C8.59961 4.69364 8.18086 4.41239 7.93086 4.33739C7.67461 4.26239 7.26211 4.24364 5.91836 4.24364C4.31836 4.24364 4.21211 4.24989 3.95586 4.37489ZM30.5996 9.34364C30.8434 9.71239 31.0496 10.0374 31.0559 10.0624C31.0871 10.1436 29.7684 10.1311 29.4746 10.0499C29.0059 9.91864 28.6309 9.38739 28.6309 8.84989V8.68114H29.3996H30.1621L30.5996 9.34364ZM23.8496 11.6124C23.1809 12.0249 16.4246 15.5624 16.1934 15.6186C16.0184 15.6624 15.3996 15.6811 14.5246 15.6686L13.1434 15.6499L14.7684 13.5686L16.3934 11.4936H20.2121C23.9621 11.4936 24.0309 11.4999 23.8496 11.6124ZM4.13086 13.3999C4.13086 14.3124 4.14961 14.5999 4.22461 14.7436C4.44336 15.1624 4.75586 15.1561 5.48711 14.7124L6.05586 14.3686L6.61211 14.7124C7.24961 15.0999 7.46211 15.1374 7.73711 14.9061L7.91211 14.7561L7.94336 13.5124L7.97461 12.2749L9.11836 12.2561L10.2559 12.2436V15.7749V19.3061H6.06836H1.88086V15.7749V12.2436H3.00586H4.13086V13.3999ZM7.06836 13.0936C7.06836 13.7499 7.04961 13.9311 6.99336 13.8936C6.94961 13.8686 6.76836 13.7499 6.58711 13.6374C6.16211 13.3686 5.93711 13.3686 5.50586 13.6499C5.31836 13.7686 5.12461 13.8686 5.08711 13.8686C5.02461 13.8686 5.00586 13.6749 5.00586 13.0999C5.00586 12.6749 5.02461 12.3061 5.04961 12.2874C5.06836 12.2624 5.53711 12.2436 6.08086 12.2436H7.06836V13.0936ZM24.0621 13.5874C24.3934 13.7561 24.4371 14.1874 24.1496 14.4499C24.0371 14.5499 23.8684 14.5561 22.1684 14.5436L20.3184 14.5249L21.2684 14.0124L22.2246 13.4999L23.0559 13.4936C23.6684 13.4936 23.9309 13.5186 24.0621 13.5874ZM4.13086 21.4311V22.6186L4.30586 22.8124C4.57461 23.1124 4.81836 23.0874 5.46211 22.6936C5.74961 22.5124 6.01836 22.3686 6.05586 22.3686C6.09336 22.3686 6.34336 22.5061 6.61211 22.6749C6.88086 22.8436 7.15586 22.9874 7.22461 22.9936C7.50586 23.0249 7.64336 22.9874 7.78711 22.8374C7.94336 22.6874 7.94336 22.6811 7.94336 21.4624V20.2436H9.09961H10.2559V23.7749V27.3061H6.06836H1.88086V23.7749V20.2436H3.00586H4.13086V21.4311ZM7.06836 21.0561C7.06836 21.4999 7.05586 21.8686 7.03711 21.8686C7.02461 21.8686 6.85586 21.7686 6.66211 21.6499C6.13711 21.3124 6.01836 21.3061 5.51211 21.6124C5.27461 21.7499 5.06211 21.8686 5.04336 21.8686C5.02461 21.8686 5.00586 21.4999 5.00586 21.0561V20.2436H6.03711H7.06836V21.0561ZM16.3809 21.0561C16.3809 21.4999 16.3621 21.8686 16.3434 21.8686C16.3246 21.8686 16.1121 21.7499 15.8746 21.6124C15.3684 21.3061 15.2496 21.3124 14.7246 21.6499C14.5309 21.7686 14.3621 21.8686 14.3496 21.8686C14.3309 21.8686 14.3184 21.4999 14.3184 21.0561V20.2436H15.3496H16.3809V21.0561Z" fill="#151515"/>
<path d="M2.39376 12.2874C2.69376 12.2999 3.20001 12.2999 3.51876 12.2874C3.83751 12.2811 3.59376 12.2686 2.97501 12.2686C2.35626 12.2686 2.09376 12.2811 2.39376 12.2874Z" fill="#6B4040"/>
<path d="M9.09961 12.2874L10.1934 12.3062L10.2121 15.8249L10.2246 19.3374V15.8062V12.2749H9.11211L8.00586 12.2687L9.09961 12.2874Z" fill="#6B4040"/>
<path d="M10.2059 23.7249L10.1934 27.2436L6.02461 27.2624L1.84961 27.2749L6.02461 27.2936C9.31836 27.2999 10.2059 27.2874 10.2246 27.2249C10.2434 27.1874 10.2496 25.5874 10.2434 23.6811L10.2246 20.2124L10.2059 23.7249Z" fill="#6B4040"/>
<path d="M13.2741 27.2874C14.4366 27.2999 16.3241 27.2999 17.4616 27.2874C18.6054 27.2811 17.6554 27.2749 15.3491 27.2749C13.0429 27.2749 12.1116 27.2811 13.2741 27.2874Z" fill="#6B4040"/>
<path d="M8.75586 15.8062V19.3062H9.47461H10.1934V15.8062V12.3062H9.47461H8.75586V15.8062Z" fill="#EC966B"/>
<path d="M8.75586 23.7437V27.2437H9.47461H10.1934V23.7437V20.2437H9.47461H8.75586V23.7437Z" fill="#EC966B"/>
<path d="M18.0684 23.7437V27.2437H18.7871H19.5059V26.3749C19.5059 25.5062 19.5059 25.4999 19.6684 25.3749C19.7621 25.2999 19.8746 25.2437 19.9184 25.2437C19.9871 25.2437 20.0059 25.1124 20.0059 24.6499C20.0059 24.1874 19.9871 24.0562 19.9184 24.0562C19.8746 24.0562 19.7621 23.9999 19.6684 23.9249L19.5059 23.7999V22.0187V20.2437H18.7871H18.0684V23.7437Z" fill="#EC966B"/>
<path d="M1.88086 15.8062V19.3062H5.31836H8.75586V15.8062V12.3062H8.38086H8.00586V13.4624C8.00586 14.6999 7.97461 14.8499 7.69336 15.0124C7.39961 15.1874 7.19336 15.1437 6.60586 14.7749L6.05586 14.4312L5.49336 14.7749C5.17461 14.9624 4.85586 15.1187 4.78086 15.1187C4.53086 15.1187 4.32461 14.9999 4.19336 14.7937C4.08086 14.6062 4.06836 14.4749 4.06836 13.4437V12.3062H2.97461H1.88086V15.8062Z" fill="#ECC196"/>
<path d="M1.88086 23.7437V27.2437H5.31836H8.75586V23.7437V20.2437H8.38086H8.00586V21.4687V22.6937L7.82461 22.8749C7.53086 23.1624 7.22461 23.1312 6.59961 22.7437C6.32461 22.5687 6.07461 22.4312 6.04961 22.4312C6.01836 22.4312 5.76836 22.5687 5.48711 22.7437C4.90586 23.1062 4.57461 23.1562 4.32461 22.9249C4.09961 22.7124 4.06836 22.5374 4.06836 21.3624V20.2437H2.97461H1.88086V23.7437Z" fill="#ECC196"/>
<path d="M11.1934 23.7437V27.2437H14.6309H18.0684V23.7437V20.2437H17.6996H17.3246L17.3059 21.4687L17.2871 22.6937L17.0809 22.8749C16.7746 23.1499 16.5246 23.1249 15.8934 22.7437C15.6059 22.5687 15.3559 22.4312 15.3246 22.4312C15.2996 22.4312 15.0559 22.5687 14.7746 22.7437C14.1434 23.1312 13.8496 23.1624 13.5621 22.8749L13.3809 22.6937V21.4687V20.2437H12.2871H11.1934V23.7437Z" fill="#ECC196"/>
<path d="M29.1368 8.78738C29.1368 8.81863 29.3306 9.10613 29.5618 9.43113L29.9806 10.0249L30.4931 10.0436L31.0118 10.0624L30.5681 9.39988L30.1306 8.74363H29.6306C29.3556 8.74363 29.1306 8.76238 29.1368 8.78738Z" fill="#1596C1"/>
<path d="M20.3809 12.8936C18.9559 13.6561 17.2246 14.5874 16.5371 14.9561L15.2871 15.6249L15.7871 15.6061L16.2871 15.5874L20.0371 13.5936C22.0996 12.4999 23.8121 11.5749 23.8496 11.5436C23.8809 11.5186 23.6996 11.4936 23.4434 11.4999L22.9746 11.5061L20.3809 12.8936Z" fill="#1596C1"/>
<path d="M30.2751 13.0999C30.3314 13.1124 30.4314 13.1124 30.4939 13.0999C30.5501 13.0811 30.5001 13.0686 30.3814 13.0686C30.2626 13.0686 30.2126 13.0811 30.2751 13.0999Z" fill="#1596C1"/>
<path d="M28.6934 8.93115C28.6934 9.15615 28.8434 9.53115 28.9934 9.6999C29.1559 9.88115 29.5434 10.0562 29.7809 10.0562H29.9996L29.5496 9.3999C29.1371 8.7999 29.0809 8.7499 28.8996 8.74365C28.7121 8.74365 28.6934 8.7624 28.6934 8.93115Z" fill="#4096C1"/>
<path d="M16.2363 11.7562C16.0738 11.9624 13.555 15.1874 13.2363 15.5999C13.1925 15.6624 13.3863 15.6812 14.1675 15.6812H15.1613L19.03 13.6249C21.155 12.4874 22.9113 11.5499 22.93 11.5312C22.9488 11.5124 21.4988 11.4937 19.705 11.4937H16.4488L16.2363 11.7562Z" fill="#4096C1"/>
<path d="M4.39239 5.3499C4.40489 5.4124 4.89864 6.1874 5.49864 7.06865L6.59239 8.68115H7.91739H9.24864L9.37364 8.84365C9.61114 9.14365 9.52364 9.49365 9.18614 9.6124C9.07364 9.6499 8.61114 9.68115 8.15489 9.68115C7.69239 9.68115 7.31739 9.6999 7.31739 9.7249C7.32364 9.75615 7.55489 10.1124 7.83614 10.5249L8.35489 11.2749L9.51114 11.3062C10.4924 11.3312 10.6924 11.3562 10.8424 11.4499C11.0986 11.6187 11.1924 11.9124 11.1924 12.5249V13.0562L12.5861 13.0499H13.9736L14.8674 11.8937C15.3986 11.2124 15.8424 10.6999 15.9611 10.6312C16.1424 10.5312 16.5174 10.5249 20.5361 10.5062C22.9424 10.4937 25.0361 10.5062 25.1861 10.5249C25.5861 10.5874 25.8174 10.8312 25.8174 11.1999C25.8174 11.5687 25.6799 11.7312 25.1174 12.0249C24.8674 12.1562 24.5361 12.3312 24.3861 12.4187L24.1111 12.5812L24.2924 12.6374C24.3924 12.6687 24.5799 12.7749 24.7049 12.8749L24.9361 13.0562H27.5611H30.1861L30.3486 12.8812C30.7236 12.4937 30.9049 11.8124 30.7736 11.3062L30.7174 11.0874L29.9986 11.0562C29.4049 11.0249 29.2236 10.9937 28.9361 10.8562C28.1861 10.5124 27.7611 9.8624 27.7111 8.9749C27.6674 8.34365 27.7736 8.05615 28.0986 7.8624L28.3236 7.7249L28.1799 7.56865L28.0361 7.4124L22.0986 7.4499C15.5674 7.4874 15.7924 7.4999 15.7174 7.11865L15.6799 6.93115H15.1049H14.5299L14.4361 7.13115C14.2861 7.4874 14.2111 7.49365 12.3174 7.48115L10.5986 7.4624L9.19864 6.4124C8.42989 5.83115 7.72989 5.33115 7.64864 5.2999C7.56739 5.26865 6.79239 5.24365 5.93614 5.24365C4.47989 5.24365 4.37364 5.2499 4.39239 5.3499Z" fill="#4CB3FF"/>
</g>
</svg>
