<svg width="40" height="40" viewBox="0 0 40 40" fill="none" xmlns="http://www.w3.org/2000/svg">
<g clip-path="url(#clip0_1_3315)">
<path d="M40 0H0V40H40V0Z" fill="white"/>
<path d="M25.97 7.5301L5.00691 6.3177C4.52436 6.2935 4.08887 6.8204 4.08887 7.26396V34.2581C4.08887 34.871 4.71523 34.9947 5.19777 34.9463L5.33622 34.7312L25.9686 32.8253C26.3477 32.7863 26.6541 32.4395 26.6541 32.0497V8.26937C26.6555 7.87958 26.349 7.54892 25.97 7.5301Z" fill="#004375"/>
<path d="M26.3147 7.31609L5.30997 6.28246C4.82742 6.25826 4.43359 6.60102 4.43359 7.04727V34.2525C4.43359 34.6987 4.82742 35.0186 5.30997 34.9702L26.3147 32.8089C26.6937 32.7699 27.0002 32.4204 27.0002 32.0266V8.06074C27.0002 7.66825 26.6951 7.33491 26.3147 7.31609Z" fill="#E6E6E6"/>
<path opacity="0.3" d="M5.31005 34.5994C5.04929 34.6263 4.83691 34.4516 4.83691 34.211V7.06494C4.83691 6.82434 5.04929 6.63885 5.31005 6.65095L26.3148 7.64292C26.5204 7.65233 26.6857 7.83378 26.6857 8.04616V32.055C26.6857 32.2674 26.5191 32.4569 26.3148 32.4784L5.31005 34.5994Z" fill="#94C9FF"/>
<path d="M24.9604 31.8358L6.99609 33.5657V8.52051L24.9604 9.19795V31.8358Z" fill="white"/>
<path d="M21.6106 8.15476C21.577 7.97196 21.4291 7.84292 21.245 7.83485L20.0971 7.78378C19.5769 7.76093 19.1952 7.33753 19.214 6.80122L19.2584 5.55924C19.2664 5.3294 19.1025 5.14525 18.8766 5.13181L18.5003 5.10896C18.2126 5.09149 18.0218 4.83879 18.0621 4.54577C18.132 4.03366 17.7812 3.59144 17.2731 3.55783C16.761 3.52289 16.2825 3.91403 16.2059 4.43286C16.1951 4.50948 16.1682 4.58609 16.1266 4.65464C16.0083 4.84417 15.8013 4.94901 15.597 4.93691L15.2085 4.91406C14.9733 4.90062 14.7488 5.06595 14.6897 5.29848L14.3657 6.55928C14.226 7.10499 13.6991 7.49882 13.1386 7.47328L11.8805 7.41683C11.6748 7.40742 11.4718 7.52839 11.3777 7.71657L10.6197 9.222C10.5363 9.48276 10.6707 9.5298 10.699 9.55803C10.7487 9.60911 10.6815 9.48007 10.7702 9.48276L21.6845 9.84567C21.8042 9.84971 21.905 9.73008 21.8835 9.61179L21.6106 8.15476ZM17.1185 4.63314C16.968 4.62373 16.8645 4.49335 16.886 4.34146C16.9075 4.18958 17.0473 4.07398 17.1978 4.08473C17.3484 4.09414 17.4519 4.22452 17.4304 4.37641C17.4089 4.52695 17.2691 4.64255 17.1185 4.63314Z" fill="#A7A7A7"/>
<path d="M21.6738 8.30271C21.6402 8.11991 21.4923 7.99087 21.3082 7.9828L20.1603 7.93173C19.6401 7.90888 19.2584 7.48548 19.2772 6.94917L19.3216 5.70719C19.3296 5.47735 19.1656 5.2932 18.9398 5.27976L18.5635 5.25691C18.2758 5.23944 18.085 4.98674 18.1253 4.69372C18.1952 4.18161 17.8444 3.73939 17.3363 3.70578C16.8242 3.67084 16.3457 4.06198 16.269 4.58081C16.2583 4.65743 16.2314 4.73404 16.1897 4.80259C16.0715 4.99212 15.8645 5.09696 15.6602 5.08486L15.2717 5.06201C15.0365 5.04857 14.812 5.2139 14.7529 5.44643L14.4289 6.70723C14.2891 7.25294 13.7622 7.64677 13.2017 7.62123L11.9436 7.56478C11.738 7.55537 11.535 7.67634 11.4409 7.86452L10.6828 9.36995C10.621 9.49361 10.6976 9.62668 10.832 9.63071L21.7464 9.99362C21.866 9.99766 21.9668 9.87803 21.9453 9.75974L21.6738 8.30271ZM17.1817 4.78109C17.0312 4.77168 16.9277 4.6413 16.9492 4.48941C16.9707 4.33752 17.1105 4.22193 17.261 4.23268C17.4116 4.24209 17.5151 4.37247 17.4935 4.52436C17.4707 4.6749 17.3309 4.7905 17.1817 4.78109Z" fill="#E6E6E6"/>
<path d="M22.5352 12.6256L10.1289 12.346V11.3379L22.5352 11.6766V12.6256Z" fill="#E6E6E6"/>
<path d="M23.7633 14.4561L8.57324 14.2545V13.2827L23.7633 13.5542V14.4561Z" fill="#E6E6E6"/>
<path d="M23.6213 18.1884L12.4893 18.2489V17.2946L23.6213 17.2852V18.1884Z" fill="#E6E6E6"/>
<path d="M11.5934 19.0369L8.7627 19.0624V16.5933L11.5934 16.6V19.0369ZM9.09335 18.7076L11.3582 18.6914V16.9481L9.09335 16.9468V18.7076Z" fill="#E6E6E6"/>
<path d="M23.6213 21.9231L12.4893 22.1932V21.1959L23.6213 20.9795V21.9231Z" fill="#E6E6E6"/>
<path d="M11.5934 22.9541L8.7627 23.032V20.6072L11.5934 20.5615V22.9541ZM9.09335 22.6705L11.3582 22.614V20.8707L9.09335 20.9097V22.6705Z" fill="#E6E6E6"/>
<path d="M23.6213 25.6164L12.4893 26.0923V25.0963L23.6213 24.6729V25.6164Z" fill="#E6E6E6"/>
<path d="M11.5934 26.8706L8.7627 27.001V24.5761L11.5934 24.478V26.8706ZM9.09335 26.6327L11.3582 26.5359V24.7926L9.09335 24.8719V26.6327Z" fill="#E6E6E6"/>
<path d="M23.6213 29.3088L12.4893 29.993V28.9956L23.6213 28.3652V29.3088Z" fill="#E6E6E6"/>
<path d="M11.5934 30.7871L8.7627 30.9699V28.5451L11.5934 28.3945V30.7871ZM9.09335 30.6392L11.3582 30.5008V28.7144L9.09335 28.8341V30.6392Z" fill="#E6E6E6"/>
<path d="M10.0084 18.7077C9.94526 18.7104 9.88747 18.6822 9.85386 18.6338L9.23959 17.7306C9.18583 17.6526 9.21271 17.5464 9.30008 17.4953C9.3861 17.4443 9.49901 17.4658 9.55143 17.5437L10.0044 18.2118L10.8754 16.8004C10.9251 16.7198 11.034 16.6902 11.1187 16.7359C11.2034 16.7803 11.2316 16.8824 11.1819 16.9631L10.1644 18.619C10.1321 18.6714 10.0743 18.705 10.0098 18.7077H10.0084Z" fill="#F85E7A"/>
<path d="M10.0084 22.732C9.94526 22.736 9.88747 22.7091 9.85386 22.6607L9.23959 21.7696C9.18583 21.6929 9.21271 21.5868 9.30008 21.533C9.3861 21.4792 9.49901 21.4994 9.55143 21.576L10.0044 22.236L10.8754 20.8085C10.9251 20.7265 11.034 20.6956 11.1187 20.7386C11.2034 20.7816 11.2316 20.8824 11.1819 20.9644L10.1644 22.6392C10.1321 22.6916 10.0743 22.7266 10.0098 22.732C10.0098 22.732 10.0098 22.732 10.0084 22.732Z" fill="#F85E7A"/>
<path d="M10.0084 26.6823C9.94526 26.6877 9.88747 26.6608 9.85386 26.6138L9.23959 25.7333C9.18583 25.6567 9.21271 25.5505 9.30008 25.4954C9.3861 25.4403 9.49901 25.4578 9.55143 25.5344L10.0044 26.1863L10.8754 24.7427C10.9251 24.6607 11.034 24.6271 11.1187 24.6688C11.2034 24.7105 11.2316 24.8113 11.1819 24.8933L10.1644 26.5869C10.1321 26.6406 10.0743 26.6769 10.0098 26.6823C10.0098 26.6823 10.0098 26.6823 10.0084 26.6823Z" fill="#F85E7A"/>
<path d="M10.0084 30.6798C9.94526 30.6852 9.88747 30.661 9.85386 30.614L9.23959 29.7457C9.18583 29.6704 9.21271 29.5642 9.30008 29.5078C9.3861 29.4513 9.49901 29.4674 9.55143 29.5414L10.0044 30.1839L10.8754 28.7241C10.9251 28.6408 11.034 28.6058 11.1187 28.6448C11.2034 28.6851 11.2316 28.7846 11.1819 28.868L10.1644 30.5817C10.1321 30.6355 10.0743 30.6731 10.0098 30.6798C10.0098 30.6798 10.0098 30.6798 10.0084 30.6798Z" fill="#F85E7A"/>
<path d="M35.8919 33.2296C34.85 34.6541 32.6202 33.7567 25.9692 33.8074C19.0033 33.8612 16.5614 34.7786 15.455 33.268C14.4362 31.8788 15.2798 26.8906 16.4954 25.4891C17.8753 23.8986 19.8531 23.3946 22.4225 23.1932C23.4306 23.1133 24.5293 23.0826 25.7188 23.0488C26.8559 23.0181 27.8686 22.9889 28.7799 23.0042C31.0466 23.0442 32.6847 23.3592 34.0616 24.5794C35.8627 26.1791 37.0152 31.6944 35.8919 33.2296Z" fill="#0060A8"/>
<path d="M28.7754 23.4725C28.7708 23.5709 28.757 23.6692 28.7339 23.7599C28.3835 25.1445 27.6182 28.0396 26.853 30.0389C26.3259 31.4189 25.7988 32.3732 25.41 32.1119C25.1057 31.9091 24.7415 31.1976 24.3696 30.2633C23.6166 28.37 22.836 25.5563 22.4641 24.1563C22.4226 24.0011 22.4088 23.8244 22.4195 23.66C23.4276 23.5801 24.5264 23.5493 25.7158 23.5155C26.853 23.4863 27.8641 23.4571 28.7754 23.4725Z" fill="white"/>
<path d="M23.9944 20.3438C23.9944 20.3438 24.4431 23.5678 23.8223 23.8767L25.5864 25.7991L27.3736 23.5217C27.3736 23.5217 26.6975 23.013 26.8757 20.3438H23.9944Z" fill="#FFBB85"/>
<path d="M22.9517 15.7276C22.8887 15.8137 22.0604 19.8767 24.9248 20.3024C27.7893 20.7281 27.9168 17.7238 27.88 16.4499C27.8431 15.1759 26.5323 14.7134 25.7823 14.6242C25.034 14.5366 23.1791 15.4218 22.9517 15.7276Z" fill="#FFBB85"/>
<path d="M22.7873 18.0999C22.7873 18.0999 22.6444 17.4361 22.1527 17.8494C21.6609 18.2628 22.4431 19.3631 23.087 19.317L22.7873 18.0999Z" fill="url(#paint0_linear_1_3315)"/>
<path d="M27.7947 17.6378C27.7117 17.6931 27.4766 19.2529 27.4766 19.2529C27.4766 19.2529 27.8899 19.3021 28.1896 18.7412C28.4877 18.1818 28.6322 17.0707 27.7947 17.6378Z" fill="url(#paint1_linear_1_3315)"/>
<path d="M24.5649 19.655C24.9337 19.7688 25.4885 19.8471 26.1093 19.612C26.1739 19.5874 26.2292 19.6581 26.1754 19.6965C25.9541 19.8548 25.6283 20.0223 25.2764 19.9962C24.9844 19.9747 24.7171 19.8625 24.5111 19.7457C24.4512 19.7104 24.4973 19.6351 24.5649 19.655Z" fill="url(#paint2_linear_1_3315)"/>
<path d="M24.7266 25.5086L25.0201 25.1828L26.0881 25.1582L26.3493 25.5823L25.8038 26.2124H25.1246L24.7266 25.5086Z" fill="#1A1A1A"/>
<path d="M26.8544 30.0691C26.3273 31.4491 25.8002 32.388 25.4115 32.1283C25.1072 31.9254 24.743 31.2355 24.3711 30.3011L25.1256 26.2119H25.8049L26.8544 30.0691Z" fill="#1A1A1A"/>
<path d="M32.7081 23.7521L30.3969 23.2142C30.0665 23.1374 29.7514 23.2803 29.6961 23.52L29.693 23.5323C29.6377 23.772 29.859 24.0302 30.1894 24.1071L32.5006 24.6449C32.831 24.7217 33.143 24.5896 33.1998 24.3499L33.2029 24.3376C33.2567 24.0963 33.037 23.8289 32.7081 23.7521Z" fill="#004375"/>
<path d="M21.6138 23.6504C21.5585 23.4107 21.2419 23.2678 20.9131 23.3446L18.6019 23.8824C18.2715 23.9593 18.0517 24.2267 18.1086 24.4679L18.1116 24.4802C18.167 24.72 18.4805 24.8521 18.8108 24.7753L21.1221 24.2374C21.4525 24.1606 21.6738 23.904 21.6184 23.6627L21.6138 23.6504Z" fill="#004375"/>
<path d="M27.7021 16.5571C27.739 17.0965 27.6483 17.4699 27.5669 17.7312C27.3518 18.0938 27.4516 19.0451 26.9753 19.188C26.6233 19.294 25.9918 19.0205 25.5138 18.9898C24.558 18.9283 24.2199 19.4738 23.7681 19.2541C23.5806 19.1619 23.1488 18.498 23.0566 18.0047C23.0028 17.6851 22.9659 17.2486 23.0274 16.7431C23.0351 16.6831 23.0428 16.6217 23.0505 16.5617L21.7627 16.4111C21.7904 16.4511 21.8687 16.6432 21.8964 16.6862C22.1208 17.0258 22.4296 17.5283 22.7477 18.1922C22.8814 18.5917 23.072 19.208 23.2487 19.9886C23.4101 20.6986 23.3993 20.843 23.5499 21.072C24.0678 21.865 25.2495 21.7881 25.7459 21.7558C26.316 21.719 27.026 21.6729 27.3825 21.1181C27.5761 20.8184 27.5515 20.548 27.5961 19.8227C27.6284 19.3048 27.6944 18.5794 27.8435 17.6989C27.8466 17.6989 27.9096 17.2932 28.0771 16.7953C28.1063 16.7062 28.137 16.6632 28.1677 16.5556H27.7021V16.5571Z" fill="#001D33"/>
<path d="M25.263 11.8647C23.3391 11.8647 21.7793 13.2555 21.7793 14.972V15.7588H28.7483V14.972C28.7483 13.2555 27.1886 11.8647 25.263 11.8647Z" fill="url(#paint3_linear_1_3315)"/>
<path d="M28.7236 16.4654H21.8068C21.5732 16.4654 21.3857 16.2964 21.3857 16.0889C21.3857 15.8814 21.5748 15.7124 21.8068 15.7124H28.7236C28.9572 15.7124 29.1446 15.8814 29.1446 16.0889C29.1446 16.2979 28.9556 16.4654 28.7236 16.4654Z" fill="url(#paint4_linear_1_3315)"/>
<path d="M21.8867 16.4204C22.0327 17.0136 23.4895 17.4807 25.266 17.4807C27.0424 17.4807 28.4992 17.0151 28.6452 16.4204H21.8867Z" fill="url(#paint5_linear_1_3315)"/>
<path d="M29.6094 13.192C28.251 12.5066 26.4515 11.7229 25.4065 11.5769C25.3665 11.5615 25.3235 11.5554 25.2759 11.5585C25.2728 11.5585 25.2682 11.56 25.2636 11.56C25.2605 11.56 25.2559 11.5585 25.2513 11.5585C25.2036 11.5538 25.1591 11.5615 25.1207 11.5769C24.0757 11.7229 22.2777 12.5082 20.9177 13.192C19.4901 13.9112 21.8152 15.7122 21.8152 15.7122L25.2497 15.9028V15.9043H25.262H25.2743V15.9028L28.7089 15.7122C28.7104 15.7138 31.037 13.9127 29.6094 13.192Z" fill="#0060A8"/>
<path d="M28.7236 16.4654H21.8068C21.5732 16.4654 21.3857 16.2964 21.3857 16.0889C21.3857 15.8814 21.5748 15.7124 21.8068 15.7124H28.7236C28.9572 15.7124 29.1446 15.8814 29.1446 16.0889C29.1446 16.2979 28.9556 16.4654 28.7236 16.4654Z" fill="#FF9F52"/>
<path d="M26.0714 13.5651C25.4797 13.5758 25.3414 13.2808 25.3414 13.2808C25.3414 13.2808 25.2 13.5758 24.6084 13.5651C24.6176 13.8401 24.6192 14.1044 24.6192 14.3273C24.6192 14.4978 24.6945 14.6623 24.8297 14.7837C24.9649 14.9051 25.1493 14.9727 25.3414 14.9727C25.5181 14.9727 25.7148 14.9051 25.8516 14.7837C25.9868 14.6623 26.0606 14.4978 26.0606 14.3273C26.0591 14.1029 26.0637 13.8401 26.0714 13.5651Z" fill="#FF9F52"/>
<path d="M31.7208 27.6415C31.7208 27.8643 31.5394 28.0456 31.3166 28.0456H29.159C28.9362 28.0456 28.7549 27.8643 28.7549 27.6415C28.7549 27.4186 28.9362 27.2373 29.159 27.2373H31.3166C31.5394 27.2358 31.7208 27.4171 31.7208 27.6415Z" fill="#FF9F52"/>
</g>
<defs>
<linearGradient id="paint0_linear_1_3315" x1="22.2729" y1="16.0387" x2="23.5124" y2="28.5962" gradientUnits="userSpaceOnUse">
<stop stop-color="#FFC444"/>
<stop offset="0.9964" stop-color="#F36F56"/>
</linearGradient>
<linearGradient id="paint1_linear_1_3315" x1="27.9763" y1="16.7788" x2="27.7851" y2="29.3957" gradientUnits="userSpaceOnUse">
<stop stop-color="#FFC444"/>
<stop offset="0.9964" stop-color="#F36F56"/>
</linearGradient>
<linearGradient id="paint2_linear_1_3315" x1="25.9473" y1="14.4369" x2="25.4135" y2="19.0451" gradientUnits="userSpaceOnUse">
<stop stop-color="#FFC444"/>
<stop offset="0.9964" stop-color="#F36F56"/>
</linearGradient>
<linearGradient id="paint3_linear_1_3315" x1="23.1356" y1="9.37702" x2="26.8462" y2="19.3796" gradientUnits="userSpaceOnUse">
<stop stop-color="#FF9085"/>
<stop offset="1" stop-color="#FB6FBB"/>
</linearGradient>
<linearGradient id="paint4_linear_1_3315" x1="24.1641" y1="19.0867" x2="27.0704" y2="11.175" gradientUnits="userSpaceOnUse">
<stop stop-color="#FF9085"/>
<stop offset="1" stop-color="#FB6FBB"/>
</linearGradient>
<linearGradient id="paint5_linear_1_3315" x1="24.3371" y1="13.9234" x2="26.2895" y2="19.1865" gradientUnits="userSpaceOnUse">
<stop stop-color="#444B8C"/>
<stop offset="0.9964" stop-color="#3E4177"/>
</linearGradient>
<clipPath id="clip0_1_3315">
<rect width="40" height="40" fill="white"/>
</clipPath>
</defs>
</svg>
