<svg width="12" height="12" viewBox="0 0 12 12" fill="none" xmlns="http://www.w3.org/2000/svg">
<g clip-path="url(#clip0_3484_53110)">
<path d="M1.14091 -0.400002C1.0324 -0.342555 1.02601 -0.029789 1.02601 4.7V9.74255H0.591972C0.336653 9.74255 0.126015 9.77447 0.0813341 9.81915C-0.0399425 9.94042 -0.0207936 11.3 0.106866 11.4277C0.196228 11.517 0.777079 11.5298 5.55793 11.5298C10.3388 11.5298 10.9196 11.517 11.009 11.4277C11.0984 11.3447 11.1111 11.0128 11.1111 8.75319C11.1111 6.27021 11.1047 6.16808 10.9898 6.10425C10.7984 6.00851 5.86431 6.01489 5.76219 6.11702C5.70474 6.17447 5.68559 6.67234 5.68559 7.96808V9.74255H4.18559H2.68559V5.46596V1.18936H4.66431H6.64304V3.55106V5.91276H6.96218H7.28133V3.33404V0.748935L7.14091 0.65319C7.01963 0.563828 6.67495 0.551062 4.67708 0.551062C3.20261 0.551062 2.31538 0.576594 2.2324 0.614892C2.11112 0.678721 2.11112 0.799998 2.11112 5.21064V9.74255H1.8558H1.60048V4.95532V0.168083H4.66431H7.72814V3.04042V5.91276H8.04729H8.36644V2.8234V-0.272342L8.22601 -0.368087C8.09836 -0.457449 7.65793 -0.470215 4.66431 -0.470215C2.46219 -0.463832 1.21112 -0.444682 1.14091 -0.400002ZM7.35793 7.42553C7.37708 8.14681 7.38346 8.17872 7.5175 8.19787C7.5941 8.21064 7.72814 8.17234 7.8175 8.11489C7.96431 8.01915 7.98984 8.01915 8.12389 8.10851C8.30899 8.24255 8.48772 8.23617 8.63453 8.10213C8.74304 8.00638 8.76219 8.00638 8.97282 8.12127C9.3558 8.32553 9.41325 8.22979 9.43878 7.38723L9.45793 6.67872H9.96218H10.4728V8.7851V10.8915H8.36644H6.26006V8.7851V6.67872H6.80261H7.33878L7.35793 7.42553ZM8.94091 7.1C8.94091 7.43191 8.92176 7.51489 8.85155 7.48936C8.80687 7.47021 8.67282 7.51489 8.55793 7.57872C8.36644 7.7 8.34729 7.7 8.2324 7.59787C8.16857 7.54042 8.04091 7.48936 7.95155 7.48936C7.79836 7.48936 7.79197 7.47659 7.79197 7.08723V6.67872H8.36644H8.94091V7.1ZM5.68559 10.6043V10.8915H3.16431H0.643036V10.6043V10.317H3.16431H5.68559V10.6043Z" fill="#7C7C7C"/>
<path d="M6.53459 9.01466C6.44522 9.25722 6.59203 9.32743 7.25586 9.34658C8.07927 9.37211 8.18778 9.3402 8.16225 9.11679L8.1431 8.94445L7.35799 8.9253C6.67501 8.91254 6.57288 8.9253 6.53459 9.01466Z" fill="#7C7C7C"/>
<path d="M6.59198 9.69168C6.5473 9.73637 6.51538 9.94062 6.51538 10.1576C6.51538 10.3747 6.5473 10.5789 6.59198 10.6236C6.6941 10.7257 7.42176 10.7257 7.52389 10.6236C7.63879 10.5087 7.61964 9.83849 7.49836 9.71722C7.37708 9.59594 6.70687 9.57679 6.59198 9.69168Z" fill="#7C7C7C"/>
<path d="M7.7984 9.70423C7.75372 9.76168 7.72819 9.96594 7.74096 10.234L7.76011 10.6681L8.20691 10.6872C8.57074 10.7 8.66649 10.6872 8.73032 10.5979C8.8516 10.4319 8.83883 9.83828 8.71117 9.717C8.58351 9.58296 7.90691 9.57658 7.7984 9.70423Z" fill="#7C7C7C"/>
<path d="M3.25371 5.65129C3.1452 5.7598 3.0686 5.90661 3.0686 6.00236C3.0686 6.55768 3.64945 6.81299 4.03243 6.43002C4.16009 6.30236 4.21754 6.18108 4.21754 6.04065C4.21754 5.90023 4.16009 5.77895 4.03243 5.65129C3.77711 5.40236 3.50903 5.40236 3.25371 5.65129ZM3.67499 6.10448C3.64307 6.15555 3.60477 6.15555 3.56648 6.11725C3.52818 6.07895 3.5218 6.01512 3.54733 5.97682C3.57924 5.92576 3.61754 5.92576 3.65584 5.96406C3.69414 6.00236 3.70052 6.06619 3.67499 6.10448Z" fill="#7C7C7C"/>
</g>
<defs>
<clipPath id="clip0_3484_53110">
<rect width="12" height="12" fill="white"/>
</clipPath>
</defs>
</svg>
