<svg width="40" height="40" viewBox="0 0 40 40" fill="none" xmlns="http://www.w3.org/2000/svg">
<path d="M31 20H30" stroke="#004375"/>
<path d="M7 33H6" stroke="#004375"/>
<path d="M29 20H28" stroke="#004375"/>
<path d="M5 33H4" stroke="#004375"/>
<rect x="4" y="4" width="13" height="10" rx="1" fill="#F17F53"/>
<rect x="8" y="4" width="5" height="3" fill="#FF9F52"/>
<rect x="6" y="11" width="1" height="1" fill="#FF9F52"/>
<rect x="8" y="11" width="1" height="1" fill="#FF9F52"/>
<rect x="10" y="11" width="1" height="1" fill="#FF9F52"/>
<rect x="23" y="26" width="13" height="10" rx="1" fill="#F17F53"/>
<rect x="27" y="26" width="5" height="3" fill="#FF9F52"/>
<rect x="25" y="33" width="1" height="1" fill="#FF9F52"/>
<rect x="27" y="33" width="1" height="1" fill="#FF9F52"/>
<rect x="29" y="33" width="1" height="1" fill="#FF9F52"/>
<path d="M20 15C17.2386 15 15 17.2386 15 20C15 22.7614 17.2386 25 20 25C22.7614 25 25 22.7614 25 20C25 17.2386 22.7614 15 20 15ZM19.482 24.2548C18.5333 24.1412 17.6556 23.7165 16.9695 23.0305C16.16 22.221 15.7143 21.1448 15.7143 20C15.7143 18.9695 16.0757 17.9946 16.7383 17.2197C16.7554 17.4245 16.7975 17.644 16.7868 17.8009C16.7473 18.3729 16.6909 18.7308 17.0257 19.2134C17.1561 19.4014 17.1882 19.6708 17.2517 19.8884C17.3138 20.1012 17.5618 20.2128 17.7329 20.344C18.0781 20.6086 18.4083 20.9162 18.7743 21.1491C19.0158 21.3028 19.1667 21.3793 19.096 21.6741C19.0391 21.9112 19.0232 22.0572 18.9006 22.2684C18.8631 22.3328 19.0418 22.7472 19.1013 22.8067C19.2815 22.9869 19.4604 23.1522 19.6569 23.3145C19.9614 23.5661 19.6273 23.8931 19.482 24.2548ZM23.0305 23.0305C22.4143 23.6466 21.6435 24.0518 20.8056 24.2103C20.9243 23.9166 21.1357 23.6557 21.3319 23.5045C21.5025 23.3728 21.7162 23.1196 21.8053 22.9191C21.8943 22.7188 22.0123 22.5452 22.1316 22.361C22.3015 22.099 21.7129 21.7039 21.5222 21.6211C21.093 21.4347 20.7699 21.1833 20.3885 20.9149C20.1168 20.7237 19.565 21.0148 19.2582 20.8809C18.838 20.6974 18.4918 20.3786 18.1265 20.1035C17.7496 19.8196 17.7678 19.4887 17.7678 19.0699C18.0631 19.0808 18.4831 18.9882 18.6791 19.2256C18.7409 19.3006 18.9536 19.6353 19.096 19.5163C19.2123 19.4192 19.0098 19.0296 18.9707 18.938C18.8504 18.6564 19.2448 18.5466 19.4467 18.3556C19.7102 18.1065 20.2753 17.7157 20.2306 17.5372C20.186 17.3586 19.6652 16.8526 19.3593 16.9316C19.3134 16.9434 18.9098 17.3666 18.8319 17.433C18.8339 17.2949 18.836 17.1568 18.8381 17.0186C18.8394 16.9314 18.6754 16.8419 18.683 16.7856C18.7023 16.6435 19.098 16.3855 19.1964 16.2723C19.1275 16.2292 18.8921 16.027 18.8209 16.0567C18.6484 16.1286 18.4537 16.1781 18.2812 16.2499C18.2812 16.1901 18.274 16.1339 18.2653 16.0785C18.6126 15.9248 18.9789 15.8185 19.3545 15.7623L19.6931 15.8984L19.9321 16.182L20.1706 16.428L20.3792 16.4952L20.7104 16.1828L20.625 15.9598V15.7594C21.28 15.8545 21.8987 16.0989 22.4404 16.4757C22.3435 16.4844 22.237 16.4987 22.1168 16.5139C22.0672 16.4846 22.0035 16.4713 21.9494 16.4509C22.1064 16.7884 22.2701 17.1213 22.4365 17.4544C22.6142 17.8102 23.0085 18.1918 23.0777 18.5674C23.1593 19.0101 23.1027 19.4122 23.1473 19.9331C23.1903 20.4346 23.7128 21.0045 23.7128 21.0045C23.7128 21.0045 23.9541 21.0867 24.1547 21.0581C23.9677 21.798 23.5842 22.4767 23.0305 23.0305Z" fill="#0060A8"/>
<path d="M20 5L33.5 5C34.8807 5 36 6.11929 36 7.5V7.5C36 8.88071 34.8807 10 33.5 10H29" stroke="#004375"/>
<path d="M32 15L28.5 15C27.1193 15 26 13.8807 26 12.5V12.5C26 11.1193 27.1193 10 28.5 10L33 10" stroke="#004375"/>
<path d="M8.0001 27L7.50009 27C5.5671 27 4.00009 25.433 4.00009 23.5V23.5C4.00009 21.567 5.56709 20 7.50009 20L11.1436 20" stroke="#004375"/>
<path d="M29 15H33.5C34.8807 15 36 16.1193 36 17.5V17.5C36 18.8807 34.8807 20 33.5 20H32" stroke="#004375"/>
<path d="M8 27H10C11.6569 27 13 28.3431 13 30V30C13 31.6569 11.6569 33 10 33L9 33" stroke="#004375"/>
</svg>
