<svg width="12" height="12" viewBox="0 0 12 12" fill="none" xmlns="http://www.w3.org/2000/svg">
<path d="M4.16562 0.0302763C4.13984 0.0466824 3.56093 0.55762 2.88124 1.16934C2.10546 1.86543 1.63202 2.30606 1.60859 2.35528C1.53593 2.50528 1.62265 2.69746 1.78437 2.74199C1.84296 2.75606 3.11796 2.76543 5.60234 2.76543H9.33359L9.34062 3.90684L9.34765 5.05059L9.40156 5.12559C9.43905 5.17715 9.48827 5.20996 9.5539 5.22871C9.76952 5.28496 9.84687 5.37403 9.78124 5.49356C9.73437 5.58496 9.64296 5.60606 9.52343 5.55215C9.34999 5.47481 9.20234 5.50293 9.12499 5.6295C9.03827 5.77246 9.07343 5.94356 9.21171 6.03496L9.28437 6.08653L8.89765 6.56934L8.51093 7.0545H8.33046C8.0914 7.0545 7.96484 7.11543 7.88984 7.26543C7.83593 7.36621 7.83593 7.38496 7.83593 8.19121C7.83593 8.65762 7.8453 9.04668 7.85937 9.09356C7.87109 9.14043 7.9203 9.21309 7.96484 9.25762L8.04921 9.33965L9.61015 9.34668C11.1641 9.35137 11.1687 9.35137 11.2484 9.30215C11.293 9.27637 11.3516 9.21075 11.3773 9.16153C11.4219 9.07246 11.4242 9.03028 11.4172 8.1795C11.4101 7.32637 11.4078 7.28887 11.3609 7.22793C11.2625 7.09434 11.1992 7.06621 10.9789 7.05918L10.775 7.04981L10.4586 6.5459C10.2851 6.26934 10.1398 6.03262 10.1375 6.0209C10.1328 6.00918 10.1539 5.96934 10.1867 5.93184C10.4539 5.61309 10.4328 5.14199 10.1398 4.87246C10.0836 4.8209 10.0133 4.76699 9.98046 4.75293L9.92187 4.72715V3.74746V2.77012L10.2219 2.76075C10.5453 2.74903 10.618 2.72793 10.6789 2.62481C10.7539 2.50059 10.7117 2.28496 10.6039 2.22637C10.5781 2.21465 9.17421 1.7084 7.48202 1.10137C5.31171 0.325588 4.37421 -0.000192642 4.30859 -0.000192642C4.25702 0.00215149 4.19374 0.0138702 4.16562 0.0302763ZM9.91249 6.76621L10.0836 7.04278L9.88671 7.04981C9.7789 7.05215 9.59374 7.05215 9.4789 7.04981L9.26562 7.04278L9.49296 6.75684C9.61952 6.59981 9.72499 6.47559 9.72968 6.48028C9.73437 6.48496 9.8164 6.61387 9.91249 6.76621ZM8.79687 7.54668C8.8414 7.59121 8.84374 7.62403 8.84374 8.20293C8.84374 8.78184 8.8414 8.81465 8.79687 8.85918C8.72655 8.9295 8.60234 8.92246 8.5414 8.84512C8.49452 8.78653 8.49218 8.75371 8.49218 8.20293C8.49218 7.65215 8.49452 7.61934 8.5414 7.56075C8.60234 7.4834 8.72655 7.47637 8.79687 7.54668ZM9.75077 7.55137C9.80468 7.60059 9.80468 7.60528 9.80468 8.20293V8.80528L9.74843 8.85918C9.71562 8.88731 9.66171 8.91075 9.6289 8.91075C9.59609 8.91075 9.54218 8.88731 9.50937 8.85918L9.45312 8.80528V8.20528C9.45312 7.62403 9.45546 7.60762 9.50468 7.55371C9.5703 7.4834 9.67812 7.4834 9.75077 7.55137ZM10.7164 7.56075C10.7633 7.61934 10.7656 7.65215 10.7656 8.20293C10.7656 8.75371 10.7633 8.78653 10.7164 8.84512C10.6555 8.92246 10.5312 8.9295 10.4609 8.85918C10.4164 8.81465 10.4141 8.78184 10.4141 8.20293C10.4141 7.62403 10.4164 7.59121 10.4609 7.54668C10.5312 7.47637 10.6555 7.4834 10.7164 7.56075Z" fill="#A7A7A7"/>
<path d="M3.31484 3.41016C3.26328 3.45469 3.23984 3.50156 3.22109 3.59297C3.20938 3.66094 3.09453 5.28281 2.96797 7.2L2.73828 10.6875H2.30703C1.91797 10.6875 1.86406 10.6922 1.775 10.7367C1.60625 10.8164 1.57812 10.9078 1.57812 11.3578C1.57812 11.7797 1.59922 11.8523 1.73984 11.9461L1.81953 12H4.29453C6.70859 12 6.77188 11.9977 6.84453 11.9531C6.98516 11.8687 7.00391 11.8008 7.00391 11.3555C7.00391 10.9125 6.98984 10.8562 6.84688 10.7531C6.77422 10.7016 6.74844 10.6992 6.31016 10.6922L5.84844 10.6852L5.83438 10.5164C5.82734 10.4227 5.71953 8.82891 5.59766 6.975C5.47344 5.11875 5.36797 3.57656 5.36094 3.54609C5.35156 3.51562 5.31406 3.45937 5.27656 3.42188L5.20625 3.35156H4.29688H3.3875L3.31484 3.41016ZM4.37891 3.98672C4.2125 4.18594 3.725 4.73203 3.72031 4.72734C3.71563 4.725 3.725 4.53984 3.73906 4.31719L3.76719 3.91406H4.10469H4.44219L4.37891 3.98672ZM4.88984 5.00156C4.91328 5.33672 4.925 5.61328 4.92031 5.61797C4.91797 5.62266 4.64609 5.62266 4.32031 5.62031L3.72734 5.61328L4.27578 4.98984C4.57812 4.64531 4.83125 4.37109 4.83828 4.38047C4.84531 4.3875 4.86875 4.66875 4.88984 5.00156ZM4.51484 6.29062C4.22422 6.63984 3.55625 7.37578 3.54922 7.35469C3.53984 7.32656 3.58672 6.54141 3.60781 6.33281L3.62188 6.21094H4.10234H4.58047L4.51484 6.29062ZM5.04453 7.32656L5.08203 7.92188H4.47734C3.88203 7.92188 3.87031 7.92188 3.90078 7.87734C3.91953 7.85156 4.17031 7.56328 4.46094 7.23516C4.85469 6.78984 4.99063 6.64922 4.99531 6.68203C5 6.70781 5.02109 6.99844 5.04453 7.32656ZM4.66719 8.57578C4.45859 8.82422 3.37109 10.05 3.36641 10.0453C3.36172 10.043 3.38281 9.68906 3.41094 9.2625L3.4625 8.48437H4.10469H4.74688L4.66719 8.57578ZM5.21094 9.81562C5.24141 10.282 5.26016 10.6687 5.25313 10.6758C5.24609 10.6828 4.87109 10.6852 4.41875 10.6828L3.59609 10.6758L4.3625 9.80391C4.78438 9.32578 5.13594 8.94141 5.14297 8.94844C5.15 8.95781 5.18047 9.34687 5.21094 9.81562Z" fill="#A7A7A7"/>
</svg>
