<svg width="31" height="31" viewBox="0 0 31 31" fill="none" xmlns="http://www.w3.org/2000/svg">
<g clip-path="url(#clip0_85_42732)">
<path d="M28.6577 6.53076C28.6577 7.49756 28.4526 9.43701 28.2182 10.7144C27.9487 12.1733 27.2221 14.7866 26.9233 15.3726C26.7768 15.6597 26.478 15.9526 26.1733 16.1108L25.8745 16.269H21.8901H17.9057L17.6069 16.1108C17.3022 15.9526 17.0034 15.6597 16.8569 15.3726C16.6987 15.0562 16.1772 13.3745 15.9194 12.314C15.4682 10.4917 15.3042 9.34326 15.1459 6.97021L15.1108 6.46045L14.9292 6.49561C14.6303 6.54834 14.1967 6.80615 13.9448 7.0874C13.6635 7.38623 13.476 7.77881 13.2944 8.42334L13.1596 8.88623L13.142 16.644C13.1245 25.2163 13.1069 24.7769 13.4995 25.4331C13.8686 26.0425 14.4956 26.4937 15.3862 26.7808C16.0014 26.98 16.5112 27.0562 17.5131 27.1089L18.228 27.1499V25.8022C18.228 24.9409 18.2514 24.3901 18.2983 24.2612C18.4038 23.9448 18.5795 23.7339 18.8374 23.6167C19.06 23.5171 19.2827 23.5054 22.1479 23.5054C25.1479 23.5054 25.2299 23.5054 25.476 23.6284C25.6518 23.7163 25.7807 23.8335 25.892 24.021L26.0502 24.2964L26.0678 25.7026L26.0913 27.1089L26.5307 27.1265C27.0229 27.144 27.9077 27.0093 28.4467 26.8335C29.6538 26.4409 30.4682 25.6206 30.6499 24.6128C30.6909 24.3901 30.7085 21.6948 30.6967 16.5854L30.6792 8.88623L30.5444 8.41748C30.3745 7.80811 30.1284 7.3042 29.8471 7.00537C29.5424 6.68311 29.3549 6.56592 28.9799 6.47803C28.6635 6.40771 28.6577 6.40771 28.6577 6.53076ZM17.6831 18.7593C17.8999 18.8882 17.9584 18.9878 18.1459 19.5386C18.3042 20.0073 18.3217 20.2769 18.2045 20.5054C17.9819 20.939 17.6772 21.021 16.892 20.8569C15.6206 20.5991 14.8647 19.978 15.0288 19.3159C15.1108 18.9819 16.0834 18.6772 17.144 18.6538C17.4018 18.6421 17.5483 18.6714 17.6831 18.7593ZM27.7963 18.7944C28.3178 18.9116 28.7045 19.1226 28.7514 19.3159C28.9038 19.9312 28.2592 20.5171 27.1049 20.8101C26.2436 21.0327 25.8569 20.9683 25.6108 20.5581C25.4585 20.3062 25.4643 20.0366 25.6401 19.521C25.9096 18.7241 26.0561 18.6187 26.8588 18.6714C27.1401 18.6831 27.562 18.7417 27.7963 18.7944Z" fill="#EC6B15"/>
<path d="M6.10547 8.93314L4.20703 9.58939L4.0957 9.91165C3.89062 10.4917 3.82031 11.0777 3.81445 12.1031C3.81445 13.0464 3.82031 13.0874 3.92578 13.0581C3.99023 13.0464 4.79297 12.8648 5.71289 12.6597L7.38867 12.2906V11.2886C7.38867 10.1226 7.5 9.47806 7.81641 8.73978C7.92773 8.48197 8.01562 8.27103 8.00977 8.27689C8.00977 8.27689 7.14844 8.57572 6.10547 8.93314Z" fill="#EC6B15"/>
<path d="M3.81445 18.1558C3.81445 19.187 3.86133 19.7378 3.99023 20.2241C4.04297 20.4233 4.125 20.4819 5.83594 21.4429C6.81445 21.9995 7.63477 22.4507 7.64648 22.4507C7.66406 22.4507 7.65234 22.3804 7.62305 22.2866C7.45312 21.7886 7.38867 21.0386 7.38867 19.5562V18.0269L5.64258 17.5405C4.6875 17.2769 3.88477 17.0601 3.86133 17.0601C3.83203 17.0601 3.81445 17.5522 3.81445 18.1558Z" fill="#EC6B15"/>
<path d="M11.8594 6.94094L8.09766 8.24173L7.92773 8.62259C7.52344 9.52493 7.44727 9.92923 7.44727 11.2359C7.44727 11.7984 7.46484 12.2554 7.48828 12.2554C7.51172 12.2554 8.0918 12.1324 8.76562 11.98C9.57422 11.8042 10.0605 11.7222 10.1602 11.7515C10.2539 11.7749 10.3711 11.8745 10.4355 11.98C10.5527 12.1616 10.5527 12.2671 10.541 15.2847L10.5234 18.396L10.3828 18.5484C10.1777 18.7652 10.002 18.7476 8.66602 18.3784C8.02734 18.2027 7.48828 18.0562 7.4707 18.0562C7.45312 18.0562 7.44727 18.8648 7.46484 19.855C7.48828 21.4488 7.50586 21.7066 7.61133 22.0874C7.67578 22.3277 7.74023 22.5269 7.75195 22.5327C7.76367 22.5386 9.13477 23.312 10.7988 24.2495C13.2656 25.6382 13.8047 25.9195 13.6875 25.7671C13.6055 25.6616 13.541 25.5562 13.541 25.5327C13.541 25.5093 13.5059 25.4507 13.459 25.4038C13.4121 25.357 13.3125 25.1695 13.2363 24.9878L13.1016 24.648V16.8257V9.00344L13.2305 8.48782C13.4062 7.80813 13.6172 7.36868 13.9453 7.01712C14.2383 6.70071 14.6953 6.45462 14.9883 6.45462C15.1289 6.45462 15.1816 6.42532 15.2168 6.31985C15.2344 6.24954 15.3457 6.0679 15.457 5.90969C15.5684 5.75735 15.6504 5.6343 15.6387 5.64016C15.6328 5.64016 13.9277 6.2261 11.8594 6.94094Z" fill="#EC9615"/>
<path d="M3 9.9878C1.85742 10.398 1.60547 10.562 1.37695 11.0483C1.24219 11.3296 1.23633 11.4116 1.23633 12.5132C1.23633 13.4155 1.25391 13.6675 1.3125 13.6499C1.34766 13.6323 1.91602 13.5034 2.57227 13.3628L3.75586 13.105V12.2144C3.75586 11.189 3.82617 10.5737 4.01367 10.0112C4.08984 9.78272 4.11914 9.61866 4.08398 9.62452C4.04883 9.62452 3.5625 9.79444 3 9.9878Z" fill="#EC9615"/>
<path d="M1.23636 17.2534C1.23636 18.9057 1.2012 18.8589 3.60354 20.1889C3.93167 20.3706 4.00198 20.394 3.96683 20.3061C3.83792 19.9897 3.75589 19.1108 3.75589 18.1089V17.019L2.66018 16.7143C2.05081 16.5444 1.48831 16.3862 1.40042 16.3569L1.23636 16.3042V17.2534Z" fill="#EC9615"/>
<path d="M16.8867 5.0249C16.1719 5.21826 15.6152 5.646 15.2988 6.24365L15.1582 6.50146L15.2344 7.64404C15.2754 8.271 15.3223 8.83936 15.3398 8.90967L15.3691 9.03271H21.8906H28.4121L28.4473 8.89795C28.4648 8.82764 28.5117 8.25342 28.5527 7.62646L28.623 6.48389L28.4531 6.17334C28.1543 5.6167 27.5859 5.20654 26.8594 5.01904C26.3672 4.89014 17.3672 4.896 16.8867 5.0249ZM25.8516 6.62451C26.0684 6.84717 26.0801 7.10498 25.875 7.3042L25.7344 7.45068H21.9023C17.6074 7.45068 17.8535 7.47412 17.7773 7.02881C17.748 6.84131 17.7715 6.78857 17.9238 6.63037L18.0996 6.45459H21.8906H25.6816L25.8516 6.62451Z" fill="#40406B"/>
<path d="M21.3457 14.8511C20.8945 15.0151 20.4902 15.4897 20.4023 15.9644L20.3555 16.2397H21.8906H23.4258L23.3789 15.9702C23.2852 15.4722 22.8574 14.98 22.3945 14.8452C22.1133 14.7573 21.5977 14.7632 21.3457 14.8511Z" fill="#40406B"/>
<path d="M1.23684 22.7612C1.23684 24.2261 1.10208 23.9683 2.32083 24.8179C2.772 25.1343 3.17044 25.4331 3.21145 25.48C3.24661 25.5269 3.28762 25.5562 3.29934 25.5444C3.32864 25.5151 4.22512 26.1538 4.22512 26.2065C4.22512 26.2358 4.2427 26.2534 4.272 26.2476C4.33059 26.2241 5.22122 26.8511 5.22122 26.9097C5.22122 26.939 5.23879 26.9565 5.26809 26.9507C5.32669 26.9272 6.21731 27.5542 6.21731 27.6128C6.21731 27.6421 6.23489 27.6597 6.26419 27.6538C6.32278 27.6304 7.2134 28.2573 7.2134 28.3159C7.2134 28.3452 7.23098 28.3628 7.26028 28.3569C7.31887 28.3335 8.2095 28.9604 8.2095 29.019C8.2095 29.0483 8.22708 29.0659 8.25637 29.0601C8.31497 29.0366 9.20559 29.6636 9.20559 29.7222C9.20559 29.7515 9.22317 29.769 9.25247 29.7632C9.2759 29.7573 9.4634 29.8628 9.66848 29.9976L10.0435 30.2437H12.8325C14.4322 30.2437 15.5923 30.2202 15.5572 30.1909C15.4927 30.1323 1.29544 21.5132 1.26028 21.5132C1.24856 21.5132 1.23684 22.0757 1.23684 22.7612Z" fill="#40406B"/>
<path d="M11.0154 0.665569C10.7224 0.899944 10.3709 1.17533 10.2361 1.27494C10.1013 1.37455 8.03297 3.03276 5.63062 4.95463C2.20875 7.69096 1.25953 8.48198 1.23023 8.61088C1.2068 8.69877 1.18922 9.36088 1.18922 10.0874C1.18336 11.2593 1.18922 11.3824 1.25953 11.1831C1.365 10.8843 1.55836 10.6148 1.79273 10.4331C1.9275 10.3335 4.18922 9.5308 8.865 7.92533C12.7849 6.57182 15.8142 5.50541 15.9138 5.42924C16.1951 5.2183 16.5584 5.05424 16.9509 4.96049C17.2498 4.89018 17.865 4.8726 20.197 4.8726H23.074L23.49 4.64408C23.7185 4.52104 23.9822 4.36283 24.0818 4.29252C24.1755 4.22221 24.2752 4.16948 24.3103 4.16948C24.3396 4.16948 24.4334 4.11674 24.5213 4.04643C24.6033 3.98198 24.6736 3.94682 24.6736 3.97612C24.6736 3.99955 24.697 3.99369 24.7205 3.9644C24.7439 3.92924 24.9314 3.81205 25.1423 3.70658C25.3533 3.59526 25.6345 3.43119 25.7693 3.33744C25.9041 3.24955 26.0388 3.17338 26.0681 3.17338C26.0974 3.17338 26.1912 3.12065 26.2791 3.05033C26.3611 2.98588 26.4314 2.95073 26.4314 2.98002C26.4314 3.00346 26.4548 2.9976 26.4783 2.9683C26.5017 2.93315 26.6892 2.82182 26.9002 2.71049C27.1111 2.59916 27.3923 2.4351 27.5271 2.34135C27.6619 2.25346 27.7966 2.17729 27.8259 2.17729C27.8552 2.17729 27.949 2.12455 28.0369 2.05424C28.1189 1.98979 28.1892 1.95463 28.1892 1.98393C28.1892 2.00737 28.2127 2.00151 28.2361 1.97221C28.2595 1.93705 28.447 1.82573 28.658 1.7144C29.5896 1.22221 29.8064 1.01713 29.7478 0.683147C29.7361 0.583538 29.7185 0.489788 29.7185 0.466351C29.7127 0.442913 29.6365 0.384319 29.5369 0.331585C29.3845 0.255413 28.3298 0.243694 20.4607 0.243694H11.5603L11.0154 0.665569Z" fill="#406B6B"/>
<path d="M17.923 6.6304C17.7707 6.78861 17.7473 6.84134 17.7766 7.02884C17.8527 7.47415 17.6066 7.45072 21.9016 7.45072H25.7336L25.8742 7.30423C26.0793 7.10501 26.0676 6.8472 25.8508 6.62454L25.6809 6.45462H21.8898H18.0988L17.923 6.6304Z" fill="#406B6B"/>
<path d="M1.19501 21.1323C1.20087 22.7085 1.21259 23.4409 1.21845 22.7554C1.23017 22.0757 1.24775 21.5132 1.25947 21.5132C1.27705 21.5132 4.52314 23.4761 8.47236 25.8784L15.6677 30.2437L22.7282 30.2319C28.3708 30.2202 29.7946 30.1968 29.8181 30.1382C29.8298 30.0972 29.8708 30.0327 29.906 29.9917C30.0114 29.8862 30.0231 29.6812 29.9352 29.5112C29.8474 29.353 29.2028 28.8374 29.0856 28.8374C29.0446 28.8374 29.0095 28.8198 29.0095 28.7905C29.0095 28.7671 28.9099 28.6968 28.7927 28.6323C28.6696 28.5679 28.3181 28.3394 28.0075 28.1226C27.6911 27.8999 27.4099 27.7241 27.3747 27.7241C27.3395 27.7241 27.3102 27.7007 27.3102 27.6714C27.3102 27.6421 27.2634 27.6011 27.2106 27.5835C27.0993 27.5425 26.9821 27.4722 26.7126 27.2905C26.5544 27.1909 26.3435 27.1851 22.3181 27.1909C17.9821 27.1968 16.7341 27.1616 15.9138 26.9917C15.3454 26.8745 14.6833 26.605 14.3142 26.3472C13.8981 26.0542 13.8864 26.0483 7.65205 22.5386C1.45283 19.0581 1.47041 19.064 1.27705 18.5073C1.19501 18.2847 1.18916 18.5132 1.19501 21.1323Z" fill="#406B6B"/>
<path d="M1.70508 24.4077C1.70508 24.4194 1.78711 24.4897 1.88086 24.56C1.98047 24.6303 2.05664 24.6714 2.05664 24.6538C2.05664 24.6421 1.98047 24.5717 1.88086 24.5014C1.78711 24.4311 1.70508 24.3901 1.70508 24.4077Z" fill="#406B6B"/>
<path d="M2.11523 24.7007C2.11523 24.7124 2.19727 24.7827 2.29102 24.853C2.39062 24.9233 2.4668 24.9643 2.4668 24.9467C2.4668 24.935 2.39062 24.8647 2.29102 24.7944C2.19727 24.7241 2.11523 24.6831 2.11523 24.7007Z" fill="#406B6B"/>
<path d="M2.70117 25.1108C2.70117 25.1225 2.7832 25.1928 2.87695 25.2632C2.97656 25.3335 3.05273 25.3745 3.05273 25.3569C3.05273 25.3452 2.97656 25.2749 2.87695 25.2046C2.7832 25.1342 2.70117 25.0932 2.70117 25.1108Z" fill="#406B6B"/>
<path d="M3.69727 25.8139C3.69727 25.8257 3.7793 25.896 3.87305 25.9663C3.97266 26.0366 4.04883 26.0776 4.04883 26.06C4.04883 26.0483 3.97266 25.978 3.87305 25.9077C3.7793 25.8374 3.69727 25.7964 3.69727 25.8139Z" fill="#406B6B"/>
<path d="M4.69336 26.5171C4.69336 26.5288 4.77539 26.5991 4.86914 26.6694C4.96875 26.7397 5.04492 26.7807 5.04492 26.7632C5.04492 26.7514 4.96875 26.6811 4.86914 26.6108C4.77539 26.5405 4.69336 26.4995 4.69336 26.5171Z" fill="#406B6B"/>
<path d="M5.68945 27.2202C5.68945 27.2319 5.77148 27.3022 5.86523 27.3725C5.96484 27.4428 6.04102 27.4839 6.04102 27.4663C6.04102 27.4546 5.96484 27.3842 5.86523 27.3139C5.77148 27.2436 5.68945 27.2026 5.68945 27.2202Z" fill="#406B6B"/>
<path d="M6.68555 27.9233C6.68555 27.935 6.76758 28.0053 6.86133 28.0757C6.96094 28.146 7.03711 28.187 7.03711 28.1694C7.03711 28.1577 6.96094 28.0874 6.86133 28.0171C6.76758 27.9467 6.68555 27.9057 6.68555 27.9233Z" fill="#406B6B"/>
<path d="M7.68164 28.6264C7.68164 28.6382 7.76367 28.7085 7.85742 28.7788C7.95703 28.8491 8.0332 28.8901 8.0332 28.8725C8.0332 28.8608 7.95703 28.7905 7.85742 28.7202C7.76367 28.6499 7.68164 28.6089 7.68164 28.6264Z" fill="#406B6B"/>
<path d="M8.67773 29.3296C8.67773 29.3413 8.75977 29.4116 8.85352 29.4819C8.95312 29.5522 9.0293 29.5932 9.0293 29.5757C9.0293 29.5639 8.95312 29.4936 8.85352 29.4233C8.75977 29.353 8.67773 29.312 8.67773 29.3296Z" fill="#406B6B"/>
<path d="M9.78516 30.1206C9.86133 30.1909 9.94922 30.2437 9.98437 30.2437C10.0547 30.2437 10.0488 30.2437 9.82031 30.103L9.64453 30.0034L9.78516 30.1206Z" fill="#406B6B"/>
<path d="M18.6555 4.91357C19.4524 4.92529 20.7532 4.92529 21.5559 4.91357C22.3528 4.90771 21.6965 4.90186 20.1028 4.90186C18.509 4.90186 17.8528 4.90771 18.6555 4.91357Z" fill="#6B6B6B"/>
<path d="M15.9844 5.37058C15.8672 5.45261 15.7676 5.53464 15.7676 5.55222C15.7676 5.56394 15.873 5.50534 16.002 5.42331C16.207 5.28855 16.2773 5.22409 16.2188 5.22409C16.2129 5.22409 16.1074 5.28855 15.9844 5.37058Z" fill="#6B6B6B"/>
<path d="M21.1171 16.2808C21.5624 16.2925 22.2773 16.2925 22.6991 16.2808C23.1269 16.2749 22.7636 16.2632 21.8905 16.2632C21.0234 16.2632 20.6718 16.2749 21.1171 16.2808Z" fill="#6B6B6B"/>
<path d="M18.9313 23.605C18.7145 23.687 18.4978 23.8921 18.3981 24.1147C18.3044 24.3257 18.2868 24.519 18.2868 25.7437V27.1323L17.9821 27.1558C17.8122 27.1675 19.5583 27.1792 21.861 27.1851L26.0505 27.1968L26.0212 25.7144L25.9919 24.2261L25.8337 23.9917C25.5407 23.5522 25.6579 23.564 22.1423 23.5698C20.4255 23.5698 18.9782 23.5874 18.9313 23.605Z" fill="#6B6B6B"/>
<path d="M5.60156 12.73C4.63477 12.9526 3.83789 13.1343 3.83203 13.1343C3.82031 13.1343 3.81445 14.0015 3.81445 15.062V16.9897L4.27148 17.1128C4.51758 17.1772 5.32031 17.3999 6.05859 17.605L7.38867 17.98V15.144C7.38867 13.5913 7.38281 12.314 7.37695 12.3198C7.36523 12.3257 6.56836 12.5073 5.60156 12.73Z" fill="#6BC1C1"/>
<path d="M15.3574 9.11475C15.3574 9.16162 15.4395 9.67725 15.5391 10.2632C15.8379 12.0562 16.6055 14.8276 16.9746 15.4604C17.0508 15.5952 17.2148 15.7827 17.332 15.8823C17.707 16.1929 17.9473 16.2397 19.2012 16.2397H20.3262L20.3613 15.9819C20.4375 15.4722 20.877 14.98 21.4219 14.7983C21.75 14.6812 22.2715 14.7104 22.5527 14.8569C23.0215 15.0972 23.4434 15.6772 23.4434 16.0757V16.2397H24.5742C25.8574 16.2397 26.0859 16.1929 26.4844 15.853C26.625 15.73 26.7949 15.5015 26.8945 15.2847C27.123 14.8101 27.5508 13.4097 27.8438 12.2085C28.0488 11.3765 28.4238 9.3667 28.4238 9.11475C28.4238 9.04443 27.5273 9.03271 21.8906 9.03271C16.2832 9.03271 15.3574 9.04443 15.3574 9.11475Z" fill="#96C1C1"/>
<path d="M8.57812 12.0679L7.38867 12.3374V15.1558V17.98L8.70117 18.3433C10.1133 18.7358 10.2129 18.7417 10.4062 18.4487C10.4883 18.3198 10.4941 17.9448 10.4824 15.1558L10.4648 12.0093L10.3242 11.898C10.1309 11.7398 9.9375 11.7632 8.57812 12.0679Z" fill="#96C1C1"/>
<path d="M2.49609 13.4273L1.26562 13.6968L1.24805 14.9859L1.23633 16.2691L2.47266 16.6089C3.15234 16.7964 3.7207 16.9371 3.73242 16.9253C3.74414 16.9136 3.75 16.0582 3.74414 15.0269L3.72656 13.1578L2.49609 13.4273Z" fill="#96C1C1"/>
<path d="M16.2653 18.7944C15.6443 18.9057 15.445 18.976 15.24 19.1518C15.029 19.3276 15.0114 19.5385 15.1814 19.8725C15.3864 20.271 15.9138 20.5756 16.7634 20.7807C17.5544 20.9741 17.9411 20.8979 18.1462 20.5112C18.2634 20.2768 18.2517 20.0249 18.0759 19.5092C17.9646 19.1752 17.8767 19.0112 17.7243 18.8764C17.5368 18.7182 17.4841 18.7006 17.1267 18.7065C16.9099 18.7065 16.5232 18.7475 16.2653 18.7944Z" fill="#ECECEC"/>
<path d="M26.0566 18.8765C25.9043 19.0112 25.8164 19.1753 25.7051 19.5093C25.623 19.7554 25.5527 20.0483 25.5527 20.1538C25.5527 20.5874 25.8691 20.8921 26.3145 20.8921C26.7188 20.8862 27.4688 20.687 27.9199 20.4585C28.4004 20.2183 28.6523 19.9312 28.6992 19.5854C28.7578 19.1519 28.4531 18.9585 27.4629 18.7886C27.1758 18.7417 26.7891 18.7007 26.6016 18.7007C26.3027 18.7007 26.2324 18.7241 26.0566 18.8765Z" fill="#ECECEC"/>
</g>
</svg>
