<svg width="33" height="33" viewBox="0 0 33 33" fill="none" xmlns="http://www.w3.org/2000/svg">
<path d="M8.44336 1.99368C8.44336 2.65618 8.43086 2.74368 8.33711 2.74368C8.28086 2.74368 7.99961 2.51868 7.71836 2.24368L7.20586 1.74368H6.19961C5.27461 1.74368 5.18086 1.75618 5.06836 1.86868C4.94961 1.98743 4.94336 2.07493 4.94336 5.24368C4.94336 8.41243 4.94961 8.49993 5.06836 8.61868C5.18086 8.73118 5.27461 8.74368 6.19961 8.74368H7.20586L7.71836 8.24368C7.99961 7.96868 8.28086 7.74368 8.33711 7.74368C8.43711 7.74368 8.44336 7.89368 8.44336 9.49368V11.2437H8.94336H9.44336V9.49368V7.74368H10.4434H11.4434V9.49368V11.2437H11.9434H12.4434V9.49368V7.74368H12.8184C13.3309 7.74368 13.4434 7.63118 13.4434 7.11868V6.74368H20.1934H26.9434V8.99368V11.2437H26.4434H25.9434V11.7437V12.2437H26.4434H26.9434V12.8562C26.9434 13.2499 26.9684 13.5062 27.0246 13.5749C27.0621 13.6312 27.2559 13.7249 27.4434 13.7874C27.8309 13.9124 27.9559 14.1062 27.8434 14.4124C27.7246 14.7562 27.1746 14.7687 27.0496 14.4312C26.9809 14.2437 26.9746 14.2437 26.4621 14.2437H25.9434V14.4437C25.9496 14.8937 26.3559 15.4499 26.8309 15.6437C27.1309 15.7687 27.7559 15.7687 28.0559 15.6437C28.3621 15.5187 28.6809 15.2062 28.8246 14.8999C28.9809 14.5687 28.9809 13.9249 28.8246 13.5874C28.7059 13.3187 28.2934 12.9062 28.0746 12.8374C27.9684 12.8062 27.9434 12.7499 27.9434 12.5187V12.2437H28.4434H28.9434V11.7437V11.2437H28.4434H27.9434V8.99368V6.74368H28.5684C29.3059 6.74368 29.4434 6.66243 29.4434 6.25618C29.4434 6.04368 29.3434 5.88118 28.6309 4.93118C28.1809 4.33118 27.7809 3.81868 27.7371 3.79368C27.6934 3.76868 24.4621 3.74368 20.5559 3.74368H13.4434V3.36868C13.4434 2.77493 13.3871 2.74368 12.3184 2.74368H11.4434V2.24368V1.74368H10.9434H10.4434V2.24368V2.74368H9.94336H9.44336V1.99368V1.24368H8.94336H8.44336V1.99368ZM7.08711 3.07493L7.44336 3.39993V5.24368V7.08743L7.08711 7.41243C6.73086 7.73118 6.71836 7.73743 6.33711 7.74368H5.94336V5.24368V2.74368H6.33711C6.71836 2.74993 6.73086 2.75618 7.08711 3.07493ZM12.4434 5.24368V6.74368H10.4434H8.44336V5.24368V3.74368H10.4434H12.4434V5.24368ZM27.3309 4.98118C27.4184 5.10618 27.5871 5.33118 27.6934 5.47493L27.8934 5.74368H20.6684H13.4434V5.24368V4.74368H20.3059H27.1621L27.3309 4.98118Z" fill="#151515"/>
<path d="M9.44336 5.24365V5.74365H10.4434H11.4434V5.24365V4.74365H10.4434H9.44336V5.24365Z" fill="#151515"/>
<path d="M5.06836 12.3687C4.94961 12.4874 4.94336 12.5749 4.94336 15.1187V17.7437H4.31836C3.36211 17.7437 3.44336 17.4749 3.44336 20.6187V23.2437H2.94336H2.44336V23.7437V24.2437H12.4434H22.4434V25.7437V27.2437H22.9434H23.4434V25.4249V23.6062L23.2621 23.4249L23.0809 23.2437H21.7621H20.4434V20.6187C20.4434 18.0749 20.4371 17.9874 20.3184 17.8687C20.1996 17.7499 20.1121 17.7437 19.0684 17.7437H17.9434V15.1187C17.9434 12.5749 17.9371 12.4874 17.8184 12.3687C17.6934 12.2437 17.6121 12.2437 11.4434 12.2437C5.27461 12.2437 5.19336 12.2437 5.06836 12.3687ZM10.9434 15.4937V17.7437H8.44336H5.94336V15.4937V13.2437H8.44336H10.9434V15.4937ZM16.9434 15.4937V17.7437H14.4434H11.9434V15.4937V13.2437H14.4434H16.9434V15.4937ZM9.44336 20.9937V23.2437H6.94336H4.44336V20.9937V18.7437H6.94336H9.44336V20.9937ZM19.4434 20.9937V23.2437H14.9434H10.4434V20.9937V18.7437H14.9434H19.4434V20.9937Z" fill="#151515"/>
<path d="M6.94336 15.4937V16.7437H7.44336H7.94336V15.4937V14.2437H7.44336H6.94336V15.4937Z" fill="#151515"/>
<path d="M8.94336 15.4937V16.7437H9.44336H9.94336V15.4937V14.2437H9.44336H8.94336V15.4937Z" fill="#151515"/>
<path d="M12.9434 15.4937V16.7437H13.4434H13.9434V15.4937V14.2437H13.4434H12.9434V15.4937Z" fill="#151515"/>
<path d="M14.9434 15.4937V16.7437H15.4434H15.9434V15.4937V14.2437H15.4434H14.9434V15.4937Z" fill="#151515"/>
<path d="M5.44336 20.9937V22.2437H5.94336H6.44336V20.9937V19.7437H5.94336H5.44336V20.9937Z" fill="#151515"/>
<path d="M7.44336 20.9937V22.2437H7.94336H8.44336V20.9937V19.7437H7.94336H7.44336V20.9937Z" fill="#151515"/>
<path d="M11.4434 20.9937V22.2437H11.9434H12.4434V20.9937V19.7437H11.9434H11.4434V20.9937Z" fill="#151515"/>
<path d="M13.4434 20.9937V22.2437H13.9434H14.4434V20.9937V19.7437H13.9434H13.4434V20.9937Z" fill="#151515"/>
<path d="M15.4434 20.9937V22.2437H15.9434H16.4434V20.9937V19.7437H15.9434H15.4434V20.9937Z" fill="#151515"/>
<path d="M17.4434 20.9937V22.2437H17.9434H18.4434V20.9937V19.7437H17.9434H17.4434V20.9937Z" fill="#151515"/>
<path d="M29.4434 17.9936V18.7436H28.9434H28.4434V18.2436V17.7436H27.9434H27.4434V18.2436V18.7436H26.0684C24.3184 18.7436 24.4434 18.6561 24.4434 19.8686V20.7436H22.9434H21.4434V21.2436V21.7436H23.2621H25.0809L25.2621 21.5623L25.4434 21.3811V20.5623V19.7436H28.1996H30.9559L30.9309 21.3811C30.8996 23.2498 30.8496 23.4936 30.3496 24.5248C29.9496 25.3498 29.5621 25.8123 28.3746 26.9061L27.3121 27.8873L27.4684 28.0498C27.5559 28.1436 27.6309 28.2498 27.6309 28.2811C27.6309 28.3748 27.9246 28.6373 27.9934 28.6123C28.1684 28.5436 30.2059 26.5873 30.5496 26.1561C31.0309 25.5436 31.4996 24.6123 31.7309 23.8061C31.8996 23.2248 31.9059 23.1748 31.9246 21.1061C31.9559 18.5561 32.0246 18.7436 31.0684 18.7436H30.4434V17.9936V17.2436H29.9434H29.4434V17.9936Z" fill="#151515"/>
<path d="M28.9434 21.2437V21.7437H29.4434H29.9434V21.2437V20.7437H29.4434H28.9434V21.2437Z" fill="#151515"/>
<path d="M2.44336 28.7249V29.2249L2.86836 29.2624C3.20586 29.2936 3.41836 29.3686 3.97461 29.6436C4.89961 30.1061 5.27461 30.2061 6.03711 30.2061C6.85586 30.2124 7.18711 30.1249 8.12461 29.6561L8.89961 29.2749H9.69336H10.4871L11.1996 29.6311C12.1496 30.1061 12.5184 30.2061 13.2871 30.2061C14.1059 30.2124 14.4371 30.1249 15.3746 29.6561L16.1496 29.2749H16.9371H17.7246L18.4434 29.6311C19.4121 30.1061 19.7684 30.2061 20.5371 30.2061C21.3559 30.2124 21.6871 30.1249 22.6246 29.6561L23.3996 29.2749H24.1871H24.9746L25.6934 29.6311C26.6621 30.1061 27.0184 30.2061 27.7871 30.2061C28.5996 30.2124 28.9371 30.1249 29.8496 29.6749C30.4871 29.3561 30.6684 29.2936 31.0559 29.2624L31.5059 29.2249V28.7374V28.2436H31.1434C30.6309 28.2436 30.1371 28.3874 29.4434 28.7374C28.7059 29.1124 28.4309 29.1936 27.8246 29.1874C27.1871 29.1874 26.7121 29.0686 26.0371 28.7311C25.3309 28.3749 24.9434 28.2811 24.1934 28.2811C23.4059 28.2811 23.0621 28.3749 22.1309 28.8311L21.3496 29.2124H20.5684H19.7871L19.0059 28.8311C18.0746 28.3686 17.7309 28.2811 16.9434 28.2811C16.1621 28.2811 15.8184 28.3686 14.8809 28.8311L14.0996 29.2124H13.3184H12.5371L11.7559 28.8311C10.8246 28.3686 10.4809 28.2811 9.69336 28.2811C8.91211 28.2811 8.56836 28.3686 7.63086 28.8311L6.84961 29.2124H6.06836H5.28711L4.50586 28.8311C3.70586 28.4374 3.43086 28.3499 2.80586 28.2749L2.44336 28.2311V28.7249Z" fill="#151515"/>
<path d="M10.4434 20.9937V23.2437H14.9434H19.4434V20.9937V18.7437H14.9434H10.4434V20.9937ZM12.4434 20.9937V22.2437H11.9434H11.4434V20.9937V19.7437H11.9434H12.4434V20.9937ZM14.4434 20.9937V22.2437H13.9434H13.4434V20.9937V19.7437H13.9434H14.4434V20.9937ZM16.4434 20.9937V22.2437H15.9434H15.4434V20.9937V19.7437H15.9434H16.4434V20.9937ZM18.4434 20.9937V22.2437H17.9434H17.4434V20.9937V19.7437H17.9434H18.4434V20.9937Z" fill="#ECC115"/>
<path d="M4.44336 20.9937V23.2437H6.94336H9.44336V20.9937V18.7437H6.94336H4.44336V20.9937ZM6.44336 20.9937V22.2437H5.94336H5.44336V20.9937V19.7437H5.94336H6.44336V20.9937ZM8.44336 20.9937V22.2437H7.94336H7.44336V20.9937V19.7437H7.94336H8.44336V20.9937Z" fill="#EC6B40"/>
<path d="M23.4434 26.4937V27.2437H23.1934H22.9434V27.8124C22.9434 28.3749 22.9434 28.3812 23.0871 28.3374C23.1621 28.3124 23.5746 28.2812 24.0059 28.2624C24.9496 28.2249 25.3059 28.2999 26.1246 28.7124C26.4371 28.8687 26.7121 28.9937 26.7371 28.9937C26.7684 28.9874 26.9684 28.8187 27.1934 28.6187L27.5934 28.2437L27.4121 28.0562C27.3059 27.9437 27.2559 27.8499 27.2934 27.8187C27.6121 27.5374 29.5059 25.7874 29.5059 25.7687C29.5059 25.7562 28.1434 25.7437 26.4746 25.7437H23.4434V26.4937Z" fill="#EC6B40"/>
<path d="M11.9434 15.4937V17.7437H14.4434H16.9434V15.4937V13.2437H14.4434H11.9434V15.4937ZM13.9434 15.4937V16.7437H13.4434H12.9434V15.4937V14.2437H13.4434H13.9434V15.4937ZM15.9434 15.4937V16.7437H15.4434H14.9434V15.4937V14.2437H15.4434H15.9434V15.4937Z" fill="#96C140"/>
<path d="M8.44336 5.24365V6.74365H10.4434H12.4434V5.24365V3.74365H10.4434H8.44336V5.24365ZM11.4434 5.24365V5.74365H10.4434H9.44336V5.24365V4.74365H10.4434H11.4434V5.24365Z" fill="#6B6B6B"/>
<path d="M5.94336 15.4937V17.7437H8.44336H10.9434V15.4937V13.2437H8.44336H5.94336V15.4937ZM7.94336 15.4937V16.7437H7.44336H6.94336V15.4937V14.2437H7.44336H7.94336V15.4937ZM9.94336 15.4937V16.7437H9.44336H8.94336V15.4937V14.2437H9.44336H9.94336V15.4937Z" fill="#1596C1"/>
<path d="M25.4434 20.6062C25.4434 21.8437 25.6309 21.7437 23.2996 21.7437H21.4434V21.4937V21.2437H20.9434H20.4434V22.2437V23.2437H21.8059C23.5809 23.2437 23.4434 23.1312 23.4434 24.6374V25.7437H26.4934H29.5371L29.7996 25.3812C30.1996 24.8499 30.5496 24.0937 30.7309 23.3937C30.8746 22.8374 30.8934 22.6249 30.9246 21.2562L30.9621 19.7437H28.1996H25.4434V20.6062ZM29.9434 21.2437V21.7437H29.4434H28.9434V21.2437V20.7437H29.4434H29.9434V21.2437Z" fill="#1596C1"/>
<path d="M2.44336 30.2437V31.2437H16.9434H31.4434V30.2437V29.2374L31.2121 29.2749C31.0809 29.2937 30.8809 29.3249 30.7621 29.3437C30.6434 29.3624 30.2496 29.5312 29.8809 29.7124C29.0309 30.1374 28.6246 30.2437 27.8184 30.2437C26.9996 30.2437 26.7621 30.1812 25.8246 29.7374C24.5184 29.1124 23.8371 29.1062 22.6371 29.7062C21.7809 30.1374 21.3746 30.2437 20.5684 30.2437C19.7496 30.2437 19.5121 30.1812 18.5746 29.7374C17.2684 29.1124 16.5871 29.1062 15.3871 29.7062C14.5309 30.1374 14.1246 30.2437 13.3184 30.2437C12.4996 30.2437 12.2621 30.1812 11.3246 29.7374C10.0184 29.1124 9.33711 29.1062 8.13711 29.7062C7.28086 30.1374 6.87461 30.2437 6.06836 30.2437C5.25586 30.2437 5.01211 30.1812 4.08086 29.7374C3.66211 29.5374 3.21211 29.3562 3.08086 29.3374C2.95586 29.3187 2.75586 29.2874 2.64961 29.2687L2.44336 29.2374V30.2437Z" fill="#1596C1"/>
<path d="M5.94336 5.24365V7.74365H6.30586C6.66211 7.74365 6.66836 7.74365 7.05586 7.3499L7.44336 6.95615V5.2374V3.51865L7.04961 3.13115C6.66211 2.74365 6.65586 2.74365 6.29961 2.74365H5.94336V5.24365Z" fill="#C1C1C1"/>
<path d="M9.44336 9.74365V11.2437H9.19336H8.94336V11.7437V12.2437H10.4434H11.9434V11.7437V11.2437H11.6934H11.4434V9.74365V8.24365H10.4434H9.44336V9.74365Z" fill="#C1C1C1"/>
<path d="M2.44336 26.2437V28.2437H2.77461C3.28086 28.2499 3.59961 28.3437 4.46211 28.7562C5.74961 29.3687 6.38711 29.3687 7.69336 28.7437C8.63086 28.2999 8.83711 28.2437 9.69336 28.2437C10.5496 28.2437 10.7559 28.2999 11.7121 28.7562C12.9996 29.3687 13.6371 29.3687 14.9434 28.7437C15.8809 28.2999 16.0871 28.2437 16.9434 28.2437C17.7996 28.2437 18.0059 28.2999 18.9621 28.7562C20.2371 29.3624 20.8871 29.3687 22.1746 28.7624L22.9371 28.3999L22.9434 27.8187V27.2437H22.6934H22.4434V25.7437V24.2437H12.4434H2.44336V26.2437Z" fill="#C1C1C1"/>
</svg>
