<svg width="33" height="33" viewBox="0 0 33 33" fill="none" xmlns="http://www.w3.org/2000/svg">
<g clip-path="url(#clip0_85_42833)">
<path d="M2.36836 4.55615C2.07461 4.64365 1.81836 4.83115 1.64336 5.08115L1.47461 5.3249L1.45586 13.7812L1.44336 22.2312L1.19336 22.4812L0.943359 22.7312V23.7437C0.943359 25.3062 0.943359 25.3062 2.74336 25.3062H3.99336L4.10586 25.6624C4.25586 26.1437 4.73086 26.8374 5.14336 27.1749C5.73086 27.6624 6.64336 27.9937 7.38086 27.9937C8.77461 27.9937 10.1246 27.0437 10.5996 25.7249L10.7434 25.3374L13.2746 25.3187L15.8121 25.3062L15.9371 25.1437C16.0934 24.9437 16.0621 24.7124 15.8371 24.5062L15.6871 24.3687H13.2371H10.7871L10.6871 23.8812C10.6371 23.6187 10.5684 23.3499 10.5434 23.2937C10.4934 23.1874 10.8121 23.1812 16.7746 23.1812H23.0621L22.9684 23.4437C22.9184 23.5812 22.8621 23.8499 22.8434 24.0374L22.7996 24.3687H20.2246C17.7371 24.3687 17.6434 24.3749 17.4871 24.4937C17.2496 24.6812 17.2059 24.9687 17.3871 25.1562L17.5246 25.3062L20.1746 25.3187L22.8246 25.3374L22.9371 25.6562C23.3121 26.7687 24.3184 27.6562 25.4934 27.8999C26.0246 28.0187 26.3621 28.0124 26.9121 27.8999C28.0684 27.6562 29.0371 26.8124 29.4434 25.6999L29.5871 25.3062H30.9871C32.9621 25.3062 32.9434 25.3249 32.9434 23.7499V22.7499L32.7559 22.5312C32.6496 22.4187 32.4996 22.2999 32.4121 22.2812L32.2559 22.2437V20.2124C32.2559 18.3437 32.2434 18.1624 32.1309 17.8562C31.9871 17.4624 31.7184 17.1187 31.3621 16.8749C31.2184 16.7812 30.5996 16.5062 29.9809 16.2687C29.1496 15.9499 28.8059 15.7812 28.6309 15.6187C28.4184 15.4249 28.3121 15.1874 27.6684 13.5249C27.2309 12.4062 26.8746 11.5624 26.7684 11.4312C26.6684 11.3124 26.4559 11.1187 26.2934 11.0124C25.7496 10.6437 25.5746 10.6187 23.3434 10.6187H21.3309L21.3059 9.8624C21.2871 9.1499 21.2809 9.0999 21.1309 8.98115C20.9496 8.8374 20.6684 8.86865 20.4746 9.0624C20.3496 9.18115 20.3496 9.2749 20.3309 15.7437L20.3184 22.3062H15.1559H9.99336L9.64961 21.9999C8.33711 20.8312 6.33086 20.8499 5.06211 22.0374L4.77461 22.3062H3.57461H2.38086V21.7124V21.1187H3.48086C5.10586 21.1187 5.14961 21.0687 5.11836 19.5499L5.09961 18.6062L4.86836 18.3937L4.63086 18.1812H3.50586H2.38086V11.9312C2.38086 5.7624 2.38086 5.68115 2.50586 5.55615C2.63086 5.43115 2.71211 5.43115 11.3371 5.43115C19.1121 5.43115 20.0559 5.44365 20.1809 5.53115C20.3121 5.61865 20.3184 5.6749 20.3184 6.3624C20.3184 7.25615 20.3809 7.4749 20.6746 7.5999C20.8684 7.6749 20.9121 7.6749 21.0434 7.5874C21.2871 7.43115 21.3309 7.21865 21.3059 6.30615C21.2871 5.5499 21.2684 5.43115 21.1309 5.18115C20.9621 4.8749 20.6746 4.65615 20.3246 4.55615C20.0496 4.48115 2.62461 4.48115 2.36836 4.55615ZM25.3996 11.6249C25.6996 11.7062 26.0496 12.0124 26.1621 12.2937C26.2121 12.4124 26.2559 12.5312 26.2559 12.5624C26.2559 12.5874 25.5309 12.6187 24.6434 12.6312C22.8621 12.6499 22.8184 12.6624 22.5684 13.0749C22.4559 13.2562 22.4434 13.3999 22.4434 14.7312C22.4434 16.3562 22.4746 16.5249 22.8309 16.7437C23.0309 16.8624 23.1371 16.8687 25.9684 16.8687H28.9059L29.8059 17.2187C30.3621 17.4374 30.7934 17.6499 30.9309 17.7687C31.1309 17.9437 31.3184 18.2624 31.3184 18.4312C31.3184 18.4687 30.9246 18.4937 30.1996 18.4937C29.1621 18.4937 29.0746 18.4999 28.9184 18.6249C28.6121 18.8624 28.5684 19.0374 28.5684 19.9624C28.5684 20.8874 28.6121 21.0624 28.9184 21.2999C29.0746 21.4249 29.1621 21.4312 30.1996 21.4312H31.3184V21.8687V22.3062H30.0621H28.7996L28.5121 22.0374C27.2371 20.8437 25.2371 20.8249 23.9309 21.9937L23.5809 22.3062H22.4184H21.2559V16.9312V11.5562H23.2121C24.3809 11.5562 25.2559 11.5812 25.3996 11.6249ZM27.1371 14.7749L27.6184 15.9937L25.4809 15.9812L23.3496 15.9624L23.3309 14.7562L23.3184 13.5562H24.9871H26.6621L27.1371 14.7749ZM4.25586 19.6499V20.2437H3.31836H2.38086V19.6499V19.0562H3.31836H4.25586V19.6499ZM31.3184 19.9624V20.5624L30.3996 20.5437L29.4746 20.5249L29.4559 20.0312C29.4434 19.7562 29.4496 19.4999 29.4684 19.4499C29.4934 19.3874 29.7121 19.3687 30.4121 19.3687H31.3184V19.9624ZM8.45586 22.2937C9.41211 22.7624 10.0121 23.8937 9.83086 24.8749C9.67461 25.7249 9.17461 26.3999 8.44961 26.7624C8.06836 26.9499 7.99961 26.9624 7.38086 26.9624C6.77461 26.9624 6.69336 26.9499 6.31836 26.7687C5.79961 26.5249 5.38086 26.1062 5.11836 25.5687C4.92461 25.1812 4.91211 25.1062 4.91211 24.5249C4.91211 23.9437 4.92461 23.8687 5.11836 23.4812C5.43711 22.8312 5.89961 22.4249 6.62461 22.1437C6.77461 22.0874 7.05586 22.0624 7.44961 22.0749C7.97461 22.0874 8.09336 22.1124 8.45586 22.2937ZM27.2434 22.2687C27.7496 22.5062 28.3121 23.0874 28.5121 23.5999C28.7184 24.1124 28.7184 24.9374 28.5121 25.4499C28.3121 25.9624 27.7496 26.5437 27.2434 26.7812C26.8871 26.9437 26.7871 26.9624 26.1934 26.9624C25.6121 26.9624 25.4934 26.9437 25.1809 26.7937C24.4559 26.4562 23.9121 25.7499 23.7496 24.9374C23.5246 23.7749 24.2871 22.5249 25.4621 22.1437C25.6246 22.0937 25.9434 22.0624 26.2871 22.0749C26.7559 22.0874 26.9184 22.1187 27.2434 22.2687ZM4.16836 23.3187C4.13086 23.4624 4.01836 23.9499 3.96836 24.2249C3.94336 24.3687 3.93086 24.3687 2.91211 24.3687H1.88086V23.7749V23.1812H3.04336H4.20586L4.16836 23.3187ZM32.0059 23.7749V24.3687H30.8184C29.9184 24.3687 29.6246 24.3499 29.6059 24.2874C29.5934 24.2499 29.5496 24.0437 29.5059 23.8374C29.4684 23.6312 29.4184 23.3999 29.3996 23.3187L29.3684 23.1812H30.6871H32.0059V23.7749Z" fill="#151515"/>
<path d="M6.72393 23.1124C6.40518 23.2561 5.98643 23.7249 5.89268 24.0436C5.72393 24.5936 5.83643 25.1061 6.21768 25.5374C6.54268 25.9061 6.86768 26.0499 7.35518 26.0561C8.98019 26.0624 9.51769 23.8999 8.07394 23.1624C7.65518 22.9561 7.11143 22.9311 6.72393 23.1124ZM7.83643 24.1186C8.06143 24.3686 8.06143 24.6624 7.84268 24.9249C7.53018 25.2999 6.96768 25.2124 6.78018 24.7624C6.49893 24.0999 7.34893 23.5811 7.83643 24.1186Z" fill="#151515"/>
<path d="M25.5367 23.1249C25.218 23.2812 24.9617 23.5312 24.7992 23.8374C24.618 24.1874 24.618 24.8624 24.8055 25.2187C24.9555 25.5124 25.3117 25.8437 25.6055 25.9687C25.9055 26.0937 26.5492 26.0749 26.8492 25.9374C27.1742 25.7937 27.518 25.4062 27.6617 25.0312C27.9367 24.3124 27.5242 23.3874 26.7805 23.0812C26.4742 22.9499 25.8367 22.9749 25.5367 23.1249ZM26.5055 23.9624C26.7367 24.0812 26.818 24.2312 26.818 24.5249C26.818 24.8187 26.7367 24.9687 26.5055 25.0874C26.268 25.2062 26.0992 25.2062 25.8805 25.0749C25.468 24.8374 25.4617 24.2249 25.868 23.9749C26.0805 23.8437 26.2742 23.8437 26.5055 23.9624Z" fill="#151515"/>
<path d="M2.55586 5.5624C2.44961 5.61865 2.44336 5.9874 2.44336 11.8687V18.1187H3.49336C4.41836 18.1187 4.56211 18.1312 4.73711 18.2437C5.10586 18.4624 5.16211 18.6249 5.18086 19.4937C5.20586 20.4062 5.14336 20.7062 4.88086 20.9624L4.68711 21.1499L3.56211 21.1687L2.44336 21.1874V21.7187V22.2437H3.60586H4.76836L5.10586 21.9374C5.73711 21.3749 6.52461 21.0937 7.41836 21.0999C8.26211 21.1062 8.94336 21.3624 9.62461 21.9312L9.99961 22.2437H15.1621H20.3184V15.7124V9.1749L20.4746 9.0249C20.5559 8.9374 20.6684 8.86865 20.7246 8.86865C20.7996 8.86865 20.8184 8.76865 20.8184 8.2749C20.8184 7.6874 20.8184 7.6749 20.6496 7.6124C20.3559 7.4999 20.3246 7.3999 20.3184 6.55615C20.3184 5.9499 20.2934 5.7374 20.2184 5.63115L20.1246 5.49365H11.3934C5.58086 5.4999 2.62461 5.51865 2.55586 5.5624Z" fill="#0CAF40"/>
<path d="M23.4319 11.5999C23.7444 11.6124 24.2694 11.6124 24.5881 11.5999C24.9006 11.5936 24.6444 11.5811 24.0069 11.5811C23.3694 11.5811 23.1131 11.5936 23.4319 11.5999Z" fill="#6B6B6B"/>
<path d="M24.6197 16.9124C25.4135 16.9249 26.726 16.9249 27.526 16.9124C28.3197 16.9061 27.6697 16.8999 26.0697 16.8999C24.4697 16.8999 23.8197 16.9061 24.6197 16.9124Z" fill="#6B6B6B"/>
<path d="M29.7448 18.4749C30.026 18.4874 30.4885 18.4874 30.776 18.4749C31.0573 18.4686 30.826 18.4561 30.2573 18.4561C29.6885 18.4561 29.4573 18.4686 29.7448 18.4749Z" fill="#6B6B6B"/>
<path d="M6.75653 22.1437C5.25653 22.5624 4.50028 24.1749 5.15028 25.5749C5.38778 26.0874 5.76278 26.4562 6.30653 26.7249C6.75653 26.9499 6.81278 26.9624 7.37528 26.9624C7.91278 26.9624 8.01903 26.9437 8.38153 26.7687C8.90028 26.5249 9.35028 26.0749 9.59403 25.5562C9.76903 25.1874 9.78778 25.0937 9.78778 24.5249C9.78778 23.8562 9.70028 23.5624 9.33778 23.0374C8.83153 22.3062 7.65028 21.8999 6.75653 22.1437ZM8.05028 23.1062C8.35028 23.2624 8.65028 23.5624 8.80028 23.8624C8.95653 24.1749 8.95028 24.8812 8.79403 25.1999C8.45028 25.8999 7.66903 26.2499 6.93778 26.0374C5.73153 25.6812 5.38778 24.1499 6.33778 23.3374C6.81278 22.9312 7.51278 22.8374 8.05028 23.1062Z" fill="#6B6B6B"/>
<path d="M25.4621 22.1811C24.7996 22.3998 24.2684 22.8748 23.9559 23.5373C23.8059 23.8561 23.7871 23.9748 23.7871 24.5248C23.7871 25.0748 23.8059 25.1936 23.9559 25.5123C24.5684 26.8248 26.0246 27.3436 27.2996 26.7123C28.7559 25.9936 29.1121 24.0873 28.0121 22.8561C27.4184 22.1873 26.3309 21.8998 25.4621 22.1811ZM26.6684 23.0248C27.5934 23.2998 28.0371 24.3811 27.5809 25.2498C27.1246 26.1248 26.0496 26.3686 25.2496 25.7811C24.4059 25.1623 24.4246 23.8373 25.2809 23.2561C25.7746 22.9248 26.1371 22.8623 26.6684 23.0248Z" fill="#6B6B6B"/>
<path d="M23.0568 22.2874C23.163 22.2999 23.3505 22.2999 23.463 22.2874C23.5693 22.2749 23.4818 22.2624 23.2568 22.2624C23.0318 22.2624 22.9443 22.2749 23.0568 22.2874Z" fill="#6B6B6B"/>
<path d="M29.4323 22.2874C29.7823 22.2999 30.3573 22.2999 30.7136 22.2874C31.0636 22.2811 30.7761 22.2686 30.0698 22.2686C29.3636 22.2686 29.0761 22.2811 29.4323 22.2874Z" fill="#6B6B6B"/>
<path d="M21.3184 16.9312V22.2437H22.0996H22.8809V19.5499V16.8562L22.7184 16.7249C22.4121 16.4874 22.3809 16.3062 22.3809 14.7562C22.3809 13.4687 22.3934 13.3124 22.5059 13.0937C22.5684 12.9624 22.6809 12.8124 22.7559 12.7624C22.8621 12.6874 22.8809 12.6062 22.8809 12.1437V11.6187H22.0996H21.3184V16.9312Z" fill="#C1ECEC"/>
<path d="M3.13086 23.7749V24.3062H3.53711C3.93711 24.3062 3.94336 24.3062 3.94336 24.1312C3.94336 24.0374 3.98711 23.8062 4.03711 23.6187C4.08711 23.4312 4.13086 23.2687 4.13086 23.2562C4.13086 23.2499 3.90586 23.2437 3.63086 23.2437H3.13086V23.7749Z" fill="#C1ECEC"/>
<path d="M10.7187 23.7749L10.85 24.3062H13.2375C14.9125 24.3062 15.675 24.3249 15.7812 24.3812C15.875 24.4187 15.975 24.5437 16.0187 24.6624L16.0937 24.8687H16.6687H17.2437L17.275 24.6812C17.35 24.3124 17.4187 24.3062 20.2125 24.3062H22.7437L22.7875 24.0062C22.8125 23.8437 22.8687 23.6062 22.9125 23.4749L22.9937 23.2437H16.7937H10.5938L10.7187 23.7749Z" fill="#C1ECEC"/>
<path d="M29.4691 23.3812C29.4941 23.4624 29.5441 23.6999 29.5879 23.9124L29.6566 24.3062H30.8316H32.0066V23.7749V23.2437H30.7191H29.4316L29.4691 23.3812Z" fill="#C1ECEC"/>
<path d="M7.07469 24.0186C6.90594 24.1124 6.76219 24.3436 6.75594 24.5124C6.74969 24.8374 7.11844 25.1561 7.45594 25.1061C7.56219 25.0936 7.59344 25.0561 7.56844 24.9624C7.53094 24.7999 7.53094 24.2499 7.56844 24.0874C7.59344 23.9874 7.56219 23.9624 7.41219 23.9499C7.31219 23.9374 7.15594 23.9686 7.07469 24.0186Z" fill="#C1ECEC"/>
<path d="M25.8246 24.0874C25.6621 24.2249 25.6309 24.2999 25.6309 24.5249C25.6309 24.7499 25.6621 24.8249 25.8246 24.9624C26.0684 25.1686 26.4246 25.1686 26.3934 24.9624C26.3809 24.8936 26.3746 24.6936 26.3746 24.5249C26.3746 24.3499 26.3809 24.1561 26.3934 24.0874C26.4246 23.8811 26.0684 23.8811 25.8246 24.0874Z" fill="#C1ECEC"/>
<path d="M22.8809 12.1312V12.6499L24.5621 12.6312L26.2496 12.6124L26.1496 12.3812C26.0246 12.0687 25.8371 11.8749 25.5371 11.7374C25.3246 11.6374 25.1184 11.6187 24.0871 11.6187H22.8809V12.1312Z" fill="#ECECEC"/>
<path d="M22.8809 19.5687V22.2437H23.2434C23.5684 22.2437 23.6246 22.2249 23.7934 22.0499C24.0809 21.7499 24.6121 21.4249 25.0934 21.2562C25.4559 21.1312 25.6559 21.0999 26.1934 21.0999C27.1496 21.0999 27.8621 21.3687 28.5121 21.9749L28.7996 22.2437H30.0621H31.3184V21.8687V21.4937H30.2496C29.0496 21.4937 28.8684 21.4499 28.6621 21.0999C28.5621 20.9374 28.5309 20.7562 28.5184 20.1187C28.4934 19.2062 28.5559 18.9062 28.8184 18.6499L29.0121 18.4624L30.1371 18.4437C30.7496 18.4312 31.2559 18.4124 31.2559 18.3937C31.2559 18.2687 31.0496 17.9249 30.8934 17.7937C30.7871 17.7062 30.3121 17.4812 29.8309 17.2874L28.9559 16.9374L25.9184 16.9187L22.8809 16.8999V19.5687Z" fill="#ECECEC"/>
<path d="M7.57461 24.1374C7.53711 24.2374 7.50586 24.4062 7.50586 24.5249C7.50586 24.6437 7.53711 24.8124 7.57461 24.9124L7.64336 25.0874L7.79336 24.9124C7.88711 24.7999 7.94336 24.6562 7.94336 24.5249C7.94336 24.3937 7.88711 24.2499 7.79336 24.1374L7.64336 23.9624L7.57461 24.1374Z" fill="#ECECEC"/>
<path d="M26.3806 24.2499C26.3118 24.4936 26.3431 24.7999 26.4431 24.9874C26.4806 25.0499 26.5118 25.0436 26.6181 24.9311C26.8056 24.7311 26.8368 24.5186 26.7243 24.2749C26.5681 23.9624 26.4618 23.9499 26.3806 24.2499Z" fill="#ECECEC"/>
</g>
</svg>
