<svg width="40" height="40" viewBox="0 0 40 40" fill="none" xmlns="http://www.w3.org/2000/svg">
<path d="M35.3313 16.344L20.3313 6.96902C20.2319 6.90694 20.1171 6.87402 20 6.87402C19.8829 6.87402 19.7681 6.90694 19.6688 6.96902L4.66875 16.344C4.57868 16.4003 4.50444 16.4786 4.45305 16.5716C4.40165 16.6645 4.37479 16.7691 4.375 16.8753V32.5003C4.375 32.666 4.44085 32.825 4.55806 32.9422C4.67527 33.0594 4.83424 33.1253 5 33.1253H35C35.1658 33.1253 35.3247 33.0594 35.4419 32.9422C35.5592 32.825 35.625 32.666 35.625 32.5003V16.8753C35.6252 16.7691 35.5984 16.6645 35.547 16.5716C35.4956 16.4786 35.4213 16.4003 35.3313 16.344Z" fill="#7C7C7C"/>
<path d="M37.8313 14.9627L20.3313 4.02518C20.2319 3.96309 20.1171 3.93018 20 3.93018C19.8829 3.93018 19.7681 3.96309 19.6688 4.02518L2.16875 14.9627C2.07957 15.0184 2.0059 15.0957 1.95455 15.1875C1.90321 15.2793 1.87584 15.3825 1.875 15.4877V18.4377C1.87478 18.5493 1.90448 18.659 1.96101 18.7553C2.01755 18.8516 2.09885 18.931 2.19647 18.9853C2.29409 19.0395 2.40446 19.0666 2.51609 19.0637C2.62773 19.0608 2.73655 19.0281 2.83125 18.9689L20 8.23768L37.1688 18.9689C37.2635 19.0281 37.3723 19.0608 37.4839 19.0637C37.5955 19.0666 37.7059 19.0395 37.8035 18.9853C37.9011 18.931 37.9825 18.8516 38.039 18.7553C38.0955 18.659 38.1252 18.5493 38.125 18.4377V15.4877C38.1242 15.3825 38.0968 15.2793 38.0454 15.1875C37.9941 15.0957 37.9204 15.0184 37.8313 14.9627Z" fill="#F62D51"/>
<path d="M30.625 19.375H9.375C9.02982 19.375 8.75 19.6548 8.75 20V32.5C8.75 32.8452 9.02982 33.125 9.375 33.125H30.625C30.9702 33.125 31.25 32.8452 31.25 32.5V20C31.25 19.6548 30.9702 19.375 30.625 19.375Z" fill="#333333"/>
<path d="M30.625 23.125H24.375C24.0298 23.125 23.75 23.4048 23.75 23.75V28.125C23.75 28.4702 24.0298 28.75 24.375 28.75H30.625C30.9702 28.75 31.25 28.4702 31.25 28.125V23.75C31.25 23.4048 30.9702 23.125 30.625 23.125Z" fill="#F17F53"/>
<path d="M24.0625 15H15.9375V16.25H24.0625V15Z" fill="#333333"/>
<path d="M24.375 27.5H18.125C17.7798 27.5 17.5 27.7798 17.5 28.125V32.5C17.5 32.8452 17.7798 33.125 18.125 33.125H24.375C24.7202 33.125 25 32.8452 25 32.5V28.125C25 27.7798 24.7202 27.5 24.375 27.5Z" fill="#F17F53"/>
<path d="M30.625 27.5H24.375C24.0298 27.5 23.75 27.7798 23.75 28.125V32.5C23.75 32.8452 24.0298 33.125 24.375 33.125H30.625C30.9702 33.125 31.25 32.8452 31.25 32.5V28.125C31.25 27.7798 30.9702 27.5 30.625 27.5Z" fill="#FF9F52"/>
</svg>
