<svg width="20" height="20" viewBox="0 0 20 20" fill="none" xmlns="http://www.w3.org/2000/svg">
<g clip-path="url(#clip0_398_46091)">
<path d="M13.9881 12.5H13.125V10H19.6894V12.5H17.8431" fill="#FF9F52"/>
<path d="M13.1232 6.25H16.7044L19.6832 10.0124L13.1182 10L13.1232 6.25Z" fill="#4CB3FF"/>
<path d="M14.375 10.625H15.0087" stroke="#505050" stroke-linecap="round" stroke-linejoin="round"/>
<path fill-rule="evenodd" clip-rule="evenodd" d="M19.6875 11.8749V11.2499H18.7544C18.3319 11.2437 18.3319 11.8812 18.7544 11.8749H19.6875Z" fill="#F17F53"/>
<path d="M13.4413 6.24376H13.1288L13.125 9.98872C13.125 10.0716 13.1579 10.1511 13.2165 10.2097C13.2751 10.2683 13.3546 10.3012 13.4375 10.3012L19.3775 10.3118C19.4375 10.3119 19.4963 10.2946 19.5468 10.2622C19.5973 10.2297 19.6374 10.1834 19.6623 10.1287C19.6871 10.0741 19.6957 10.0134 19.687 9.95401C19.6783 9.8946 19.6526 9.83893 19.6131 9.79372L16.9044 6.34431C16.8752 6.31075 16.8392 6.28381 16.7988 6.26527C16.7584 6.24674 16.7145 6.23703 16.67 6.23682C15.3125 6.23682 13.4413 6.24376 13.4413 6.24376ZM13.7538 6.8625H16.5287L18.6881 9.68561L13.75 9.67683L13.7538 6.86182V6.8625Z" fill="#FF9F52"/>
<path d="M0.3125 7.57683V4.375H13.125V12.5H0.3125V9.26872" fill="#2CDD65"/>
<path d="M1.77 13.75H0V12.5H20V13.75H7.37063H1.77Z" fill="#505050"/>
<path d="M15.6248 11.875C15.0709 11.8754 14.5328 12.0598 14.095 12.3991C13.6572 12.7385 13.3445 13.2137 13.2061 13.75H18.0429C17.9045 13.2138 17.5919 12.7387 17.1542 12.3993C16.7166 12.0599 16.1786 11.8756 15.6248 11.875Z" fill="#7C7C7C"/>
<path d="M5 15.625C5.34518 15.625 5.625 15.3452 5.625 15C5.625 14.6548 5.34518 14.375 5 14.375C4.65482 14.375 4.375 14.6548 4.375 15C4.375 15.3452 4.65482 15.625 5 15.625Z" stroke="#1A1A1A" stroke-linecap="round" stroke-linejoin="round"/>
<path d="M15.625 16.25C16.6605 16.25 17.5 15.4105 17.5 14.375C17.5 13.3395 16.6605 12.5 15.625 12.5C14.5895 12.5 13.75 13.3395 13.75 14.375C13.75 15.4105 14.5895 16.25 15.625 16.25Z" fill="#505050"/>
<path d="M15.625 15C15.9702 15 16.25 14.7202 16.25 14.375C16.25 14.0298 15.9702 13.75 15.625 13.75C15.2798 13.75 15 14.0298 15 14.375C15 14.7202 15.2798 15 15.625 15Z" fill="#E6E6E6"/>
<path d="M0.3125 8.12683H3.64563L3.65438 7.8125L3.65875 6.875L5.73063 8.74496L3.6475 10.625L3.65188 9.6875L3.64563 9.375H0.3125" fill="#D2F9DF"/>
<path d="M4.9998 11.875C4.44588 11.8754 3.90779 12.0598 3.47 12.3991C3.03221 12.7385 2.71953 13.2137 2.58105 13.75H7.41793C7.27948 13.2138 6.96689 12.7387 6.52923 12.3993C6.09157 12.0599 5.55362 11.8756 4.9998 11.875Z" fill="#7C7C7C"/>
<path d="M5 16.25C6.03553 16.25 6.875 15.4105 6.875 14.375C6.875 13.3395 6.03553 12.5 5 12.5C3.96447 12.5 3.125 13.3395 3.125 14.375C3.125 15.4105 3.96447 16.25 5 16.25Z" fill="#505050"/>
<path d="M5 15C5.34518 15 5.625 14.7202 5.625 14.375C5.625 14.0298 5.34518 13.75 5 13.75C4.65482 13.75 4.375 14.0298 4.375 14.375C4.375 14.7202 4.65482 15 5 15Z" fill="#E6E6E6"/>
<path fill-rule="evenodd" clip-rule="evenodd" d="M0.3125 11.875V11.25H1.54875C1.63163 11.25 1.71112 11.2829 1.76972 11.3415C1.82833 11.4001 1.86125 11.4796 1.86125 11.5625C1.86125 11.6454 1.82833 11.7248 1.76972 11.7834C1.71112 11.8421 1.63163 11.875 1.54875 11.875H0.3125Z" fill="#FF9F52"/>
</g>
<defs>
<clipPath id="clip0_398_46091">
<rect width="20" height="20" fill="white"/>
</clipPath>
</defs>
</svg>
