<svg width="140" height="143" viewBox="0 0 140 143" fill="none" xmlns="http://www.w3.org/2000/svg">
<path d="M70 140C108.66 140 140 108.66 140 70C140 31.3401 108.66 0 70 0C31.3401 0 0 31.3401 0 70C0 108.66 31.3401 140 70 140Z" fill="url(#paint0_linear_3923_432757)"/>
<g filter="url(#filter0_d_3923_432757)">
<mask id="mask0_3923_432757" style="mask-type:alpha" maskUnits="userSpaceOnUse" x="0" y="0" width="140" height="140">
<path d="M70 140C108.66 140 140 108.66 140 70C140 31.3401 108.66 0 70 0C31.3401 0 0 31.3401 0 70C0 108.66 31.3401 140 70 140Z" fill="url(#paint1_linear_3923_432757)"/>
</mask>
<g mask="url(#mask0_3923_432757)">
<path d="M110.133 40.1338H29.8659C27.2886 40.1338 25.1992 42.2231 25.1992 44.8005V142.8C25.1992 145.378 27.2886 147.467 29.8659 147.467H110.133C112.71 147.467 114.799 145.378 114.799 142.8V44.8005C114.799 42.2231 112.71 40.1338 110.133 40.1338Z" fill="white"/>
</g>
</g>
<path d="M61.5999 49.4668H37.3332C35.7868 49.4668 34.5332 50.7204 34.5332 52.2668C34.5332 53.8132 35.7868 55.0668 37.3332 55.0668H61.5999C63.1463 55.0668 64.3999 53.8132 64.3999 52.2668C64.3999 50.7204 63.1463 49.4668 61.5999 49.4668Z" fill="#E1EBFA"/>
<path d="M61.5999 88.667H37.3332C35.7868 88.667 34.5332 89.9206 34.5332 91.467C34.5332 93.0134 35.7868 94.267 37.3332 94.267H61.5999C63.1463 94.267 64.3999 93.0134 64.3999 91.467C64.3999 89.9206 63.1463 88.667 61.5999 88.667Z" fill="#E1EBFA"/>
<path d="M100.798 63.4668H39.1982C37.1363 63.4668 35.4648 65.1383 35.4648 67.2001V76.5335C35.4648 78.5953 37.1363 80.2668 39.1982 80.2668H100.798C102.86 80.2668 104.532 78.5953 104.532 76.5335V67.2001C104.532 65.1383 102.86 63.4668 100.798 63.4668Z" stroke="#0073E6" stroke-width="2"/>
<path d="M100.8 101.733H39.1999C36.6225 101.733 34.5332 103.823 34.5332 106.4V113.867C34.5332 116.444 36.6225 118.533 39.1999 118.533H100.8C103.377 118.533 105.467 116.444 105.467 113.867V106.4C105.467 103.823 103.377 101.733 100.8 101.733Z" fill="#DFEAFB"/>
<path d="M49.4658 29.8661C51.5276 29.8661 53.1991 28.1946 53.1991 26.1327C53.1991 24.0709 51.5276 22.3994 49.4658 22.3994C47.4039 22.3994 45.7324 24.0709 45.7324 26.1327C45.7324 28.1946 47.4039 29.8661 49.4658 29.8661Z" fill="white"/>
<path d="M69.999 29.8661C72.0608 29.8661 73.7323 28.1946 73.7323 26.1327C73.7323 24.0709 72.0608 22.3994 69.999 22.3994C67.9371 22.3994 66.2656 24.0709 66.2656 26.1327C66.2656 28.1946 67.9371 29.8661 69.999 29.8661Z" fill="#0073E6"/>
<path d="M90.5322 29.8661C92.594 29.8661 94.2655 28.1946 94.2655 26.1327C94.2655 24.0709 92.594 22.3994 90.5322 22.3994C88.4703 22.3994 86.7988 24.0709 86.7988 26.1327C86.7988 28.1946 88.4703 29.8661 90.5322 29.8661Z" fill="white"/>
<path d="M80.2682 82.1322C82.8456 82.1322 84.9349 80.0428 84.9349 77.4655C84.9349 74.8882 82.8456 72.7988 80.2682 72.7988C77.6909 72.7988 75.6016 74.8882 75.6016 77.4655C75.6016 80.0428 77.6909 82.1322 80.2682 82.1322Z" fill="#DFEAFB"/>
<path d="M83.9121 97.4109C83.1654 97.4109 82.4682 97.4109 81.8336 97.3708C81.0518 97.3179 80.2998 97.0504 79.6602 96.5977C79.0206 96.1451 78.5183 95.5248 78.2085 94.8051L74.2708 87.0229C73.982 86.6867 73.8378 86.2499 73.8696 85.8077C73.9014 85.3656 74.1067 84.954 74.4406 84.6625C74.7143 84.4426 75.0556 84.3242 75.4066 84.3275C75.6651 84.335 75.9188 84.3984 76.1504 84.5135C76.3819 84.6285 76.5857 84.7924 76.7478 84.9939L78.5361 87.4345L78.5632 87.4663V78.1936C78.5632 77.7335 78.7459 77.2923 79.0712 76.967C79.3965 76.6417 79.8377 76.459 80.2978 76.459C80.7578 76.459 81.199 76.6417 81.5243 76.967C81.8496 77.2923 82.0324 77.7335 82.0324 78.1936V84.2603C82.0122 84.037 82.0388 83.812 82.1104 83.5996C82.182 83.3872 82.2971 83.1921 82.4483 83.0266C82.5995 82.8611 82.7835 82.729 82.9886 82.6386C83.1937 82.5482 83.4154 82.5015 83.6396 82.5015C83.8637 82.5015 84.0854 82.5482 84.2905 82.6386C84.4956 82.729 84.6796 82.8611 84.8308 83.0266C84.982 83.1921 85.0971 83.3872 85.1687 83.5996C85.2403 83.812 85.2669 84.037 85.2468 84.2603V85.5249C85.2266 85.3017 85.2532 85.0767 85.3248 84.8643C85.3964 84.6519 85.5115 84.4567 85.6627 84.2913C85.8139 84.1258 85.9979 83.9937 86.203 83.9032C86.4081 83.8128 86.6298 83.7661 86.854 83.7661C87.0781 83.7661 87.2998 83.8128 87.5049 83.9032C87.71 83.9937 87.894 84.1258 88.0452 84.2913C88.1964 84.4567 88.3115 84.6519 88.3831 84.8643C88.4547 85.0767 88.4813 85.3017 88.4612 85.5249V86.4993C88.441 86.2761 88.4676 86.0511 88.5392 85.8387C88.6108 85.6263 88.7259 85.4311 88.8771 85.2657C89.0283 85.1002 89.2123 84.968 89.4174 84.8776C89.6225 84.7872 89.8442 84.7405 90.0684 84.7405C90.2925 84.7405 90.5142 84.7872 90.7193 84.8776C90.9244 84.968 91.1084 85.1002 91.2596 85.2657C91.4108 85.4311 91.5259 85.6263 91.5975 85.8387C91.6691 86.0511 91.6957 86.2761 91.6756 86.4993V92.4139C91.6438 94.2329 90.8216 97.2999 87.9292 97.2999C87.7192 97.3092 85.9402 97.4119 83.9158 97.4119L83.9121 97.4109Z" fill="#0073E6" stroke="white"/>
<defs>
<filter id="filter0_d_3923_432757" x="19.1992" y="31.1338" width="101.6" height="111.866" filterUnits="userSpaceOnUse" color-interpolation-filters="sRGB">
<feFlood flood-opacity="0" result="BackgroundImageFix"/>
<feColorMatrix in="SourceAlpha" type="matrix" values="0 0 0 0 0 0 0 0 0 0 0 0 0 0 0 0 0 0 127 0" result="hardAlpha"/>
<feOffset dy="-3"/>
<feGaussianBlur stdDeviation="3"/>
<feColorMatrix type="matrix" values="0 0 0 0 0.788235 0 0 0 0 0.803922 0 0 0 0 0.85098 0 0 0 0.349 0"/>
<feBlend mode="normal" in2="BackgroundImageFix" result="effect1_dropShadow_3923_432757"/>
<feBlend mode="normal" in="SourceGraphic" in2="effect1_dropShadow_3923_432757" result="shape"/>
</filter>
<linearGradient id="paint0_linear_3923_432757" x1="70" y1="0" x2="70" y2="140" gradientUnits="userSpaceOnUse">
<stop stop-color="#E3ECFA"/>
<stop offset="1" stop-color="#DAE7FF"/>
</linearGradient>
<linearGradient id="paint1_linear_3923_432757" x1="70" y1="0" x2="70" y2="140" gradientUnits="userSpaceOnUse">
<stop stop-color="#E3ECFA"/>
<stop offset="1" stop-color="#DAE7FF"/>
</linearGradient>
</defs>
</svg>
