<svg width="21" height="24" viewBox="0 0 21 24" fill="none" xmlns="http://www.w3.org/2000/svg">
<path d="M19.6772 6.03114C19.1729 4.86832 18.4459 3.81548 17.537 2.93203C16.6252 2.0406 15.5503 1.33308 14.371 0.848103C13.1442 0.339174 11.8424 0.0820312 10.5004 0.0820312C9.15845 0.0820312 7.85667 0.339174 6.62988 0.845424C5.44328 1.3356 4.37988 2.03739 3.46381 2.92935C2.55557 3.8133 1.82859 4.86601 1.32363 6.02846C0.801311 7.23382 0.536133 8.51417 0.536133 9.83203C0.536133 11.7231 0.988812 13.6061 1.8781 15.4222C2.59328 16.882 3.59238 18.3044 4.85131 19.657C7.0022 21.966 9.25756 23.3776 9.89774 23.7552C10.0795 23.8626 10.2867 23.919 10.4977 23.9186C10.7067 23.9186 10.9129 23.8651 11.0977 23.7552C11.7379 23.3776 13.9933 21.966 16.1442 19.657C17.4031 18.307 18.4022 16.882 19.1174 15.4222C20.012 13.6088 20.4647 11.7285 20.4647 9.83471C20.4647 8.51685 20.1995 7.2365 19.6772 6.03114ZM10.5004 21.8642C8.73524 20.7419 2.4647 16.2981 2.4647 9.83471C2.4647 7.7481 3.29774 5.78739 4.81113 4.30882C6.32988 2.82757 8.34953 2.0106 10.5004 2.0106C12.6513 2.0106 14.671 2.82757 16.1897 4.3115C17.7031 5.78739 18.5361 7.7481 18.5361 9.83471C18.5361 16.2981 12.2656 20.7419 10.5004 21.8642ZM10.5004 5.33203C7.89685 5.33203 5.78613 7.44275 5.78613 10.0463C5.78613 12.6499 7.89685 14.7606 10.5004 14.7606C13.104 14.7606 15.2147 12.6499 15.2147 10.0463C15.2147 7.44275 13.104 5.33203 10.5004 5.33203ZM12.6218 12.1677C12.3436 12.4468 12.0129 12.6681 11.6489 12.8188C11.2848 12.9696 10.8945 13.0469 10.5004 13.0463C9.69953 13.0463 8.94685 12.7329 8.37899 12.1677C8.09995 11.8895 7.87867 11.5588 7.72789 11.1948C7.57711 10.8307 7.4998 10.4404 7.50042 10.0463C7.50042 9.24542 7.81381 8.49275 8.37899 7.92489C8.94685 7.35703 9.69953 7.04632 10.5004 7.04632C11.3013 7.04632 12.054 7.35703 12.6218 7.92489C13.1897 8.49275 13.5004 9.24542 13.5004 10.0463C13.5004 10.8472 13.1897 11.5999 12.6218 12.1677Z" fill="#1A1A1A"/>
</svg>
