<svg width="16" height="12" viewBox="0 0 16 12" fill="none" xmlns="http://www.w3.org/2000/svg">
<path fill-rule="evenodd" clip-rule="evenodd" d="M7.99992 4.66671C7.6463 4.66671 7.30716 4.80718 7.05711 5.05723C6.80706 5.30728 6.66659 5.64642 6.66659 6.00004C6.66659 6.35366 6.80706 6.6928 7.05711 6.94285C7.30716 7.1929 7.6463 7.33337 7.99992 7.33337C8.35354 7.33337 8.69268 7.1929 8.94273 6.94285C9.19278 6.6928 9.33325 6.35366 9.33325 6.00004C9.33325 5.64642 9.19278 5.30728 8.94273 5.05723C8.69268 4.80718 8.35354 4.66671 7.99992 4.66671ZM6.1143 4.11442C6.6144 3.61433 7.29268 3.33337 7.99992 3.33337C8.70716 3.33337 9.38544 3.61433 9.88554 4.11442C10.3856 4.61452 10.6666 5.2928 10.6666 6.00004C10.6666 6.70728 10.3856 7.38556 9.88554 7.88566C9.38544 8.38576 8.70716 8.66671 7.99992 8.66671C7.29268 8.66671 6.6144 8.38576 6.1143 7.88566C5.6142 7.38556 5.33325 6.70728 5.33325 6.00004C5.33325 5.2928 5.6142 4.61452 6.1143 4.11442Z" fill="#333333"/>
<path fill-rule="evenodd" clip-rule="evenodd" d="M2.34126 5.99996C3.16493 8.3309 5.38874 9.99996 7.99992 9.99996C10.6117 9.99996 12.8349 8.33093 13.6586 5.99996C12.8349 3.66898 10.6117 1.99996 7.99992 1.99996C5.38874 1.99996 3.16493 3.66902 2.34126 5.99996ZM1.00255 5.80023C1.93664 2.82563 4.71577 0.666626 7.99992 0.666626C11.2848 0.666626 14.0632 2.82567 14.9973 5.80023C15.0381 5.93025 15.0381 6.06967 14.9973 6.19969C14.0632 9.17425 11.2848 11.3333 7.99992 11.3333C4.71577 11.3333 1.93664 9.17429 1.00255 6.19969C0.961716 6.06967 0.961716 5.93025 1.00255 5.80023Z" fill="#333333"/>
</svg>
