<svg width="20" height="20" viewBox="0 0 20 20" fill="none" xmlns="http://www.w3.org/2000/svg">
<g clip-path="url(#clip0_398_46113)">
<path d="M10.5447 2.75003L9.89467 3.50003H6.36967C3.74467 3.50003 2.80717 3.53753 2.65717 3.65003C2.28217 3.95003 1.55717 5.37503 1.55717 5.81253C1.55717 6.51253 1.99467 6.75003 3.26967 6.75003H4.33217L3.90717 7.25003C3.30717 7.93753 2.84467 8.93752 2.65717 9.91252L2.50717 10.7375L1.80717 10.775L1.11967 10.8125L1.08217 12.5C1.04467 14.5375 1.01967 14.5 2.53217 14.5H3.59467L4.01967 14.9875C4.59467 15.675 5.83217 16.4625 6.70717 16.725C7.46967 16.95 7.58217 17.0625 7.18217 17.1875C6.86967 17.2875 6.86967 17.3875 7.18217 17.725C7.36967 17.9125 7.59467 18 7.93217 18C8.33217 18 8.50717 17.9125 8.91967 17.5C9.56967 16.8375 9.91967 16.8375 10.5697 17.5C11.2572 18.2 11.7822 18.2 12.4322 17.5C12.7197 17.2 13.0072 17 13.1822 17C13.3572 17 13.6447 17.2 13.9322 17.5C14.3072 17.9125 14.4822 18 14.8447 18C15.1447 18 15.3947 17.9125 15.5572 17.75C15.8822 17.425 15.8697 17.325 15.5197 17.1625C15.2822 17.05 15.2072 17.0625 15.1072 17.225C15.0197 17.35 14.8947 17.3875 14.7572 17.3375C14.5572 17.2625 14.6072 17.15 15.1572 16.575C15.8072 15.8875 16.0572 15.3125 16.0572 14.4625C16.0572 14.0875 16.0072 13.9625 15.8072 13.9125C15.6197 13.8625 15.5572 13.7375 15.5572 13.425C15.5572 13.1375 15.4822 12.9625 15.3072 12.875C15.1447 12.7875 15.0572 12.6125 15.0572 12.375C15.0572 12.1375 14.9697 11.95 14.8072 11.85C14.2697 11.5125 14.5197 11.375 15.6697 11.375C16.4572 11.375 16.8197 11.325 16.9197 11.2C17.0197 11.0875 17.0572 10.4125 17.0322 9.11252L16.9947 7.18753L15.0697 7.15003L13.1447 7.11253L12.5697 6.58753C11.7197 5.81253 11.6947 5.46253 12.3822 4.10003C12.9447 2.98753 13.0572 2.42503 12.7822 2.15003C12.6947 2.06253 12.3072 2.00003 11.9197 2.00003H11.1947L10.5447 2.75003ZM12.4322 2.62503C12.4322 2.68753 12.1697 3.28753 11.8447 3.93753L11.2447 5.12503H10.7447C10.1447 5.12503 9.93217 5.30003 9.93217 5.77503V6.12503H8.74467C7.71967 6.12503 7.51967 6.08753 7.30717 5.87503C7.09467 5.66253 6.89467 5.62503 6.08217 5.62503C5.25717 5.62503 5.05717 5.66253 4.86967 5.87503C4.66967 6.08753 4.48217 6.12503 3.40717 6.12503C2.03217 6.12503 1.84467 6.01253 2.21967 5.38753C2.38217 5.12503 2.51967 5.05003 2.98217 5.02503C3.69467 4.97503 3.79467 4.66253 3.11967 4.60003C2.68217 4.56253 2.68217 4.55003 2.86967 4.27503C3.06967 4.00003 3.08217 4.00003 6.49467 4.00003H9.90717L10.1572 4.33753C10.4822 4.78753 10.7822 4.60003 10.5447 4.08753C10.4197 3.80003 10.4447 3.71253 10.9322 3.13753C11.4072 2.57503 11.5322 2.50003 11.9572 2.50003C12.2197 2.50003 12.4322 2.55003 12.4322 2.62503ZM11.4322 5.71253C11.4322 5.98753 10.9947 6.87503 10.8697 6.87503C10.7447 6.87503 10.3072 5.98753 10.3072 5.71253C10.3072 5.66253 10.5572 5.62503 10.8697 5.62503C11.1822 5.62503 11.4322 5.66253 11.4322 5.71253ZM7.11967 6.83753C7.26967 8.22502 7.26967 8.18753 6.91967 8.22502C6.64467 8.26252 6.49467 8.11253 5.89467 7.32503C5.49467 6.80003 5.18217 6.32503 5.18217 6.25003C5.18217 6.17503 5.55717 6.12503 6.10717 6.12503H7.04467L7.11967 6.83753ZM9.83217 7.36253C10.0947 7.73753 10.3072 8.08753 10.3072 8.15003C10.3072 8.20002 9.71967 8.25002 8.99467 8.25002C7.79467 8.25002 7.68217 8.22502 7.68217 8.01253C7.68217 7.88753 7.64467 7.52503 7.60717 7.20003L7.51967 6.61253L8.44467 6.65003L9.35717 6.68753L9.83217 7.36253ZM10.3322 7.00003C10.6197 7.51253 11.1197 7.51253 11.4072 7.00003C11.5197 6.80003 11.6572 6.62503 11.7197 6.62503C11.9322 6.62503 12.9322 7.76253 12.9322 8.00003C12.9322 8.25002 12.8697 8.26252 11.8697 8.22502L10.7947 8.18753L10.3697 7.40003C10.1322 6.97503 9.98217 6.62503 10.0322 6.62503C10.0822 6.62503 10.2197 6.80003 10.3322 7.00003ZM5.48217 7.48753C5.73217 7.82503 5.93217 8.12503 5.93217 8.17503C5.93217 8.21252 5.48217 8.25002 4.93217 8.25002C4.38217 8.25002 3.93217 8.20002 3.93217 8.13753C3.93217 8.03753 4.90717 6.87503 4.99467 6.87503C5.01967 6.87503 5.23217 7.15003 5.48217 7.48753ZM14.0572 8.12503L14.1197 8.56252H14.9947H15.8697L15.9322 8.12503C15.9822 7.78753 16.0572 7.67503 16.2822 7.65003C16.5572 7.61253 16.5572 7.62503 16.5572 9.17502V10.75H14.9947H13.4322V9.17502C13.4322 7.62503 13.4322 7.61253 13.7197 7.65003C13.9322 7.67503 14.0072 7.78753 14.0572 8.12503ZM15.5572 7.93753C15.5572 8.22502 15.5072 8.25002 14.9947 8.25002C14.4822 8.25002 14.4322 8.22502 14.4322 7.93753C14.4322 7.65003 14.4822 7.62503 14.9947 7.62503C15.5072 7.62503 15.5572 7.65003 15.5572 7.93753ZM6.05717 8.78752C6.05717 8.86252 5.99467 9.13752 5.93217 9.37502C5.78217 9.88752 5.74467 11.475 5.86967 12.3L5.95717 12.875H5.31967H4.68217V12.1125C4.68217 11.05 4.55717 10.875 3.80717 10.875C3.46967 10.875 3.16967 10.8375 3.14467 10.775C3.04467 10.6375 3.30717 9.36252 3.50717 8.97502C3.68217 8.62502 3.70717 8.62502 4.86967 8.62502C5.74467 8.62502 6.05717 8.66252 6.05717 8.78752ZM10.6447 9.13752C10.7197 9.38752 10.8322 9.95002 10.8822 10.3875C10.9447 11.05 10.9322 11.1625 10.7947 11.025C10.7072 10.95 10.3322 10.875 9.96967 10.875C9.34467 10.875 9.30717 10.8625 9.30717 10.5625C9.30717 10.3375 9.24467 10.25 9.05717 10.25C8.86967 10.25 8.80717 10.3375 8.80717 10.5625C8.80717 10.75 8.73217 10.875 8.63217 10.875C8.43217 10.875 8.30717 11.1375 8.30717 11.5625C8.30717 11.8125 8.23217 11.8625 7.84467 11.9C7.39467 11.9375 7.36967 11.9625 7.33217 12.4C7.29467 12.85 7.26967 12.875 6.86967 12.875C6.45717 12.875 6.44467 12.8625 6.29467 12.15C6.13217 11.3625 6.20717 9.82502 6.44467 9.08752L6.60717 8.62502L8.54467 8.65002L10.4947 8.68752L10.6447 9.13752ZM12.9322 9.70002C12.9322 10.9625 13.0447 11.25 13.5572 11.25C13.8697 11.25 13.9322 11.3 13.9322 11.5625C13.9322 11.85 13.8947 11.875 13.3322 11.875C12.6447 11.875 12.4322 12.025 12.4322 12.525C12.4322 12.8125 12.3822 12.875 12.1197 12.875C11.8447 12.875 11.8072 12.825 11.8072 12.425C11.8072 12.0875 11.7447 11.9625 11.5697 11.9125C11.3697 11.8625 11.3197 11.6875 11.2697 10.65C11.2197 9.97502 11.1572 9.25002 11.1072 9.02502L11.0322 8.62502H11.9822H12.9322V9.70002ZM2.18217 11.75C2.24467 12.1875 2.24467 12.1875 2.86967 12.1875H3.49467L3.53217 11.7125C3.56967 11.3125 3.61967 11.25 3.88217 11.25C4.18217 11.25 4.18217 11.25 4.18217 12.5625V13.875H2.86967H1.55717V12.55C1.55717 11.25 1.55717 11.2375 1.84467 11.275C2.05717 11.3 2.13217 11.4125 2.18217 11.75ZM3.18217 11.5625C3.18217 11.8125 3.11967 11.875 2.86967 11.875C2.61967 11.875 2.55717 11.8125 2.55717 11.5625C2.55717 11.3125 2.61967 11.25 2.86967 11.25C3.11967 11.25 3.18217 11.3125 3.18217 11.5625ZM10.4072 11.525C10.3697 11.7875 10.2947 11.8125 9.59467 11.85C8.81967 11.8875 8.80717 11.875 8.80717 11.5625C8.80717 11.2625 8.83217 11.25 9.63217 11.25C10.4072 11.25 10.4447 11.2625 10.4072 11.525ZM11.4322 12.5625V12.875H9.55717C7.81967 12.875 7.68217 12.8625 7.68217 12.65C7.68217 12.525 7.71967 12.375 7.76967 12.3375C7.80717 12.2875 8.65717 12.25 9.64467 12.25H11.4322V12.5625ZM14.5322 12.5875C14.5697 12.8625 14.5322 12.875 13.7572 12.875C12.9572 12.875 12.9322 12.8625 12.9322 12.5625C12.9322 12.25 12.9447 12.2375 13.7197 12.275C14.4197 12.3125 14.4947 12.3375 14.5322 12.5875ZM6.48217 14.0125C6.66967 14.3625 6.80717 14.75 6.80717 14.8625C6.80717 14.9875 6.94467 15.3625 7.11967 15.6875C7.28217 16.025 7.40717 16.325 7.38217 16.3375C7.35717 16.3625 7.01967 16.2625 6.63217 16.125C5.53217 15.7125 3.98217 14.425 4.40717 14.275C4.48217 14.25 4.58217 14.0375 4.63217 13.8L4.70717 13.375H5.44467H6.16967L6.48217 14.0125ZM7.30717 13.625C7.30717 13.7625 7.25717 13.875 7.18217 13.875C7.11967 13.875 7.01967 13.875 6.96967 13.8875C6.91967 13.8875 6.84467 13.775 6.78217 13.6375C6.70717 13.4125 6.74467 13.375 6.99467 13.375C7.21967 13.375 7.30717 13.4375 7.30717 13.625ZM11.4322 13.625C11.4322 13.8625 11.3447 13.875 9.55717 13.875C7.76967 13.875 7.68217 13.8625 7.68217 13.625C7.68217 13.3875 7.76967 13.375 9.55717 13.375C11.3447 13.375 11.4322 13.3875 11.4322 13.625ZM12.4322 13.625C12.4322 13.8125 12.3447 13.875 12.1197 13.875C11.8947 13.875 11.8072 13.8125 11.8072 13.625C11.8072 13.4375 11.8947 13.375 12.1197 13.375C12.3447 13.375 12.4322 13.4375 12.4322 13.625ZM13.4322 13.625C13.4322 13.7875 13.3447 13.875 13.1822 13.875C13.0197 13.875 12.9322 13.7875 12.9322 13.625C12.9322 13.4625 13.0197 13.375 13.1822 13.375C13.3447 13.375 13.4322 13.4625 13.4322 13.625ZM15.0572 13.625C15.0572 13.8375 14.9697 13.875 14.4947 13.875C14.0197 13.875 13.9322 13.8375 13.9322 13.625C13.9322 13.4125 14.0197 13.375 14.4947 13.375C14.9697 13.375 15.0572 13.4125 15.0572 13.625ZM15.5072 14.7625C15.3197 15.725 14.3822 16.875 13.9447 16.675C13.8322 16.625 13.5072 16.5625 13.2197 16.525C12.7572 16.4875 12.6447 16.525 12.1447 16.9875C11.8447 17.275 11.5322 17.5 11.4572 17.5C11.3697 17.5 11.2197 17.3625 11.1072 17.175C10.6947 16.5625 9.73217 16.3125 9.00717 16.6375C8.73217 16.7625 8.63217 16.7375 8.24467 16.45C8.00717 16.2625 7.71967 15.95 7.61967 15.7375L7.41967 15.375H10.1822C12.5447 15.375 12.9322 15.35 12.9322 15.1875C12.9322 15.025 12.5322 15 10.1322 15C7.23217 15 7.18217 14.9875 7.18217 14.4875C7.18217 14.425 8.91967 14.375 11.3822 14.375H15.5947L15.5072 14.7625ZM8.18217 17.1875C8.18217 17.375 7.64467 17.3375 7.58217 17.15C7.54467 17.025 7.63217 16.9875 7.85717 17.025C8.04467 17.05 8.18217 17.1125 8.18217 17.1875Z" fill="#151515"/>
<path d="M5.18262 4.8125C5.18262 4.9125 5.29512 5 5.43262 5C5.57012 5 5.68262 4.9125 5.68262 4.8125C5.68262 4.7125 5.57012 4.625 5.43262 4.625C5.29512 4.625 5.18262 4.7125 5.18262 4.8125Z" fill="#151515"/>
<path d="M6.30762 4.8125C6.30762 4.9125 6.39512 5 6.49512 5C6.59512 5 6.68262 4.9125 6.68262 4.8125C6.68262 4.7125 6.59512 4.625 6.49512 4.625C6.39512 4.625 6.30762 4.7125 6.30762 4.8125Z" fill="#151515"/>
<path d="M7.30762 4.8125C7.30762 4.9125 7.39512 5 7.49512 5C7.59512 5 7.68262 4.9125 7.68262 4.8125C7.68262 4.7125 7.59512 4.625 7.49512 4.625C7.39512 4.625 7.30762 4.7125 7.30762 4.8125Z" fill="#151515"/>
<path d="M8.30762 4.8125C8.30762 4.9125 8.42012 5 8.55762 5C8.69512 5 8.80762 4.9125 8.80762 4.8125C8.80762 4.7125 8.69512 4.625 8.55762 4.625C8.42012 4.625 8.30762 4.7125 8.30762 4.8125Z" fill="#151515"/>
<path d="M13.4326 15.1875C13.4326 15.2875 13.5451 15.375 13.6826 15.375C13.8201 15.375 13.9326 15.2875 13.9326 15.1875C13.9326 15.0875 13.8201 15 13.6826 15C13.5451 15 13.4326 15.0875 13.4326 15.1875Z" fill="#151515"/>
<path d="M14.5576 15.1875C14.5576 15.2875 14.6451 15.375 14.7451 15.375C14.8451 15.375 14.9326 15.2875 14.9326 15.1875C14.9326 15.0875 14.8451 15 14.7451 15C14.6451 15 14.5576 15.0875 14.5576 15.1875Z" fill="#151515"/>
<path d="M13.4326 4.3125C13.4326 4.5625 13.4951 4.625 13.7451 4.625C13.9951 4.625 14.0576 4.5625 14.0576 4.3125C14.0576 4.0625 13.9951 4 13.7451 4C13.4951 4 13.4326 4.0625 13.4326 4.3125Z" fill="#151515"/>
<path d="M14.4326 4.3125C14.4326 4.5625 14.4951 4.625 14.7451 4.625C14.9951 4.625 15.0576 4.5625 15.0576 4.3125C15.0576 4.0625 14.9951 4 14.7451 4C14.4951 4 14.4326 4.0625 14.4326 4.3125Z" fill="#151515"/>
<path d="M15.4326 4.3125C15.4326 4.5625 15.4951 4.625 15.7451 4.625C15.9951 4.625 16.0576 4.5625 16.0576 4.3125C16.0576 4.0625 15.9951 4 15.7451 4C15.4951 4 15.4326 4.0625 15.4326 4.3125Z" fill="#151515"/>
<path d="M15.4326 5.3125C15.4326 5.5625 15.4951 5.625 15.7451 5.625C15.9951 5.625 16.0576 5.5625 16.0576 5.3125C16.0576 5.0625 15.9951 5 15.7451 5C15.4951 5 15.4326 5.0625 15.4326 5.3125Z" fill="#151515"/>
<path d="M15.4326 6.4375C15.4326 6.6875 15.4951 6.75 15.7451 6.75C15.9951 6.75 16.0576 6.6875 16.0576 6.4375C16.0576 6.1875 15.9951 6.125 15.7451 6.125C15.4951 6.125 15.4326 6.1875 15.4326 6.4375Z" fill="#151515"/>
<path d="M2.05762 15.1875C2.05762 15.4375 2.12012 15.5 2.37012 15.5C2.62012 15.5 2.68262 15.4375 2.68262 15.1875C2.68262 14.9375 2.62012 14.875 2.37012 14.875C2.12012 14.875 2.05762 14.9375 2.05762 15.1875Z" fill="#151515"/>
<path d="M2.05762 16.1875C2.05762 16.4375 2.12012 16.5 2.37012 16.5C2.62012 16.5 2.68262 16.4375 2.68262 16.1875C2.68262 15.9375 2.62012 15.875 2.37012 15.875C2.12012 15.875 2.05762 15.9375 2.05762 16.1875Z" fill="#151515"/>
<path d="M2.05762 17.1875C2.05762 17.4375 2.12012 17.5 2.37012 17.5C2.62012 17.5 2.68262 17.4375 2.68262 17.1875C2.68262 16.9375 2.62012 16.875 2.37012 16.875C2.12012 16.875 2.05762 16.9375 2.05762 17.1875Z" fill="#151515"/>
<path d="M3.05762 17.1875C3.05762 17.4375 3.12012 17.5 3.37012 17.5C3.62012 17.5 3.68262 17.4375 3.68262 17.1875C3.68262 16.9375 3.62012 16.875 3.37012 16.875C3.12012 16.875 3.05762 16.9375 3.05762 17.1875Z" fill="#151515"/>
<path d="M4.05762 17.1875C4.05762 17.4375 4.12012 17.5 4.37012 17.5C4.62012 17.5 4.68262 17.4375 4.68262 17.1875C4.68262 16.9375 4.62012 16.875 4.37012 16.875C4.12012 16.875 4.05762 16.9375 4.05762 17.1875Z" fill="#151515"/>
<path d="M3.55762 4.78751C3.55762 4.93751 3.40762 5.00001 2.97012 5.03751L2.37012 5.07501L2.97012 5.10001C3.40762 5.12501 3.58262 5.07501 3.64512 4.93751C3.68262 4.82501 3.68262 4.70001 3.63262 4.66251C3.59512 4.61251 3.55762 4.67501 3.55762 4.78751Z" fill="#404040"/>
<path d="M6.23242 4.8751C6.24492 4.9751 6.35742 5.0751 6.49492 5.0876C6.68242 5.1001 6.68242 5.0876 6.53242 5.0501C6.41992 5.0126 6.29492 4.9126 6.26992 4.8376C6.24492 4.7501 6.23242 4.7751 6.23242 4.8751Z" fill="#404040"/>
<path d="M7.68242 4.78756C7.68242 4.88756 7.58242 5.01256 7.46992 5.03756C7.25742 5.08756 7.25742 5.10006 7.46992 5.11256C7.69492 5.12506 7.90742 4.80006 7.75742 4.66256C7.71992 4.61256 7.68242 4.67506 7.68242 4.78756Z" fill="#404040"/>
<path d="M7.72009 12.4376C7.68259 12.5501 7.68259 12.6751 7.73259 12.7126C7.77009 12.7626 7.80759 12.7001 7.80759 12.5876C7.80759 12.4126 8.03259 12.3751 9.59509 12.3376L11.3701 12.3001L9.58259 12.2751C8.07009 12.2501 7.78259 12.2751 7.72009 12.4376Z" fill="#404040"/>
<path d="M14.4701 15.0626C14.4326 15.1751 14.4326 15.3001 14.4826 15.3376C14.5201 15.3876 14.5576 15.3251 14.5576 15.2126C14.5576 15.1126 14.6576 14.9876 14.7826 14.9626C14.9826 14.9126 14.9826 14.9001 14.7701 14.8876C14.6451 14.8876 14.5201 14.9626 14.4701 15.0626Z" fill="#404040"/>
<path d="M13.4326 9.25V10.75H14.9951H16.5576V9.25C16.5576 7.8375 16.5451 7.75 16.3076 7.75C16.1201 7.75 16.0576 7.8375 16.0576 8.1C16.0576 8.625 15.8451 8.75 14.9951 8.75C14.1451 8.75 13.9326 8.625 13.9326 8.1C13.9326 7.8375 13.8701 7.75 13.6826 7.75C13.4451 7.75 13.4326 7.8375 13.4326 9.25Z" fill="#FFBB85"/>
<path d="M1.55762 12.625V13.875H2.80762H4.05762V12.625C4.05762 11.6 4.02012 11.375 3.87012 11.375C3.75762 11.375 3.68262 11.4875 3.68262 11.675C3.68262 12.0875 3.37012 12.375 2.92012 12.375C2.33262 12.375 2.05762 12.1625 2.05762 11.75C2.05762 11.4625 2.00762 11.375 1.80762 11.375C1.57012 11.375 1.55762 11.4625 1.55762 12.625Z" fill="#FFBB85"/>
<path d="M10.445 5.77498C10.445 5.86248 10.545 6.16248 10.67 6.42498L10.8825 6.91248L11.095 6.36248C11.37 5.62498 11.37 5.62498 10.87 5.62498C10.595 5.62498 10.4325 5.68748 10.445 5.77498Z" fill="#EC966B"/>
<path d="M5.35719 6.3125C5.39469 6.4125 5.69469 6.8625 6.01969 7.3C6.43219 7.8625 6.70719 8.1125 6.89469 8.125C7.14469 8.125 7.15719 8.0875 7.09469 7.3375C6.99469 6.1875 6.93219 6.125 6.04469 6.125C5.41969 6.125 5.29469 6.1625 5.35719 6.3125Z" fill="#EC966B"/>
<path d="M7.80762 12.5625C7.80762 12.725 8.08262 12.75 9.55762 12.75C11.0326 12.75 11.3076 12.725 11.3076 12.5625C11.3076 12.4 11.0326 12.375 9.55762 12.375C8.08262 12.375 7.80762 12.4 7.80762 12.5625Z" fill="#96C1C1"/>
<path d="M7.80762 13.625C7.80762 13.8625 7.89512 13.875 9.55762 13.875C11.2201 13.875 11.3076 13.8625 11.3076 13.625C11.3076 13.3875 11.2201 13.375 9.55762 13.375C7.89512 13.375 7.80762 13.3875 7.80762 13.625Z" fill="#96C1C1"/>
<path d="M14.0576 13.625C14.0576 13.825 14.1451 13.875 14.4951 13.875C14.8451 13.875 14.9326 13.825 14.9326 13.625C14.9326 13.425 14.8451 13.375 14.4951 13.375C14.1451 13.375 14.0576 13.425 14.0576 13.625Z" fill="#96C1C1"/>
<path d="M7.70801 7.37495C7.74551 7.72495 7.79551 8.03745 7.83301 8.07495C7.87051 8.09995 8.42051 8.11245 9.05801 8.09995L10.208 8.06245L9.78301 7.43745L9.37051 6.81245L8.50801 6.77495L7.64551 6.73745L7.70801 7.37495Z" fill="#0083E6"/>
<path d="M11.4955 7C11.3955 7.3 10.983 7.55 10.733 7.45C10.5205 7.3625 10.5205 7.4 10.708 7.8125C10.8455 8.1125 10.8955 8.125 11.8955 8.125C12.4955 8.125 12.933 8.075 12.933 8C12.933 7.825 11.883 6.75 11.708 6.75C11.633 6.75 11.533 6.8625 11.4955 7Z" fill="#0083E6"/>
<path d="M4.50762 7.5C4.25762 7.775 4.05762 8.025 4.05762 8.0625C4.05762 8.1 4.45762 8.125 4.94512 8.125H5.82012L5.42012 7.5625C5.19512 7.25 5.00762 7 4.98262 7C4.97012 7 4.75762 7.225 4.50762 7.5Z" fill="#0083E6"/>
<path d="M3.60762 8.8875C3.49512 9.075 3.18262 10.2625 3.18262 10.525C3.18262 10.7125 3.29512 10.75 3.78262 10.75C4.10762 10.75 4.44512 10.8125 4.53262 10.9C4.62012 10.9875 4.68262 11.4 4.68262 11.9V12.75H5.29512H5.90762L5.78262 12.2125C5.65762 11.6875 5.72012 9.7375 5.88262 9.0875L5.95762 8.75H4.83262C4.14512 8.75 3.67012 8.8 3.60762 8.8875Z" fill="#0083E6"/>
<path d="M6.53276 9.08748C6.34526 9.54998 6.25776 11.55 6.39526 12.1875C6.48276 12.6 6.55776 12.7 6.84526 12.725C7.13276 12.7625 7.18276 12.725 7.18276 12.45C7.18276 12.0625 7.48276 11.75 7.87026 11.75C8.09526 11.75 8.17026 11.6625 8.23276 11.325C8.28276 11.05 8.40776 10.8625 8.55776 10.8125C8.69526 10.7625 8.80776 10.625 8.80776 10.4875C8.80776 10.3375 8.89526 10.25 9.05776 10.25C9.22026 10.25 9.30776 10.3375 9.30776 10.4875C9.30776 10.6875 9.42026 10.7375 10.0578 10.775L10.8078 10.8125L10.7953 10.4375C10.7953 10.225 10.7203 9.77498 10.6328 9.43748L10.4953 8.81248L8.58276 8.77498L6.68276 8.73748L6.53276 9.08748Z" fill="#0083E6"/>
<path d="M11.2572 9.525C11.3572 9.9625 11.4322 10.6375 11.4322 11.025C11.4322 11.6125 11.4822 11.7625 11.6822 11.875C11.8447 11.9625 11.9322 12.1375 11.9322 12.375C11.9322 12.625 11.9947 12.75 12.1197 12.75C12.2197 12.75 12.3072 12.65 12.3072 12.525C12.3072 12.0625 12.6572 11.7625 13.2697 11.725C13.8447 11.6875 14.2197 11.375 13.6822 11.375C13.0197 11.375 12.9322 11.2 12.9322 9.9375V8.75H12.0197H11.0947L11.2572 9.525Z" fill="#0083E6"/>
<path d="M4.68227 13.725C4.68227 13.9125 4.61977 14.1375 4.55727 14.2C4.48227 14.275 4.45727 14.425 4.49477 14.525C4.65727 14.9375 6.14477 15.9125 7.01977 16.175L7.28227 16.2625L7.04477 15.7875C6.91977 15.5375 6.80727 15.25 6.80727 15.15C6.80727 15.0625 6.65727 14.625 6.46977 14.1875L6.11977 13.375H5.40727C4.69477 13.375 4.68227 13.3875 4.68227 13.725Z" fill="#0083E6"/>
<path d="M6.85806 13.575C6.89556 13.6875 6.93306 13.8 6.93306 13.825C6.93306 13.85 6.99556 13.875 7.05806 13.875C7.13306 13.875 7.18306 13.7625 7.18306 13.625C7.18306 13.475 7.09556 13.375 6.98306 13.375C6.84556 13.375 6.80806 13.4375 6.85806 13.575Z" fill="#0083E6"/>
<path d="M7.30762 14.6875C7.30762 14.85 7.70762 14.875 10.1201 14.875H12.9326V15.1875V15.5H10.3076C8.87012 15.5 7.68262 15.525 7.68262 15.5625C7.68262 15.725 8.09512 16.25 8.37012 16.425C8.63262 16.6 8.75762 16.6 9.23262 16.475C9.95762 16.2875 10.7076 16.4875 11.0826 17C11.4201 17.475 11.5951 17.475 11.9326 17C12.2826 16.5125 13.0201 16.2875 13.6451 16.475C14.0576 16.6 14.1451 16.5875 14.5076 16.3125C14.7326 16.15 15.0201 15.7625 15.1701 15.4625C15.6701 14.425 15.9451 14.5 11.3701 14.5C7.84512 14.5 7.30762 14.525 7.30762 14.6875ZM14.0576 15.1875C14.0576 15.4375 13.9951 15.5 13.7451 15.5C13.4951 15.5 13.4326 15.4375 13.4326 15.1875C13.4326 14.9375 13.4951 14.875 13.7451 14.875C13.9951 14.875 14.0576 14.9375 14.0576 15.1875ZM15.0576 15.1875C15.0576 15.4375 14.9951 15.5 14.7451 15.5C14.4951 15.5 14.4326 15.4375 14.4326 15.1875C14.4326 14.9375 14.4951 14.875 14.7451 14.875C14.9951 14.875 15.0576 14.9375 15.0576 15.1875Z" fill="#D2F9DF"/>
<path d="M10.995 3.2C10.57 3.7125 10.545 3.8 10.67 4.0875C10.795 4.3625 10.7825 4.45 10.62 4.6125C10.4325 4.8 10.395 4.7875 10.17 4.4625L9.90754 4.125H6.49504C3.62004 4.125 3.07004 4.15 2.93254 4.3125C2.79504 4.475 2.84504 4.5 3.23254 4.5C3.63254 4.5 3.68254 4.5375 3.68254 4.8C3.68254 5.0875 3.63254 5.1125 3.03254 5.15C2.44504 5.1875 2.35754 5.225 2.25754 5.5375C2.08254 6.025 2.28254 6.125 3.55754 6.125C4.48254 6.125 4.64504 6.0875 4.78254 5.875C4.92004 5.65 5.07004 5.625 6.12004 5.625C7.17004 5.625 7.32004 5.65 7.45754 5.875C7.59504 6.1 7.75754 6.125 8.70754 6.125H9.80754V5.7625C9.80754 5.3125 10.195 5 10.77 5C11.1575 5 11.2075 4.95 11.745 3.875C12.0575 3.2625 12.3075 2.725 12.3075 2.6875C12.3075 2.65 12.12 2.625 11.8825 2.625C11.5325 2.625 11.3825 2.725 10.995 3.2ZM5.78254 4.8375C5.82004 5.075 5.77004 5.125 5.50754 5.125C5.24504 5.125 5.18254 5.0625 5.18254 4.8C5.18254 4.5375 5.23254 4.4875 5.47004 4.525C5.64504 4.55 5.75754 4.6625 5.78254 4.8375ZM6.80754 4.8125C6.80754 5.0625 6.74504 5.125 6.49504 5.125C6.24504 5.125 6.18254 5.0625 6.18254 4.8125C6.18254 4.5625 6.24504 4.5 6.49504 4.5C6.74504 4.5 6.80754 4.5625 6.80754 4.8125ZM7.80754 4.8125C7.80754 5.0625 7.74504 5.125 7.49504 5.125C7.24504 5.125 7.18254 5.0625 7.18254 4.8125C7.18254 4.5625 7.24504 4.5 7.49504 4.5C7.74504 4.5 7.80754 4.5625 7.80754 4.8125ZM8.80754 4.8125C8.80754 5.0625 8.74504 5.125 8.49504 5.125C8.27004 5.125 8.18254 5.0625 8.18254 4.9C8.18254 4.6 8.28254 4.5 8.58254 4.5C8.74504 4.5 8.80754 4.5875 8.80754 4.8125Z" fill="#ECECEC"/>
<path d="M8.80762 11.5625C8.80762 11.7125 8.97012 11.75 9.55762 11.75C10.1451 11.75 10.3076 11.7125 10.3076 11.5625C10.3076 11.4125 10.1451 11.375 9.55762 11.375C8.97012 11.375 8.80762 11.4125 8.80762 11.5625Z" fill="#ECECEC"/>
<path d="M12.9326 12.5625C12.9326 12.7125 13.0951 12.75 13.6826 12.75C14.2701 12.75 14.4326 12.7125 14.4326 12.5625C14.4326 12.4125 14.2701 12.375 13.6826 12.375C13.0951 12.375 12.9326 12.4125 12.9326 12.5625Z" fill="#ECECEC"/>
<path d="M12.9326 13.625C12.9326 13.7875 13.0201 13.875 13.1826 13.875C13.3451 13.875 13.4326 13.7875 13.4326 13.625C13.4326 13.4625 13.3451 13.375 13.1826 13.375C13.0201 13.375 12.9326 13.4625 12.9326 13.625Z" fill="#ECECEC"/>
</g>
<defs>
<clipPath id="clip0_398_46113">
<rect width="16" height="16" fill="white" transform="translate(1.05762 2)"/>
</clipPath>
</defs>
</svg>
