<svg
  width="16"
  height="16"
  viewBox="0 0 16 16"
  fill="none"
  xmlns="http://www.w3.org/2000/svg"
>
  <path
    d="M6.82393 8L7.17748 7.64644L9.81183 5.0121C9.81185 5.01208 9.81187 5.01206 9.81188 5.01204C9.86809 4.95579 9.89967 4.87952 9.89967 4.8C9.89967 4.7205 9.86811 4.64425 9.81194 4.588C9.8119 4.58797 9.81187 4.58793 9.81183 4.5879M6.82393 8L9.81183 4.5879M6.82393 8L7.17748 8.35355L9.81188 10.988L9.81183 10.988L9.81808 10.994C9.84673 11.0217 9.86959 11.0548 9.88531 11.0914C9.90103 11.128 9.90931 11.1674 9.90966 11.2072C9.91 11.2471 9.90241 11.2866 9.88733 11.3234C9.87224 11.3603 9.84997 11.3938 9.8218 11.422C9.79363 11.4501 9.76014 11.4724 9.72327 11.4875L9.9126 11.9503L9.72327 11.4875C9.6864 11.5026 9.64689 11.5102 9.60706 11.5098C9.56723 11.5095 9.52786 11.5012 9.49126 11.4855C9.45466 11.4697 9.42156 11.4469 9.39388 11.4182L9.39394 11.4182L9.38779 11.412L6.18784 8.2121C6.18783 8.21208 6.18781 8.21206 6.18779 8.21204C6.13158 8.15579 6.10001 8.07952 6.10001 8C6.10001 7.92047 6.13158 7.8442 6.18779 7.78795C6.18781 7.78793 6.18783 7.78791 6.18784 7.7879L9.38774 4.588M6.82393 8L9.38774 4.588M9.81183 4.5879C9.75558 4.53172 9.67934 4.50017 9.59984 4.50017C9.52031 4.50017 9.44404 4.53174 9.38779 4.58795M9.81183 4.5879L9.38779 4.58795M9.38779 4.58795L9.38774 4.588M9.38779 4.58795L9.38774 4.588"
    fill="white"
    stroke="white"
  />
</svg>
