<svg width="20" height="20" viewBox="0 0 20 20" fill="none" xmlns="http://www.w3.org/2000/svg">
<path fill-rule="evenodd" clip-rule="evenodd" d="M4.99996 4.16667C4.55793 4.16667 4.13401 4.34226 3.82145 4.65482C3.50889 4.96738 3.33329 5.39131 3.33329 5.83333V14.1667C3.33329 14.6087 3.50889 15.0326 3.82145 15.3452C4.13401 15.6577 4.55793 15.8333 4.99996 15.8333H8.33329C8.77532 15.8333 9.19924 15.6577 9.5118 15.3452C9.82437 15.0326 9.99996 14.6087 9.99996 14.1667V13.3333C9.99996 12.8731 10.3731 12.5 10.8333 12.5C11.2935 12.5 11.6666 12.8731 11.6666 13.3333V14.1667C11.6666 15.0507 11.3154 15.8986 10.6903 16.5237C10.0652 17.1488 9.21735 17.5 8.33329 17.5H4.99996C4.1159 17.5 3.26806 17.1488 2.64294 16.5237C2.01782 15.8986 1.66663 15.0507 1.66663 14.1667V5.83333C1.66663 4.94928 2.01782 4.10143 2.64294 3.47631C3.26806 2.85119 4.1159 2.5 4.99996 2.5H8.33329C9.21735 2.5 10.0652 2.85119 10.6903 3.47631C11.3154 4.10143 11.6666 4.94928 11.6666 5.83333V6.66667C11.6666 7.1269 11.2935 7.5 10.8333 7.5C10.3731 7.5 9.99996 7.1269 9.99996 6.66667V5.83333C9.99996 5.39131 9.82437 4.96738 9.5118 4.65482C9.19924 4.34226 8.77532 4.16667 8.33329 4.16667H4.99996ZM13.5774 6.07741C13.9028 5.75197 14.4304 5.75197 14.7559 6.07741L18.0892 9.41074C18.4147 9.73618 18.4147 10.2638 18.0892 10.5893L14.7559 13.9226C14.4304 14.248 13.9028 14.248 13.5774 13.9226C13.2519 13.5972 13.2519 13.0695 13.5774 12.7441L15.4881 10.8333H5.83329C5.37306 10.8333 4.99996 10.4602 4.99996 10C4.99996 9.53976 5.37306 9.16667 5.83329 9.16667H15.4881L13.5774 7.25592C13.2519 6.93049 13.2519 6.40285 13.5774 6.07741Z" fill="#7C7C7C"/>
</svg>
