<svg width="12" height="10" viewBox="0 0 12 10" fill="none" xmlns="http://www.w3.org/2000/svg">
<path fill-rule="evenodd" clip-rule="evenodd" d="M0 0.999919C0 0.631729 0.298477 0.333252 0.666667 0.333252H11.3333C11.7015 0.333252 12 0.631729 12 0.999919C12 1.36811 11.7015 1.66659 11.3333 1.66659H0.666667C0.298477 1.66659 0 1.36811 0 0.999919ZM0 4.99992C0 4.63173 0.298477 4.33325 0.666667 4.33325H11.3333C11.7015 4.33325 12 4.63173 12 4.99992C12 5.36811 11.7015 5.66659 11.3333 5.66659H0.666667C0.298477 5.66659 0 5.36811 0 4.99992ZM0 8.99992C0 8.63173 0.298477 8.33325 0.666667 8.33325H5.33333C5.70152 8.33325 6 8.63173 6 8.99992C6 9.36811 5.70152 9.66659 5.33333 9.66659H0.666667C0.298477 9.66659 0 9.36811 0 8.99992Z" fill="#333333"/>
</svg>
