<svg width="48" height="48" viewBox="0 0 48 48" fill="none" xmlns="http://www.w3.org/2000/svg">
<path d="M43.7151 2.57788C43.5116 2.57788 43.3026 2.61538 43.0937 2.7011L12.2151 15.1082H3.42941C2.95798 15.1082 2.57227 15.5047 2.57227 15.9975V32.0154C2.57227 32.5082 2.95798 32.9047 3.42941 32.9047H8.87762C8.67941 33.5261 8.57227 34.185 8.57227 34.8547C8.57227 38.385 11.4544 41.2565 15.0008 41.2565C17.9687 41.2565 20.4705 39.2422 21.2098 36.5207L43.0991 45.3172C43.308 45.3975 43.5169 45.4404 43.7205 45.4404C44.6258 45.4404 45.4348 44.6797 45.4348 43.6618V4.35645C45.4294 3.3386 44.6258 2.57788 43.7151 2.57788ZM15.0008 37.4154C13.5812 37.4154 12.4294 36.269 12.4294 34.8547C12.4294 34.2547 12.6383 33.6815 13.0187 33.2261L17.5669 35.0529C17.4598 36.3707 16.3508 37.4154 15.0008 37.4154V37.4154ZM41.5723 40.544L13.6508 29.3261L12.9598 29.0475H6.42941V18.9654H12.9598L13.6508 18.6868L41.5723 7.46895V40.544V40.544Z" fill="#FF821E"/>
</svg>
