<svg width="48" height="48" viewBox="0 0 48 48" fill="none" xmlns="http://www.w3.org/2000/svg">
<path fill-rule="evenodd" clip-rule="evenodd" d="M24 44C35.0457 44 44 35.0457 44 24C44 12.9543 35.0457 4 24 4C12.9543 4 4 12.9543 4 24C4 35.0457 12.9543 44 24 44ZM21.4142 18.5858C20.6332 17.8047 19.3668 17.8047 18.5858 18.5858C17.8047 19.3668 17.8047 20.6332 18.5858 21.4142L21.1716 24L18.5858 26.5858C17.8047 27.3668 17.8047 28.6332 18.5858 29.4142C19.3668 30.1953 20.6332 30.1953 21.4142 29.4142L24 26.8284L26.5858 29.4142C27.3668 30.1953 28.6332 30.1953 29.4142 29.4142C30.1953 28.6332 30.1953 27.3668 29.4142 26.5858L26.8284 24L29.4142 21.4142C30.1953 20.6332 30.1953 19.3668 29.4142 18.5858C28.6332 17.8047 27.3668 17.8047 26.5858 18.5858L24 21.1716L21.4142 18.5858Z" fill="#E60A32"/>
</svg>
