<svg width="16" height="16" viewBox="0 0 16 16" fill="none" xmlns="http://www.w3.org/2000/svg">
<mask id="mask0_5322_13452" style="mask-type:alpha" maskUnits="userSpaceOnUse" x="0" y="0" width="16" height="16">
<g clip-path="url(#clip0_5322_13452)">
<path d="M7.35673 5.98393C7.35673 5.91429 7.30137 5.85714 7.23173 5.85714H6.48173C6.41387 5.85714 6.35673 5.91429 6.35673 5.98393V7.5H4.8478C4.77458 7.5 4.71387 7.55536 4.71387 7.625V8.375C4.71387 8.44286 4.77458 8.5 4.8478 8.5H6.35673V10.0161C6.35673 10.0857 6.41387 10.1429 6.48173 10.1429H7.23173C7.30137 10.1429 7.35673 10.0857 7.35673 10.0161V8.5H8.86565C8.93887 8.5 8.99958 8.44286 8.99958 8.375V7.625C8.99958 7.55536 8.93887 7.5 8.86565 7.5H7.35673V5.98393ZM8.86565 11.4286H4.8478C4.77458 11.4286 4.71387 11.4857 4.71387 11.5536V12.3036C4.71387 12.3714 4.77458 12.4286 4.8478 12.4286H8.86565C8.93887 12.4286 8.99958 12.3714 8.99958 12.3036V11.5536C8.99958 11.4857 8.93887 11.4286 8.86565 11.4286ZM8.73887 2.45357C8.63173 2.34643 8.48708 2.28571 8.3353 2.28571H2.2853C1.96922 2.28571 1.71387 2.54107 1.71387 2.85714V15.4286C1.71387 15.7446 1.96922 16 2.2853 16H11.4282C11.7442 16 11.9996 15.7446 11.9996 15.4286V5.95179C11.9996 5.8 11.9389 5.65536 11.8317 5.54821L8.73887 2.45357ZM10.7139 14.7143H2.99958V3.57143H8.03887L10.7139 6.24643V14.7143ZM14.1103 4.33214L9.7728 0.158929C9.66565 0.0571429 9.52458 0 9.37637 0H4.14244C4.06387 0 3.99958 0.0642857 3.99958 0.142857V1.14286C3.99958 1.22143 4.06387 1.28571 4.14244 1.28571H9.08887L12.9996 5.04643V13.5714C12.9996 13.65 13.0639 13.7143 13.1424 13.7143H14.1424C14.221 13.7143 14.2853 13.65 14.2853 13.5714V4.74286C14.2853 4.5875 14.2228 4.43929 14.1103 4.33214Z" fill="#1A1A1A"/>
</g>
</mask>
<g mask="url(#mask0_5322_13452)">
<path d="M15.5996 0H-0.400391V16H15.5996V0Z" fill="#1A1A1A"/>
</g>
<defs>
<clipPath id="clip0_5322_13452">
<rect width="16" height="16" fill="white"/>
</clipPath>
</defs>
</svg>
