<svg width="16" height="16" viewBox="0 0 16 16" fill="none" xmlns="http://www.w3.org/2000/svg">
<g clip-path="url(#clip0_4052_307075)">
<path d="M7.87586 0.1125C7.87586 0.175 7.53836 0.7625 7.12586 1.4125C6.71336 2.075 6.37586 2.65 6.37586 2.7C6.37586 2.75 6.30086 2.8875 6.20086 2.9875C6.03836 3.175 6.20086 3.1875 8.00086 3.1875H9.97586L9.65086 2.625C9.47586 2.3125 9.16336 1.8125 8.97586 1.5C8.78836 1.1875 8.51336 0.725 8.37586 0.4625C8.13836 0.0375001 7.87586 -0.15 7.87586 0.1125Z" fill="#A7A7A7"/>
<path d="M3.7503 5.85C2.7128 6.4125 2.6003 8 3.5503 8.7C3.7878 8.875 3.9128 9.1 3.9628 9.4375L4.0253 9.9375H4.8753C5.3503 9.9375 5.6878 9.9125 5.6378 9.875C5.4878 9.775 5.2503 9.2875 5.2503 9.0875C5.2503 9 5.3878 8.85 5.5628 8.775C5.9128 8.6125 6.3628 7.7625 6.3753 7.2625C6.3753 6.8375 5.9003 6.05 5.5128 5.875C4.9503 5.6 4.2253 5.5875 3.7503 5.85ZM4.9378 7.3125C4.9378 7.5875 4.5503 7.725 4.3503 7.525C4.1378 7.3125 4.3378 6.975 4.6503 7.025C4.8378 7.05 4.9378 7.15 4.9378 7.3125Z" fill="#A7A7A7"/>
<path d="M7.375 7.75V9.875H7.9875C8.5625 9.875 8.6 9.8625 8.675 9.4875C8.7125 9.275 8.75 8.4875 8.75 7.75C8.75 7.0125 8.7125 6.225 8.675 6.0125C8.6 5.6375 8.5625 5.625 7.9875 5.625H7.375V7.75Z" fill="#A7A7A7"/>
<path d="M9.8375 5.70004C9.7875 5.75004 9.75 6.35004 9.75 7.02504V8.25004H10.25C10.525 8.25004 10.75 8.31254 10.75 8.38754C10.75 8.53754 10.2875 9.00004 9.6125 9.52504L9.1875 9.86254H10.2875C11.55 9.87504 11.775 9.73754 12.025 8.81254C12.175 8.27504 12.2 8.25004 12.65 8.25004H13.1375L13.1 6.96254L13.0625 5.68754L11.4875 5.65004C10.625 5.63754 9.8875 5.66254 9.8375 5.70004ZM11.75 6.56254C11.75 6.81254 11.6875 6.87504 11.4375 6.87504C11.1875 6.87504 11.125 6.81254 11.125 6.56254C11.125 6.31254 11.1875 6.25004 11.4375 6.25004C11.6875 6.25004 11.75 6.31254 11.75 6.56254Z" fill="#A7A7A7"/>
<path d="M6.00071 3.31252C5.86321 3.47502 5.93821 3.50002 6.61321 3.50002H7.37571V4.56252V5.62502H7.98821C8.52571 5.62502 8.61321 5.66252 8.66321 5.90002C8.68821 6.06252 8.72571 5.58752 8.73821 4.83752L8.75071 3.50002H9.45071C10.0632 3.50002 10.1382 3.47502 10.0007 3.31252C9.87571 3.16252 9.48821 3.12502 8.00071 3.12502C6.51321 3.12502 6.12571 3.16252 6.00071 3.31252Z" fill="#A7A7A7"/>
<path d="M9.75 5.275V5.6875H11.4375H13.125V5.275V4.875H11.4375H9.75V5.275Z" fill="#A7A7A7"/>
<path d="M6.50069 13.6875C6.27569 13.9625 6.30069 14.775 6.56319 15.2125C6.87569 15.75 7.37569 16 8.11319 16C8.66319 16 8.81319 15.9375 9.20069 15.5875C9.66319 15.1625 9.86319 14.475 9.70069 13.825L9.62569 13.5H8.13819C6.96319 13.5 6.62569 13.5375 6.50069 13.6875ZM8.33819 14.425C8.23819 14.675 7.80069 14.6875 7.70069 14.4375C7.66319 14.3375 7.72569 14.1625 7.83819 14.0625C8.01319 13.875 8.06319 13.875 8.22569 14.05C8.32569 14.15 8.37569 14.325 8.33819 14.425Z" fill="#A7A7A7"/>
<path d="M8.6375 9.58747C8.625 9.84997 8.5625 9.87497 8 9.87497H7.375V10.4375C7.375 10.75 7.35 11 7.3 11C7.2625 11 6.9 10.775 6.5 10.5C6.1 10.225 5.7 9.99997 5.625 9.99997C5.55 9.99997 5.5125 9.96247 5.5375 9.89997C5.575 9.84997 5.275 9.83747 4.8625 9.84997C4.4625 9.87497 4.125 9.94997 4.125 10.025C4.125 10.3125 4.6625 10.8625 5.65 11.5625C6.2125 11.9625 6.8125 12.4 6.9625 12.5375L7.2375 12.7875L6.9375 13.025C6.7625 13.1625 6.5625 13.3875 6.4875 13.5375C6.375 13.7625 6.375 13.7875 6.5125 13.6625C6.625 13.55 7.125 13.5 8.0875 13.5C8.875 13.5 9.5 13.45 9.5 13.3875C9.5 13.325 9.325 13.1375 9.1125 12.9625C8.8 12.7125 8.7375 12.5875 8.775 12.2375C8.8125 11.8625 8.95 11.7125 9.9375 10.975C10.5625 10.5125 11.1625 10.0625 11.2875 9.97497C11.4875 9.83747 11.325 9.81247 10.325 9.81247C9.6625 9.81247 9.125 9.84997 9.125 9.89997C9.125 9.96247 9.05 9.99997 8.95 9.99997C8.85 9.99997 8.7375 9.84997 8.7125 9.64997C8.675 9.37497 8.6625 9.36247 8.6375 9.58747Z" fill="#A7A7A7"/>
</g>
<defs>
<clipPath id="clip0_4052_307075">
<rect width="16" height="16" fill="white"/>
</clipPath>
</defs>
</svg>
