<svg width="16" height="16" viewBox="0 0 16 16" fill="none" xmlns="http://www.w3.org/2000/svg">
<g clip-path="url(#clip0_4052_306999)">
<path d="M12.8758 0.2375C12.8133 0.375 12.7508 0.65 12.7508 0.8625V1.25L10.4758 1.275L8.18828 1.3125L8.15078 2.2125L8.11328 3.125H11.7508H15.3883L15.3508 2.2125L15.3133 1.3125L14.6008 1.275L13.8758 1.2375V0.8125C13.8758 0.5875 13.8383 0.3125 13.8008 0.2C13.6883 -0.0875001 13.0383 -0.0625 12.8758 0.2375Z" fill="#7C7C7C"/>
<path d="M8.20031 4.025C8.25031 4.1125 8.51281 4.4875 8.78781 4.8375L9.27531 5.5H11.7503H14.2253L14.7128 4.8375C14.9878 4.4875 15.2503 4.1125 15.3003 4.025C15.3753 3.9125 14.6253 3.875 11.7503 3.875C8.87531 3.875 8.12531 3.9125 8.20031 4.025Z" fill="#7C7C7C"/>
<path d="M5.10167 6.93752L4.02667 7.48752L3.11417 7.18752C2.06417 6.82502 1.83917 6.81252 1.62667 7.06252C1.45167 7.27502 1.56417 7.87502 1.78917 7.87502C1.86417 7.88752 2.11417 7.96252 2.31417 8.05002L2.68917 8.21252L2.02667 8.55002C1.43917 8.85002 1.31417 8.87502 0.926669 8.75002C0.289169 8.53752 -0.0233308 8.68752 0.0266692 9.16252C0.0641692 9.60002 0.414169 9.83752 1.17667 9.96252C1.52667 10.0125 1.97667 9.82502 4.17667 8.67502C5.60167 7.92502 6.82667 7.22502 6.88917 7.10002C7.05167 6.78752 6.81417 6.37502 6.46417 6.38752C6.31417 6.38752 5.70167 6.63752 5.10167 6.93752Z" fill="#7C7C7C"/>
<path d="M9.5 7.72513V9.07513L10.4125 9.22513C10.9125 9.30013 11.825 9.53763 12.4375 9.75013C13.0625 9.97513 13.6625 10.1751 13.7875 10.2126C13.9875 10.2751 14 10.1251 14 8.32513V6.37513H11.75H9.5V7.72513Z" fill="#7C7C7C"/>
<path d="M6.53836 9.8752C4.56336 10.0752 2.07586 10.9627 0.563356 12.0002C0.0633557 12.3502 -0.0116443 12.4502 0.0258557 12.7877C0.0758557 13.3002 0.463356 13.3752 1.07586 13.0002C1.31336 12.8502 1.52586 12.7377 1.55086 12.7627C1.57586 12.7877 1.75086 13.4627 1.93836 14.2502C2.12586 15.0377 2.33836 15.7627 2.41336 15.8377C2.50086 15.9502 3.00086 16.0002 4.13836 16.0002H5.73836L5.77586 14.2127L5.81336 12.4377H8.00086H10.1884L10.2259 14.2252L10.2634 16.0127L11.9759 15.9752L13.6884 15.9377L14.0884 14.3752C14.3009 13.5127 14.4884 12.8002 14.4884 12.7752C14.5009 12.7627 14.7259 12.9002 15.0134 13.0877C15.6134 13.4752 15.9134 13.3877 15.9759 12.8002C16.0009 12.4752 15.9259 12.3877 15.2884 11.9752C12.6259 10.3002 9.62586 9.5752 6.53836 9.8752Z" fill="#7C7C7C"/>
<path d="M6.5 14.5625V16H7.0625H7.625V14.5625V13.125H7.0625H6.5V14.5625Z" fill="#7C7C7C"/>
<path d="M8.375 14.5625V16H8.9375H9.5V14.5625V13.125H8.9375H8.375V14.5625Z" fill="#7C7C7C"/>
</g>
<defs>
<clipPath id="clip0_4052_306999">
<rect width="16" height="16" fill="white"/>
</clipPath>
</defs>
</svg>
