<svg width="16" height="16" viewBox="0 0 16 16" fill="none" xmlns="http://www.w3.org/2000/svg">
<path d="M7.1129 0.5C4.0254 0.8625 2.0004 4.025 2.8129 7.1875C3.0754 8.225 4.1754 10.425 5.2504 12.0625C6.2629 13.6 7.7129 15.5 7.8754 15.5C8.0254 15.5 9.6629 13.275 10.6629 11.7C11.7004 10.075 12.6629 8.1 12.9379 7.0625C13.8879 3.375 10.9504 0.0625 7.1129 0.5ZM8.5879 3.6375C9.7754 4.075 10.3254 5.5 9.7504 6.625C8.8129 8.4625 6.0129 7.9875 5.7879 5.9625C5.7004 5.2 5.8004 4.8375 6.2754 4.3C6.9254 3.5625 7.7629 3.325 8.5879 3.6375Z" fill="#7C7C7C"/>
</svg>
