<svg width="20" height="20" viewBox="0 0 20 20" fill="none" xmlns="http://www.w3.org/2000/svg">
<path fill-rule="evenodd" clip-rule="evenodd" d="M9.99996 3.33332C8.23185 3.33332 6.53616 4.0357 5.28591 5.28594C4.03567 6.53619 3.33329 8.23188 3.33329 9.99999C3.33329 10.8755 3.50573 11.7424 3.84076 12.5512C4.0187 12.9808 4.24066 13.3895 4.50243 13.7711C6.21074 12.9335 8.09152 12.4972 10.0006 12.5C11.9714 12.5001 13.8376 12.9567 15.4976 13.771C15.7593 13.3895 15.9812 12.9808 16.1592 12.5512C16.4942 11.7424 16.6666 10.8755 16.6666 9.99999C16.6666 8.23188 15.9642 6.53619 14.714 5.28594C13.4638 4.0357 11.7681 3.33332 9.99996 3.33332ZM16.3875 15.3519C16.9313 14.703 17.3739 13.9738 17.699 13.189C18.1177 12.178 18.3333 11.0943 18.3333 9.99999C18.3333 7.78985 17.4553 5.67024 15.8925 4.10743C14.3297 2.54463 12.2101 1.66666 9.99996 1.66666C7.78982 1.66666 5.67021 2.54463 4.1074 4.10743C2.5446 5.67024 1.66663 7.78985 1.66663 9.99999C1.66663 11.0943 1.88217 12.178 2.30096 13.189C2.62604 13.9738 3.06864 14.703 3.61237 15.3519C3.62464 15.3676 3.6374 15.3827 3.65062 15.3972C3.79591 15.5682 3.94827 15.7334 4.1074 15.8925C4.88122 16.6664 5.79988 17.2802 6.81093 17.699C7.82198 18.1178 8.90561 18.3333 9.99996 18.3333C11.0943 18.3333 12.1779 18.1178 13.189 17.699C14.2 17.2802 15.1187 16.6664 15.8925 15.8925C16.0516 15.7334 16.204 15.5682 16.3493 15.3972C16.3625 15.3827 16.3753 15.3676 16.3875 15.3519ZM14.332 15.0673C13.0059 14.4879 11.5413 14.1667 9.99996 14.1667L9.9987 14.1667C8.50446 14.1644 7.03021 14.4727 5.66813 15.0675C6.1998 15.522 6.80054 15.8907 7.44874 16.1592C8.25757 16.4942 9.12448 16.6667 9.99996 16.6667C10.8754 16.6667 11.7423 16.4942 12.5512 16.1592C13.1995 15.8907 13.8003 15.5219 14.332 15.0673ZM10.0006 12.5C10.0008 12.5 10.001 12.5 10.0012 12.5L9.99996 13.3333V12.5C10.0002 12.5 10.0004 12.5 10.0006 12.5ZM9.99996 6.66666C9.55793 6.66666 9.13401 6.84225 8.82145 7.15481C8.50889 7.46737 8.33329 7.8913 8.33329 8.33332C8.33329 8.77535 8.50889 9.19928 8.82145 9.51184C9.13401 9.8244 9.55793 9.99999 9.99996 9.99999C10.442 9.99999 10.8659 9.8244 11.1785 9.51184C11.491 9.19928 11.6666 8.77535 11.6666 8.33332C11.6666 7.8913 11.491 7.46737 11.1785 7.15481C10.8659 6.84225 10.442 6.66666 9.99996 6.66666ZM7.64294 5.9763C8.26806 5.35118 9.1159 4.99999 9.99996 4.99999C10.884 4.99999 11.7319 5.35118 12.357 5.9763C12.9821 6.60142 13.3333 7.44927 13.3333 8.33332C13.3333 9.21738 12.9821 10.0652 12.357 10.6903C11.7319 11.3155 10.884 11.6667 9.99996 11.6667C9.11591 11.6667 8.26806 11.3155 7.64294 10.6903C7.01782 10.0652 6.66663 9.21738 6.66663 8.33332C6.66663 7.44927 7.01782 6.60142 7.64294 5.9763Z" fill="#7C7C7C"/>
</svg>
