<svg width="14" height="14" viewBox="0 0 14 14" fill="none" xmlns="http://www.w3.org/2000/svg">
<path fill-rule="evenodd" clip-rule="evenodd" d="M13.6667 7.00004C13.6667 10.6819 10.6819 13.6667 7.00001 13.6667C3.31811 13.6667 0.333344 10.6819 0.333344 7.00004C0.333344 3.31814 3.31811 0.333374 7.00001 0.333374C10.6819 0.333374 13.6667 3.31814 13.6667 7.00004ZM6.33334 10.3334C6.33334 9.96518 6.63182 9.66671 7.00001 9.66671C7.3682 9.66671 7.66668 9.96519 7.66668 10.3334C7.66668 10.7016 7.3682 11 7.00001 11C6.63182 11 6.33334 10.7016 6.33334 10.3334ZM6.50001 8.33337C6.50001 8.60952 6.72387 8.83337 7.00001 8.83337C7.27615 8.83337 7.50001 8.60952 7.50001 8.33337L7.50001 3.66671C7.50001 3.39056 7.27615 3.16671 7.00001 3.16671C6.72387 3.16671 6.50001 3.39056 6.50001 3.66671L6.50001 8.33337Z" fill="#e60a32"/>
</svg>
