<svg width="20" height="20" viewBox="0 0 20 20" fill="none" xmlns="http://www.w3.org/2000/svg">
<path d="M17.6656 8.17189L10.1656 3.48439C10.116 3.45335 10.0586 3.43689 10 3.43689C9.94143 3.43689 9.88404 3.45335 9.83438 3.48439L2.33438 8.17189C2.28934 8.20004 2.25222 8.2392 2.22652 8.28567C2.20082 8.33215 2.18739 8.38441 2.1875 8.43752V16.25C2.1875 16.3329 2.22042 16.4124 2.27903 16.471C2.33763 16.5296 2.41712 16.5625 2.5 16.5625H17.5C17.5829 16.5625 17.6624 16.5296 17.721 16.471C17.7796 16.4124 17.8125 16.3329 17.8125 16.25V8.43752C17.8126 8.38441 17.7992 8.33215 17.7735 8.28567C17.7478 8.2392 17.7107 8.20004 17.6656 8.17189Z" fill="#7C7C7C"/>
<path d="M18.9156 7.48122L10.1656 2.01247C10.116 1.98143 10.0586 1.96497 10 1.96497C9.94143 1.96497 9.88404 1.98143 9.83438 2.01247L1.08438 7.48122C1.03979 7.50908 1.00295 7.54775 0.977277 7.59363C0.951603 7.63952 0.937922 7.69114 0.937501 7.74372V9.21872C0.937389 9.27455 0.952239 9.3294 0.980507 9.37755C1.00877 9.4257 1.04943 9.4654 1.09824 9.49252C1.14705 9.51963 1.20223 9.53318 1.25805 9.53174C1.31386 9.5303 1.36828 9.51393 1.41563 9.48434L10 4.11872L18.5844 9.48434C18.6317 9.51393 18.6861 9.5303 18.742 9.53174C18.7978 9.53318 18.853 9.51963 18.9018 9.49252C18.9506 9.4654 18.9912 9.4257 19.0195 9.37755C19.0478 9.3294 19.0626 9.27455 19.0625 9.21872V7.74372C19.0621 7.69114 19.0484 7.63952 19.0227 7.59363C18.9971 7.54775 18.9602 7.50908 18.9156 7.48122Z" fill="#F62D51"/>
<path d="M15.3125 9.6875H4.6875C4.51491 9.6875 4.375 9.82741 4.375 10V16.25C4.375 16.4226 4.51491 16.5625 4.6875 16.5625H15.3125C15.4851 16.5625 15.625 16.4226 15.625 16.25V10C15.625 9.82741 15.4851 9.6875 15.3125 9.6875Z" fill="#505050"/>
<path d="M15.3125 11.5625H12.1875C12.0149 11.5625 11.875 11.7024 11.875 11.875V14.0625C11.875 14.2351 12.0149 14.375 12.1875 14.375H15.3125C15.4851 14.375 15.625 14.2351 15.625 14.0625V11.875C15.625 11.7024 15.4851 11.5625 15.3125 11.5625Z" fill="#F17F53"/>
<path d="M12.0312 7.5H7.96875V8.125H12.0312V7.5Z" fill="#505050"/>
<path d="M12.1875 13.75H9.0625C8.88991 13.75 8.75 13.8899 8.75 14.0625V16.25C8.75 16.4226 8.88991 16.5625 9.0625 16.5625H12.1875C12.3601 16.5625 12.5 16.4226 12.5 16.25V14.0625C12.5 13.8899 12.3601 13.75 12.1875 13.75Z" fill="#F17F53"/>
<path d="M15.3125 13.75H12.1875C12.0149 13.75 11.875 13.8899 11.875 14.0625V16.25C11.875 16.4226 12.0149 16.5625 12.1875 16.5625H15.3125C15.4851 16.5625 15.625 16.4226 15.625 16.25V14.0625C15.625 13.8899 15.4851 13.75 15.3125 13.75Z" fill="#FF9F52"/>
</svg>
