<svg width="36" height="36" viewBox="0 0 36 36" fill="none" xmlns="http://www.w3.org/2000/svg">
<rect width="36" height="36" rx="18" fill="#B3DEFF"/>
<path opacity="0.4" d="M22.6084 14.475C22.55 14.4666 22.4917 14.4666 22.4334 14.475C21.1417 14.4333 20.1167 13.375 20.1167 12.075C20.1167 10.75 21.1917 9.66663 22.525 9.66663C23.85 9.66663 24.9334 10.7416 24.9334 12.075C24.925 13.375 23.9 14.4333 22.6084 14.475Z" fill="#0060A8"/>
<path opacity="0.4" d="M25.3249 20.25C24.3916 20.875 23.0833 21.1083 21.8749 20.95C22.1916 20.2666 22.3583 19.5083 22.3666 18.7083C22.3666 17.875 22.1833 17.0833 21.8333 16.3916C23.0666 16.225 24.3749 16.4583 25.3166 17.0833C26.6333 17.95 26.6333 19.375 25.3249 20.25Z" fill="#0060A8"/>
<path opacity="0.4" d="M13.3667 14.475C13.4251 14.4666 13.4834 14.4666 13.5417 14.475C14.8334 14.4333 15.8584 13.375 15.8584 12.075C15.8584 10.75 14.7834 9.66663 13.4501 9.66663C12.1251 9.66663 11.0417 10.7416 11.0417 12.075C11.0501 13.375 12.0751 14.4333 13.3667 14.475Z" fill="#0060A8"/>
<path opacity="0.4" d="M13.4584 18.7083C13.4584 19.5167 13.6334 20.2833 13.9501 20.975C12.7751 21.1 11.5501 20.85 10.6501 20.2583C9.33343 19.3833 9.33343 17.9583 10.6501 17.0833C11.5418 16.4833 12.8001 16.2417 13.9834 16.375C13.6418 17.075 13.4584 17.8667 13.4584 18.7083Z" fill="#0060A8"/>
<path d="M18.1 21.225C18.0333 21.2167 17.9583 21.2167 17.8833 21.225C16.35 21.175 15.125 19.9167 15.125 18.3667C15.125 16.7833 16.4 15.5 17.9917 15.5C19.575 15.5 20.8583 16.7833 20.8583 18.3667C20.8583 19.9167 19.6417 21.175 18.1 21.225Z" fill="#0060A8"/>
<path d="M15.3917 22.95C14.1334 23.7916 14.1334 25.1749 15.3917 26.0083C16.8251 26.9666 19.1751 26.9666 20.6084 26.0083C21.8668 25.1666 21.8668 23.7833 20.6084 22.95C19.1834 21.9916 16.8334 21.9916 15.3917 22.95Z" fill="#0060A8"/>
</svg>
