<svg width="36" height="36" viewBox="0 0 36 36" fill="none" xmlns="http://www.w3.org/2000/svg">
<rect width="36" height="36" rx="18" fill="#B3DEFF"/>
<path d="M21.9584 10.9667V9.66669C21.9584 9.32502 21.6751 9.04169 21.3334 9.04169C20.9918 9.04169 20.7084 9.32502 20.7084 9.66669V10.9167H15.2918V9.66669C15.2918 9.32502 15.0084 9.04169 14.6668 9.04169C14.3251 9.04169 14.0418 9.32502 14.0418 9.66669V10.9667C11.7918 11.175 10.7001 12.5167 10.5334 14.5084C10.5168 14.75 10.7168 14.95 10.9501 14.95H25.0501C25.2918 14.95 25.4918 14.7417 25.4668 14.5084C25.3001 12.5167 24.2084 11.175 21.9584 10.9667Z" fill="#0060A8"/>
<path opacity="0.4" d="M25.5 17.0333V18.4833C25.5 18.9917 25.05 19.3833 24.55 19.3C24.3167 19.2667 24.075 19.2417 23.8333 19.2417C21.3083 19.2417 19.25 21.3 19.25 23.825C19.25 24.2083 19.4 24.7417 19.5583 25.225C19.7417 25.7667 19.3417 26.325 18.7667 26.325H14.6667C11.75 26.325 10.5 24.6583 10.5 22.1583V17.025C10.5 16.5667 10.875 16.1917 11.3333 16.1917H24.6667C25.125 16.2 25.5 16.575 25.5 17.0333Z" fill="#0060A8"/>
<path d="M23.8333 20.5C21.9917 20.5 20.5 21.9917 20.5 23.8333C20.5 24.4583 20.675 25.05 20.9833 25.55C21.5583 26.5167 22.6167 27.1667 23.8333 27.1667C25.05 27.1667 26.1083 26.5167 26.6833 25.55C26.9917 25.05 27.1667 24.4583 27.1667 23.8333C27.1667 21.9917 25.675 20.5 23.8333 20.5ZM25.5583 23.475L23.7833 25.1167C23.6667 25.225 23.5083 25.2833 23.3583 25.2833C23.2 25.2833 23.0417 25.225 22.9167 25.1L22.0917 24.275C21.85 24.0333 21.85 23.6333 22.0917 23.3917C22.3333 23.15 22.7333 23.15 22.975 23.3917L23.375 23.7917L24.7083 22.5583C24.9583 22.325 25.3583 22.3417 25.5917 22.5917C25.825 22.8417 25.8083 23.2333 25.5583 23.475Z" fill="#0060A8"/>
<path d="M15.0833 20.5C14.8667 20.5 14.65 20.4083 14.4917 20.2583C14.3417 20.1 14.25 19.8833 14.25 19.6667C14.25 19.45 14.3417 19.2333 14.4917 19.075C14.6833 18.8833 14.975 18.7916 15.25 18.85C15.3 18.8583 15.35 18.875 15.4 18.9C15.45 18.9166 15.5 18.9417 15.55 18.975C15.5917 19.0083 15.6333 19.0417 15.675 19.075C15.825 19.2333 15.9167 19.45 15.9167 19.6667C15.9167 19.8833 15.825 20.1 15.675 20.2583C15.6333 20.2916 15.5917 20.325 15.55 20.3583C15.5 20.3916 15.45 20.4167 15.4 20.4333C15.35 20.4583 15.3 20.475 15.25 20.4833C15.1917 20.4917 15.1333 20.5 15.0833 20.5Z" fill="#0060A8"/>
<path d="M18.0001 20.5C17.7834 20.5 17.5667 20.4083 17.4084 20.2583C17.2584 20.1 17.1667 19.8833 17.1667 19.6667C17.1667 19.45 17.2584 19.2333 17.4084 19.075C17.7251 18.7667 18.2834 18.7667 18.5917 19.075C18.7417 19.2333 18.8334 19.45 18.8334 19.6667C18.8334 19.8833 18.7417 20.1 18.5917 20.2583C18.4334 20.4083 18.2167 20.5 18.0001 20.5Z" fill="#0060A8"/>
<path d="M15.0833 23.4167C14.8667 23.4167 14.65 23.325 14.4917 23.175C14.3417 23.0167 14.25 22.8 14.25 22.5833C14.25 22.3667 14.3417 22.15 14.4917 21.9917C14.575 21.9167 14.6583 21.8583 14.7667 21.8167C15.075 21.6833 15.4417 21.7583 15.675 21.9917C15.825 22.15 15.9167 22.3667 15.9167 22.5833C15.9167 22.8 15.825 23.0167 15.675 23.175C15.5167 23.325 15.3 23.4167 15.0833 23.4167Z" fill="#0060A8"/>
</svg>
