<svg width="36" height="36" viewBox="0 0 36 36" fill="none" xmlns="http://www.w3.org/2000/svg">
<mask id="mask0_720_2705" style="mask-type:alpha" maskUnits="userSpaceOnUse" x="8" y="8" width="20" height="20">
<path d="M21.9583 10.9666V9.66663C21.9583 9.32496 21.675 9.04163 21.3333 9.04163C20.9917 9.04163 20.7083 9.32496 20.7083 9.66663V10.9166H15.2917V9.66663C15.2917 9.32496 15.0083 9.04163 14.6667 9.04163C14.325 9.04163 14.0417 9.32496 14.0417 9.66663V10.9666C11.7917 11.175 10.7 12.5166 10.5333 14.5083C10.5167 14.75 10.7167 14.95 10.95 14.95H25.05C25.2917 14.95 25.4917 14.7416 25.4667 14.5083C25.3 12.5166 24.2083 11.175 21.9583 10.9666Z" fill="#0060A8"/>
<path opacity="0.4" d="M25.5 17.0333V18.4833C25.5 18.9917 25.05 19.3833 24.55 19.3C24.3167 19.2667 24.075 19.2417 23.8333 19.2417C21.3083 19.2417 19.25 21.3 19.25 23.825C19.25 24.2083 19.4 24.7417 19.5583 25.225C19.7417 25.7667 19.3417 26.325 18.7667 26.325H14.6667C11.75 26.325 10.5 24.6583 10.5 22.1583V17.025C10.5 16.5667 10.875 16.1917 11.3333 16.1917H24.6667C25.125 16.2 25.5 16.575 25.5 17.0333Z" fill="#0060A8"/>
<path d="M23.8333 20.5C21.9917 20.5 20.5 21.9917 20.5 23.8333C20.5 24.4583 20.675 25.05 20.9833 25.55C21.5583 26.5167 22.6167 27.1667 23.8333 27.1667C25.05 27.1667 26.1083 26.5167 26.6833 25.55C26.9917 25.05 27.1667 24.4583 27.1667 23.8333C27.1667 21.9917 25.675 20.5 23.8333 20.5ZM25.5583 23.475L23.7833 25.1167C23.6667 25.225 23.5083 25.2833 23.3583 25.2833C23.2 25.2833 23.0417 25.225 22.9167 25.1L22.0917 24.275C21.85 24.0333 21.85 23.6333 22.0917 23.3917C22.3333 23.15 22.7333 23.15 22.975 23.3917L23.375 23.7917L24.7083 22.5583C24.9583 22.325 25.3583 22.3417 25.5917 22.5917C25.825 22.8417 25.8083 23.2333 25.5583 23.475Z" fill="#333333"/>
<path d="M15.0833 20.5C14.8667 20.5 14.65 20.4084 14.4917 20.2584C14.3417 20.1 14.25 19.8834 14.25 19.6667C14.25 19.45 14.3417 19.2334 14.4917 19.0751C14.6833 18.8834 14.975 18.7917 15.25 18.85C15.3 18.8584 15.35 18.875 15.4 18.9C15.45 18.9167 15.5 18.9417 15.55 18.9751C15.5917 19.0084 15.6333 19.0417 15.675 19.0751C15.825 19.2334 15.9167 19.45 15.9167 19.6667C15.9167 19.8834 15.825 20.1 15.675 20.2584C15.6333 20.2917 15.5917 20.325 15.55 20.3584C15.5 20.3917 15.45 20.4167 15.4 20.4334C15.35 20.4584 15.3 20.4751 15.25 20.4834C15.1917 20.4917 15.1333 20.5 15.0833 20.5Z" fill="#333333"/>
<path d="M18 20.5C17.7833 20.5 17.5666 20.4083 17.4083 20.2583C17.2583 20.1 17.1666 19.8833 17.1666 19.6667C17.1666 19.45 17.2583 19.2333 17.4083 19.075C17.725 18.7667 18.2833 18.7667 18.5916 19.075C18.7416 19.2333 18.8333 19.45 18.8333 19.6667C18.8333 19.8833 18.7416 20.1 18.5916 20.2583C18.4333 20.4083 18.2166 20.5 18 20.5Z" fill="#333333"/>
<path d="M15.0833 23.4167C14.8667 23.4167 14.65 23.325 14.4917 23.175C14.3417 23.0167 14.25 22.8001 14.25 22.5834C14.25 22.3667 14.3417 22.1501 14.4917 21.9917C14.575 21.9167 14.6583 21.8584 14.7667 21.8167C15.075 21.6834 15.4417 21.7584 15.675 21.9917C15.825 22.1501 15.9167 22.3667 15.9167 22.5834C15.9167 22.8001 15.825 23.0167 15.675 23.175C15.5167 23.325 15.3 23.4167 15.0833 23.4167Z" fill="#333333"/>
</mask>
<g mask="url(#mask0_720_2705)">
<path d="M28 8H8V28H28V8Z" fill="#7C7C7C"/>
</g>
</svg>
