<svg width="36" height="36" viewBox="0 0 36 36" fill="none" xmlns="http://www.w3.org/2000/svg">
<rect width="36" height="36" rx="18" fill="#B3DEFF"/>
<path opacity="0.4" d="M20.9001 10.5H14.2667C11.3917 10.5 9.66675 12.2167 9.66675 15.1V21.725C9.66675 24.6167 11.3917 26.3333 14.2667 26.3333H20.8917C23.7751 26.3333 25.4917 24.6167 25.4917 21.7333V15.1C25.5001 12.2167 23.7751 10.5 20.9001 10.5Z" fill="#0060A8"/>
<path d="M25.5167 10.4834C24.0251 8.98336 22.5667 8.95003 21.0334 10.4834L20.0917 11.4167C20.0084 11.5 19.9834 11.6167 20.0167 11.725C20.6001 13.7667 22.2334 15.4 24.2751 15.9834C24.3001 15.9917 24.3417 15.9917 24.3667 15.9917C24.4501 15.9917 24.5334 15.9584 24.5917 15.9L25.5167 14.9667C26.2751 14.2084 26.6501 13.4834 26.6501 12.7417C26.6501 11.9917 26.2751 11.25 25.5167 10.4834Z" fill="#0060A8"/>
<path d="M22.8833 16.6833C22.6583 16.575 22.4417 16.4667 22.2417 16.3417C22.075 16.2417 21.9083 16.1333 21.75 16.0167C21.6167 15.9333 21.4667 15.8083 21.3167 15.6833C21.3 15.675 21.25 15.6333 21.1833 15.5667C20.925 15.3583 20.65 15.075 20.3917 14.7667C20.375 14.75 20.325 14.7 20.2833 14.625C20.2 14.5333 20.075 14.375 19.9667 14.2C19.875 14.0833 19.7667 13.9167 19.6667 13.7417C19.5417 13.5333 19.4333 13.325 19.3333 13.1083C19.225 12.875 19.1417 12.6583 19.0667 12.45L14.5833 16.9333C14.2917 17.225 14.0083 17.775 13.95 18.1833L13.5917 20.6667C13.5167 21.1917 13.6583 21.6833 13.9833 22.0083C14.2583 22.2833 14.6333 22.425 15.05 22.425C15.1417 22.425 15.2333 22.4167 15.325 22.4083L17.8 22.0583C18.2083 22 18.7583 21.725 19.05 21.425L23.5333 16.9417C23.325 16.875 23.1167 16.7833 22.8833 16.6833Z" fill="#0060A8"/>
</svg>
