<svg width="36" height="36" viewBox="0 0 36 36" fill="none" xmlns="http://www.w3.org/2000/svg">
<mask id="mask0_720_2584" style="mask-type:alpha" maskUnits="userSpaceOnUse" x="8" y="8" width="20" height="20">
<path opacity="0.4" d="M18 26.25C22.6023 26.25 26.3333 22.5191 26.3333 17.9167C26.3333 13.3143 22.6023 9.58337 18 9.58337C13.3976 9.58337 9.66663 13.3143 9.66663 17.9167C9.66663 22.5191 13.3976 26.25 18 26.25Z" fill="#0060A8"/>
<path d="M19.8833 18L18.625 17.5583V14.7333H18.925C19.6 14.7333 20.15 15.325 20.15 16.05C20.15 16.3917 20.4333 16.675 20.775 16.675C21.1167 16.675 21.4 16.3917 21.4 16.05C21.4 14.6333 20.2917 13.4833 18.925 13.4833H18.625V13C18.625 12.6583 18.3417 12.375 18 12.375C17.6583 12.375 17.375 12.6583 17.375 13V13.4833H16.8333C15.6 13.4833 14.5917 14.525 14.5917 15.8C14.5917 17.2917 15.4583 17.7667 16.1167 18L17.375 18.4417V21.2583H17.075C16.4 21.2583 15.85 20.6667 15.85 19.9417C15.85 19.6 15.5667 19.3167 15.225 19.3167C14.8833 19.3167 14.6 19.6 14.6 19.9417C14.6 21.3583 15.7083 22.5083 17.075 22.5083H17.375V23C17.375 23.3417 17.6583 23.625 18 23.625C18.3417 23.625 18.625 23.3417 18.625 23V22.5167H19.1667C20.4 22.5167 21.4083 21.475 21.4083 20.2C21.4 18.7 20.5333 18.225 19.8833 18ZM16.5333 16.825C16.1083 16.675 15.85 16.5333 15.85 15.8083C15.85 15.2167 16.2917 14.7417 16.8417 14.7417H17.3833V17.125L16.5333 16.825ZM19.1667 21.2667H18.625V18.8833L19.4667 19.175C19.8917 19.325 20.15 19.4667 20.15 20.1917C20.15 20.7833 19.7083 21.2667 19.1667 21.2667Z" fill="#0060A8"/>
</mask>
<g mask="url(#mask0_720_2584)">
<path d="M28 8H8V28H28V8Z" fill="#7C7C7C"/>
</g>
</svg>
