<svg width="36" height="36" viewBox="0 0 36 36" fill="none" xmlns="http://www.w3.org/2000/svg">
<rect width="36" height="36" rx="18" fill="#B3DEFF"/>
<path opacity="0.4" d="M18.0001 26.25C22.6025 26.25 26.3334 22.519 26.3334 17.9166C26.3334 13.3143 22.6025 9.58331 18.0001 9.58331C13.3977 9.58331 9.66675 13.3143 9.66675 17.9166C9.66675 22.519 13.3977 26.25 18.0001 26.25Z" fill="#0060A8"/>
<path d="M19.8832 18L18.6249 17.5583V14.7333H18.9249C19.5999 14.7333 20.1499 15.325 20.1499 16.05C20.1499 16.3917 20.4332 16.675 20.7749 16.675C21.1166 16.675 21.3999 16.3917 21.3999 16.05C21.3999 14.6333 20.2916 13.4833 18.9249 13.4833H18.6249V13C18.6249 12.6583 18.3416 12.375 17.9999 12.375C17.6582 12.375 17.3749 12.6583 17.3749 13V13.4833H16.8332C15.5999 13.4833 14.5916 14.525 14.5916 15.8C14.5916 17.2917 15.4582 17.7667 16.1166 18L17.3749 18.4417V21.2583H17.0749C16.3999 21.2583 15.8499 20.6667 15.8499 19.9417C15.8499 19.6 15.5666 19.3167 15.2249 19.3167C14.8832 19.3167 14.5999 19.6 14.5999 19.9417C14.5999 21.3583 15.7082 22.5083 17.0749 22.5083H17.3749V23C17.3749 23.3417 17.6582 23.625 17.9999 23.625C18.3416 23.625 18.6249 23.3417 18.6249 23V22.5167H19.1666C20.3999 22.5167 21.4082 21.475 21.4082 20.2C21.3999 18.7 20.5332 18.225 19.8832 18ZM16.5332 16.825C16.1082 16.675 15.8499 16.5333 15.8499 15.8083C15.8499 15.2167 16.2916 14.7417 16.8416 14.7417H17.3832V17.125L16.5332 16.825ZM19.1666 21.2667H18.6249V18.8833L19.4666 19.175C19.8916 19.325 20.1499 19.4667 20.1499 20.1917C20.1499 20.7833 19.7082 21.2667 19.1666 21.2667Z" fill="#0060A8"/>
</svg>
