<svg width="36" height="36" viewBox="0 0 36 36" fill="none" xmlns="http://www.w3.org/2000/svg">
<rect width="36" height="36" rx="18" fill="#B3DEFF"/>
<path d="M26.0667 20.7667C25.325 20.025 24.3417 19.65 23.3667 19.6667C22.425 19.675 21.4833 20.05 20.7667 20.7667C20.2667 21.2583 19.9417 21.875 19.7833 22.5167C19.6917 22.8667 19.6583 23.225 19.6833 23.5833V23.625C19.6833 23.6833 19.6917 23.7334 19.7 23.8C19.7 23.8 19.7 23.8 19.7083 23.8083V23.8333C19.7833 24.65 20.1333 25.4417 20.7667 26.0667C21.7333 27.0333 23.0917 27.3583 24.3167 27.05C24.6833 26.9583 25.0417 26.8084 25.375 26.6084C25.625 26.4667 25.8583 26.2833 26.0667 26.0667C26.6917 25.4417 27.05 24.65 27.125 23.825C27.1333 23.825 27.1333 23.8084 27.1333 23.8C27.15 23.7417 27.15 23.675 27.15 23.6167C27.15 23.6083 27.1583 23.5917 27.1583 23.575C27.2083 22.5667 26.8417 21.5333 26.0667 20.7667ZM24.8583 24.8417C24.6167 25.0834 24.225 25.0834 23.975 24.8417L23.425 24.2917L22.8583 24.8583C22.6083 25.1083 22.2167 25.1083 21.975 24.8583C21.725 24.6167 21.725 24.225 21.975 23.975L22.5417 23.4083L21.9917 22.8584C21.75 22.6084 21.75 22.2167 21.9917 21.975C22.2417 21.725 22.6333 21.725 22.8833 21.975L23.425 22.525L23.95 21.9917C24.2 21.75 24.5917 21.75 24.8417 21.9917C25.0833 22.2417 25.0833 22.6333 24.8417 22.8833L24.3083 23.4083L24.8583 23.95C25.1083 24.2 25.1083 24.5917 24.8583 24.8417Z" fill="#0060A8"/>
<path opacity="0.4" d="M24.125 12.7166L18.8833 9.89169C18.3333 9.59169 17.6667 9.59169 17.1083 9.89169L11.8667 12.7166C11.4834 12.925 11.25 13.3333 11.25 13.7833C11.25 14.2333 11.4834 14.6416 11.8667 14.85L17.1083 17.675C17.3833 17.825 17.6917 17.9 17.9917 17.9C18.2917 17.9 18.6 17.825 18.875 17.675L24.1167 14.85C24.5 14.6416 24.7333 14.2333 24.7333 13.7833C24.75 13.3333 24.5083 12.925 24.125 12.7166Z" fill="#0060A8"/>
<path opacity="0.4" d="M16.2499 18.6584L11.3749 16.2167C10.9999 16.025 10.5666 16.05 10.2083 16.2667C9.84993 16.4834 9.6416 16.8667 9.6416 17.2834V21.8917C9.6416 22.6917 10.0833 23.4084 10.7999 23.7667L15.6749 26.2001C15.8416 26.2834 16.0249 26.325 16.2083 26.325C16.4249 26.325 16.6416 26.2667 16.8333 26.1417C17.1916 25.9251 17.3999 25.5417 17.3999 25.125V20.5167C17.4083 19.7334 16.9666 19.0167 16.2499 18.6584Z" fill="#0060A8"/>
<path opacity="0.4" d="M26.3582 17.2917V21.1167C26.3499 21.1084 26.3416 21.0917 26.3332 21.0834C26.3332 21.075 26.3249 21.0667 26.3166 21.0583C26.2832 21.0083 26.2416 20.9584 26.1999 20.9167C26.1916 20.9084 26.1832 20.8917 26.1749 20.8834C25.4999 20.1334 24.5082 19.6667 23.4166 19.6667C22.3666 19.6667 21.4082 20.1 20.7249 20.8C20.0666 21.475 19.6666 22.4 19.6666 23.4167C19.6666 24.1167 19.8666 24.7834 20.2082 25.35C20.3499 25.5917 20.5249 25.8083 20.7166 26.0083L20.3249 26.2083C20.1582 26.2917 19.9749 26.3334 19.7916 26.3334C19.5749 26.3334 19.3582 26.2751 19.1582 26.1501C18.8082 25.9334 18.5916 25.55 18.5916 25.1334V20.5333C18.5916 19.7333 19.0332 19.0167 19.7499 18.6583L24.6249 16.225C24.9999 16.0334 25.4332 16.05 25.7916 16.275C26.1416 16.4917 26.3582 16.875 26.3582 17.2917Z" fill="#0060A8"/>
</svg>
