<svg width="36" height="36" viewBox="0 0 36 36" fill="none" xmlns="http://www.w3.org/2000/svg">
<mask id="mask0_720_2745" style="mask-type:alpha" maskUnits="userSpaceOnUse" x="8" y="8" width="20" height="20">
<path d="M26.0667 20.7667C25.325 20.025 24.3417 19.65 23.3667 19.6667C22.425 19.675 21.4833 20.05 20.7667 20.7667C20.2667 21.2583 19.9417 21.875 19.7833 22.5167C19.6917 22.8667 19.6583 23.225 19.6833 23.5833V23.625C19.6833 23.6833 19.6917 23.7334 19.7 23.8C19.7 23.8 19.7 23.8 19.7083 23.8083V23.8333C19.7833 24.65 20.1333 25.4417 20.7667 26.0667C21.7333 27.0333 23.0917 27.3583 24.3167 27.05C24.6833 26.9583 25.0417 26.8084 25.375 26.6084C25.625 26.4667 25.8583 26.2833 26.0667 26.0667C26.6917 25.4417 27.05 24.65 27.125 23.825C27.1333 23.825 27.1333 23.8084 27.1333 23.8C27.15 23.7417 27.15 23.675 27.15 23.6167C27.15 23.6083 27.1583 23.5917 27.1583 23.575C27.2083 22.5667 26.8417 21.5333 26.0667 20.7667ZM24.8583 24.8417C24.6167 25.0834 24.225 25.0834 23.975 24.8417L23.425 24.2917L22.8583 24.8583C22.6083 25.1083 22.2167 25.1083 21.975 24.8583C21.725 24.6167 21.725 24.225 21.975 23.975L22.5417 23.4083L21.9917 22.8584C21.75 22.6084 21.75 22.2167 21.9917 21.975C22.2417 21.725 22.6333 21.725 22.8833 21.975L23.425 22.525L23.95 21.9917C24.2 21.75 24.5917 21.75 24.8417 21.9917C25.0833 22.2417 25.0833 22.6333 24.8417 22.8833L24.3083 23.4083L24.8583 23.95C25.1083 24.2 25.1083 24.5917 24.8583 24.8417Z" fill="#0060A8"/>
<path opacity="0.4" d="M24.125 12.7166L18.8833 9.89163C18.3333 9.59163 17.6667 9.59163 17.1083 9.89163L11.8667 12.7166C11.4834 12.9249 11.25 13.3333 11.25 13.7833C11.25 14.2333 11.4834 14.6416 11.8667 14.8499L17.1083 17.6749C17.3833 17.8249 17.6917 17.8999 17.9917 17.8999C18.2917 17.8999 18.6 17.8249 18.875 17.6749L24.1167 14.8499C24.5 14.6416 24.7333 14.2333 24.7333 13.7833C24.75 13.3333 24.5083 12.9249 24.125 12.7166Z" fill="#0060A8"/>
<path opacity="0.4" d="M16.2501 18.6584L11.375 16.2167C11 16.025 10.5667 16.05 10.2084 16.2667C9.85005 16.4834 9.64172 16.8667 9.64172 17.2834V21.8917C9.64172 22.6917 10.0834 23.4084 10.8 23.7667L15.675 26.2001C15.8417 26.2834 16.0251 26.325 16.2084 26.325C16.4251 26.325 16.6417 26.2667 16.8334 26.1417C17.1917 25.9251 17.4001 25.5417 17.4001 25.125V20.5167C17.4084 19.7334 16.9667 19.0167 16.2501 18.6584Z" fill="#333333"/>
<path opacity="0.4" d="M26.3583 17.2917V21.1167C26.35 21.1084 26.3417 21.0917 26.3333 21.0834C26.3333 21.075 26.325 21.0667 26.3167 21.0583C26.2834 21.0083 26.2417 20.9584 26.2 20.9167C26.1917 20.9084 26.1833 20.8917 26.175 20.8834C25.5 20.1334 24.5083 19.6667 23.4167 19.6667C22.3667 19.6667 21.4083 20.1 20.725 20.8C20.0667 21.475 19.6667 22.4 19.6667 23.4167C19.6667 24.1167 19.8667 24.7834 20.2083 25.35C20.35 25.5917 20.525 25.8083 20.7167 26.0083L20.325 26.2083C20.1584 26.2917 19.975 26.3334 19.7917 26.3334C19.575 26.3334 19.3584 26.2751 19.1584 26.1501C18.8084 25.9334 18.5917 25.55 18.5917 25.1334V20.5333C18.5917 19.7333 19.0334 19.0167 19.75 18.6583L24.625 16.225C25 16.0334 25.4334 16.05 25.7917 16.275C26.1417 16.4917 26.3583 16.875 26.3583 17.2917Z" fill="#333333"/>
</mask>
<g mask="url(#mask0_720_2745)">
<path d="M28 8H8V28H28V8Z" fill="#7C7C7C"/>
</g>
</svg>
