<svg width="36" height="36" viewBox="0 0 36 36" fill="none" xmlns="http://www.w3.org/2000/svg">
<mask id="mask0_9687_132100" style="mask-type:alpha" maskUnits="userSpaceOnUse" x="8" y="8" width="20" height="20">
<path d="M13.8334 14.666H11.3334C10.4167 14.666 9.66669 13.916 9.66669 12.9993V11.3327C9.66669 10.416 10.4167 9.66602 11.3334 9.66602H13.8334C14.75 9.66602 15.5 10.416 15.5 11.3327V12.9993C15.5 13.916 14.75 14.666 13.8334 14.666Z" fill="#0060A8"/>
<path d="M25.3333 13.8333H22.3333C21.7833 13.8333 21.3333 13.3833 21.3333 12.8333V11.5C21.3333 10.95 21.7833 10.5 22.3333 10.5H25.3333C25.8833 10.5 26.3333 10.95 26.3333 11.5V12.8333C26.3333 13.3833 25.8833 13.8333 25.3333 13.8333Z" fill="#0060A8"/>
<path d="M25.3333 20.0833H22.3333C21.7833 20.0833 21.3333 19.6333 21.3333 19.0833V17.75C21.3333 17.2 21.7833 16.75 22.3333 16.75H25.3333C25.8833 16.75 26.3333 17.2 26.3333 17.75V19.0833C26.3333 19.6333 25.8833 20.0833 25.3333 20.0833Z" fill="#333333"/>
<path opacity="0.37" d="M21.3333 19.041C21.675 19.041 21.9583 18.7577 21.9583 18.416C21.9583 18.0743 21.675 17.791 21.3333 17.791H19.0417V12.791H21.3333C21.675 12.791 21.9583 12.5077 21.9583 12.166C21.9583 11.8243 21.675 11.541 21.3333 11.541H15.5C15.1583 11.541 14.875 11.8243 14.875 12.166C14.875 12.5077 15.1583 12.791 15.5 12.791H17.7917V22.9993C17.7917 24.266 18.8167 25.291 20.0833 25.291H21.3333C21.675 25.291 21.9583 25.0077 21.9583 24.666C21.9583 24.3243 21.675 24.041 21.3333 24.041H20.0833C19.5083 24.041 19.0417 23.5743 19.0417 22.9993V19.041H21.3333Z" fill="#333333"/>
<path d="M25.3333 26.3333H22.3333C21.7833 26.3333 21.3333 25.8833 21.3333 25.3333V24C21.3333 23.45 21.7833 23 22.3333 23H25.3333C25.8833 23 26.3333 23.45 26.3333 24V25.3333C26.3333 25.8833 25.8833 26.3333 25.3333 26.3333Z" fill="#333333"/>
</mask>
<g mask="url(#mask0_9687_132100)">
<path d="M28 8H8V28H28V8Z" fill="#7C7C7C"/>
</g>
</svg>
