<svg width="36" height="36" viewBox="0 0 36 36" fill="none" xmlns="http://www.w3.org/2000/svg">
<rect width="36" height="36" rx="18" fill="#B3DEFF"/>
<path opacity="0.4" d="M26.3334 14.5083V20.6333C26.0917 20.5166 25.8251 20.4333 25.5251 20.3833L25.2667 20.3416L25.0501 19.8916C24.5917 18.9583 23.8417 18.4166 23.0001 18.4166C22.1584 18.4166 21.4084 18.9583 20.9501 19.8916L20.7251 20.3416L20.4751 20.3833C19.4834 20.55 18.7667 21.1 18.5084 21.8833C18.2584 22.675 18.5167 23.5416 19.2251 24.2583L19.4834 24.5166L19.4584 24.6166C19.2917 25.3583 19.3584 25.925 19.5168 26.3333H14.5084C11.4751 26.3333 9.66675 24.525 9.66675 21.4916V14.5083C9.66675 11.475 11.4751 9.66663 14.5084 9.66663H21.4917C24.5251 9.66663 26.3334 11.475 26.3334 14.5083Z" fill="#0060A8"/>
<path d="M23.9333 20.45L24.2 20.9916C24.3333 21.2583 24.675 21.5083 24.9583 21.5583L25.3167 21.6166C26.4083 21.8 26.6583 22.6 25.8833 23.3833L25.55 23.7166C25.325 23.9416 25.2083 24.375 25.275 24.6916L25.3167 24.8916C25.6167 26.2083 24.9167 26.7166 23.775 26.025L23.5333 25.8749C23.2417 25.7 22.7583 25.7 22.4667 25.8749L22.225 26.025C21.075 26.7166 20.3833 26.2083 20.6833 24.8916L20.725 24.6916C20.7917 24.3833 20.675 23.9416 20.45 23.7166L20.1167 23.3833C19.3417 22.5916 19.5917 21.8 20.6833 21.6166L21.0417 21.5583C21.3333 21.5083 21.6667 21.2583 21.8 20.9916L22.0667 20.45C22.5833 19.4083 23.4167 19.4083 23.9333 20.45Z" fill="#0060A8"/>
<path fill-rule="evenodd" clip-rule="evenodd" d="M21.4412 14.5977C21.714 14.8092 21.7637 15.2018 21.5523 15.4746L19.6235 17.9627C19.1278 18.5897 18.2138 18.704 17.5761 18.2113L17.5718 18.2079L16.0496 17.0101C15.9556 16.9387 15.8244 16.9565 15.753 17.0486C15.753 17.0487 15.7531 17.0485 15.753 17.0486L13.7701 19.6231C13.5595 19.8966 13.167 19.9475 12.8936 19.7369C12.6201 19.5262 12.5692 19.1338 12.7798 18.8603L14.7637 16.2846C15.2586 15.6441 16.1763 15.5283 16.8154 16.0222L16.8198 16.0255L18.3419 17.2233C18.437 17.2955 18.5709 17.2769 18.6418 17.189L20.5643 14.7088C20.7758 14.436 21.1684 14.3863 21.4412 14.5977Z" fill="#0060A8"/>
</svg>
