<svg width="36" height="36" viewBox="0 0 36 36" fill="none" xmlns="http://www.w3.org/2000/svg">
<mask id="mask0_720_2801" style="mask-type:alpha" maskUnits="userSpaceOnUse" x="8" y="8" width="20" height="20">
<path opacity="0.4" d="M26.3333 14.5084V20.6334C26.0916 20.5167 25.825 20.4334 25.525 20.3834L25.2666 20.3417L25.05 19.8917C24.5916 18.9584 23.8416 18.4167 23 18.4167C22.1583 18.4167 21.4083 18.9584 20.95 19.8917L20.725 20.3417L20.475 20.3834C19.4833 20.55 18.7666 21.1 18.5083 21.8834C18.2583 22.675 18.5166 23.5417 19.225 24.2584L19.4833 24.5167L19.4583 24.6167C19.2916 25.3584 19.3583 25.925 19.5166 26.3334H14.5083C11.475 26.3334 9.66663 24.525 9.66663 21.4917V14.5084C9.66663 11.475 11.475 9.66669 14.5083 9.66669H21.4916C24.525 9.66669 26.3333 11.475 26.3333 14.5084Z" fill="#0060A8"/>
<path d="M23.9333 20.45L24.2 20.9917C24.3333 21.2583 24.675 21.5083 24.9583 21.5583L25.3167 21.6167C26.4083 21.8 26.6583 22.6 25.8833 23.3833L25.55 23.7167C25.325 23.9417 25.2083 24.375 25.275 24.6917L25.3167 24.8917C25.6167 26.2083 24.9167 26.7167 23.775 26.025L23.5333 25.875C23.2417 25.7 22.7583 25.7 22.4667 25.875L22.225 26.025C21.075 26.7167 20.3833 26.2083 20.6833 24.8917L20.725 24.6917C20.7917 24.3833 20.675 23.9417 20.45 23.7167L20.1167 23.3833C19.3417 22.5917 19.5917 21.8 20.6833 21.6167L21.0417 21.5583C21.3333 21.5083 21.6667 21.2583 21.8 20.9917L22.0667 20.45C22.5833 19.4083 23.4167 19.4083 23.9333 20.45Z" fill="#0060A8"/>
<path fill-rule="evenodd" clip-rule="evenodd" d="M21.4412 14.5977C21.714 14.8092 21.7637 15.2017 21.5523 15.4746L19.6235 17.9626C19.1278 18.5896 18.2138 18.7039 17.5761 18.2112L17.5718 18.2078L16.0496 17.0101C15.9556 16.9386 15.8244 16.9564 15.753 17.0485C15.753 17.0486 15.7531 17.0485 15.753 17.0485L13.7701 19.623C13.5595 19.8965 13.167 19.9474 12.8936 19.7368C12.6201 19.5262 12.5692 19.1337 12.7798 18.8603L14.7637 16.2845C15.2586 15.644 16.1763 15.5282 16.8154 16.0221L16.8198 16.0255L18.3419 17.2232C18.437 17.2954 18.5709 17.2768 18.6418 17.1889L20.5643 14.7087C20.7758 14.4359 21.1684 14.3862 21.4412 14.5977Z" fill="#333333"/>
</mask>
<g mask="url(#mask0_720_2801)">
<path d="M28 8H8V28H28V8Z" fill="#7C7C7C"/>
</g>
</svg>
