<svg width="36" height="36" viewBox="0 0 36 36" fill="none" xmlns="http://www.w3.org/2000/svg">
<mask id="mask0_432_2307" style="mask-type:alpha" maskUnits="userSpaceOnUse" x="8" y="8" width="20" height="20">
<path opacity="0.4" d="M26.3333 14.5083V19.6667H22.9333C22.375 19.6667 21.7167 19.2667 21.4583 18.775L20.5917 17.1333C20.3583 16.6917 20.025 16.7167 19.8417 17.175L17.925 22.0167C17.7167 22.5583 17.3667 22.5583 17.15 22.0167L16.2 19.6167C15.975 19.0333 15.275 18.5583 14.65 18.5583L9.66667 18.5833V14.5083C9.66667 11.475 11.475 9.66666 14.5083 9.66666H21.4917C24.525 9.66666 26.3333 11.475 26.3333 14.5083Z" fill="#0060A8"/>
<path d="M26.3333 21.4917V19.6667H22.9333C22.375 19.6667 21.7167 19.2667 21.4583 18.775L20.5917 17.1333C20.3583 16.6917 20.025 16.7167 19.8417 17.175L17.925 22.0167C17.7167 22.5583 17.3667 22.5583 17.15 22.0167L16.2 19.6167C15.975 19.0333 15.275 18.5583 14.65 18.5583L9.66667 18.5833V21.4917C9.66667 24.475 11.4167 26.275 14.3583 26.325C14.45 26.3333 14.55 26.3333 14.6417 26.3333H21.3083C21.4333 26.3333 21.5583 26.3333 21.675 26.325C24.6 26.2583 26.3333 24.4667 26.3333 21.4917Z" fill="#0060A8"/>
<path d="M9.66666 18.5833V21.3417C9.65 21.075 9.64166 20.7917 9.64166 20.5V18.5833H9.66666Z" fill="#0060A8"/>
</mask>
<g mask="url(#mask0_432_2307)">
<path d="M28 8H8V28H28V8Z" fill="#7C7C7C"/>
</g>
</svg>
