<svg width="36" height="36" viewBox="0 0 36 36" fill="none" xmlns="http://www.w3.org/2000/svg">
<rect width="36" height="36" rx="18" fill="#B3DEFF"/>
<path opacity="0.4" d="M26.3334 14.5083V19.6667H22.9334C22.3751 19.6667 21.7167 19.2667 21.4584 18.775L20.5917 17.1333C20.3584 16.6917 20.0251 16.7167 19.8417 17.175L17.9251 22.0167C17.7167 22.5583 17.3667 22.5583 17.1501 22.0167L16.2001 19.6167C15.9751 19.0333 15.2751 18.5583 14.6501 18.5583L9.66675 18.5833V14.5083C9.66675 11.475 11.4751 9.66666 14.5084 9.66666H21.4917C24.5251 9.66666 26.3334 11.475 26.3334 14.5083Z" fill="#0060A8"/>
<path d="M26.3334 21.4917V19.6667H22.9334C22.3751 19.6667 21.7167 19.2667 21.4584 18.775L20.5917 17.1333C20.3584 16.6917 20.0251 16.7167 19.8417 17.175L17.9251 22.0167C17.7167 22.5583 17.3667 22.5583 17.1501 22.0167L16.2001 19.6167C15.9751 19.0333 15.2751 18.5583 14.6501 18.5583L9.66675 18.5833V21.4917C9.66675 24.475 11.4167 26.275 14.3584 26.325C14.4501 26.3333 14.5501 26.3333 14.6417 26.3333H21.3084C21.4334 26.3333 21.5584 26.3333 21.6751 26.325C24.6001 26.2583 26.3334 24.4667 26.3334 21.4917Z" fill="#0060A8"/>
<path d="M9.6666 18.5833V21.3417C9.64993 21.075 9.6416 20.7917 9.6416 20.5V18.5833H9.6666Z" fill="#0060A8"/>
</svg>
