<svg width="36" height="36" viewBox="0 0 36 36" fill="none" xmlns="http://www.w3.org/2000/svg">
<rect width="36" height="36" rx="18" fill="#B3DEFF"/>
<path opacity="0.4" d="M15.5001 8.83334C13.3167 8.83334 11.5417 10.6083 11.5417 12.7917C11.5417 14.9333 13.2167 16.6667 15.4001 16.7417C15.4667 16.7333 15.5334 16.7333 15.5834 16.7417C15.6001 16.7417 15.6084 16.7417 15.6251 16.7417C15.6334 16.7417 15.6334 16.7417 15.6417 16.7417C17.7751 16.6667 19.4501 14.9333 19.4584 12.7917C19.4584 10.6083 17.6834 8.83334 15.5001 8.83334Z" fill="#0060A8"/>
<path d="M19.7333 19.7917C17.4083 18.2417 13.6166 18.2417 11.275 19.7917C10.2166 20.5 9.6333 21.4583 9.6333 22.4833C9.6333 23.5083 10.2166 24.4583 11.2666 25.1583C12.4333 25.9417 13.9666 26.3333 15.5 26.3333C17.0333 26.3333 18.5666 25.9417 19.7333 25.1583C20.7833 24.45 21.3666 23.5 21.3666 22.4667C21.3583 21.4417 20.7833 20.4917 19.7333 19.7917Z" fill="#0060A8"/>
<path opacity="0.4" d="M24.6583 14.1167C24.7916 15.7333 23.6416 17.15 22.05 17.3417C22.0416 17.3417 22.0416 17.3417 22.0333 17.3417H22.0083C21.9583 17.3417 21.9083 17.3417 21.8666 17.3583C21.0583 17.4 20.3166 17.1417 19.7583 16.6667C20.6166 15.9 21.1083 14.75 21.0083 13.5C20.95 12.825 20.7166 12.2083 20.3666 11.6833C20.6833 11.525 21.05 11.425 21.425 11.3917C23.0583 11.25 24.5166 12.4667 24.6583 14.1167Z" fill="#0060A8"/>
<path d="M26.3251 21.825C26.2584 22.6333 25.7418 23.3333 24.8751 23.8083C24.0418 24.2667 22.9918 24.4833 21.9501 24.4583C22.5501 23.9167 22.9001 23.2417 22.9668 22.525C23.0501 21.4917 22.5584 20.5 21.5751 19.7083C21.0168 19.2667 20.3668 18.9167 19.6584 18.6583C21.5001 18.125 23.8168 18.4833 25.2418 19.6333C26.0084 20.25 26.4001 21.025 26.3251 21.825Z" fill="#0060A8"/>
</svg>
