<svg width="36" height="36" viewBox="0 0 36 36" fill="none" xmlns="http://www.w3.org/2000/svg">
<mask id="mask0_432_6618" style="mask-type:alpha" maskUnits="userSpaceOnUse" x="8" y="8" width="20" height="20">
<path opacity="0.4" d="M15.5 9.66666C13.3167 9.66666 11.5417 11.4417 11.5417 13.625C11.5417 15.7667 13.2167 17.5 15.4 17.575C15.4667 17.5667 15.5333 17.5667 15.5833 17.575C15.6 17.575 15.6083 17.575 15.625 17.575C15.6333 17.575 15.6333 17.575 15.6417 17.575C17.775 17.5 19.45 15.7667 19.4583 13.625C19.4583 11.4417 17.6833 9.66666 15.5 9.66666Z" fill="#0060A8"/>
<path d="M19.7333 19.7917C17.4083 18.2417 13.6167 18.2417 11.275 19.7917C10.2167 20.5 9.63333 21.4583 9.63333 22.4833C9.63333 23.5083 10.2167 24.4583 11.2667 25.1583C12.4333 25.9417 13.9667 26.3333 15.5 26.3333C17.0333 26.3333 18.5667 25.9417 19.7333 25.1583C20.7833 24.45 21.3667 23.5 21.3667 22.4667C21.3583 21.4417 20.7833 20.4917 19.7333 19.7917Z" fill="#0060A8"/>
<path opacity="0.4" d="M24.6583 14.1167C24.7917 15.7333 23.6417 17.15 22.05 17.3417C22.0417 17.3417 22.0417 17.3417 22.0333 17.3417H22.0083C21.9583 17.3417 21.9083 17.3417 21.8667 17.3583C21.0583 17.4 20.3167 17.1417 19.7583 16.6667C20.6167 15.9 21.1083 14.75 21.0083 13.5C20.95 12.825 20.7167 12.2083 20.3667 11.6833C20.6833 11.525 21.05 11.425 21.425 11.3917C23.0583 11.25 24.5167 12.4667 24.6583 14.1167Z" fill="#0060A8"/>
<path d="M26.325 21.825C26.2583 22.6333 25.7417 23.3333 24.875 23.8083C24.0417 24.2667 22.9917 24.4833 21.95 24.4583C22.55 23.9167 22.9 23.2417 22.9667 22.525C23.05 21.4917 22.5583 20.5 21.575 19.7083C21.0167 19.2667 20.3667 18.9167 19.6583 18.6583C21.5 18.125 23.8167 18.4833 25.2417 19.6333C26.0083 20.25 26.4 21.025 26.325 21.825Z" fill="#333333"/>
</mask>
<g mask="url(#mask0_432_6618)">
<path d="M28 8H8V28H28V8Z" fill="#7C7C7C"/>
</g>
</svg>
