<svg width="36" height="36" viewBox="0 0 36 36" fill="none" xmlns="http://www.w3.org/2000/svg">
<rect width="36" height="36" rx="18" fill="#B3DEFF"/>
<path opacity="0.4" d="M24.0834 14.6V18.8917C24.0834 21.4583 22.6167 22.5583 20.4167 22.5583H13.0917C12.7167 22.5583 12.3584 22.525 12.025 22.45C11.8167 22.4167 11.6167 22.3584 11.4334 22.2917C10.1834 21.825 9.42505 20.7417 9.42505 18.8917V14.6C9.42505 12.0333 10.8917 10.9333 13.0917 10.9333H20.4167C22.2834 10.9333 23.625 11.725 23.9834 13.5333C24.0417 13.8667 24.0834 14.2083 24.0834 14.6Z" fill="#0060A8"/>
<path d="M26.5832 17.1V21.3917C26.5832 23.9583 25.1166 25.0583 22.9166 25.0583H15.5916C14.9749 25.0583 14.4166 24.975 13.9332 24.7917C12.9416 24.425 12.2666 23.6667 12.0249 22.45C12.3582 22.525 12.7166 22.5583 13.0916 22.5583H20.4166C22.6166 22.5583 24.0832 21.4583 24.0832 18.8917V14.6C24.0832 14.2083 24.0499 13.8583 23.9832 13.5333C25.5666 13.8667 26.5832 14.9833 26.5832 17.1Z" fill="#0060A8"/>
<path d="M16.7501 18.95C17.9651 18.95 18.9501 17.965 18.9501 16.75C18.9501 15.535 17.9651 14.55 16.7501 14.55C15.535 14.55 14.55 15.535 14.55 16.75C14.55 17.965 15.535 18.95 16.7501 18.95Z" fill="#0060A8"/>
<path d="M11.9834 14.875C11.6417 14.875 11.3584 15.1583 11.3584 15.5V18C11.3584 18.3417 11.6417 18.625 11.9834 18.625C12.3251 18.625 12.6084 18.3417 12.6084 18V15.5C12.6084 15.1583 12.3334 14.875 11.9834 14.875Z" fill="#0060A8"/>
<path d="M21.5083 14.875C21.1666 14.875 20.8833 15.1583 20.8833 15.5V18C20.8833 18.3417 21.1666 18.625 21.5083 18.625C21.85 18.625 22.1333 18.3417 22.1333 18V15.5C22.1333 15.1583 21.8583 14.875 21.5083 14.875Z" fill="#0060A8"/>
</svg>
