<svg width="36" height="36" viewBox="0 0 36 36" fill="none" xmlns="http://www.w3.org/2000/svg">
<mask id="mask0_720_2624" style="mask-type:alpha" maskUnits="userSpaceOnUse" x="8" y="8" width="20" height="20">
<path opacity="0.4" d="M24.0834 14.6V18.8917C24.0834 21.4583 22.6167 22.5583 20.4167 22.5583H13.0917C12.7167 22.5583 12.3584 22.525 12.025 22.45C11.8167 22.4167 11.6167 22.3584 11.4334 22.2917C10.1834 21.825 9.42505 20.7417 9.42505 18.8917V14.6C9.42505 12.0333 10.8917 10.9333 13.0917 10.9333H20.4167C22.2834 10.9333 23.625 11.725 23.9834 13.5333C24.0417 13.8667 24.0834 14.2083 24.0834 14.6Z" fill="#0060A8"/>
<path d="M26.5834 17.1V21.3917C26.5834 23.9583 25.1167 25.0583 22.9167 25.0583H15.5917C14.975 25.0583 14.4167 24.975 13.9334 24.7917C12.9417 24.425 12.2667 23.6667 12.025 22.45C12.3584 22.525 12.7167 22.5583 13.0917 22.5583H20.4167C22.6167 22.5583 24.0834 21.4583 24.0834 18.8917V14.6C24.0834 14.2083 24.05 13.8583 23.9834 13.5333C25.5667 13.8667 26.5834 14.9833 26.5834 17.1Z" fill="#0060A8"/>
<path d="M16.7501 18.9501C17.9651 18.9501 18.9501 17.9651 18.9501 16.7501C18.9501 15.535 17.9651 14.55 16.7501 14.55C15.535 14.55 14.55 15.535 14.55 16.7501C14.55 17.9651 15.535 18.9501 16.7501 18.9501Z" fill="#333333"/>
<path d="M11.9833 14.875C11.6416 14.875 11.3583 15.1583 11.3583 15.5V18C11.3583 18.3417 11.6416 18.625 11.9833 18.625C12.3249 18.625 12.6083 18.3417 12.6083 18V15.5C12.6083 15.1583 12.3333 14.875 11.9833 14.875Z" fill="#333333"/>
<path d="M21.5083 14.875C21.1666 14.875 20.8833 15.1583 20.8833 15.5V18C20.8833 18.3417 21.1666 18.625 21.5083 18.625C21.85 18.625 22.1333 18.3417 22.1333 18V15.5C22.1333 15.1583 21.8583 14.875 21.5083 14.875Z" fill="#333333"/>
</mask>
<g mask="url(#mask0_720_2624)">
<path d="M28 8H8V28H28V8Z" fill="#7C7C7C"/>
</g>
</svg>
