<svg width="36" height="36" viewBox="0 0 36 36" fill="none" xmlns="http://www.w3.org/2000/svg">
<rect width="36" height="36" rx="18" fill="#B3DEFF"/>
<path opacity="0.4" d="M14.1416 26.3334H21.8499C24.0916 26.3334 25.9083 24.5167 25.9083 22.275V14.975C25.9083 12.7334 24.0916 10.9167 21.8499 10.9167H14.1416C11.8999 10.9167 10.0833 12.7334 10.0833 14.975V22.2667C10.0833 24.5167 11.8999 26.3334 14.1416 26.3334Z" fill="#0060A8"/>
<path d="M14.9084 13.2417C14.5584 13.2417 14.2834 12.9584 14.2834 12.6167V10.2917C14.2834 9.95002 14.5584 9.66669 14.9084 9.66669C15.2584 9.66669 15.5334 9.95002 15.5334 10.2917V12.6084C15.5334 12.9584 15.2584 13.2417 14.9084 13.2417Z" fill="#0060A8"/>
<path d="M21.0916 13.2417C20.7416 13.2417 20.4666 12.9584 20.4666 12.6167V10.2917C20.4666 9.94169 20.7499 9.66669 21.0916 9.66669C21.4416 9.66669 21.7166 9.95002 21.7166 10.2917V12.6084C21.7166 12.9584 21.4416 13.2417 21.0916 13.2417Z" fill="#0060A8"/>
<path d="M20.3166 19.425H14.1333C13.7833 19.425 13.5083 19.1417 13.5083 18.8C13.5083 18.4583 13.7916 18.175 14.1333 18.175H20.3166C20.6666 18.175 20.9416 18.4583 20.9416 18.8C20.9416 19.1417 20.6666 19.425 20.3166 19.425Z" fill="#0060A8"/>
<path d="M18 22.5167H14.1333C13.7833 22.5167 13.5083 22.2333 13.5083 21.8917C13.5083 21.5417 13.7916 21.2667 14.1333 21.2667H18C18.35 21.2667 18.625 21.55 18.625 21.8917C18.625 22.2333 18.35 22.5167 18 22.5167Z" fill="#0060A8"/>
</svg>
