<svg width="36" height="36" viewBox="0 0 36 36" fill="none" xmlns="http://www.w3.org/2000/svg">
<mask id="mask0_720_2662" style="mask-type:alpha" maskUnits="userSpaceOnUse" x="8" y="8" width="20" height="20">
<path opacity="0.4" d="M14.1417 26.3333H21.85C24.0917 26.3333 25.9084 24.5166 25.9084 22.275V14.975C25.9084 12.7333 24.0917 10.9166 21.85 10.9166H14.1417C11.9 10.9166 10.0834 12.7333 10.0834 14.975V22.2666C10.0834 24.5166 11.9 26.3333 14.1417 26.3333Z" fill="#0060A8"/>
<path d="M14.9083 13.2416C14.5583 13.2416 14.2833 12.9583 14.2833 12.6166V10.2916C14.2833 9.94996 14.5583 9.66663 14.9083 9.66663C15.2583 9.66663 15.5333 9.94996 15.5333 10.2916V12.6083C15.5333 12.9583 15.2583 13.2416 14.9083 13.2416Z" fill="#0060A8"/>
<path d="M21.0917 13.2416C20.7417 13.2416 20.4667 12.9583 20.4667 12.6166V10.2916C20.4667 9.94163 20.75 9.66663 21.0917 9.66663C21.4417 9.66663 21.7167 9.94996 21.7167 10.2916V12.6083C21.7167 12.9583 21.4417 13.2416 21.0917 13.2416Z" fill="#0060A8"/>
<path d="M20.3166 19.425H14.1333C13.7833 19.425 13.5083 19.1417 13.5083 18.8C13.5083 18.4584 13.7916 18.175 14.1333 18.175H20.3166C20.6666 18.175 20.9416 18.4584 20.9416 18.8C20.9416 19.1417 20.6666 19.425 20.3166 19.425Z" fill="#333333"/>
<path d="M18 22.5167H14.1333C13.7833 22.5167 13.5083 22.2334 13.5083 21.8917C13.5083 21.5417 13.7916 21.2667 14.1333 21.2667H18C18.35 21.2667 18.625 21.5501 18.625 21.8917C18.625 22.2334 18.35 22.5167 18 22.5167Z" fill="#333333"/>
</mask>
<g mask="url(#mask0_720_2662)">
<path d="M28 8H8V28H28V8Z" fill="#7C7C7C"/>
</g>
</svg>
