<svg width="36" height="36" viewBox="0 0 36 36" fill="none" xmlns="http://www.w3.org/2000/svg">
<mask id="mask0_720_2786" style="mask-type:alpha" maskUnits="userSpaceOnUse" x="8" y="8" width="20" height="20">
<path opacity="0.4" d="M21.4917 9.66669H14.5167C11.4834 9.66669 9.67505 11.475 9.67505 14.5084V21.4833C9.67505 24.5167 11.4834 26.325 14.5167 26.325H21.4917C24.525 26.325 26.3334 24.5167 26.3334 21.4833V14.5084C26.3334 11.475 24.525 9.66669 21.4917 9.66669Z" fill="#0060A8"/>
<path d="M16.425 17.2917H14.2167C13.6917 17.2917 13.2667 17.7166 13.2667 18.2416V22.5083H16.425V17.2917Z" fill="#0060A8"/>
<path opacity="0.4" d="M18.6334 13.5H17.3667C16.8417 13.5 16.4167 13.925 16.4167 14.45V22.5H19.5751V14.45C19.5751 13.925 19.1584 13.5 18.6334 13.5Z" fill="#333333"/>
<path d="M21.7917 18.7083H19.5834V22.5H22.7417V19.6583C22.7334 19.1333 22.3084 18.7083 21.7917 18.7083Z" fill="#333333"/>
</mask>
<g mask="url(#mask0_720_2786)">
<path d="M28 8H8V28H28V8Z" fill="#7C7C7C"/>
</g>
</svg>
