<svg width="36" height="36" viewBox="0 0 36 36" fill="none" xmlns="http://www.w3.org/2000/svg">
<rect width="36" height="36" rx="18" fill="#B3DEFF"/>
<path opacity="0.4" d="M21.4917 9.66663H14.5167C11.4834 9.66663 9.67505 11.475 9.67505 14.5083V21.4833C9.67505 24.5166 11.4834 26.325 14.5167 26.325H21.4917C24.525 26.325 26.3334 24.5166 26.3334 21.4833V14.5083C26.3334 11.475 24.525 9.66663 21.4917 9.66663Z" fill="#0060A8"/>
<path d="M16.4249 17.2917H14.2166C13.6916 17.2917 13.2666 17.7167 13.2666 18.2417V22.5084H16.4249V17.2917Z" fill="#0060A8"/>
<path opacity="0.4" d="M18.6332 13.5H17.3665C16.8415 13.5 16.4165 13.925 16.4165 14.45V22.5H19.5748V14.45C19.5748 13.925 19.1582 13.5 18.6332 13.5Z" fill="#0060A8"/>
<path d="M21.7916 18.7084H19.5833V22.5001H22.7416V19.6584C22.7333 19.1334 22.3082 18.7084 21.7916 18.7084Z" fill="#0060A8"/>
</svg>
