<svg width="36" height="36" viewBox="0 0 36 36" fill="none" xmlns="http://www.w3.org/2000/svg">
<rect width="36" height="36" rx="18" fill="#B3DEFF"/>
<path opacity="0.4" d="M25.0833 16.4917H22.6749C20.6999 16.4917 19.0916 14.8834 19.0916 12.9084V10.5C19.0916 10.0417 18.7166 9.66669 18.2583 9.66669H14.7249C12.1583 9.66669 10.0833 11.3334 10.0833 14.3084V21.6917C10.0833 24.6667 12.1583 26.3334 14.7249 26.3334H21.2749C23.8416 26.3334 25.9166 24.6667 25.9166 21.6917V17.325C25.9166 16.8667 25.5416 16.4917 25.0833 16.4917Z" fill="#0060A8"/>
<path d="M21.1667 9.84164C20.8251 9.49997 20.2334 9.73331 20.2334 10.2083V13.1166C20.2334 14.3333 21.2667 15.3416 22.5251 15.3416C23.3167 15.35 24.4167 15.35 25.3584 15.35C25.8334 15.35 26.0834 14.7916 25.7501 14.4583C24.5501 13.25 22.4001 11.075 21.1667 9.84164Z" fill="#0060A8"/>
<path d="M17.1666 22.7916C17.0083 22.7916 16.8499 22.7333 16.7249 22.6083C16.4833 22.3666 16.4833 21.9666 16.7249 21.725L17.3249 21.125H13.8333C13.4916 21.125 13.2083 20.8416 13.2083 20.5C13.2083 20.1583 13.4916 19.875 13.8333 19.875H17.3249L16.7249 19.275C16.5999 19.15 16.5416 18.9916 16.5416 18.8333C16.5416 18.675 16.5999 18.5166 16.7249 18.3916C16.9666 18.15 17.3666 18.15 17.6083 18.3916L19.2749 20.0583C19.3833 20.1666 19.4416 20.3083 19.4499 20.4416C19.4499 20.4833 19.4499 20.5333 19.4499 20.575C19.4333 20.6916 19.3833 20.8 19.2999 20.9C19.2916 20.9083 19.2749 20.925 19.2666 20.9333L17.5999 22.6C17.4833 22.7333 17.3249 22.7916 17.1666 22.7916Z" fill="#0060A8"/>
</svg>
