<svg width="36" height="36" viewBox="0 0 36 36" fill="none" xmlns="http://www.w3.org/2000/svg">
<mask id="mask0_720_2558" style="mask-type:alpha" maskUnits="userSpaceOnUse" x="8" y="8" width="20" height="20">
<path opacity="0.4" d="M25.0834 16.4916H22.675C20.7 16.4916 19.0917 14.8833 19.0917 12.9083V10.5C19.0917 10.0416 18.7167 9.66663 18.2584 9.66663H14.725C12.1584 9.66663 10.0834 11.3333 10.0834 14.3083V21.6916C10.0834 24.6666 12.1584 26.3333 14.725 26.3333H21.275C23.8417 26.3333 25.9167 24.6666 25.9167 21.6916V17.325C25.9167 16.8666 25.5417 16.4916 25.0834 16.4916Z" fill="#0060A8"/>
<path d="M21.1666 9.8417C20.8249 9.50003 20.2333 9.73337 20.2333 10.2084V13.1167C20.2333 14.3334 21.2666 15.3417 22.5249 15.3417C23.3166 15.35 24.4166 15.35 25.3583 15.35C25.8333 15.35 26.0833 14.7917 25.7499 14.4584C24.5499 13.25 22.3999 11.075 21.1666 9.8417Z" fill="#0060A8"/>
<path d="M17.1667 22.7917C17.0084 22.7917 16.85 22.7334 16.725 22.6084C16.4834 22.3667 16.4834 21.9667 16.725 21.725L17.325 21.125H13.8334C13.4917 21.125 13.2084 20.8417 13.2084 20.5C13.2084 20.1584 13.4917 19.875 13.8334 19.875H17.325L16.725 19.275C16.6 19.15 16.5417 18.9917 16.5417 18.8334C16.5417 18.675 16.6 18.5167 16.725 18.3917C16.9667 18.15 17.3667 18.15 17.6084 18.3917L19.275 20.0584C19.3834 20.1667 19.4417 20.3084 19.45 20.4417C19.45 20.4834 19.45 20.5334 19.45 20.575C19.4334 20.6917 19.3834 20.8 19.3 20.9C19.2917 20.9084 19.275 20.925 19.2667 20.9334L17.6 22.6C17.4834 22.7334 17.325 22.7917 17.1667 22.7917Z" fill="#0060A8"/>
</mask>
<g mask="url(#mask0_720_2558)">
<path d="M28 8H8V28H28V8Z" fill="#7C7C7C"/>
</g>
</svg>
