<svg width="36" height="36" viewBox="0 0 36 36" fill="none" xmlns="http://www.w3.org/2000/svg">
<mask id="mask0_720_2724" style="mask-type:alpha" maskUnits="userSpaceOnUse" x="8" y="8" width="20" height="20">
<path opacity="0.4" d="M26.3333 19.6666V22.1666C26.3333 23.55 25.2166 24.6666 23.8333 24.6666H23C23 23.75 22.25 23 21.3333 23C20.4166 23 19.6666 23.75 19.6666 24.6666H16.3333C16.3333 23.75 15.5833 23 14.6666 23C13.75 23 13 23.75 13 24.6666H12.1666C10.7833 24.6666 9.66663 23.55 9.66663 22.1666V19.6666H18.8333C19.75 19.6666 20.5 18.9166 20.5 18V12.1666H22.0333C22.6333 12.1666 23.1833 12.4916 23.4833 13.0083L24.9083 15.5H23.8333C23.375 15.5 23 15.875 23 16.3333V18.8333C23 19.2916 23.375 19.6666 23.8333 19.6666H26.3333Z" fill="#0060A8"/>
<path d="M14.6667 26.3333C15.5871 26.3333 16.3333 25.5871 16.3333 24.6667C16.3333 23.7462 15.5871 23 14.6667 23C13.7462 23 13 23.7462 13 24.6667C13 25.5871 13.7462 26.3333 14.6667 26.3333Z" fill="#0060A8"/>
<path d="M21.3333 26.3333C22.2538 26.3333 23 25.5871 23 24.6667C23 23.7462 22.2538 23 21.3333 23C20.4128 23 19.6666 23.7462 19.6666 24.6667C19.6666 25.5871 20.4128 26.3333 21.3333 26.3333Z" fill="#333333"/>
<path d="M26.3333 18.4417V19.6667H23.8333C23.375 19.6667 23 19.2917 23 18.8333V16.3333C23 15.875 23.375 15.5 23.8333 15.5H24.9083L26.1167 17.6166C26.2583 17.8666 26.3333 18.15 26.3333 18.4417Z" fill="#333333"/>
<path d="M19.6667 9.66663H13.0001C11.3751 9.66663 10.0251 10.8333 9.73343 12.375H13.8334C14.1751 12.375 14.4584 12.6583 14.4584 13C14.4584 13.3416 14.1751 13.625 13.8334 13.625H9.66675V14.875H12.1667C12.5084 14.875 12.7917 15.1583 12.7917 15.5C12.7917 15.8416 12.5084 16.125 12.1667 16.125H9.66675V17.375H10.5001C10.8417 17.375 11.1251 17.6583 11.1251 18C11.1251 18.3416 10.8417 18.625 10.5001 18.625H9.66675V19.6666H18.8334C19.7501 19.6666 20.5001 18.9166 20.5001 18V10.5C20.5001 10.0416 20.1251 9.66663 19.6667 9.66663Z" fill="#333333"/>
<path d="M9.73339 12.375H8.83337C8.49171 12.375 8.20837 12.6583 8.20837 13C8.20837 13.3417 8.49171 13.625 8.83337 13.625H9.66671V13C9.66671 12.7833 9.69172 12.575 9.73339 12.375Z" fill="#333333"/>
<path d="M8.83337 14.875C8.49171 14.875 8.20837 15.1583 8.20837 15.5C8.20837 15.8417 8.49171 16.125 8.83337 16.125H9.66671V14.875H8.83337Z" fill="#333333"/>
<path d="M8.83337 17.375C8.49171 17.375 8.20837 17.6583 8.20837 18C8.20837 18.3417 8.49171 18.625 8.83337 18.625H9.66671V17.375H8.83337Z" fill="#333333"/>
</mask>
<g mask="url(#mask0_720_2724)">
<path d="M28 8H8V28H28V8Z" fill="#7C7C7C"/>
</g>
</svg>
