<svg width="36" height="36" viewBox="0 0 36 36" fill="none" xmlns="http://www.w3.org/2000/svg">
<rect width="36" height="36" rx="18" fill="#B3DEFF"/>
<path opacity="0.4" d="M26.3334 19.6667V22.1667C26.3334 23.55 25.2167 24.6667 23.8334 24.6667H23.0001C23.0001 23.75 22.2501 23 21.3334 23C20.4167 23 19.6667 23.75 19.6667 24.6667H16.3334C16.3334 23.75 15.5834 23 14.6667 23C13.7501 23 13.0001 23.75 13.0001 24.6667H12.1667C10.7834 24.6667 9.66675 23.55 9.66675 22.1667V19.6667H18.8334C19.7501 19.6667 20.5001 18.9167 20.5001 18V12.1667H22.0334C22.6334 12.1667 23.1834 12.4917 23.4834 13.0084L24.9084 15.5H23.8334C23.3751 15.5 23.0001 15.875 23.0001 16.3334V18.8334C23.0001 19.2917 23.3751 19.6667 23.8334 19.6667H26.3334Z" fill="#0060A8"/>
<path d="M14.6667 26.3333C15.5871 26.3333 16.3333 25.5871 16.3333 24.6667C16.3333 23.7462 15.5871 23 14.6667 23C13.7462 23 13 23.7462 13 24.6667C13 25.5871 13.7462 26.3333 14.6667 26.3333Z" fill="#0060A8"/>
<path d="M21.3334 26.3333C22.2539 26.3333 23.0001 25.5871 23.0001 24.6667C23.0001 23.7462 22.2539 23 21.3334 23C20.4129 23 19.6667 23.7462 19.6667 24.6667C19.6667 25.5871 20.4129 26.3333 21.3334 26.3333Z" fill="#0060A8"/>
<path d="M26.3333 18.4417V19.6667H23.8333C23.375 19.6667 23 19.2917 23 18.8333V16.3333C23 15.875 23.375 15.5 23.8333 15.5H24.9083L26.1167 17.6166C26.2583 17.8666 26.3333 18.15 26.3333 18.4417Z" fill="#0060A8"/>
<path d="M19.6665 9.66669H12.9998C11.3748 9.66669 10.0249 10.8334 9.73318 12.375H13.8332C14.1748 12.375 14.4582 12.6584 14.4582 13C14.4582 13.3417 14.1748 13.625 13.8332 13.625H9.6665V14.875H12.1665C12.5082 14.875 12.7915 15.1584 12.7915 15.5C12.7915 15.8417 12.5082 16.125 12.1665 16.125H9.6665V17.375H10.4998C10.8415 17.375 11.1248 17.6584 11.1248 18C11.1248 18.3417 10.8415 18.625 10.4998 18.625H9.6665V19.6667H18.8332C19.7498 19.6667 20.4998 18.9167 20.4998 18V10.5C20.4998 10.0417 20.1248 9.66669 19.6665 9.66669Z" fill="#0060A8"/>
<path d="M9.73327 12.375H8.83325C8.49159 12.375 8.20825 12.6583 8.20825 13C8.20825 13.3417 8.49159 13.625 8.83325 13.625H9.66659V13C9.66659 12.7833 9.6916 12.575 9.73327 12.375Z" fill="#0060A8"/>
<path d="M8.83325 14.875C8.49159 14.875 8.20825 15.1583 8.20825 15.5C8.20825 15.8417 8.49159 16.125 8.83325 16.125H9.66659V14.875H8.83325Z" fill="#0060A8"/>
<path d="M8.83325 17.375C8.49159 17.375 8.20825 17.6583 8.20825 18C8.20825 18.3417 8.49159 18.625 8.83325 18.625H9.66659V17.375H8.83325Z" fill="#0060A8"/>
</svg>
