<svg width="36" height="36" viewBox="0 0 36 36" fill="none" xmlns="http://www.w3.org/2000/svg">
<rect width="36" height="36" rx="18" fill="#B3DEFF"/>
<path d="M13.8334 14.6666H11.3334C10.4167 14.6666 9.66675 13.9166 9.66675 13V11.3333C9.66675 10.4166 10.4167 9.66663 11.3334 9.66663H13.8334C14.7501 9.66663 15.5001 10.4166 15.5001 11.3333V13C15.5001 13.9166 14.7501 14.6666 13.8334 14.6666Z" fill="#0060A8"/>
<path d="M25.3333 13.8333H22.3332C21.7832 13.8333 21.3333 13.3833 21.3333 12.8333V11.5C21.3333 10.95 21.7832 10.5 22.3332 10.5H25.3333C25.8833 10.5 26.3333 10.95 26.3333 11.5V12.8333C26.3333 13.3833 25.8833 13.8333 25.3333 13.8333Z" fill="#0060A8"/>
<path d="M25.3333 20.0833H22.3332C21.7832 20.0833 21.3333 19.6333 21.3333 19.0833V17.75C21.3333 17.2 21.7832 16.75 22.3332 16.75H25.3333C25.8833 16.75 26.3333 17.2 26.3333 17.75V19.0833C26.3333 19.6333 25.8833 20.0833 25.3333 20.0833Z" fill="#0060A8"/>
<path opacity="0.37" d="M21.3333 19.0416C21.675 19.0416 21.9583 18.7583 21.9583 18.4166C21.9583 18.075 21.675 17.7916 21.3333 17.7916H19.0417V12.7916H21.3333C21.675 12.7916 21.9583 12.5083 21.9583 12.1666C21.9583 11.825 21.675 11.5416 21.3333 11.5416H15.5C15.1583 11.5416 14.875 11.825 14.875 12.1666C14.875 12.5083 15.1583 12.7916 15.5 12.7916H17.7917V23C17.7917 24.2666 18.8167 25.2916 20.0833 25.2916H21.3333C21.675 25.2916 21.9583 25.0083 21.9583 24.6666C21.9583 24.325 21.675 24.0416 21.3333 24.0416H20.0833C19.5083 24.0416 19.0417 23.575 19.0417 23V19.0416H21.3333Z" fill="#0060A8"/>
<path d="M25.3333 26.3333H22.3332C21.7832 26.3333 21.3333 25.8833 21.3333 25.3333V24C21.3333 23.45 21.7832 23 22.3332 23H25.3333C25.8833 23 26.3333 23.45 26.3333 24V25.3333C26.3333 25.8833 25.8833 26.3333 25.3333 26.3333Z" fill="#0060A8"/>
</svg>
