<svg width="36" height="36" viewBox="0 0 36 36" fill="none" xmlns="http://www.w3.org/2000/svg">
<mask id="mask0_720_2760" style="mask-type:alpha" maskUnits="userSpaceOnUse" x="8" y="8" width="20" height="20">
<path d="M13.8333 14.6666H11.3333C10.4166 14.6666 9.66663 13.9166 9.66663 13V11.3333C9.66663 10.4166 10.4166 9.66663 11.3333 9.66663H13.8333C14.75 9.66663 15.5 10.4166 15.5 11.3333V13C15.5 13.9166 14.75 14.6666 13.8333 14.6666Z" fill="#0060A8"/>
<path d="M25.3334 13.8333H22.3334C21.7834 13.8333 21.3334 13.3833 21.3334 12.8333V11.5C21.3334 10.95 21.7834 10.5 22.3334 10.5H25.3334C25.8834 10.5 26.3334 10.95 26.3334 11.5V12.8333C26.3334 13.3833 25.8834 13.8333 25.3334 13.8333Z" fill="#0060A8"/>
<path d="M25.3334 20.0833H22.3334C21.7834 20.0833 21.3334 19.6333 21.3334 19.0833V17.75C21.3334 17.2 21.7834 16.75 22.3334 16.75H25.3334C25.8834 16.75 26.3334 17.2 26.3334 17.75V19.0833C26.3334 19.6333 25.8834 20.0833 25.3334 20.0833Z" fill="#333333"/>
<path opacity="0.37" d="M21.3333 19.0416C21.675 19.0416 21.9583 18.7583 21.9583 18.4166C21.9583 18.075 21.675 17.7916 21.3333 17.7916H19.0417V12.7916H21.3333C21.675 12.7916 21.9583 12.5083 21.9583 12.1666C21.9583 11.825 21.675 11.5416 21.3333 11.5416H15.5C15.1583 11.5416 14.875 11.825 14.875 12.1666C14.875 12.5083 15.1583 12.7916 15.5 12.7916H17.7917V23C17.7917 24.2666 18.8167 25.2916 20.0833 25.2916H21.3333C21.675 25.2916 21.9583 25.0083 21.9583 24.6666C21.9583 24.325 21.675 24.0416 21.3333 24.0416H20.0833C19.5083 24.0416 19.0417 23.575 19.0417 23V19.0416H21.3333Z" fill="#333333"/>
<path d="M25.3334 26.3333H22.3334C21.7834 26.3333 21.3334 25.8833 21.3334 25.3333V24C21.3334 23.45 21.7834 23 22.3334 23H25.3334C25.8834 23 26.3334 23.45 26.3334 24V25.3333C26.3334 25.8833 25.8834 26.3333 25.3334 26.3333Z" fill="#333333"/>
</mask>
<g mask="url(#mask0_720_2760)">
<path d="M28 8H8V28H28V8Z" fill="#7C7C7C"/>
</g>
</svg>
