<svg width="36" height="36" viewBox="0 0 36 36" fill="none" xmlns="http://www.w3.org/2000/svg">
<rect width="36" height="36" rx="18" fill="#B3DEFF"/>
<path d="M24.6667 13.625C25.9323 13.625 26.9583 12.5989 26.9583 11.3333C26.9583 10.0676 25.9323 9.04163 24.6667 9.04163C23.401 9.04163 22.375 10.0676 22.375 11.3333C22.375 12.5989 23.401 13.625 24.6667 13.625Z" fill="#0060A8"/>
<path opacity="0.4" d="M24.6667 14.6666C22.8251 14.6666 21.3334 13.175 21.3334 11.3333C21.3334 10.725 21.5084 10.1583 21.8001 9.66663H13.8334C11.5334 9.66663 9.66675 11.525 9.66675 13.8166V18.8V19.6333C9.66675 21.925 11.5334 23.7833 13.8334 23.7833H15.0834C15.3084 23.7833 15.6084 23.9333 15.7501 24.1166L17.0001 25.775C17.5501 26.5083 18.4501 26.5083 19.0001 25.775L20.2501 24.1166C20.4084 23.9083 20.6584 23.7833 20.9167 23.7833H22.1667C24.4667 23.7833 26.3334 21.925 26.3334 19.6333V14.2C25.8417 14.4916 25.2751 14.6666 24.6667 14.6666Z" fill="#0060A8"/>
<path d="M18.0001 18C17.5334 18 17.1667 17.625 17.1667 17.1667C17.1667 16.7084 17.5417 16.3334 18.0001 16.3334C18.4584 16.3334 18.8334 16.7084 18.8334 17.1667C18.8334 17.625 18.4667 18 18.0001 18Z" fill="#0060A8"/>
<path d="M21.3333 18C20.8667 18 20.5 17.625 20.5 17.1667C20.5 16.7084 20.875 16.3334 21.3333 16.3334C21.7917 16.3334 22.1667 16.7084 22.1667 17.1667C22.1667 17.625 21.8 18 21.3333 18Z" fill="#0060A8"/>
<path d="M14.6666 18C14.1999 18 13.8333 17.625 13.8333 17.1667C13.8333 16.7084 14.2083 16.3334 14.6666 16.3334C15.1249 16.3334 15.4999 16.7084 15.4999 17.1667C15.4999 17.625 15.1333 18 14.6666 18Z" fill="#0060A8"/>
</svg>
