<svg width="36" height="36" viewBox="0 0 36 36" fill="none" xmlns="http://www.w3.org/2000/svg">
<mask id="mask0_720_2814" style="mask-type:alpha" maskUnits="userSpaceOnUse" x="8" y="8" width="20" height="20">
<path d="M24.6667 13.625C25.9323 13.625 26.9583 12.599 26.9583 11.3334C26.9583 10.0677 25.9323 9.04169 24.6667 9.04169C23.401 9.04169 22.375 10.0677 22.375 11.3334C22.375 12.599 23.401 13.625 24.6667 13.625Z" fill="#0060A8"/>
<path opacity="0.4" d="M24.6666 14.6667C22.825 14.6667 21.3333 13.175 21.3333 11.3334C21.3333 10.725 21.5083 10.1584 21.8 9.66669H13.8333C11.5333 9.66669 9.66663 11.525 9.66663 13.8167V18.8V19.6334C9.66663 21.925 11.5333 23.7834 13.8333 23.7834H15.0833C15.3083 23.7834 15.6083 23.9334 15.75 24.1167L17 25.775C17.55 26.5084 18.45 26.5084 19 25.775L20.25 24.1167C20.4083 23.9084 20.6583 23.7834 20.9166 23.7834H22.1666C24.4666 23.7834 26.3333 21.925 26.3333 19.6334V14.2C25.8416 14.4917 25.275 14.6667 24.6666 14.6667Z" fill="#0060A8"/>
<path d="M18 18C17.5333 18 17.1666 17.625 17.1666 17.1666C17.1666 16.7083 17.5416 16.3333 18 16.3333C18.4583 16.3333 18.8333 16.7083 18.8333 17.1666C18.8333 17.625 18.4666 18 18 18Z" fill="#0060A8"/>
<path d="M21.3333 18C20.8667 18 20.5 17.625 20.5 17.1666C20.5 16.7083 20.875 16.3333 21.3333 16.3333C21.7917 16.3333 22.1667 16.7083 22.1667 17.1666C22.1667 17.625 21.8 18 21.3333 18Z" fill="#333333"/>
<path d="M14.6667 18C14.2 18 13.8334 17.625 13.8334 17.1666C13.8334 16.7083 14.2084 16.3333 14.6667 16.3333C15.125 16.3333 15.5 16.7083 15.5 17.1666C15.5 17.625 15.1334 18 14.6667 18Z" fill="#333333"/>
</mask>
<g mask="url(#mask0_720_2814)">
<path d="M28 8H8V28H28V8Z" fill="#7C7C7C"/>
</g>
</svg>
