<svg width="160" height="40" viewBox="0 0 160 40" fill="none" xmlns="http://www.w3.org/2000/svg">
<path d="M97.3726 39.9884C94.9672 39.9884 92.8963 39.717 91.2068 39.1833C89.4509 38.6312 87.9927 37.7134 86.8714 36.4551C85.75 35.1969 84.9448 33.5797 84.4396 31.6245C83.9505 29.7233 83.7031 27.3965 83.7031 24.7075V2.02071C83.7031 0.755541 84.403 -0.00585938 85.5747 -0.00585938H90.5333C90.9617 -0.00585938 92.3591 0.14136 92.3591 2.02071V23.8817C92.3591 25.2814 92.4542 26.4511 92.6409 27.3597C92.8115 28.1936 93.0876 28.848 93.461 29.3081C93.8411 29.7645 94.3517 30.0925 94.9237 30.2477C95.6235 30.4605 96.5399 30.5686 97.6475 30.5686H111.296C111.725 30.5686 113.129 30.7147 113.129 32.5929V37.963C113.129 39.8423 111.73 39.9884 111.296 39.9884H97.3726Z" fill="#0060A7"/>
<path d="M60.9273 39.988C58.5219 39.988 56.4521 39.7166 54.7615 39.1829C53.0067 38.6309 51.5474 37.713 50.4272 36.4548C49.307 35.1965 48.5006 33.5794 47.9955 31.6241C47.5064 29.7229 47.2578 27.3962 47.2578 24.7071V15.2793C47.2578 12.5903 47.5064 10.2716 47.9966 8.38761C48.5006 6.44155 49.3196 4.82214 50.4272 3.58227C51.5348 2.34241 52.9952 1.40618 54.7535 0.831106C56.4521 0.277882 58.5334 -0.00390625 60.9273 -0.00390625H80.0868C81.2597 -0.00390625 81.9595 0.754044 81.9595 2.02266V7.2271C81.9595 8.49227 81.2597 9.25252 80.0868 9.25252H61.0659C59.9594 9.25252 59.0431 9.36064 58.3421 9.57342C57.763 9.73444 57.2447 10.0647 56.853 10.5223C56.4727 10.9766 56.2001 11.6253 56.0443 12.4488C55.8659 13.4935 55.7789 14.5518 55.7843 15.6117H72.3323C72.7606 15.6117 74.1592 15.7578 74.1592 17.6371V21.9663C74.1592 23.8445 72.7606 23.9906 72.3323 23.9906H55.7775V24.1056C55.7775 25.472 55.8657 26.6279 56.0386 27.5399C56.1944 28.3658 56.467 29.0133 56.8473 29.4664C57.2385 29.9248 57.757 30.2555 58.3363 30.4165C59.035 30.6293 59.9514 30.7362 61.0602 30.7362H80.081C81.2539 30.7362 81.9538 31.4942 81.9538 32.7616V37.9672C81.9538 39.2324 81.2539 39.9926 80.081 39.9926L60.9273 39.988Z" fill="#0060A7"/>
<path d="M152.144 39.9884C151.75 40.0023 151.362 39.8901 151.035 39.6681C150.709 39.4461 150.461 39.1257 150.327 38.7532L147.308 32.2076H128.432L132.24 24.2129H143.667L136.996 9.54045L129.894 25.3688L127.001 31.7292L123.835 38.7923C123.491 39.5525 122.835 39.9884 122.034 39.9884H116.067C114.989 39.9884 114.667 39.3409 114.578 39.0626C114.439 38.637 114.486 38.1424 114.717 37.5904L129.784 4.63619C130.614 2.85346 131.429 1.6688 132.278 1.01436C133.157 0.337359 134.238 -0.0220681 135.346 -0.00582001H138.055C139.384 -0.00582001 140.531 0.331176 141.464 0.994814C142.398 1.65845 143.241 2.84196 144.075 4.6316L159.27 37.5639C159.513 38.139 159.56 38.6312 159.421 39.0591C159.33 39.3363 159.011 39.9792 157.978 39.9792L152.144 39.9884Z" fill="#0060A7"/>
<path d="M0.500007 1.46306C0.499781 1.17252 0.585375 0.888439 0.745961 0.646754C0.906547 0.405069 1.13491 0.216639 1.40216 0.105296C1.66942 -0.00604581 1.96355 -0.0352956 2.24737 0.0212462C2.53118 0.0777881 2.79192 0.217581 2.99659 0.422943C3.20127 0.628305 3.34069 0.890007 3.39722 1.17495C3.45376 1.45989 3.42486 1.75526 3.31418 2.02371C3.20351 2.29215 3.01603 2.52161 2.77546 2.68304C2.5349 2.84448 2.25205 2.93065 1.96271 2.93065C1.57498 2.93065 1.2031 2.77607 0.928827 2.50087C0.65455 2.22568 0.500311 1.85239 0.500007 1.46306ZM1.96271 6.94123C2.25205 6.94123 2.5349 6.85506 2.77546 6.69362C3.01603 6.53219 3.20351 6.30273 3.31418 6.03429C3.42486 5.76584 3.45376 5.47047 3.39722 5.18553C3.34069 4.90059 3.20127 4.63889 2.99659 4.43352C2.79192 4.22816 2.53118 4.08837 2.24737 4.03183C1.96355 3.97528 1.66942 4.00453 1.40216 4.11588C1.13491 4.22722 0.906547 4.41565 0.745961 4.65733C0.585375 4.89902 0.499781 5.1831 0.500007 5.47364C0.500007 5.66646 0.53785 5.8574 0.611372 6.03553C0.684894 6.21366 0.792652 6.3755 0.928492 6.51179C1.06433 6.64809 1.22559 6.75617 1.40304 6.82985C1.5805 6.90354 1.77068 6.94138 1.96271 6.94123ZM1.96271 10.9518C2.25205 10.9518 2.5349 10.8656 2.77546 10.7042C3.01603 10.5428 3.20351 10.3133 3.31418 10.0449C3.42486 9.77642 3.45376 9.48105 3.39722 9.19611C3.34069 8.91117 3.20127 8.64947 2.99659 8.4441C2.79192 8.23874 2.53118 8.09895 2.24737 8.04241C1.96355 7.98587 1.66942 8.01512 1.40216 8.12646C1.13491 8.2378 0.906547 8.42623 0.745961 8.66792C0.585375 8.9096 0.499781 9.19368 0.500007 9.48422C0.499857 9.67714 0.537589 9.8682 0.611043 10.0465C0.684498 10.2247 0.792232 10.3867 0.928086 10.5231C1.06394 10.6595 1.22525 10.7677 1.40278 10.8415C1.58031 10.9152 1.77058 10.9531 1.96271 10.953V10.9518ZM1.96271 14.9624C2.25205 14.9624 2.5349 14.8762 2.77546 14.7148C3.01603 14.5534 3.20351 14.3239 3.31418 14.0554C3.42486 13.787 3.45376 13.4916 3.39722 13.2067C3.34069 12.9217 3.20127 12.66 2.99659 12.4547C2.79192 12.2493 2.53118 12.1095 2.24737 12.053C1.96355 11.9964 1.66942 12.0257 1.40216 12.137C1.13491 12.2484 0.906547 12.4368 0.745961 12.6785C0.585375 12.9202 0.499781 13.2043 0.500007 13.4948C0.500007 13.6876 0.53785 13.8786 0.611372 14.0567C0.684894 14.2348 0.792652 14.3967 0.928492 14.533C1.06433 14.6692 1.22559 14.7773 1.40304 14.851C1.5805 14.9247 1.77068 14.9625 1.96271 14.9624ZM1.96271 18.973C2.2522 18.973 2.53518 18.8867 2.77582 18.7251C3.01646 18.5635 3.20393 18.3339 3.31451 18.0652C3.42508 17.7966 3.45378 17.501 3.39697 17.216C3.34015 16.931 3.20039 16.6693 2.99537 16.464C2.79035 16.2588 2.52929 16.1193 2.24525 16.0632C1.96121 16.007 1.66697 16.0367 1.39978 16.1486C1.13258 16.2605 0.904458 16.4495 0.744287 16.6916C0.584115 16.9337 0.4991 17.2181 0.500007 17.5088C0.500917 17.8977 0.65546 18.2702 0.929705 18.5448C1.20395 18.8193 1.57548 18.9733 1.96271 18.973ZM6.5192 7.29893C6.80849 7.29893 7.09129 7.21279 7.33183 7.0514C7.57237 6.89002 7.75985 6.66063 7.87056 6.39225C7.98127 6.12387 8.01024 5.82856 7.9538 5.54365C7.89736 5.25874 7.75805 4.99703 7.55349 4.79163C7.34892 4.58622 7.08829 4.44633 6.80456 4.38966C6.52082 4.33299 6.22672 4.36208 5.95945 4.47324C5.69217 4.58441 5.46373 4.77266 5.30301 5.01419C5.14228 5.25573 5.0565 5.5397 5.0565 5.83019C5.05635 6.02311 5.09408 6.21416 5.16753 6.39243C5.24099 6.57069 5.34872 6.73267 5.48458 6.86908C5.62043 7.0055 5.78174 7.11368 5.95927 7.18744C6.1368 7.2612 6.32707 7.29908 6.5192 7.29893ZM6.5192 11.3095C6.80849 11.3095 7.09129 11.2234 7.33183 11.062C7.57237 10.9006 7.75985 10.6712 7.87056 10.4028C7.98127 10.1345 8.01024 9.83914 7.9538 9.55423C7.89736 9.26932 7.75805 9.00762 7.55349 8.80221C7.34892 8.5968 7.08829 8.45692 6.80456 8.40024C6.52082 8.34357 6.22672 8.37266 5.95945 8.48382C5.69217 8.59499 5.46373 8.78325 5.30301 9.02478C5.14228 9.26631 5.0565 9.55028 5.0565 9.84077C5.05635 10.0337 5.09408 10.2247 5.16753 10.403C5.24099 10.5813 5.34872 10.7433 5.48458 10.8797C5.62043 11.0161 5.78174 11.1243 5.95927 11.198C6.1368 11.2718 6.32707 11.3097 6.5192 11.3095ZM6.5192 15.3201C6.80849 15.3201 7.09129 15.234 7.33183 15.0726C7.57237 14.9112 7.75985 14.6818 7.87056 14.4134C7.98127 14.145 8.01024 13.8497 7.9538 13.5648C7.89736 13.2799 7.75805 13.0182 7.55349 12.8128C7.34892 12.6074 7.08829 12.4675 6.80456 12.4108C6.52082 12.3542 6.22672 12.3832 5.95945 12.4944C5.69217 12.6056 5.46373 12.7938 5.30301 13.0354C5.14228 13.2769 5.0565 13.5609 5.0565 13.8514C5.05589 14.0446 5.09329 14.236 5.16654 14.4147C5.23979 14.5933 5.34746 14.7557 5.48336 14.8925C5.61926 15.0293 5.78072 15.1377 5.95847 15.2117C6.13623 15.2857 6.32678 15.3237 6.5192 15.3235V15.3201ZM6.5192 19.3307C6.80849 19.3307 7.09129 19.2445 7.33183 19.0831C7.57237 18.9218 7.75985 18.6924 7.87056 18.424C7.98127 18.1556 8.01024 17.8603 7.9538 17.5754C7.89736 17.2905 7.75805 17.0288 7.55349 16.8234C7.34892 16.618 7.08829 16.4781 6.80456 16.4214C6.52082 16.3647 6.22672 16.3938 5.95945 16.505C5.69217 16.6162 5.46373 16.8044 5.30301 17.0459C5.14228 17.2875 5.0565 17.5714 5.0565 17.8619C5.05635 18.0549 5.09408 18.2459 5.16753 18.4242C5.24099 18.6024 5.34872 18.7644 5.48458 18.9008C5.62043 19.0372 5.78174 19.1454 5.95927 19.2192C6.1368 19.2929 6.32707 19.3308 6.5192 19.3307ZM6.5192 23.3413C6.80849 23.3413 7.09129 23.2551 7.33183 23.0937C7.57237 22.9323 7.75985 22.7029 7.87056 22.4346C7.98127 22.1662 8.01024 21.8709 7.9538 21.586C7.89736 21.3011 7.75805 21.0394 7.55349 20.8339C7.34892 20.6285 7.08829 20.4887 6.80456 20.432C6.52082 20.3753 6.22672 20.4044 5.95945 20.5156C5.69217 20.6267 5.46373 20.815 5.30301 21.0565C5.14228 21.2981 5.0565 21.582 5.0565 21.8725C5.05635 22.0654 5.09408 22.2565 5.16753 22.4348C5.24099 22.613 5.34872 22.775 5.48458 22.9114C5.62043 23.0478 5.78174 23.156 5.95927 23.2298C6.1368 23.3035 6.32707 23.3414 6.5192 23.3413ZM11.0757 11.6661C11.365 11.6661 11.6479 11.5799 11.8884 11.4185C12.129 11.257 12.3165 11.0276 12.4272 10.7591C12.5378 10.4907 12.5667 10.1953 12.5102 9.91036C12.4537 9.62542 12.3142 9.36371 12.1096 9.15835C11.9049 8.95299 11.6442 8.81319 11.3603 8.75665C11.0765 8.70011 10.7824 8.72936 10.5151 8.8407C10.2479 8.95204 10.0195 9.14048 9.85894 9.38216C9.69835 9.62385 9.61276 9.90793 9.61298 10.1985C9.61298 10.3913 9.65083 10.5822 9.72435 10.7604C9.79787 10.9385 9.90563 11.1003 10.0415 11.2366C10.1773 11.3729 10.3386 11.481 10.516 11.5547C10.6935 11.6284 10.8837 11.6662 11.0757 11.6661ZM11.0757 15.6766C11.365 15.6766 11.6479 15.5905 11.8884 15.429C12.129 15.2676 12.3165 15.0381 12.4272 14.7697C12.5378 14.5012 12.5667 14.2059 12.5102 13.9209C12.4537 13.636 12.3142 13.3743 12.1096 13.1689C11.9049 12.9636 11.6442 12.8238 11.3603 12.7672C11.0765 12.7107 10.7824 12.7399 10.5151 12.8513C10.2479 12.9626 10.0195 13.1511 9.85894 13.3927C9.69835 13.6344 9.61276 13.9185 9.61298 14.209C9.61298 14.4019 9.65083 14.5928 9.72435 14.7709C9.79787 14.9491 9.90563 15.1109 10.0415 15.2472C10.1773 15.3835 10.3386 15.4916 10.516 15.5653C10.6935 15.6389 10.8837 15.6768 11.0757 15.6766ZM11.0757 19.7597C11.365 19.7597 11.6479 19.6735 11.8884 19.5121C12.129 19.3506 12.3165 19.1212 12.4272 18.8527C12.5378 18.5843 12.5667 18.2889 12.5102 18.004C12.4537 17.719 12.3142 17.4573 12.1096 17.252C11.9049 17.0466 11.6442 16.9068 11.3603 16.8503C11.0765 16.7937 10.7824 16.823 10.5151 16.9343C10.2479 17.0457 10.0195 17.2341 9.85894 17.4758C9.69835 17.7175 9.61276 18.0015 9.61298 18.2921C9.61298 18.4849 9.65083 18.6758 9.72435 18.854C9.79787 19.0321 9.90563 19.1939 10.0415 19.3302C10.1773 19.4665 10.3386 19.5746 10.516 19.6483C10.6935 19.722 10.8837 19.7598 11.0757 19.7597ZM11.0757 23.7703C11.365 23.7703 11.6479 23.6841 11.8884 23.5227C12.129 23.3612 12.3165 23.1318 12.4272 22.8633C12.5378 22.5949 12.5667 22.2995 12.5102 22.0146C12.4537 21.7296 12.3142 21.4679 12.1096 21.2626C11.9049 21.0572 11.6442 20.9174 11.3603 20.8609C11.0765 20.8043 10.7824 20.8336 10.5151 20.9449C10.2479 21.0562 10.0195 21.2447 9.85894 21.4864C9.69835 21.728 9.61276 22.0121 9.61298 22.3027C9.61298 22.4955 9.65083 22.6864 9.72435 22.8646C9.79787 23.0427 9.90563 23.2045 10.0415 23.3408C10.1773 23.4771 10.3386 23.5852 10.516 23.6589C10.6935 23.7326 10.8837 23.7704 11.0757 23.7703ZM11.0757 27.7084C11.365 27.7084 11.6479 27.6222 11.8884 27.4608C12.129 27.2993 12.3165 27.0699 12.4272 26.8014C12.5378 26.533 12.5667 26.2376 12.5102 25.9527C12.4537 25.6677 12.3142 25.406 12.1096 25.2007C11.9049 24.9953 11.6442 24.8555 11.3603 24.799C11.0765 24.7424 10.7824 24.7717 10.5151 24.883C10.2479 24.9944 10.0195 25.1828 9.85894 25.4245C9.69835 25.6662 9.61276 25.9502 9.61298 26.2408C9.61298 26.4336 9.65083 26.6245 9.72435 26.8027C9.79787 26.9808 9.90563 27.1426 10.0415 27.2789C10.1773 27.4152 10.3386 27.5233 10.516 27.597C10.6935 27.6707 10.8837 27.7085 11.0757 27.7084ZM15.6322 16.2506C15.9215 16.2506 16.2044 16.1644 16.4449 16.003C16.6855 15.8415 16.873 15.6121 16.9837 15.3436C17.0943 15.0752 17.1232 14.7798 17.0667 14.4949C17.0102 14.2099 16.8707 13.9482 16.6661 13.7429C16.4614 13.5375 16.2006 13.3977 15.9168 13.3412C15.633 13.2846 15.3389 13.3139 15.0716 13.4252C14.8044 13.5366 14.576 13.725 14.4154 13.9667C14.2548 14.2084 14.1692 14.4924 14.1695 14.783C14.1695 14.9758 14.2073 15.1667 14.2808 15.3449C14.3544 15.523 14.4621 15.6848 14.598 15.8211C14.7338 15.9574 14.8951 16.0655 15.0725 16.1392C15.25 16.2129 15.4401 16.2507 15.6322 16.2506ZM15.6322 20.2934C15.9215 20.2934 16.2043 20.2072 16.4448 20.0458C16.6854 19.8844 16.8728 19.655 16.9835 19.3867C17.0942 19.1183 17.1232 18.823 17.0668 18.5381C17.0103 18.2532 16.871 17.9915 16.6665 17.786C16.4619 17.5806 16.2013 17.4408 15.9175 17.3841C15.6338 17.3274 15.3397 17.3565 15.0724 17.4677C14.8052 17.5788 14.5767 17.7671 14.416 18.0086C14.2553 18.2502 14.1695 18.5341 14.1695 18.8246C14.1695 19.2141 14.3236 19.5877 14.5979 19.8632C14.8722 20.1386 15.2442 20.2934 15.6322 20.2934ZM15.6322 24.1188C15.9215 24.1188 16.2043 24.0326 16.4448 23.8712C16.6854 23.7098 16.8728 23.4805 16.9835 23.2121C17.0942 22.9437 17.1232 22.6484 17.0668 22.3635C17.0103 22.0786 16.871 21.8169 16.6665 21.6115C16.4619 21.406 16.2013 21.2662 15.9175 21.2095C15.6338 21.1528 15.3397 21.1819 15.0724 21.2931C14.8052 21.4042 14.5767 21.5925 14.416 21.834C14.2553 22.0756 14.1695 22.3595 14.1695 22.65C14.1695 23.0396 14.3236 23.4131 14.5979 23.6886C14.8722 23.964 15.2442 24.1188 15.6322 24.1188ZM15.6322 28.0891C15.9215 28.0891 16.2043 28.0029 16.4448 27.8416C16.6854 27.6802 16.8728 27.4508 16.9835 27.1824C17.0942 26.914 17.1232 26.6187 17.0668 26.3338C17.0103 26.0489 16.871 25.7872 16.6665 25.5818C16.4619 25.3764 16.2013 25.2365 15.9175 25.1798C15.6338 25.1231 15.3397 25.1522 15.0724 25.2634C14.8052 25.3746 14.5767 25.5628 14.416 25.8043C14.2553 26.0459 14.1695 26.3298 14.1695 26.6203C14.1693 26.8133 14.207 27.0044 14.2805 27.1828C14.3539 27.3611 14.4616 27.5231 14.5975 27.6596C14.7333 27.7962 14.8946 27.9044 15.0722 27.9783C15.2497 28.0522 15.44 28.0902 15.6322 28.0902V28.0891ZM20.1887 20.8788C20.478 20.8788 20.7609 20.7926 21.0014 20.6312C21.242 20.4697 21.4295 20.2403 21.5401 19.9718C21.6508 19.7034 21.6797 19.408 21.6232 19.1231C21.5667 18.8381 21.4272 18.5764 21.2226 18.3711C21.0179 18.1657 20.7571 18.0259 20.4733 17.9694C20.1895 17.9128 19.8954 17.9421 19.6281 18.0534C19.3609 18.1648 19.1325 18.3532 18.9719 18.5949C18.8113 18.8366 18.7257 19.1206 18.726 19.4112C18.726 19.604 18.7638 19.7949 18.8373 19.9731C18.9108 20.1512 19.0186 20.313 19.1544 20.4493C19.2903 20.5856 19.4515 20.6937 19.629 20.7674C19.8065 20.8411 19.9966 20.8789 20.1887 20.8788ZM20.1887 24.9952C20.478 24.9952 20.7609 24.909 21.0014 24.7476C21.242 24.5861 21.4295 24.3567 21.5401 24.0882C21.6508 23.8198 21.6797 23.5244 21.6232 23.2395C21.5667 22.9545 21.4272 22.6928 21.2226 22.4875C21.0179 22.2821 20.7571 22.1423 20.4733 22.0858C20.1895 22.0292 19.8954 22.0585 19.6281 22.1698C19.3609 22.2812 19.1325 22.4696 18.9719 22.7113C18.8113 22.953 18.7257 23.237 18.726 23.5276C18.726 23.7204 18.7638 23.9113 18.8373 24.0895C18.9108 24.2676 19.0186 24.4294 19.1544 24.5657C19.2903 24.702 19.4515 24.8101 19.629 24.8838C19.8065 24.9575 19.9966 24.9953 20.1887 24.9952Z" fill="url(#paint0_linear_1158_164913)"/>
<path d="M18.4345 38.0394L6.98828 25.1001C10.1611 28.3597 15.9535 30.1171 20.6887 25.2393L43.0588 0.462723C43.9751 -0.471201 45.4825 0.102725 45.5134 1.57377V15.6896C45.5132 16.0092 45.3958 16.3175 45.1835 16.5557L26.4582 38.0865C23.9211 40.6559 20.9326 40.656 18.4345 38.0394Z" fill="url(#paint1_linear_1158_164913)"/>
<defs>
<linearGradient id="paint0_linear_1158_164913" x1="0.500007" y1="14.0423" x2="21.6514" y2="14.0423" gradientUnits="userSpaceOnUse">
<stop offset="0.13" stop-color="#0060A7"/>
<stop offset="0.21" stop-color="#065EA4"/>
<stop offset="0.31" stop-color="#165A9B"/>
<stop offset="0.42" stop-color="#30528C"/>
<stop offset="0.54" stop-color="#554878"/>
<stop offset="0.67" stop-color="#843A5E"/>
<stop offset="0.8" stop-color="#BD2A3E"/>
<stop offset="0.9" stop-color="#ED1C24"/>
</linearGradient>
<linearGradient id="paint1_linear_1158_164913" x1="14.5515" y1="33.6872" x2="43.7418" y2="5.77702" gradientUnits="userSpaceOnUse">
<stop stop-color="#0060A7"/>
<stop offset="0.125" stop-color="#045FA5"/>
<stop offset="0.25" stop-color="#0E5C9F"/>
<stop offset="0.375" stop-color="#215795"/>
<stop offset="0.5" stop-color="#3B4F87"/>
<stop offset="0.625" stop-color="#5C4674"/>
<stop offset="0.75" stop-color="#853A5E"/>
<stop offset="0.875" stop-color="#B52C43"/>
<stop offset="1" stop-color="#ED1C24"/>
</linearGradient>
</defs>
</svg>
