<svg width="38" height="38" viewBox="0 0 38 38" fill="none" xmlns="http://www.w3.org/2000/svg">
<path fill-rule="evenodd" clip-rule="evenodd" d="M28.3359 2.44111C28.3361 2.16017 28.2729 1.88282 28.151 1.62973C28.029 1.37664 27.8515 1.15433 27.6317 0.979383C27.4119 0.804434 27.1555 0.681355 26.8815 0.61932C26.6075 0.557286 26.323 0.557896 26.0493 0.621106L3.64927 5.79177C3.23845 5.88664 2.87185 6.11779 2.60916 6.44759C2.34647 6.77739 2.20318 7.18641 2.2026 7.60804V35.8003H1.26927C1.02174 35.8003 0.784339 35.8986 0.609305 36.0737C0.434271 36.2487 0.335938 36.4861 0.335938 36.7336C0.335938 36.9812 0.434271 37.2186 0.609305 37.3936C0.784339 37.5686 1.02174 37.667 1.26927 37.667H11.5359V32.067C11.5359 31.5719 11.7326 31.0971 12.0827 30.747C12.4327 30.397 12.9075 30.2003 13.4026 30.2003H17.1359C17.631 30.2003 18.1058 30.397 18.4559 30.747C18.8059 31.0971 19.0026 31.5719 19.0026 32.067V37.667H28.3359V2.44111ZM8.73594 11.5336C8.4884 11.5336 8.25101 11.632 8.07597 11.807C7.90094 11.982 7.8026 12.2194 7.8026 12.467V14.3336C7.8026 14.5812 7.90094 14.8186 8.07597 14.9936C8.25101 15.1686 8.4884 15.267 8.73594 15.267H10.6026C10.8501 15.267 11.0875 15.1686 11.2626 14.9936C11.4376 14.8186 11.5359 14.5812 11.5359 14.3336V12.467C11.5359 12.2194 11.4376 11.982 11.2626 11.807C11.0875 11.632 10.8501 11.5336 10.6026 11.5336H8.73594ZM7.8026 18.067C7.8026 17.8194 7.90094 17.582 8.07597 17.407C8.25101 17.232 8.4884 17.1336 8.73594 17.1336H10.6026C10.8501 17.1336 11.0875 17.232 11.2626 17.407C11.4376 17.582 11.5359 17.8194 11.5359 18.067V19.9336C11.5359 20.1812 11.4376 20.4186 11.2626 20.5936C11.0875 20.7686 10.8501 20.867 10.6026 20.867H8.73594C8.4884 20.867 8.25101 20.7686 8.07597 20.5936C7.90094 20.4186 7.8026 20.1812 7.8026 19.9336V18.067ZM8.73594 22.7336C8.4884 22.7336 8.25101 22.832 8.07597 23.007C7.90094 23.182 7.8026 23.4194 7.8026 23.667V25.5336C7.8026 25.7812 7.90094 26.0186 8.07597 26.1936C8.25101 26.3686 8.4884 26.467 8.73594 26.467H10.6026C10.8501 26.467 11.0875 26.3686 11.2626 26.1936C11.4376 26.0186 11.5359 25.7812 11.5359 25.5336V23.667C11.5359 23.4194 11.4376 23.182 11.2626 23.007C11.0875 22.832 10.8501 22.7336 10.6026 22.7336H8.73594ZM13.4026 12.467C13.4026 12.2194 13.5009 11.982 13.676 11.807C13.851 11.632 14.0884 11.5336 14.3359 11.5336H16.2026C16.4501 11.5336 16.6875 11.632 16.8626 11.807C17.0376 11.982 17.1359 12.2194 17.1359 12.467V14.3336C17.1359 14.5812 17.0376 14.8186 16.8626 14.9936C16.6875 15.1686 16.4501 15.267 16.2026 15.267H14.3359C14.0884 15.267 13.851 15.1686 13.676 14.9936C13.5009 14.8186 13.4026 14.5812 13.4026 14.3336V12.467ZM14.3359 17.1336C14.0884 17.1336 13.851 17.232 13.676 17.407C13.5009 17.582 13.4026 17.8194 13.4026 18.067V19.9336C13.4026 20.1812 13.5009 20.4186 13.676 20.5936C13.851 20.7686 14.0884 20.867 14.3359 20.867H16.2026C16.4501 20.867 16.6875 20.7686 16.8626 20.5936C17.0376 20.4186 17.1359 20.1812 17.1359 19.9336V18.067C17.1359 17.8194 17.0376 17.582 16.8626 17.407C16.6875 17.232 16.4501 17.1336 16.2026 17.1336H14.3359ZM13.4026 23.667C13.4026 23.4194 13.5009 23.182 13.676 23.007C13.851 22.832 14.0884 22.7336 14.3359 22.7336H16.2026C16.4501 22.7336 16.6875 22.832 16.8626 23.007C17.0376 23.182 17.1359 23.4194 17.1359 23.667V25.5336C17.1359 25.7812 17.0376 26.0186 16.8626 26.1936C16.6875 26.3686 16.4501 26.467 16.2026 26.467H14.3359C14.0884 26.467 13.851 26.3686 13.676 26.1936C13.5009 26.0186 13.4026 25.7812 13.4026 25.5336V23.667ZM19.9359 11.5336C19.6884 11.5336 19.451 11.632 19.276 11.807C19.1009 11.982 19.0026 12.2194 19.0026 12.467V14.3336C19.0026 14.5812 19.1009 14.8186 19.276 14.9936C19.451 15.1686 19.6884 15.267 19.9359 15.267H21.8026C22.0501 15.267 22.2875 15.1686 22.4626 14.9936C22.6376 14.8186 22.7359 14.5812 22.7359 14.3336V12.467C22.7359 12.2194 22.6376 11.982 22.4626 11.807C22.2875 11.632 22.0501 11.5336 21.8026 11.5336H19.9359ZM19.0026 18.067C19.0026 17.8194 19.1009 17.582 19.276 17.407C19.451 17.232 19.6884 17.1336 19.9359 17.1336H21.8026C22.0501 17.1336 22.2875 17.232 22.4626 17.407C22.6376 17.582 22.7359 17.8194 22.7359 18.067V19.9336C22.7359 20.1812 22.6376 20.4186 22.4626 20.5936C22.2875 20.7686 22.0501 20.867 21.8026 20.867H19.9359C19.6884 20.867 19.451 20.7686 19.276 20.5936C19.1009 20.4186 19.0026 20.1812 19.0026 19.9336V18.067ZM19.9359 22.7336C19.6884 22.7336 19.451 22.832 19.276 23.007C19.1009 23.182 19.0026 23.4194 19.0026 23.667V25.5336C19.0026 25.7812 19.1009 26.0186 19.276 26.1936C19.451 26.3686 19.6884 26.467 19.9359 26.467H21.8026C22.0501 26.467 22.2875 26.3686 22.4626 26.1936C22.6376 26.0186 22.7359 25.7812 22.7359 25.5336V23.667C22.7359 23.4194 22.6376 23.182 22.4626 23.007C22.2875 22.832 22.0501 22.7336 21.8026 22.7336H19.9359Z" fill="#8C8C8C"/>
<path d="M30.2023 7.22363V37.6671H36.7357C36.9832 37.6671 37.2206 37.5688 37.3956 37.3937C37.5707 37.2187 37.669 36.9813 37.669 36.7338C37.669 36.4862 37.5707 36.2488 37.3956 36.0738C37.2206 35.8988 36.9832 35.8004 36.7357 35.8004H35.8023V11.1772C35.8022 10.8307 35.7055 10.491 35.5232 10.1963C35.3409 9.90151 35.0801 9.66335 34.7701 9.50843L30.2023 7.22363ZM17.1357 37.6671H13.4023V32.0671H17.1357V37.6671Z" fill="#8C8C8C"/>
</svg>
