<svg width="235" height="201" viewBox="0 0 235 201" fill="none" xmlns="http://www.w3.org/2000/svg">
<path d="M117.905 201C182.102 201 234.145 199.554 234.145 197.77C234.145 195.986 182.102 194.539 117.905 194.539C53.7078 194.539 1.66565 195.986 1.66565 197.77C1.66565 199.554 53.7078 201 117.905 201Z" fill="#2E353A"/>
<path d="M176.793 194.826H166.038V1.49875L176.793 13.9728V194.826Z" stroke="#2E353A" stroke-linecap="round" stroke-linejoin="round"/>
<path d="M166.14 149.304H176.691L166.14 139.13H176.691L166.14 149.304Z" stroke="#2E353A" stroke-linecap="round" stroke-linejoin="round"/>
<path d="M166.14 138.874H176.691L166.14 128.701H176.691L166.14 138.874Z" stroke="#2E353A" stroke-linecap="round" stroke-linejoin="round"/>
<path d="M166.14 170.074H176.691L166.14 159.901H176.691L166.14 170.074Z" stroke="#2E353A" stroke-linecap="round" stroke-linejoin="round"/>
<path d="M166.14 159.644H176.691L166.14 149.471H176.691L166.14 159.644Z" stroke="#2E353A" stroke-linecap="round" stroke-linejoin="round"/>
<path d="M166.14 128.444H176.691L166.14 118.271H176.691L166.14 128.444Z" stroke="#2E353A" stroke-linecap="round" stroke-linejoin="round"/>
<path d="M166.14 118.015H176.691L166.14 107.841H176.691L166.14 118.015Z" stroke="#2E353A" stroke-linecap="round" stroke-linejoin="round"/>
<path d="M166.14 107.585H176.691L166.14 97.4112H176.691L166.14 107.585Z" stroke="#2E353A" stroke-linecap="round" stroke-linejoin="round"/>
<path d="M166.14 97.1549H176.691L166.14 86.9814H176.691L166.14 97.1549Z" stroke="#2E353A" stroke-linecap="round" stroke-linejoin="round"/>
<path d="M166.14 86.7251H176.691L166.14 76.5516H176.691L166.14 86.7251Z" stroke="#2E353A" stroke-linecap="round" stroke-linejoin="round"/>
<path d="M166.14 76.2953H176.691L166.14 66.1218H176.691L166.14 76.2953Z" stroke="#2E353A" stroke-linecap="round" stroke-linejoin="round"/>
<path d="M166.14 65.8655H176.691L166.14 55.692H176.691L166.14 65.8655Z" stroke="#2E353A" stroke-linecap="round" stroke-linejoin="round"/>
<path d="M166.14 55.4357H176.691L166.14 45.2622H176.691L166.14 55.4357Z" stroke="#2E353A" stroke-linecap="round" stroke-linejoin="round"/>
<path d="M166.14 45.0059H176.691L166.14 34.8324H176.691L166.14 45.0059Z" stroke="#2E353A" stroke-linecap="round" stroke-linejoin="round"/>
<path d="M166.14 34.5761H176.691L166.14 24.4026H176.691L166.14 34.5761Z" stroke="#2E353A" stroke-linecap="round" stroke-linejoin="round"/>
<path d="M166.14 24.1463H176.691L166.14 13.9728H176.691L166.14 24.1463Z" stroke="#2E353A" stroke-linecap="round" stroke-linejoin="round"/>
<path d="M226.718 24.4264L221.508 21.1544H184.333L179.792 24.4264H226.718Z" stroke="#2E353A" stroke-linecap="round" stroke-linejoin="round"/>
<path d="M227.578 24.1463H136.761V26.5303H227.578V24.1463Z" fill="#2E353A" stroke="#2E353A" stroke-linecap="round" stroke-linejoin="round"/>
<path d="M221.508 21.1545L166.038 1.49875L184.333 21.1545" stroke="#2E353A" stroke-linecap="round" stroke-linejoin="round"/>
<path d="M166.038 1.49875L136.761 24.1463" stroke="#2E353A" stroke-linecap="round" stroke-linejoin="round"/>
<path d="M184.56 29.2122H162.154V43.5159H184.56V29.2122Z" fill="#2E353A" stroke="#2E353A" stroke-linecap="round" stroke-linejoin="round"/>
<path d="M184.56 180.808H162.154V195.112H184.56V180.808Z" fill="#2E353A" stroke="#2E353A" stroke-linecap="round" stroke-linejoin="round"/>
<path d="M179.888 32.1922H166.821V36.3641H179.888V32.1922Z" fill="white" stroke="#2E353A" stroke-linecap="round" stroke-linejoin="round"/>
<path d="M227.578 26.5303V52.2293" stroke="#2E353A" stroke-linecap="round" stroke-linejoin="round"/>
<path d="M230.99 61.0023H224.352V68.5058H230.99V61.0023Z" fill="#2E353A" stroke="#2E353A" stroke-linecap="round" stroke-linejoin="round"/>
<path d="M224.352 61.0023L227.668 51.7406L230.99 61.0023" stroke="#2E353A" stroke-linecap="round" stroke-linejoin="round"/>
<path d="M139.104 178.984V165.729H99.9389V178.996C99.9323 183.326 98.4584 187.527 95.7565 190.916L94.0417 193.073H144.977L143.256 190.916C140.564 187.519 139.101 183.314 139.104 178.984Z" fill="white" stroke="#2E353A" stroke-width="1.09543" stroke-linecap="round" stroke-linejoin="round"/>
<g style="mix-blend-mode:multiply">
<path d="M97.531 188.276H141.511C139.939 185.43 139.116 182.233 139.122 178.984V165.729H99.9388V178.996C99.9366 182.243 99.1081 185.436 97.531 188.276Z" fill="#0060A8"/>
</g>
<path d="M139.104 167.714H99.9388V173.316H139.104V167.714Z" fill="#2E353A" stroke="#2E353A" stroke-width="1.09543" stroke-linecap="round" stroke-linejoin="round"/>
<path d="M192.68 52.1339H46.363C43.2975 52.1339 40.8124 54.6128 40.8124 57.6707V164.365C40.8124 167.422 43.2975 169.901 46.363 169.901H192.68C195.745 169.901 198.23 167.422 198.23 164.365V57.6707C198.23 54.6128 195.745 52.1339 192.68 52.1339Z" fill="#2E353A" stroke="#2E353A" stroke-width="1.09543" stroke-linecap="round" stroke-linejoin="round"/>
<path d="M40.8124 151.599H198.23V164.365C198.23 165.833 197.645 167.241 196.604 168.28C195.563 169.318 194.152 169.901 192.68 169.901H46.3928C44.9207 169.901 43.5089 169.318 42.468 168.28C41.427 167.241 40.8422 165.833 40.8422 164.365V151.599H40.8124Z" fill="white" stroke="#2E353A" stroke-width="1.09543" stroke-linecap="round" stroke-linejoin="round"/>
<path d="M190.308 59.4646H48.729V142.665H190.308V59.4646Z" fill="#0060A8" stroke="#2E353A" stroke-width="1.09543" stroke-linecap="round" stroke-linejoin="round"/>
<path d="M122.422 160.753C122.423 160.18 122.254 159.619 121.936 159.142C121.617 158.665 121.164 158.293 120.634 158.073C120.103 157.852 119.519 157.794 118.955 157.905C118.392 158.016 117.874 158.292 117.467 158.697C117.06 159.102 116.783 159.618 116.671 160.18C116.558 160.742 116.615 161.324 116.835 161.854C117.055 162.384 117.427 162.836 117.904 163.155C118.382 163.473 118.944 163.643 119.518 163.643C119.899 163.644 120.277 163.57 120.629 163.425C120.981 163.28 121.301 163.067 121.571 162.799C121.841 162.53 122.055 162.212 122.201 161.86C122.347 161.509 122.422 161.133 122.422 160.753Z" fill="#2E353A" stroke="#2E353A" stroke-width="1.09543" stroke-linecap="round" stroke-linejoin="round"/>
<path d="M144.989 193.067H94.0597V195.433H144.989V193.067Z" fill="white" stroke="#2E353A" stroke-width="1.09543" stroke-linecap="round" stroke-linejoin="round"/>
<path d="M165.596 80.3123C167.236 78.6732 168.448 76.6572 169.124 74.4416C169.8 72.226 169.92 69.8786 169.473 67.6058L160.589 76.4681C160.084 76.9689 159.401 77.25 158.689 77.25C157.977 77.25 157.294 76.9689 156.789 76.4681L149.404 69.1017C149.154 68.8526 148.955 68.5567 148.82 68.231C148.685 67.9053 148.615 67.5561 148.615 67.2035C148.615 66.8509 148.685 66.5017 148.82 66.176C148.955 65.8503 149.154 65.5544 149.404 65.3053L158.283 56.4489C155.794 55.9642 153.221 56.1544 150.832 56.9998C148.443 57.8452 146.324 59.3147 144.698 61.255C143.072 63.1954 141.998 65.5354 141.588 68.031C141.178 70.5266 141.446 73.0863 142.366 75.443L119.441 97.7867L117.23 95.5755L120.815 91.9996C120.998 91.8135 121.101 91.5631 121.101 91.3023C121.101 91.0415 120.998 90.7911 120.815 90.605L118.019 87.8158C117.834 87.632 117.583 87.5288 117.323 87.5288C117.062 87.5288 116.811 87.632 116.626 87.8158L115.228 89.2104L112.199 86.1947L113.364 85.0325C113.611 84.7856 113.749 84.4513 113.749 84.1028C113.749 83.7542 113.611 83.4199 113.364 83.173L88.3478 58.219C87.7518 57.6236 87.044 57.1512 86.2648 56.829C85.4856 56.5067 84.6504 56.3408 83.8069 56.3408C82.9634 56.3408 82.1282 56.5067 81.3491 56.829C80.5699 57.1512 79.8621 57.6236 79.2661 58.219L76.7089 60.7698C76.1122 61.3638 75.6388 62.0694 75.3158 62.8461C74.9928 63.6228 74.8265 64.4554 74.8265 65.2963C74.8265 66.1372 74.9928 66.9699 75.3158 67.7466C75.6388 68.5233 76.1122 69.2289 76.7089 69.8229L101.725 94.7829C101.973 95.0289 102.308 95.1671 102.657 95.1671C103.007 95.1671 103.342 95.0289 103.589 94.7829L104.755 93.6207L107.778 96.6424L106.386 98.031C106.294 98.1224 106.22 98.2311 106.171 98.3507C106.121 98.4704 106.095 98.5987 106.095 98.7283C106.095 98.8579 106.121 98.9862 106.171 99.1059C106.22 99.2256 106.294 99.3342 106.386 99.4256L109.176 102.215C109.362 102.398 109.613 102.5 109.875 102.5C110.136 102.5 110.387 102.398 110.574 102.215L114.159 98.6389L116.334 100.808L97.3219 119.284C94.959 118.367 92.3928 118.1 89.891 118.509C87.3891 118.919 85.0432 119.99 83.0977 121.612C81.1523 123.233 79.6785 125.346 78.8301 127.729C77.9818 130.112 77.7898 132.679 78.2743 135.161L87.1588 126.305C87.4085 126.055 87.7051 125.857 88.0317 125.722C88.3582 125.587 88.7082 125.517 89.0618 125.517C89.4153 125.517 89.7653 125.587 90.0918 125.722C90.4184 125.857 90.715 126.055 90.9647 126.305L98.3735 133.623C98.6237 133.873 98.8222 134.168 98.9576 134.494C99.093 134.82 99.1628 135.169 99.1628 135.522C99.1628 135.874 99.093 136.223 98.9576 136.549C98.8222 136.875 98.6237 137.171 98.3735 137.42L89.4949 146.276C91.9832 146.76 94.5561 146.57 96.9454 145.724C99.3347 144.879 101.453 143.409 103.079 141.469C104.705 139.529 105.78 137.19 106.192 134.694C106.603 132.199 106.336 129.639 105.418 127.282L124.43 108.806L150.354 134.637C149.982 135.594 149.896 136.639 150.108 137.645C150.321 138.65 150.821 139.572 151.549 140.299L157.805 146.539L165.309 139.047L159.053 132.813C158.325 132.087 157.401 131.587 156.393 131.376C155.385 131.164 154.337 131.249 153.377 131.621L127.495 105.803L150.444 83.4829C153.006 84.4772 155.802 84.7068 158.492 84.1438C161.182 83.5809 163.651 82.2496 165.596 80.3123Z" fill="#2E353A" stroke="#2E353A" stroke-width="1.09543" stroke-linecap="round" stroke-linejoin="round"/>
<path d="M103.84 124.106L148.849 80.3063C151.213 81.225 153.781 81.4934 156.285 81.0835C158.789 80.6736 161.136 79.6004 163.082 77.9761C165.028 76.3518 166.501 74.236 167.346 71.8498C168.192 69.4637 168.38 66.8947 167.89 64.4113L159.012 73.2677C158.762 73.5173 158.465 73.7153 158.139 73.8504C157.812 73.9855 157.462 74.055 157.109 74.055C156.755 74.055 156.405 73.9855 156.079 73.8504C155.752 73.7153 155.455 73.5173 155.206 73.2677L147.821 65.9013C147.571 65.6527 147.372 65.3573 147.237 65.0321C147.102 64.7069 147.032 64.3582 147.032 64.006C147.032 63.6539 147.102 63.3052 147.237 62.98C147.372 62.6548 147.571 62.3594 147.821 62.1108L156.699 53.2484C154.21 52.7645 151.636 52.9561 149.246 53.8033C146.856 54.6505 144.738 56.1221 143.113 58.0646C141.488 60.0072 140.415 62.3492 140.008 64.8463C139.6 67.3434 139.872 69.9039 140.795 72.2605L95.7865 116.06C93.4239 115.142 90.8578 114.874 88.3559 115.284C85.8541 115.693 83.5082 116.764 81.563 118.386C79.6178 120.008 78.1446 122.121 77.2971 124.505C76.4496 126.888 76.2589 129.455 76.7448 131.937L85.6234 123.08C85.8731 122.831 86.1697 122.633 86.4963 122.498C86.8228 122.363 87.1728 122.293 87.5263 122.293C87.8798 122.293 88.2299 122.363 88.5564 122.498C88.8829 122.633 89.1796 122.831 89.4293 123.08L96.8141 130.447C97.0642 130.695 97.2625 130.991 97.3979 131.316C97.5333 131.641 97.6029 131.99 97.6029 132.342C97.6029 132.694 97.5333 133.043 97.3979 133.368C97.2625 133.693 97.0642 133.989 96.8141 134.237L87.9177 143.082C90.406 143.566 92.9789 143.375 95.3682 142.53C97.7574 141.684 99.8756 140.215 101.502 138.275C103.128 136.335 104.203 133.995 104.614 131.5C105.026 129.005 104.758 126.445 103.84 124.088V124.106Z" fill="white" stroke="#2E353A" stroke-miterlimit="10"/>
<path d="M100.375 119.51C100.031 119.166 99.8378 118.7 99.8378 118.214C99.8378 117.728 100.031 117.262 100.375 116.918L140.842 77.6482C141.188 77.3047 141.657 77.1118 142.145 77.1118C142.633 77.1118 143.101 77.3047 143.447 77.6482C143.792 77.9934 143.985 78.4605 143.985 78.9475C143.985 79.4345 143.792 79.9016 143.447 80.2467L102.98 119.51C102.634 119.854 102.166 120.047 101.678 120.047C101.189 120.047 100.721 119.854 100.375 119.51Z" fill="white" stroke="#2E353A" stroke-miterlimit="10"/>
<path d="M112.377 89.1176L109.352 92.1351L152.998 135.673L156.023 132.655L112.377 89.1176Z" fill="white" stroke="#2E353A" stroke-miterlimit="10"/>
<path d="M163.726 135.87L156.221 143.356L149.966 137.122C148.97 136.128 148.411 134.781 148.411 133.376C148.411 131.971 148.97 130.624 149.966 129.63C150.458 129.139 151.043 128.749 151.687 128.483C152.331 128.217 153.021 128.08 153.718 128.08C154.415 128.08 155.105 128.217 155.749 128.483C156.392 128.749 156.977 129.139 157.47 129.63L163.726 135.87Z" fill="white" stroke="#2E353A" stroke-miterlimit="10"/>
<path d="M108.305 80.645L100.857 88.0748L106.907 94.1096L114.355 86.6799L108.305 80.645Z" fill="white" stroke="#2E353A" stroke-miterlimit="10"/>
<path d="M75.1394 57.5443L77.6996 54.9905C78.2955 54.3961 79.0029 53.9246 79.7814 53.6029C80.5599 53.2813 81.3944 53.1157 82.2371 53.1157C83.0797 53.1157 83.9142 53.2813 84.6927 53.6029C85.4712 53.9246 86.1786 54.3961 86.7745 54.9905L111.794 79.9474C112.04 80.1933 112.179 80.5268 112.179 80.8746C112.179 81.2223 112.04 81.5558 111.794 81.8017L102.018 91.5535C101.771 91.7994 101.437 91.9376 101.088 91.9376C100.74 91.9376 100.405 91.7994 100.159 91.5535L75.1394 66.5966C73.936 65.3962 73.2599 63.7681 73.2599 62.0705C73.2599 60.3728 73.936 58.7447 75.1394 57.5443Z" fill="white" stroke="#2E353A" stroke-miterlimit="10"/>
<path d="M115.052 84.596L104.811 94.8114C104.426 95.1954 104.426 95.8181 104.811 96.2021L107.608 98.992C107.993 99.376 108.617 99.376 109.002 98.992L119.243 88.7765C119.628 88.3925 119.628 87.7699 119.243 87.3858L116.446 84.596C116.061 84.212 115.437 84.2119 115.052 84.596Z" fill="white" stroke="#2E353A" stroke-miterlimit="10"/>
<path d="M103.416 87.8456L101.361 89.9017L76.7925 65.3947C76.5192 65.122 76.3657 64.7522 76.3657 64.3666C76.3657 63.981 76.5192 63.6112 76.7925 63.3385C76.9275 63.2028 77.088 63.0951 77.2649 63.0216C77.4418 62.9482 77.6315 62.9103 77.8232 62.9103C78.0148 62.9103 78.2045 62.9482 78.3814 63.0216C78.5583 63.0951 78.7189 63.2028 78.8538 63.3385L103.416 87.8456Z" fill="white" stroke="#2E353A" stroke-miterlimit="10"/>
<path d="M106.923 84.3471L104.856 86.4033L80.2879 61.8962C80.0146 61.6235 79.8611 61.2537 79.8611 60.8682C79.8611 60.4826 80.0146 60.1128 80.2879 59.8401C80.4228 59.7044 80.5834 59.5967 80.7603 59.5232C80.9372 59.4497 81.1269 59.4119 81.3185 59.4119C81.5101 59.4119 81.6999 59.4497 81.8768 59.5232C82.0537 59.5967 82.2142 59.7044 82.3492 59.8401L106.923 84.3471Z" fill="white" stroke="#2E353A" stroke-miterlimit="10"/>
<path d="M110.431 80.8487L108.363 82.887L83.7951 58.3978C83.5218 58.1251 83.3683 57.7553 83.3683 57.3697C83.3683 56.9841 83.5218 56.6143 83.7951 56.3416C83.93 56.2059 84.0906 56.0982 84.2675 56.0248C84.4444 55.9513 84.6341 55.9134 84.8257 55.9134C85.0173 55.9134 85.2071 55.9513 85.384 56.0248C85.5609 56.0982 85.7214 56.2059 85.8564 56.3416L110.431 80.8487Z" fill="white" stroke="#2E353A" stroke-miterlimit="10"/>
<path d="M192.668 196.167H190.678L177.814 90.8792H179.81L192.668 196.167Z" fill="white" stroke="#2E353A" stroke-miterlimit="10"/>
<path d="M208.202 196.167H206.212L193.349 90.8792H195.344L208.202 196.167Z" fill="white" stroke="#2E353A" stroke-miterlimit="10"/>
<path d="M195.47 99.6045H179.941L179.541 96.3563H195.075L195.47 99.6045Z" fill="white" stroke="#2E353A" stroke-miterlimit="10"/>
<path d="M196.934 111.596H181.405L181.011 108.348H196.539L196.934 111.596Z" fill="white" stroke="#2E353A" stroke-miterlimit="10"/>
<path d="M198.403 123.587H182.869L182.475 120.339H198.003L198.403 123.587Z" fill="white" stroke="#2E353A" stroke-miterlimit="10"/>
<path d="M199.867 135.584H184.339L183.938 132.336H199.467L199.867 135.584Z" fill="white" stroke="#2E353A" stroke-miterlimit="10"/>
<path d="M201.331 147.576H185.803L185.402 144.327H200.931L201.331 147.576Z" fill="white" stroke="#2E353A" stroke-miterlimit="10"/>
<path d="M202.795 159.567H187.266L186.872 156.319H202.401L202.795 159.567Z" fill="white" stroke="#2E353A" stroke-miterlimit="10"/>
<path d="M204.259 171.564H188.73L188.336 168.316H203.864L204.259 171.564Z" fill="white" stroke="#2E353A" stroke-miterlimit="10"/>
<path d="M205.729 183.555H190.194L189.8 180.307H205.328L205.729 183.555Z" fill="white" stroke="#2E353A" stroke-miterlimit="10"/>
<path d="M179.702 97.6317H181.734" stroke="#2E353A" stroke-width="0.5" stroke-miterlimit="10"/>
<path d="M180.18 98.5853H184.124" stroke="#2E353A" stroke-width="0.5" stroke-miterlimit="10"/>
<path d="M195.231 98.5853H192.363" stroke="#2E353A" stroke-width="0.5" stroke-miterlimit="10"/>
<path d="M196.665 110.142H194.036" stroke="#2E353A" stroke-width="0.5" stroke-miterlimit="10"/>
<path d="M181.614 110.738H187.709" stroke="#2E353A" stroke-width="0.5" stroke-miterlimit="10"/>
<path d="M182.69 121.936H187.948" stroke="#2E353A" stroke-width="0.5" stroke-miterlimit="10"/>
<path d="M182.929 122.89H185.797" stroke="#2E353A" stroke-width="0.5" stroke-miterlimit="10"/>
<path d="M199.766 133.731H196.545" stroke="#2E353A" stroke-width="0.5" stroke-miterlimit="10"/>
<path d="M199.533 134.684H194.155" stroke="#2E353A" stroke-width="0.5" stroke-miterlimit="10"/>
<path d="M204.211 170.342H199.282" stroke="#2E353A" stroke-width="0.5" stroke-miterlimit="10"/>
<path d="M188.527 169.448H191.514" stroke="#2E353A" stroke-width="0.5" stroke-miterlimit="10"/>
<path d="M198.535 170.342H194.651" stroke="#2E353A" stroke-width="0.5" stroke-miterlimit="10"/>
<path d="M190.021 181.815H194.203" stroke="#2E353A" stroke-width="0.5" stroke-miterlimit="10"/>
<path d="M190.917 182.858H195.697" stroke="#2E353A" stroke-width="0.5" stroke-miterlimit="10"/>
<path d="M186.137 146.503H187.482" stroke="#2E353A" stroke-width="0.5" stroke-miterlimit="10"/>
<path d="M200.776 146.205H195.846" stroke="#2E353A" stroke-width="0.5" stroke-miterlimit="10"/>
<path d="M76.249 133.212L73.8829 136.288L22.4161 96.2073L24.7881 93.132L76.249 133.212Z" fill="#2E353A" stroke="#2E353A" stroke-width="1.09543" stroke-linecap="round" stroke-linejoin="round"/>
<path d="M22.4161 133.212L24.7881 136.288L76.249 96.2073L73.8829 93.132L22.4161 133.212Z" fill="#2E353A" stroke="#2E353A" stroke-width="1.09543" stroke-linecap="round" stroke-linejoin="round"/>
<path d="M76.249 178.233L74.7851 182.197L22.4161 141.228L23.9158 137.229L76.249 178.233Z" fill="#2E353A" stroke="#2E353A" stroke-width="1.09543" stroke-linecap="round" stroke-linejoin="round"/>
<path d="M22.4161 178.233L22.7746 182.882L76.249 141.228L73.8829 138.159L22.4161 178.233Z" fill="#2E353A" stroke="#2E353A" stroke-width="1.09543" stroke-linecap="round" stroke-linejoin="round"/>
<path d="M23.629 92.7089H21.5378V196.172H23.629V92.7089Z" fill="#2E353A" stroke="#2E353A" stroke-width="1.09543" stroke-linecap="round" stroke-linejoin="round"/>
<path d="M76.5358 92.7089H74.4446V196.172H76.5358V92.7089Z" fill="#2E353A" stroke="#2E353A" stroke-width="1.09543" stroke-linecap="round" stroke-linejoin="round"/>
<path d="M66.1815 133.212L63.8095 136.288L12.3486 96.2073L14.7147 93.132L66.1815 133.212Z" fill="white" stroke="#2E353A" stroke-width="1.09543" stroke-linecap="round" stroke-linejoin="round"/>
<path d="M12.3486 133.212L14.7147 136.288L66.1815 96.2073L63.8095 93.132L12.3486 133.212Z" fill="white" stroke="#2E353A" stroke-width="1.09543" stroke-linecap="round" stroke-linejoin="round"/>
<path d="M66.1815 178.233L64.7117 182.197L12.3486 141.228L13.1015 137.229L66.1815 178.233Z" fill="white" stroke="#2E353A" stroke-width="1.09543" stroke-linecap="round" stroke-linejoin="round"/>
<path d="M12.3486 178.233L12.7071 182.882L66.1815 141.228L63.8095 138.159L12.3486 178.233Z" fill="white" stroke="#2E353A" stroke-width="1.09543" stroke-linecap="round" stroke-linejoin="round"/>
<path d="M13.5555 92.7089H11.4644V196.172H13.5555V92.7089Z" fill="white" stroke="#2E353A" stroke-width="1.09543" stroke-linecap="round" stroke-linejoin="round"/>
<path d="M66.4623 92.7089H64.3711V196.172H66.4623V92.7089Z" fill="white" stroke="#2E353A" stroke-width="1.09543" stroke-linecap="round" stroke-linejoin="round"/>
<path d="M69.1568 91.7493H8.77563V95.0272H69.1568V91.7493Z" fill="white" stroke="#2E353A" stroke-width="1.09543" stroke-linecap="round" stroke-linejoin="round"/>
<path d="M78.4596 91.7493H61.7003V95.0272H78.4596V91.7493Z" fill="#2E353A" stroke="#2E353A" stroke-width="1.09543" stroke-linecap="round" stroke-linejoin="round"/>
<path d="M69.1568 134.684H8.77563V137.962H69.1568V134.684Z" fill="white" stroke="#2E353A" stroke-width="1.09543" stroke-linecap="round" stroke-linejoin="round"/>
<path d="M78.4596 134.684H61.7003V137.962H78.4596V134.684Z" fill="#2E353A" stroke="#2E353A" stroke-width="1.09543" stroke-linecap="round" stroke-linejoin="round"/>
<path d="M144.397 196.167H139.671L145.975 159.328H150.707L144.397 196.167Z" fill="#2E353A" stroke="#2E353A" stroke-width="0.972732" stroke-miterlimit="10"/>
<path d="M153.855 196.167H158.587L152.278 159.328H147.552L153.855 196.167Z" fill="white" stroke="#2E353A" stroke-width="0.972732" stroke-miterlimit="10"/>
<path d="M211.506 196.167H206.78L213.084 159.328H217.81L211.506 196.167Z" fill="#2E353A" stroke="#2E353A" stroke-width="0.972732" stroke-miterlimit="10"/>
<path d="M220.964 196.167H225.696L219.387 159.328H214.661L220.964 196.167Z" fill="white" stroke="#2E353A" stroke-width="0.972732" stroke-miterlimit="10"/>
<path d="M224.274 148.678H134.073V161.176H224.274V148.678Z" fill="#0060A8" stroke="#2E353A" stroke-width="0.972732" stroke-miterlimit="10"/>
<path d="M226.473 148.678H136.272V161.176H226.473V148.678Z" fill="#0060A8" stroke="#2E353A" stroke-width="0.972732" stroke-miterlimit="10"/>
<path d="M137.747 161.176H145.401L149.356 148.678H141.703L137.747 161.176Z" fill="#2E353A"/>
<path d="M168.052 148.678H160.392L156.437 161.176H164.096L168.052 148.678Z" fill="#2E353A"/>
<path d="M224.125 148.678H216.465L212.51 161.176H220.17L224.125 148.678Z" fill="#2E353A"/>
<path d="M205.43 148.678H197.776L193.821 161.176H201.475L205.43 148.678Z" fill="#2E353A"/>
<path d="M186.741 148.678H179.081L175.126 161.176H182.785L186.741 148.678Z" fill="#2E353A"/>
<path d="M225.977 154.227H211.052" stroke="#2E353A" stroke-miterlimit="10"/>
<path d="M225.714 156.313H223.36" stroke="#2E353A" stroke-miterlimit="10"/>
<path d="M135.889 155.794H150.814" stroke="#2E353A" stroke-miterlimit="10"/>
<path d="M136.146 153.44H155.003" stroke="#2E353A" stroke-miterlimit="10"/>
</svg>
