<svg width="40" height="40" viewBox="0 0 40 40" fill="none" xmlns="http://www.w3.org/2000/svg">
<path fill-rule="evenodd" clip-rule="evenodd" d="M20 40C31.0457 40 40 31.0457 40 20C40 8.9543 31.0457 0 20 0C8.9543 0 0 8.9543 0 20C0 31.0457 8.9543 40 20 40ZM22 12C22 10.8954 21.1046 10 20 10C18.8954 10 18 10.8954 18 12V20C18 21.1046 18.8954 22 20 22C21.1046 22 22 21.1046 22 20V12ZM20 26C18.8954 26 18 26.8954 18 28C18 29.1046 18.8954 30 20 30H20.02C21.1246 30 22.02 29.1046 22.02 28C22.02 26.8954 21.1246 26 20.02 26H20Z" fill="#FFC01E"/>
</svg>
