<svg width="306" height="200" viewBox="0 0 306 200" fill="none" xmlns="http://www.w3.org/2000/svg">
<path d="M299.93 47.1545L295.157 70.2728L292.084 67.2752L286.857 71.006L282.862 66.0432L273.904 72.5572L266.248 59.7536L257.709 64.7564L254.322 60.0878L243.478 66.1978L240.216 59.2099L247.818 22.3951L288.568 30.8095L299.93 47.1545Z" fill="#EBEBEB"/>
<path d="M288.568 30.8095L299.93 47.1545L285.795 44.2366L288.568 30.8095Z" fill="#DBDBDB"/>
<path d="M294.139 74.8915L287.141 108.808L232.251 97.4762L239.199 63.8336L242.461 70.8165L253.309 64.7065L256.691 69.375L265.235 64.3773L272.886 77.1809L281.849 70.6669L285.84 75.6247L291.072 71.8989L294.139 74.8915Z" fill="#EBEBEB"/>
<path d="M215.577 70.9163L159.639 74.3778L155.195 2.57369L196.733 0L211.981 12.7937L215.577 70.9163Z" fill="#EBEBEB"/>
<path d="M196.733 0L211.981 12.7937L197.576 13.6865L196.733 0Z" fill="#DBDBDB"/>
<path d="M181.246 48.3166L181.027 46.6956C180.463 43.3388 181.381 39.583 184.299 35.6576C186.932 32.1662 188.359 29.6723 188.199 26.8392C188.019 23.6471 185.9 21.632 181.954 21.7916C179.7 21.9087 177.534 22.7089 175.744 24.086L174.024 20.2304C176.019 18.6094 179.51 17.4123 182.827 17.2378C190.024 16.8387 193.526 21.0983 193.8 25.8517C194.04 30.1062 191.835 33.3034 189.032 37.0393C186.458 40.4459 185.615 43.254 185.979 46.4312L186.134 48.0573L181.246 48.3166ZM180.358 57.15C180.228 54.8356 181.7 53.1199 183.89 53.0001C186.079 52.8804 187.675 54.4167 187.805 56.736C187.925 58.9256 186.583 60.6913 184.269 60.821C182.059 60.9457 180.463 59.3396 180.338 57.15H180.358Z" fill="#DBDBDB"/>
<path d="M41.3287 36.1016L35.7025 33.5528L34.9194 35.2736C34.8038 35.5195 34.6234 35.7293 34.3975 35.8804C34.1717 36.0316 33.909 36.1184 33.6376 36.1315C33.3284 36.1416 33.0202 36.1716 32.7148 36.2213C32.4468 36.2611 32.173 36.2273 31.9226 36.1237C31.6723 36.02 31.4548 35.8503 31.2933 35.6327L30.191 34.0915L25.1683 37.6927L26.2706 39.2339C26.4239 39.4563 26.5142 39.7161 26.5317 39.9857C26.5493 40.2553 26.4935 40.5247 26.3704 40.7651C26.2282 41.0394 26.1 41.3208 25.9863 41.6081C25.8875 41.8614 25.7215 42.083 25.5062 42.2491C25.2909 42.4152 25.0344 42.5195 24.7643 42.5507L22.8839 42.7353L23.4874 48.8852L25.3778 48.6957C25.6489 48.674 25.9208 48.7267 26.1642 48.8479C26.4076 48.9692 26.6134 49.1546 26.7594 49.384C26.8392 49.5137 26.924 49.6384 27.0138 49.7631C27.1036 49.8878 27.1934 50.0075 27.2881 50.1272C27.4602 50.3366 27.5709 50.5897 27.6079 50.8582C27.6449 51.1268 27.6067 51.4003 27.4976 51.6485L26.7095 53.3842L32.3407 55.938L33.1238 54.2072C33.2405 53.9615 33.422 53.7522 33.6488 53.602C33.8755 53.4517 34.1389 53.3661 34.4107 53.3543C34.7164 53.3417 35.0211 53.3117 35.3234 53.2645C35.5915 53.2247 35.8653 53.2584 36.1156 53.3621C36.366 53.4657 36.5835 53.6354 36.7449 53.8531L37.8473 55.3943L42.8749 51.7931L41.7726 50.2519C41.6146 50.0315 41.5215 49.7712 41.5039 49.5005C41.4862 49.2299 41.5448 48.9597 41.6729 48.7206C41.8118 48.4479 41.9367 48.1682 42.047 47.8827C42.1429 47.6275 42.3081 47.4041 42.5239 47.2376C42.7398 47.0711 42.9978 46.968 43.269 46.94L45.1593 46.7505L44.5508 40.6005L42.6605 40.7851C42.391 40.8087 42.1203 40.7574 41.8783 40.6368C41.6362 40.5162 41.4322 40.3311 41.2888 40.1018C41.204 39.9721 41.1192 39.8474 41.0295 39.7227C40.9397 39.598 40.8499 39.4733 40.7551 39.3586C40.5842 39.1466 40.4743 38.8919 40.4374 38.6221C40.4005 38.3523 40.4379 38.0775 40.5456 37.8273L41.3287 36.1016ZM38.1365 41.7926C38.7198 42.6066 39.0486 43.5752 39.0813 44.576C39.1141 45.5768 38.8493 46.5649 38.3204 47.4152C37.7916 48.2655 37.0224 48.9399 36.1103 49.353C35.1982 49.7662 34.184 49.8996 33.196 49.7363C32.2081 49.5731 31.2907 49.1205 30.56 48.4358C29.8293 47.7512 29.318 46.8652 29.0908 45.89C28.8637 44.9147 28.9308 43.894 29.2838 42.9569C29.6368 42.0198 30.2597 41.2085 31.0738 40.6255C32.1653 39.8439 33.5224 39.5278 34.8469 39.7466C36.1713 39.9655 37.3546 40.7014 38.1365 41.7926Z" fill="#EBEBEB"/>
<path d="M295.656 117.702L291.905 119.866L292.568 121.014C292.667 121.178 292.717 121.368 292.71 121.56C292.704 121.752 292.643 121.938 292.533 122.096C292.419 122.275 292.309 122.46 292.209 122.655C292.127 122.827 291.998 122.972 291.836 123.072C291.674 123.173 291.487 123.225 291.296 123.223H289.98V127.558H291.306C291.497 127.555 291.684 127.608 291.846 127.708C292.008 127.809 292.137 127.954 292.219 128.126C292.319 128.321 292.429 128.505 292.543 128.685C292.653 128.843 292.714 129.029 292.72 129.221C292.727 129.413 292.677 129.602 292.578 129.767L291.915 130.914L295.666 133.079L296.334 131.927C296.431 131.763 296.571 131.63 296.74 131.542C296.908 131.454 297.097 131.414 297.287 131.428H297.925C298.115 131.415 298.304 131.455 298.472 131.543C298.64 131.631 298.781 131.764 298.878 131.927L299.546 133.084L303.292 130.919L302.629 129.767C302.534 129.602 302.488 129.413 302.495 129.223C302.502 129.032 302.562 128.848 302.669 128.69C302.783 128.51 302.893 128.321 302.993 128.131C303.075 127.959 303.204 127.814 303.366 127.713C303.528 127.613 303.715 127.56 303.905 127.563H305.232V123.228H303.896C303.705 123.23 303.518 123.178 303.356 123.077C303.194 122.977 303.065 122.832 302.983 122.66C302.883 122.47 302.773 122.28 302.659 122.101C302.552 121.943 302.492 121.758 302.485 121.568C302.478 121.378 302.524 121.189 302.619 121.024L303.282 119.871L299.536 117.707L298.868 118.844C298.771 119.007 298.631 119.141 298.462 119.229C298.294 119.317 298.105 119.356 297.915 119.343H297.596H297.277C297.087 119.355 296.897 119.316 296.728 119.228C296.559 119.14 296.418 119.007 296.319 118.844L295.656 117.702ZM297.596 121.842C298.299 121.841 298.986 122.048 299.571 122.438C300.156 122.828 300.612 123.382 300.881 124.031C301.15 124.681 301.221 125.395 301.084 126.084C300.947 126.774 300.609 127.407 300.112 127.904C299.615 128.401 298.982 128.739 298.293 128.876C297.603 129.013 296.889 128.942 296.24 128.673C295.59 128.403 295.036 127.947 294.646 127.363C294.256 126.778 294.049 126.091 294.05 125.388C294.049 124.922 294.14 124.46 294.318 124.029C294.496 123.598 294.757 123.207 295.087 122.877C295.416 122.547 295.807 122.285 296.238 122.107C296.668 121.928 297.13 121.837 297.596 121.837V121.842Z" fill="#EBEBEB"/>
<path d="M52.7109 17.6717L49.2743 20.3053L50.0673 21.3577C50.1856 21.5076 50.2584 21.6884 50.2769 21.8785C50.2955 22.0686 50.2591 22.26 50.1721 22.4301C50.0766 22.6242 49.9933 22.8241 49.9227 23.0286C49.8612 23.2087 49.7507 23.3681 49.6035 23.4889C49.4563 23.6096 49.2784 23.6868 49.0897 23.7119L47.7729 23.8815L48.3316 28.176L49.6484 28.0064C49.84 27.9797 50.0354 28.0076 50.2118 28.0871C50.3883 28.1665 50.5388 28.2941 50.6459 28.4553C50.766 28.6288 50.8959 28.7953 51.035 28.9541C51.1635 29.0954 51.2487 29.2706 51.2805 29.4589C51.3123 29.6473 51.2894 29.8408 51.2145 30.0165L50.7157 31.2435L54.706 32.9044L55.2047 31.6774C55.279 31.5014 55.401 31.3497 55.5571 31.2395C55.7131 31.1293 55.8969 31.065 56.0876 31.0539L56.4068 31.019L56.721 30.9691C56.9056 30.9344 57.0962 30.9508 57.2721 31.0168C57.448 31.0827 57.6024 31.1956 57.7186 31.3432L58.5316 32.4056L61.9682 29.7721L61.1651 28.7196C61.0492 28.5676 60.9779 28.3862 60.9594 28.1959C60.9409 28.0055 60.9759 27.8138 61.0604 27.6423C61.1549 27.4494 61.2382 27.2513 61.3098 27.0487C61.3713 26.8686 61.4818 26.7092 61.629 26.5885C61.7761 26.4678 61.9541 26.3905 62.1427 26.3654L63.4595 26.1958L62.9009 21.9014L61.5841 22.0709C61.3929 22.0982 61.1979 22.071 61.0215 21.9925C60.845 21.9139 60.6943 21.7873 60.5866 21.627C60.4619 21.4475 60.3322 21.2779 60.1925 21.1282C60.0763 20.9839 60.0011 20.811 59.9748 20.6275C59.9485 20.4441 59.972 20.257 60.0429 20.0858L60.5417 18.8588L56.5514 17.1979L56.0527 18.4249C55.9775 18.6002 55.8552 18.7513 55.6993 18.8614C55.5435 18.9714 55.3602 19.0361 55.1698 19.0483L54.8506 19.0783L54.5563 19.0882C54.3717 19.123 54.1812 19.1066 54.0053 19.0406C53.8294 18.9746 53.675 18.8617 53.5588 18.7142L52.7109 17.6717ZM55.1698 21.5273C55.8646 21.438 56.5703 21.5564 57.1978 21.8677C57.8254 22.179 58.3467 22.6691 58.696 23.2763C59.0453 23.8835 59.2069 24.5806 59.1605 25.2796C59.1141 25.9785 58.8617 26.6481 58.4352 27.2038C58.0087 27.7595 57.4272 28.1764 56.764 28.402C56.1008 28.6276 55.3857 28.6517 54.7088 28.4714C54.0319 28.291 53.4236 27.9142 52.9606 27.3885C52.4977 26.8628 52.2007 26.2117 52.1073 25.5175C52.045 25.0542 52.0749 24.5832 52.1953 24.1315C52.3156 23.6798 52.5241 23.2563 52.8087 22.8855C53.0934 22.5146 53.4485 22.2037 53.8537 21.9706C54.2589 21.7376 54.7062 21.5869 55.1698 21.5273Z" fill="#EBEBEB"/>
<path d="M27.0337 130.206C27.2211 125.384 27.1545 120.556 26.8342 115.741C26.1205 105.799 24.6043 95.9314 22.3003 86.2338C21.0334 80.7771 19.4772 75.4103 17.8512 70.0484C17.8013 69.8838 17.542 69.9287 17.5869 70.0983C22.6096 89.002 26.7295 108.504 26.4452 128.156C26.3654 133.643 25.7269 139.054 25.2082 144.521C25.2082 144.666 25.4326 144.725 25.4676 144.576C26.5 139.882 26.8392 134.984 27.0337 130.206Z" fill="#EBEBEB"/>
<path d="M17.5869 70.0833C17.5869 70.0833 9.9855 89.386 11.6863 93.9049C13.3872 98.4238 16.8986 99.3914 16.8986 99.3914C16.8986 99.3914 12.245 106.035 15.497 112.265C18.749 118.495 25.9713 118.2 26.4701 125.263C26.4551 125.298 26.8542 95.7653 17.5869 70.0833Z" fill="#EBEBEB"/>
<path d="M25.6272 113.103C25.6394 113.071 25.6394 113.035 25.6272 113.003C24.6295 99.825 22.1567 86.8003 18.2552 74.1734C18.2552 74.1384 18.1804 74.1484 18.1904 74.1734C19.6967 79.8262 21.0268 85.5023 22.1806 91.2016C21.1587 90.2335 19.9102 89.5373 18.5495 89.1766C18.5495 89.1766 18.5096 89.2065 18.5495 89.2165C19.979 89.7403 21.2642 90.5949 22.3003 91.7104C22.5198 92.8326 22.7392 93.9499 22.9437 95.0722C21.2429 93.1718 18.8887 92.2291 16.5294 91.3313C16.5241 91.3336 16.5196 91.3375 16.5164 91.3424C16.5132 91.3472 16.5115 91.3529 16.5115 91.3588C16.5115 91.3646 16.5132 91.3703 16.5164 91.3751C16.5196 91.38 16.5241 91.3839 16.5294 91.3862C18.9884 92.3837 21.4324 93.6706 23.0983 95.7904C23.6769 98.9925 24.1857 102.206 24.6246 105.432C23.3965 104.145 21.8216 103.242 20.0907 102.833C20.0359 102.833 20.0059 102.898 20.0608 102.913C21.8388 103.437 23.4262 104.466 24.6296 105.876H24.6595C24.8092 107.006 24.9521 108.142 25.0885 109.282C24.1384 108.478 23.0658 107.832 21.9113 107.367C21.8813 107.367 21.8614 107.402 21.9113 107.412C23.0894 107.922 24.1684 108.637 25.0984 109.522C25.0984 109.522 25.1234 109.522 25.1383 109.522C25.263 110.604 25.3877 111.686 25.4975 112.769C23.7847 110.698 21.5619 109.11 19.0483 108.16C19.0377 108.16 19.0275 108.164 19.0201 108.172C19.0126 108.179 19.0084 108.189 19.0084 108.2C19.0084 108.211 19.0126 108.221 19.0201 108.228C19.0275 108.236 19.0377 108.24 19.0483 108.24C21.5304 109.334 23.7107 111.013 25.4027 113.133C25.4213 113.156 25.4465 113.173 25.4749 113.182C25.5033 113.191 25.5338 113.191 25.5623 113.183C25.7269 114.844 25.8765 116.505 25.9962 118.171C25.9962 118.196 26.0362 118.196 26.0362 118.171C25.9065 116.498 25.7701 114.809 25.6272 113.103Z" fill="white"/>
<path d="M19.5172 87.2762C18.1406 86.4195 16.5679 85.9285 14.9484 85.8497C14.9404 85.8497 14.9328 85.8529 14.9272 85.8585C14.9216 85.8641 14.9185 85.8717 14.9185 85.8797C14.9185 85.8876 14.9216 85.8952 14.9272 85.9008C14.9328 85.9064 14.9404 85.9096 14.9484 85.9096C16.5142 86.2065 18.0337 86.7097 19.4673 87.4059C19.5272 87.4209 19.5721 87.3161 19.5172 87.2762Z" fill="white"/>
<path d="M20.44 107.711C19.3819 107.104 18.2169 106.706 17.0084 106.539C16.9685 106.539 16.9635 106.594 17.0084 106.604C18.1885 106.84 19.33 107.24 20.4001 107.791C20.445 107.816 20.4849 107.736 20.44 107.711Z" fill="white"/>
<path d="M47.0248 94.2391C43.8091 96.4619 40.8558 99.0421 38.2214 101.93C35.5045 104.988 33.4089 108.546 32.0515 112.405C29.1625 120.444 27.609 128.902 27.4527 137.443C27.3558 142.173 27.8095 146.899 28.8044 151.524C28.8125 151.557 28.8332 151.587 28.8622 151.605C28.8912 151.624 28.9264 151.631 28.9603 151.625C28.9943 151.618 29.0245 151.599 29.0447 151.571C29.0649 151.543 29.0735 151.508 29.0688 151.474C27.8307 143.312 27.8778 135.007 29.2084 126.859C30.5152 118.879 32.5652 110.19 37.6428 103.701C40.406 100.165 43.8526 97.3864 47.2592 94.5134C47.4388 94.3538 47.2093 94.1094 47.0248 94.2391Z" fill="#EBEBEB"/>
<path d="M28.5699 131.687C30.4004 128.727 32.5514 125.977 34.9842 123.487C38.7899 119.682 41.9921 116.978 42.4908 114.465C42.9896 111.951 38.6802 110.095 38.6802 110.095C38.6802 110.095 43.9423 111.043 45.3838 108.833C46.8252 106.624 47.5185 93.8251 47.5185 93.8251C47.5185 93.8251 37.942 100.663 33.4779 110.25C29.0139 119.836 28.5699 131.687 28.5699 131.687Z" fill="#EBEBEB"/>
<path d="M44.082 105.831C43.4514 105.737 42.8122 105.715 42.1767 105.766C42.1019 105.766 42.1069 105.895 42.1767 105.9C42.8052 105.9 43.4386 105.871 44.0671 105.9C44.0743 105.899 44.0808 105.895 44.0859 105.889C44.091 105.884 44.0946 105.877 44.0961 105.87C44.0977 105.863 44.0972 105.855 44.0947 105.848C44.0922 105.841 44.0878 105.835 44.082 105.831Z" fill="white"/>
<path d="M37.2039 118.245C36.1926 118.266 35.193 118.465 34.2511 118.834C34.2511 118.834 34.2511 118.884 34.2511 118.879C35.2487 118.644 36.2113 118.55 37.1989 118.38C37.2118 118.374 37.2228 118.365 37.2307 118.354C37.2386 118.342 37.2431 118.328 37.2436 118.314C37.2442 118.3 37.2407 118.286 37.2337 118.274C37.2266 118.262 37.2163 118.252 37.2039 118.245Z" fill="white"/>
<path d="M35.1389 113.956C34.7191 113.952 34.2998 113.989 33.887 114.066C33.8793 114.068 33.8728 114.073 33.8681 114.08C33.8634 114.087 33.861 114.095 33.861 114.103C33.861 114.111 33.8634 114.119 33.8681 114.126C33.8728 114.132 33.8793 114.137 33.887 114.14C34.3051 114.164 34.7245 114.146 35.1389 114.085C35.1561 114.085 35.1726 114.079 35.1848 114.066C35.1969 114.054 35.2037 114.038 35.2037 114.021C35.2037 114.003 35.1969 113.987 35.1848 113.975C35.1726 113.963 35.1561 113.956 35.1389 113.956Z" fill="white"/>
<path d="M0.493756 107.816C3.61072 108.873 6.59758 110.28 9.39694 112.011C12.3015 113.856 14.8204 116.248 16.8138 119.053C21.008 124.892 24.2193 131.377 26.3205 138.251C27.4924 142.058 28.2155 145.988 28.4752 149.963C28.4697 149.988 28.4556 150.011 28.4352 150.028C28.4148 150.045 28.3893 150.054 28.363 150.054C28.3367 150.054 28.3112 150.045 28.2908 150.028C28.2703 150.011 28.2562 149.988 28.2508 149.963C27.3703 143.072 25.4146 136.361 22.455 130.076C19.5471 123.916 15.8811 117.363 10.2748 113.283C7.22227 111.063 3.79068 109.607 0.369062 108.07C0.189502 108.01 0.314196 107.756 0.493756 107.816Z" fill="#EBEBEB"/>
<path d="M24.086 133.857C21.919 131.886 19.5423 130.158 16.9984 128.705C13.0381 126.505 9.82094 125.059 8.83834 123.138C7.85575 121.218 10.9133 118.724 10.9133 118.724C10.9133 118.724 6.87316 120.719 5.19727 119.248C3.52137 117.777 0 107.601 0 107.601C0 107.601 9.33213 110.918 15.1529 117.647C20.9736 124.375 24.086 133.857 24.086 133.857Z" fill="#EBEBEB"/>
<path d="M16.3399 124.49C15.4224 124.426 14.5012 124.539 13.6266 124.824C13.6266 124.824 13.6266 124.869 13.6266 124.864C14.5188 124.711 15.4203 124.618 16.325 124.585C16.3898 124.585 16.4048 124.495 16.3399 124.49Z" fill="white"/>
<path d="M8.19994 113.816C7.7814 113.782 7.36015 113.806 6.94801 113.886C6.90312 113.886 6.91808 113.966 6.94801 113.961C7.36199 113.916 7.766 113.931 8.175 113.921C8.18771 113.921 8.20019 113.918 8.21032 113.91C8.22046 113.902 8.22761 113.891 8.23055 113.879C8.2335 113.866 8.23205 113.853 8.22647 113.842C8.22089 113.831 8.21151 113.822 8.19994 113.816Z" fill="white"/>
<path d="M36.1215 162.826H15.0581L18.0608 140.825L18.8289 135.184H32.3507L33.1189 140.825L36.1215 162.826Z" fill="#DBDBDB"/>
<path d="M33.1189 140.825H18.0608L18.8289 135.184H32.3508L33.1189 140.825Z" fill="#C7C7C7"/>
<path d="M34.281 133.229H16.8936V138.007H34.281V133.229Z" fill="#DBDBDB"/>
<path d="M1.66589 162.826L39.578 162.706L77.4901 162.661L153.314 162.577L229.139 162.661L267.051 162.706L304.963 162.826L267.051 162.951L229.139 162.991L153.314 163.075L77.4901 162.991L39.578 162.946L1.66589 162.826Z" fill="#263238"/>
<path d="M154.312 200C233.299 200 297.332 192.984 297.332 184.328C297.332 175.673 233.299 168.657 154.312 168.657C75.3244 168.657 11.2924 175.673 11.2924 184.328C11.2924 192.984 75.3244 200 154.312 200Z" fill="#EBEBEB"/>
<path d="M121.019 181.735C119.856 182.129 86.533 182.234 85.2561 181.445C84.7574 181.146 84.4731 176.293 84.2586 170.417C84.2137 169.151 84.1788 167.839 84.1488 166.512L81.4904 148.736L103.771 148.591L105.871 166.372L105.786 170.283C105.786 170.283 118.565 175.944 119.871 176.971C121.178 177.999 122.181 181.341 121.019 181.735Z" fill="#F0AEA9"/>
<path d="M121.019 181.735C119.856 182.129 86.533 182.234 85.2562 181.446C84.6676 181.076 84.3484 173.989 84.1688 166.512L105.846 166.372L105.761 170.283C105.761 170.283 118.54 175.944 119.846 176.971C121.153 177.999 122.181 181.341 121.019 181.735Z" fill="white"/>
<path d="M121.019 181.735C119.856 182.129 86.5331 182.234 85.2562 181.445C84.7574 181.146 84.4731 176.293 84.2587 170.418L105.741 170.283C105.741 170.283 118.52 175.944 119.827 176.971C121.133 177.999 122.181 181.341 121.019 181.735Z" fill="#A6A6A6"/>
<path d="M120.535 180.403C114.948 180.283 92.4036 180.338 86.8722 180.647C86.8273 180.647 86.8273 180.677 86.8722 180.682C92.4086 180.917 114.953 180.682 120.535 180.493C120.654 180.488 120.654 180.403 120.535 180.403Z" fill="#263238"/>
<path d="M117.697 175.779C117.076 175.765 116.458 175.881 115.884 176.118C115.309 176.355 114.791 176.708 114.36 177.156C113.575 177.955 113.132 179.029 113.123 180.149C113.123 180.184 113.183 180.184 113.188 180.149C113.373 179.045 113.911 178.031 114.72 177.258C115.529 176.485 116.566 175.994 117.677 175.859C117.687 175.862 117.699 175.86 117.708 175.855C117.717 175.849 117.724 175.84 117.727 175.829C117.729 175.819 117.728 175.808 117.722 175.798C117.716 175.789 117.707 175.782 117.697 175.779Z" fill="#263238"/>
<path d="M107.926 170.831C105.691 170.807 103.102 171.605 101.716 173.44C101.666 173.51 101.766 173.585 101.831 173.55C103.783 172.519 105.84 171.7 107.966 171.106C107.998 171.097 108.027 171.076 108.046 171.048C108.064 171.019 108.072 170.985 108.067 170.951C108.062 170.917 108.045 170.887 108.019 170.865C107.993 170.842 107.96 170.831 107.926 170.831Z" fill="#263238"/>
<path d="M109.661 171.495C107.422 171.495 104.833 172.273 103.452 174.103C103.397 174.178 103.497 174.253 103.566 174.218C105.516 173.184 107.571 172.363 109.696 171.769C109.729 171.76 109.757 171.74 109.776 171.712C109.794 171.684 109.802 171.65 109.798 171.617C109.794 171.584 109.778 171.553 109.752 171.53C109.727 171.508 109.695 171.495 109.661 171.495Z" fill="#263238"/>
<path d="M111.387 172.163C109.153 172.163 106.564 172.936 105.177 174.772C105.127 174.842 105.227 174.917 105.292 174.882C107.244 173.851 109.301 173.032 111.427 172.438C111.46 172.429 111.488 172.408 111.507 172.379C111.526 172.351 111.533 172.316 111.528 172.283C111.523 172.249 111.506 172.218 111.48 172.196C111.454 172.174 111.421 172.163 111.387 172.163Z" fill="#263238"/>
<path d="M113.118 172.832C110.878 172.807 108.29 173.605 106.908 175.44C106.853 175.51 106.958 175.585 107.023 175.55C108.975 174.519 111.031 173.699 113.158 173.106C113.191 173.097 113.219 173.076 113.238 173.048C113.256 173.019 113.264 172.985 113.259 172.951C113.254 172.917 113.237 172.887 113.211 172.865C113.185 172.843 113.152 172.831 113.118 172.832Z" fill="#263238"/>
<path d="M88.2787 175.335C85.7849 175.335 85.7849 179.251 88.2787 179.236C90.7726 179.221 90.7926 175.321 88.2787 175.335Z" fill="#263238"/>
<path d="M110.325 164.856C109.193 163.918 107.766 164.856 107.073 165.819C105.919 167.52 105.231 169.494 105.078 171.545C105.078 171.59 105.113 171.61 105.147 171.61C105.156 171.652 105.175 171.691 105.202 171.725C105.23 171.758 105.265 171.784 105.304 171.801C105.344 171.819 105.387 171.826 105.43 171.823C105.473 171.82 105.515 171.807 105.551 171.784C107.138 170.682 108.973 169.694 110.175 168.133C110.858 167.225 111.417 165.729 110.325 164.856ZM107.601 169.614C106.833 170.178 106.04 170.702 105.292 171.295C105.691 170.178 106.035 169.051 106.544 167.973C106.779 167.457 107.049 166.957 107.352 166.477C107.851 165.734 110.026 163.858 110.255 166.288C110.385 167.619 108.514 168.946 107.601 169.614Z" fill="#263238"/>
<path d="M99.5112 172.393C101.456 172.682 103.467 172.123 105.377 171.819C105.418 171.808 105.457 171.788 105.489 171.76C105.521 171.731 105.546 171.696 105.562 171.656C105.578 171.616 105.585 171.573 105.581 171.531C105.577 171.488 105.564 171.447 105.541 171.41C105.549 171.405 105.555 171.397 105.559 171.389C105.563 171.381 105.565 171.372 105.565 171.363C105.565 171.354 105.563 171.345 105.559 171.336C105.555 171.328 105.549 171.321 105.541 171.315C104.006 169.946 102.138 169.006 100.125 168.587C98.9476 168.363 97.2817 168.687 97.132 170.148C96.9525 171.525 98.374 172.213 99.5112 172.393ZM98.1545 171.126C96.6582 169.211 99.5162 169.046 100.374 169.245C100.931 169.385 101.477 169.561 102.01 169.774C103.101 170.227 104.168 170.734 105.207 171.295C104.26 171.39 103.327 171.56 102.384 171.689C101.257 171.839 98.9925 172.178 98.1545 171.126Z" fill="#263238"/>
<path d="M48.7307 66.5719C48.7307 66.5719 74.6023 110.584 75.2956 113.677C76.358 118.425 81.9892 165.315 81.9892 165.315L108.923 164.816C108.923 164.816 104.285 123.472 99.8904 109.851C96.7281 100.04 73.8941 67.4996 73.8941 67.4996L48.7307 66.5719Z" fill="#37474F"/>
<path d="M106.474 160.706C102.609 160.676 88.9073 160.522 83.7599 161.001C83.72 161.001 83.725 161.07 83.7599 161.075C85.5306 161.33 102.604 160.936 106.469 160.811C106.477 160.814 106.486 160.815 106.495 160.814C106.503 160.813 106.511 160.81 106.518 160.805C106.525 160.8 106.531 160.794 106.536 160.787C106.54 160.779 106.542 160.771 106.543 160.762C106.543 160.754 106.541 160.745 106.538 160.737C106.534 160.729 106.529 160.722 106.523 160.717C106.516 160.712 106.508 160.708 106.5 160.706C106.491 160.704 106.483 160.704 106.474 160.706Z" fill="#263238"/>
<path d="M53.1449 70.612C54.8407 73.2705 56.6363 75.8742 58.3621 78.5127C60.0878 81.1512 61.8236 83.7898 63.5344 86.4233C66.946 91.7436 70.2712 97.0988 73.51 102.489C75.0906 104.987 76.4428 107.623 77.5501 110.365C78.5608 113.107 79.3204 115.935 79.8195 118.814C80.3482 121.702 80.6973 124.62 81.0216 127.538C81.3541 130.64 81.7016 133.744 82.064 136.85C82.7723 143.204 83.4822 149.559 84.1938 155.913C84.2786 156.691 84.3634 157.469 84.4432 158.252C84.4432 158.367 84.2486 158.387 84.2337 158.252C83.4406 151.943 82.7822 145.608 82.064 139.299C81.7049 136.15 81.3474 133.003 80.9916 129.857C80.6574 126.929 80.3382 123.996 79.8843 121.088C79.4678 118.218 78.8342 115.384 77.989 112.609C77.0577 109.736 75.8097 106.976 74.2681 104.379C71.1507 98.9975 67.8488 93.7105 64.5469 88.4184C61.245 83.1264 57.8533 77.7895 54.3719 72.5623C53.9429 71.9188 53.509 71.2754 53.0601 70.642C53.0251 70.6071 53.1149 70.5622 53.1449 70.612Z" fill="#263238"/>
<path d="M57.2099 184.328C55.9829 184.254 24.2905 171.415 23.4127 170.198C23.3736 170.126 23.3562 170.045 23.3628 169.964C23.3628 168.871 25.5624 165.061 27.3979 160.053C27.5126 159.734 28.3306 158.247 29.4629 156.247C32.6101 150.766 38.0967 141.324 38.0967 141.324L58.811 149.554L48.8952 164.392L47.354 167.984C47.354 167.984 57.0752 178.034 57.8932 179.455C58.7112 180.877 58.4319 184.398 57.2099 184.328Z" fill="#F0AEA9"/>
<path d="M57.2099 184.328C55.9829 184.254 24.2905 171.415 23.4127 170.198C23.3736 170.126 23.3562 170.045 23.3628 169.964C23.3628 168.871 25.5624 165.061 27.3979 160.053C27.5126 159.734 28.3306 158.247 29.4629 156.247L48.9152 164.392L47.374 167.983C47.374 167.983 57.0952 178.034 57.9132 179.455C58.7312 180.877 58.4319 184.398 57.2099 184.328Z" fill="white"/>
<path d="M57.2099 184.328C55.9829 184.254 24.2905 171.415 23.4127 170.198C23.0735 169.734 24.49 165.41 27.4029 160.053L47.354 167.988C47.354 167.988 57.0752 178.029 57.8982 179.46C58.7211 180.892 58.4319 184.398 57.2099 184.328Z" fill="#A6A6A6"/>
<path d="M57.2598 182.912C52.1274 180.707 31.2086 172.298 25.9665 170.512C25.9216 170.512 25.9116 170.512 25.9665 170.542C31.0091 172.837 51.9927 181.076 57.2398 183.012C57.3396 183.037 57.3695 182.957 57.2598 182.912Z" fill="#263238"/>
<path d="M56.3619 177.56C55.7928 177.31 55.178 177.181 54.5564 177.181C53.9347 177.181 53.3199 177.31 52.7508 177.56C51.7275 178.008 50.9164 178.833 50.4863 179.864C50.4863 179.894 50.5312 179.919 50.5462 179.889C51.1342 178.933 52.0163 178.193 53.0603 177.78C54.1043 177.367 55.254 177.304 56.337 177.6C56.3454 177.598 56.3526 177.592 56.3572 177.585C56.3618 177.577 56.3635 177.569 56.3619 177.56Z" fill="#263238"/>
<path d="M49.1647 169.31C47.1047 168.447 44.4013 168.218 42.4311 169.4C42.3563 169.445 42.4312 169.55 42.496 169.545C44.6923 169.322 46.906 169.333 49.0998 169.579C49.1336 169.583 49.1675 169.574 49.1953 169.555C49.223 169.535 49.2427 169.506 49.2507 169.473C49.2586 169.44 49.2543 169.406 49.2385 169.376C49.2226 169.345 49.1964 169.322 49.1647 169.31Z" fill="#263238"/>
<path d="M50.5163 170.577C48.4564 169.714 45.753 169.485 43.7828 170.667C43.708 170.712 43.7828 170.817 43.8477 170.812C46.0438 170.586 48.2579 170.598 50.4515 170.846C50.4853 170.85 50.5192 170.841 50.547 170.822C50.5747 170.802 50.5944 170.773 50.6024 170.74C50.6103 170.707 50.606 170.673 50.5901 170.642C50.5743 170.612 50.5481 170.589 50.5163 170.577Z" fill="#263238"/>
<path d="M51.8729 171.844C49.808 170.981 47.1046 170.752 45.1394 171.934C45.0596 171.979 45.1394 172.083 45.1993 172.078C47.3954 171.853 49.6094 171.865 51.8031 172.113C51.8375 172.119 51.8729 172.112 51.9022 172.093C51.9315 172.074 51.9526 172.044 51.9614 172.011C51.9701 171.977 51.9659 171.941 51.9495 171.91C51.9332 171.879 51.9058 171.856 51.8729 171.844Z" fill="#263238"/>
<path d="M53.2246 173.111C51.1597 172.248 48.4613 172.019 46.4911 173.196C46.4113 173.246 46.4911 173.35 46.5509 173.345C48.7471 173.12 50.9611 173.132 53.1548 173.38C53.1892 173.386 53.2246 173.379 53.2539 173.36C53.2832 173.341 53.3043 173.311 53.313 173.278C53.3218 173.244 53.3176 173.208 53.3012 173.177C53.2848 173.146 53.2575 173.123 53.2246 173.111Z" fill="#263238"/>
<path d="M29.2584 166.113C26.9291 165.185 25.4827 168.811 27.8219 169.739C30.1612 170.667 31.6127 167.041 29.2584 166.113Z" fill="#263238"/>
<path d="M53.6287 164.672C52.9254 163.38 51.2644 163.699 50.2519 164.342C48.5463 165.485 47.1704 167.055 46.2617 168.896C46.2577 168.904 46.2556 168.913 46.2555 168.922C46.2554 168.931 46.2574 168.94 46.2612 168.948C46.265 168.956 46.2707 168.964 46.2777 168.969C46.2846 168.975 46.2928 168.979 46.3016 168.981C46.3016 169.146 46.4113 169.34 46.6059 169.3C48.4962 168.866 50.5662 168.642 52.262 167.644C53.2346 167.066 54.292 165.894 53.6287 164.672ZM49.3142 168.058C48.3915 168.293 47.4638 168.482 46.551 168.752C47.306 167.842 48.1067 166.971 48.9501 166.143C49.3653 165.748 49.8069 165.381 50.2719 165.046C50.9951 164.547 53.7284 163.624 53.0301 165.963C52.6461 167.255 50.4165 167.779 49.3142 168.058Z" fill="#263238"/>
<path d="M40.7751 167.599C42.471 168.597 44.5409 168.831 46.4263 169.27C46.6208 169.315 46.7505 169.121 46.7355 168.951C46.7449 168.95 46.7538 168.947 46.7615 168.941C46.7691 168.936 46.7753 168.928 46.7793 168.92C46.7833 168.911 46.785 168.902 46.7844 168.893C46.7837 168.883 46.7806 168.874 46.7754 168.866C45.8682 167.022 44.4921 165.448 42.7852 164.303C41.7876 163.654 40.1167 163.33 39.4085 164.617C38.7002 165.904 39.7825 167.016 40.7751 167.599ZM39.997 165.914C39.3037 163.574 42.032 164.502 42.7553 165.006C43.2197 165.342 43.6597 165.71 44.072 166.108C44.9138 166.938 45.7129 167.811 46.4662 168.722C45.5534 168.452 44.6257 168.258 43.7029 168.023C42.5857 167.724 40.3761 167.225 39.997 165.914Z" fill="#263238"/>
<path d="M50.5063 163.564L27.3181 154.202C27.3181 154.202 56.0677 111.931 56.2772 108.783C56.4667 106 43.8376 81.7497 43.3439 74.682C42.8052 67.0507 46.4762 61.1501 50.5163 57.4841L74.4327 67.6542C74.4327 67.6542 71.9089 71.6893 67.9486 73.9388C67.9486 73.9388 80.2135 101.97 79.5152 110.589C78.8169 119.208 50.5063 163.564 50.5063 163.564Z" fill="#37474F"/>
<path d="M51.5338 159.155C48.182 157.714 49.1646 158.078 45.7928 156.661C44.1469 155.973 33.3234 151.469 31.6575 151.095C31.6226 151.095 31.5976 151.145 31.6325 151.165C33.074 152.048 43.9873 156.362 45.6482 157.02C49.0449 158.357 48.0822 157.938 51.4939 159.235C51.499 159.242 51.5057 159.247 51.5135 159.251C51.5213 159.254 51.5298 159.255 51.5383 159.255C51.5467 159.254 51.5549 159.251 51.5619 159.246C51.5689 159.241 51.5746 159.235 51.5784 159.227C51.5822 159.22 51.584 159.211 51.5836 159.203C51.5832 159.194 51.5807 159.186 51.5762 159.179C51.5717 159.172 51.5655 159.166 51.5581 159.161C51.5506 159.157 51.5423 159.155 51.5338 159.155Z" fill="#263238"/>
<path d="M71.869 73.425C69.379 74.0055 66.9429 74.7964 64.5868 75.7893C64.5773 75.7925 64.5686 75.7976 64.5611 75.8043C64.5535 75.811 64.5474 75.819 64.543 75.8281C64.5386 75.8371 64.536 75.8469 64.5354 75.8569C64.5348 75.867 64.5362 75.877 64.5395 75.8865C64.5427 75.896 64.5478 75.9048 64.5545 75.9123C64.5612 75.9198 64.5692 75.926 64.5783 75.9304C64.5873 75.9348 64.5971 75.9373 64.6072 75.9379C64.6172 75.9386 64.6272 75.9372 64.6367 75.9339C67.0807 75.2206 69.5647 74.5523 71.9688 73.7093C72.1533 73.6445 72.0585 73.3851 71.869 73.425Z" fill="#263238"/>
<path d="M69.021 72.4575C68.7886 72.8709 68.5836 73.2991 68.4075 73.7394C68.2353 74.0735 68.1287 74.4375 68.0933 74.8118C68.0933 74.8866 68.193 74.9015 68.2379 74.8566C68.4881 74.5573 68.6901 74.2207 68.8364 73.8591C69.0409 73.465 69.2504 73.076 69.445 72.672C69.5796 72.3777 69.1756 72.1882 69.021 72.4575Z" fill="#263238"/>
<path d="M69.3202 70.193C69.4699 69.8239 69.6145 69.4598 69.7691 69.0907C69.9237 68.7216 70.1183 68.3426 70.2679 67.9535C70.2679 67.8937 70.3876 67.9535 70.3627 67.9984C70.213 68.3675 70.1183 68.7566 70.0035 69.1356C69.8888 69.5147 69.7591 69.8938 69.6344 70.2728C69.4 70.9761 69.1357 71.6744 68.8115 72.3577C69.2039 72.3773 69.5958 72.3092 69.9587 72.1582C70.3292 71.9211 70.6141 71.5715 70.7717 71.1607C70.9811 70.7517 71.1757 70.3327 71.3901 69.9237C71.6541 69.4815 71.8762 69.0156 72.0535 68.5321C72.0535 68.4723 72.1732 68.5321 72.1483 68.577C71.8231 69.5993 71.397 70.5868 70.8764 71.5248C70.652 71.8889 70.4774 72.2729 70.0684 72.4126C69.6257 72.5364 69.1623 72.5687 68.7067 72.5074C68.6469 72.5074 68.577 72.5074 68.597 72.4176C68.8012 71.6646 69.0426 70.9222 69.3202 70.193Z" fill="#263238"/>
<path d="M68.3027 74.8517C69.1556 76.6523 69.9038 78.4479 70.6968 80.2435C71.4899 82.0391 72.1932 83.7748 72.9064 85.5604C74.3329 89.1616 75.6098 92.8326 76.7321 96.5336C77.2857 98.3691 77.7994 100.22 78.2583 102.085C78.7637 103.944 79.1338 105.838 79.3656 107.751C79.5657 109.661 79.3964 111.591 78.8668 113.437C78.3168 115.262 77.6109 117.036 76.757 118.739C76.2333 119.817 76.0587 119.672 76.3081 119.128C77.0214 117.582 78.8918 112.898 78.7571 108.963C78.648 107.079 78.3574 105.21 77.8892 103.382C77.4536 101.496 76.9632 99.626 76.4178 97.7705C75.3554 94.1095 74.0935 90.5233 72.7967 86.9421C72.0685 84.9469 71.3004 82.9518 70.5522 80.9567C69.804 78.9616 69.0559 77.1261 68.2179 74.9215C68.193 74.8317 68.2778 74.7968 68.3027 74.8517Z" fill="#263238"/>
<path d="M50.7008 68.9012C51.1148 68.7466 51.6983 69.001 52.1173 69.0708C52.6599 69.1629 53.2082 69.2179 53.7583 69.2354C54.3026 69.2546 54.8475 69.2363 55.3893 69.1805C55.9349 69.1665 56.4696 69.0247 56.9505 68.7666C57.7395 68.1918 58.4158 67.4766 58.9456 66.6567C59.5769 65.819 60.0982 64.9037 60.4968 63.9334C60.4968 63.8735 60.6015 63.9334 60.5816 63.9733C60.407 64.5269 60.2773 65.0856 60.0828 65.6292C59.8678 66.14 59.6109 66.6322 59.3147 67.1006C58.8345 68.0433 58.1243 68.8496 57.2497 69.4449C56.2871 69.9936 55.0501 69.9437 53.9778 69.8988C53.3558 69.8625 52.7373 69.7808 52.1273 69.6544C51.6884 69.5596 50.9502 69.4898 50.6709 69.1057C50.6577 69.091 50.648 69.0736 50.6423 69.0548C50.6366 69.0359 50.6352 69.016 50.638 68.9965C50.6409 68.977 50.648 68.9583 50.6588 68.9419C50.6697 68.9254 50.684 68.9115 50.7008 68.9012Z" fill="#263238"/>
<path d="M33.937 149.768C37.7476 143.996 41.4885 138.176 45.1595 132.311C48.8305 126.445 52.4516 120.535 56.0228 114.579C56.8758 113.158 57.8583 111.741 58.407 110.165C59.0055 108.454 58.6664 106.793 58.1277 105.117C57.1105 102.06 55.9215 99.0627 54.5664 96.1395C53.2297 93.1917 51.7882 90.2938 50.3717 87.3859C48.9552 84.478 47.4738 81.6051 46.3815 78.5725C45.3839 75.6746 44.9799 72.672 45.758 69.6693C46.5361 66.6667 48.212 64.0132 49.9627 61.5143C50.4216 60.8559 50.8954 60.2025 51.3593 59.5192C51.3942 59.4693 51.469 59.5192 51.4341 59.579C49.5038 62.1827 47.6234 64.9409 46.4912 67.9984C45.9125 69.5055 45.5889 71.0985 45.5335 72.7119C45.5241 74.3496 45.7784 75.9782 46.2867 77.5351C47.2244 80.5676 48.7058 83.4356 50.0874 86.2886C51.469 89.1416 52.9454 92.0944 54.307 95.0322C55.7118 97.9889 56.9605 101.017 58.0479 104.105C58.5117 105.477 59.0454 106.913 59.0055 108.384C58.9706 109.996 58.2025 111.447 57.4045 112.804C53.913 118.714 50.3368 124.555 46.6957 130.361C43.0546 136.166 39.3088 141.972 35.5181 147.718L34.0816 149.888C34.0068 149.978 33.8771 149.873 33.937 149.768Z" fill="#263238"/>
<path d="M75.7595 40.7702C77.9192 45.5086 88.8274 52.0376 93.9349 52.7409C97.6059 53.2396 108.769 53.4192 112.594 52.8356C117.083 52.1473 113.652 40.0519 111.003 40.3662C103.721 41.2141 97.5361 42.1618 95.5909 42.1618C93.2167 42.1618 80.3732 38.0419 78.8269 37.4583C75.0362 36.0468 74.5374 38.0818 75.7595 40.7702Z" fill="#F0AEA9"/>
<path d="M75.8293 42.0321C78.5626 46.0772 87.6453 52.691 87.6453 52.691L88.9073 49.8978L93.082 40.6604C93.082 40.6604 84.7375 38.0419 79.2459 36.8448C78.5997 36.6977 77.9424 36.6043 77.2807 36.5655C73.7743 36.3759 73.4701 38.5406 75.8293 42.0321Z" fill="#0060A8"/>
<path d="M75.8293 42.0321C78.5626 46.0772 87.6453 52.691 87.6453 52.691L88.9073 49.8978C85.5205 45.9625 80.2884 40.0021 77.2807 36.5755C73.7743 36.3759 73.4701 38.5406 75.8293 42.0321Z" fill="#263238"/>
<path d="M86.0093 50.8155C86.7026 49.1147 89.7851 42.2665 90.5532 40.84C90.6031 40.7402 90.6829 40.7502 90.638 40.84C89.3009 44.2456 87.779 47.5757 86.0792 50.8155C86.0592 50.8754 85.9794 50.8554 86.0093 50.8155Z" fill="#263238"/>
<path d="M109.666 40.4909C114.096 39.9123 119.577 38.9197 124.221 40.8899C124.742 41.0945 125.18 41.4687 125.463 41.9523C127.558 42.8002 127.787 44.0422 127.787 44.0422C129.498 45.4288 129.558 46.7356 129.558 46.7356C129.558 46.7356 132.012 47.7331 131.638 49.3392C131.229 51.1148 127.867 49.3392 125.423 49.4838C119.812 49.833 111.956 51.8929 110.335 52.1523L109.666 40.4909Z" fill="#F0AEA9"/>
<path d="M119.288 45.7181C120.928 45.6059 122.575 45.6059 124.216 45.7181C126.002 45.9422 127.77 46.3007 129.503 46.7904C129.514 46.7944 129.526 46.7937 129.537 46.7886C129.548 46.7835 129.556 46.7742 129.56 46.763C129.564 46.7518 129.563 46.7394 129.558 46.7286C129.553 46.7179 129.544 46.7096 129.533 46.7056C126.277 45.4283 122.733 45.0695 119.288 45.6682C119.208 45.6582 119.208 45.7231 119.288 45.7181Z" fill="#263238"/>
<path d="M118.245 40.5357C120.984 40.6754 122.694 41.1143 125.448 41.9423V41.9123C122.415 40.6455 121.173 40.5257 118.23 40.416C118.136 40.4559 118.141 40.5357 118.245 40.5357Z" fill="#263238"/>
<path d="M118.689 50.3317C117.976 50.6658 118.151 51.0399 119.512 51.3542C120.874 51.6684 126.535 51.7632 126.336 53.7383C126.136 55.7135 118.151 55.4641 115.921 54.7658C113.691 54.0675 110.335 52.1522 110.335 52.1522C111.916 51.8878 115.627 50.8853 118.689 50.3317Z" fill="#F0AEA9"/>
<path d="M81.6899 48.3216C81.655 49.1745 81.5751 50.0424 81.4554 50.9052C81.4554 50.8703 81.4554 50.8404 81.4904 50.8105C81.655 50.3616 81.8196 49.9027 82.0191 49.4688C82.0191 49.4688 82.0689 49.4688 82.064 49.4688C81.9681 49.9442 81.8244 50.4088 81.635 50.8554C81.5452 51.0698 81.4604 51.2793 81.3657 51.4888C81.3058 51.8729 81.236 52.2519 81.1612 52.631C81.0115 53.3443 80.3382 56.3768 80.1636 56.8906C80.1337 56.9953 80.004 56.9704 80.014 56.8507C80.0489 56.292 80.6125 53.1348 80.7272 52.4165C80.9501 51.0297 81.2481 49.6561 81.62 48.3016C81.645 48.2767 81.6949 48.2966 81.6899 48.3216Z" fill="#263238"/>
<path d="M76.5026 71.001C75.1709 71.6844 73.4551 72.7468 65.7241 71.2255C65.2253 71.1257 64.7564 71.006 64.2676 70.8614C57.0204 68.6867 48.3067 60.1626 47.8329 59.5591C47.8329 59.5591 59.3497 40.8898 74.0786 35.0192C75.8991 34.296 78.9117 35.6926 80.5627 37.4333C81.1562 38.0568 82.4481 42.6405 81.9543 46.3514C81.4605 50.0623 77.8294 70.3177 76.5026 71.001Z" fill="#0060A8"/>
<path d="M75.4652 46.1819C75.5208 46.9708 75.4103 47.7626 75.141 48.5062C75.0777 47.717 75.1884 46.9236 75.4652 46.1819Z" fill="white"/>
<path d="M70.4425 58.8958C70.4742 59.2884 70.4608 59.6833 70.4026 60.0729C70.3546 60.4654 70.2591 60.8506 70.1183 61.2201C70.0839 60.8259 70.0973 60.4289 70.1582 60.038C70.2092 59.6476 70.3046 59.2644 70.4425 58.8958Z" fill="white"/>
<path d="M61.9084 49.2842C61.9646 50.0747 61.8541 50.8683 61.5842 51.6135C61.5215 50.8227 61.6322 50.0278 61.9084 49.2842Z" fill="white"/>
<path d="M78.7521 58.2473C78.7839 58.6416 78.7705 59.0382 78.7121 59.4294C78.6641 59.8219 78.5687 60.2071 78.4279 60.5766C78.3935 60.1824 78.4069 59.7855 78.4678 59.3945C78.5182 59.0025 78.6136 58.6175 78.7521 58.2473Z" fill="white"/>
<path d="M67.7939 47.6383C68.1864 47.6049 68.5813 47.6166 68.9711 47.6732C69.3637 47.723 69.7489 47.8201 70.1183 47.9625C69.3293 48.0192 68.5373 47.9087 67.7939 47.6383Z" fill="white"/>
<path d="M58.1077 56.8208C58.8966 56.7651 59.6884 56.8756 60.432 57.145C59.6428 57.2082 58.8494 57.0975 58.1077 56.8208Z" fill="white"/>
<path d="M69.5198 66.7615C70.3087 66.7048 71.1008 66.8153 71.8441 67.0857C71.055 67.148 70.2617 67.0374 69.5198 66.7615Z" fill="white"/>
<path d="M55.12 63.1502C55.9089 63.0946 56.7007 63.2051 57.4443 63.4744C56.6552 63.5367 55.862 63.4261 55.12 63.1502Z" fill="white"/>
<path d="M75.3904 37.2437C76.1793 37.1881 76.9711 37.2986 77.7147 37.568C76.9258 37.6236 76.134 37.5131 75.3904 37.2437Z" fill="white"/>
<path d="M72.5723 40.426C72.3201 40.7291 72.032 41.0004 71.7144 41.234C71.4053 41.473 71.0707 41.6771 70.7168 41.8425C70.9673 41.5413 71.2518 41.2702 71.5647 41.0345C71.8767 40.7946 72.2147 40.5904 72.5723 40.426Z" fill="white"/>
<path d="M57.2148 49.4689C56.9596 49.7694 56.67 50.0389 56.3519 50.2719C56.046 50.5154 55.7109 50.7198 55.3544 50.8804C55.611 50.5812 55.9004 50.3118 56.2173 50.0774C56.5239 49.8349 56.8589 49.6306 57.2148 49.4689Z" fill="white"/>
<path d="M76.3929 53.5488C76.1378 53.8509 75.8482 54.1221 75.53 54.3569C75.2234 54.5993 74.8884 54.8037 74.5325 54.9654C74.7876 54.6633 75.0772 54.3921 75.3954 54.1573C75.7037 53.9173 76.0384 53.7131 76.3929 53.5488Z" fill="white"/>
<path d="M63.9734 61.3696C63.7182 61.6717 63.4286 61.9429 63.1105 62.1776C62.8033 62.4194 62.4684 62.6237 62.1129 62.7862C62.3681 62.4841 62.6577 62.2129 62.9758 61.9781C63.2841 61.7381 63.6188 61.5339 63.9734 61.3696Z" fill="white"/>
<path d="M81.1512 42.865C80.8961 43.167 80.6065 43.4382 80.2883 43.673C79.9793 43.912 79.6447 44.1161 79.2908 44.2815C79.5459 43.9795 79.8355 43.7083 80.1537 43.4735C80.4608 43.2317 80.7957 43.0275 81.1512 42.865Z" fill="white"/>
<path d="M80.8919 51.9278C80.5898 51.6727 80.3186 51.3831 80.0838 51.0649C79.8411 50.7585 79.6367 50.4235 79.4753 50.0674C79.7785 50.3195 80.0498 50.6076 80.2834 50.9253C80.5217 51.2366 80.7257 51.5727 80.8919 51.9278Z" fill="white"/>
<path d="M53.2097 58.1726C52.9077 57.9174 52.6365 57.6278 52.4017 57.3097C52.1617 57.0013 51.9575 56.6667 51.7932 56.3121C52.0953 56.5673 52.3664 56.8569 52.6012 57.175C52.843 57.4822 53.0473 57.8171 53.2097 58.1726Z" fill="white"/>
<path d="M77.5252 65.5994C77.222 65.3472 76.9507 65.0591 76.7171 64.7415C76.4781 64.4324 76.2741 64.0978 76.1086 63.7439C76.4107 63.9991 76.6819 64.2886 76.9167 64.6068C77.1574 64.9129 77.3616 65.246 77.5252 65.5994Z" fill="white"/>
<path d="M65.34 44.4261C65.038 44.1727 64.7669 43.8848 64.532 43.5682C64.294 43.2585 64.09 42.924 63.9235 42.5707C64.2266 42.8228 64.4979 43.1109 64.7315 43.4286C64.9695 43.7383 65.1735 44.0728 65.34 44.4261Z" fill="white"/>
<path d="M65.5545 69.8289C65.2524 69.5738 64.9812 69.2842 64.7464 68.9661C64.5072 68.6572 64.3031 68.3226 64.1379 67.9685C64.4411 68.2207 64.7124 68.5087 64.946 68.8264C65.186 69.1366 65.3901 69.4729 65.5545 69.8289Z" fill="white"/>
<path d="M67.6243 54.8457C67.3251 54.5891 67.0557 54.2996 66.8213 53.9828C66.5778 53.6769 66.3734 53.3417 66.2128 52.9852C66.5133 53.2405 66.7828 53.5301 67.0158 53.8481C67.2583 54.1548 67.4626 54.4897 67.6243 54.8457Z" fill="white"/>
<path d="M77.8643 42.4061C75.9839 42.057 74.2182 38.1715 73.9938 35.5579C73.9938 35.3783 74.8716 33.9568 75.8742 32.1762C76.4827 31.0938 77.1261 29.8718 77.6398 28.7147C77.7446 28.4802 78.3581 29.2733 78.3581 29.2733L79.6948 30.2708L84.109 33.6575C83.0578 34.9189 82.165 36.3042 81.4505 37.7824C81.3799 37.9426 81.3264 38.1098 81.2909 38.2812C81.2889 38.3095 81.2889 38.3378 81.2909 38.366C81.0166 39.3536 79.6749 42.7403 77.8643 42.4061Z" fill="#F0AEA9"/>
<path d="M81.2908 38.3062C81.2889 38.3344 81.2889 38.3627 81.2908 38.391C81.0288 38.3141 80.7735 38.2157 80.5277 38.0967C75.6945 35.8322 77.8243 29.3581 77.8243 29.3581L79.7197 30.2958L84.1339 33.6825C83.0827 34.9438 82.1899 36.3291 81.4754 37.8074C81.3963 37.9666 81.3344 38.1338 81.2908 38.3062Z" fill="#263238"/>
<path d="M89.1815 19.8763C89.1815 19.8763 91.3911 21.2779 91.4011 23.7718C91.4111 26.2657 90.4035 28.7047 90.194 28.7945C89.9846 28.8843 89.1815 19.8763 89.1815 19.8763Z" fill="#263238"/>
<path d="M78.2184 21.1731C76.8916 23.7917 76.9615 32.0465 78.6174 34.1713C81.0215 37.2537 85.6502 38.3161 88.4483 35.2686C91.1567 32.3158 90.8774 21.5622 88.9471 19.5571C86.139 16.5943 80.1836 17.2976 78.2184 21.1731Z" fill="#F0AEA9"/>
<path d="M85.2612 27.7819C85.2612 27.7819 85.2163 27.8118 85.2213 27.8318C85.2512 28.3954 85.1914 29.0438 84.6876 29.2433C84.6876 29.2433 84.6876 29.2783 84.6876 29.2733C85.3111 29.1735 85.3809 28.3106 85.2612 27.7819Z" fill="#263238"/>
<path d="M84.7475 27.2083C83.8397 27.1585 83.8098 28.974 84.6527 29.0189C85.4956 29.0638 85.5056 27.2482 84.7475 27.2083Z" fill="#263238"/>
<path d="M88.3387 27.762C88.3387 27.762 88.3836 27.762 88.3836 27.8119C88.3536 28.3755 88.4185 29.0239 88.9272 29.2185C88.9272 29.2185 88.9272 29.2534 88.9272 29.2484C88.2988 29.1536 88.2239 28.2907 88.3387 27.762Z" fill="#263238"/>
<path d="M88.8523 27.1834C89.7551 27.1285 89.8 28.9441 88.962 28.994C88.1241 29.0438 88.0942 27.2283 88.8523 27.1834Z" fill="#263238"/>
<path d="M84.1788 25.8267C84.4171 25.7589 84.6518 25.679 84.8821 25.5873C85.144 25.5399 85.3827 25.4065 85.5604 25.2082C85.6035 25.1356 85.6215 25.0509 85.6116 24.967C85.6017 24.8832 85.5644 24.8049 85.5055 24.7444C85.3706 24.6418 85.2106 24.577 85.0423 24.5569C84.8739 24.5367 84.7033 24.5618 84.5479 24.6297C84.2113 24.7198 83.9199 24.9312 83.7299 25.2232C83.6919 25.2927 83.6747 25.3716 83.6802 25.4505C83.6857 25.5295 83.7138 25.6052 83.761 25.6688C83.8083 25.7323 83.8727 25.7809 83.9468 25.8089C84.0208 25.8369 84.1013 25.8431 84.1788 25.8267Z" fill="#263238"/>
<path d="M89.4708 26.6298C89.2282 26.5755 88.9884 26.5089 88.7526 26.4302C88.4897 26.3955 88.2459 26.2744 88.0593 26.0861C88.0112 26.0167 87.988 25.9332 87.9935 25.8489C87.9989 25.7647 88.0326 25.6848 88.0892 25.6222C88.2178 25.5122 88.3737 25.4389 88.5405 25.41C88.7072 25.381 88.8787 25.3975 89.0369 25.4576C89.3781 25.5283 89.6805 25.724 89.8848 26.0063C89.9275 26.0731 89.9499 26.1509 89.9493 26.2302C89.9486 26.3095 89.9249 26.3869 89.881 26.4529C89.8371 26.519 89.775 26.5709 89.7022 26.6023C89.6294 26.6337 89.549 26.6432 89.4708 26.6298Z" fill="#263238"/>
<path d="M83.9843 33.1139C84.1189 33.2486 84.2486 33.4281 84.4531 33.4481C84.6628 33.448 84.8701 33.4038 85.0616 33.3184C85.0616 33.3184 85.0965 33.3184 85.0616 33.3483C84.9799 33.458 84.8698 33.5433 84.7433 33.5951C84.6168 33.647 84.4785 33.6634 84.3434 33.6426C84.2294 33.6115 84.1271 33.5477 84.0491 33.459C83.9711 33.3704 83.9208 33.2608 83.9044 33.1438C83.9005 33.1332 83.9009 33.1215 83.9056 33.1112C83.9102 33.1009 83.9188 33.0929 83.9294 33.089C83.94 33.085 83.9517 33.0854 83.962 33.0901C83.9723 33.0947 83.9803 33.1033 83.9843 33.1139Z" fill="#263238"/>
<path d="M87.2463 30.7098C87.2463 30.7098 87.2712 31.5477 87.2463 31.9418C86.4799 31.8605 85.7059 31.8873 84.9469 32.0216C84.7674 32.0615 84.7873 31.9168 84.9918 31.8221C85.6032 31.5427 86.284 31.4523 86.947 31.5627C86.9869 31.458 86.8822 30.2659 86.947 30.2709C87.2488 30.3301 87.5408 30.4308 87.8149 30.5701C87.8149 28.8144 87.5356 27.0787 87.5605 25.323C87.5605 25.2631 87.6553 25.2532 87.6653 25.323C88.0197 27.1803 88.1868 29.0685 88.1641 30.9592C88.1691 31.1737 87.3959 30.7896 87.2463 30.7098Z" fill="#263238"/>
<path d="M86.124 31.6425C85.9252 32.1655 85.5563 32.6065 85.0766 32.8945C84.3234 33.1987 84.079 32.5154 84.8372 31.8969C85.2347 31.696 85.6799 31.608 86.124 31.6425Z" fill="#263238"/>
<path d="M85.341 32.7398C85.2613 32.8046 85.1722 32.8568 85.0766 32.8944C84.3833 33.1737 84.109 32.6201 84.6676 32.0615C85.0467 32.0914 85.4806 32.231 85.341 32.7398Z" fill="#FF99BA"/>
<path d="M77.8394 28.2308C78.7521 28.5102 79.7996 25.7669 80.0988 24.7394C80.3582 23.8117 80.6575 20.8639 80.7024 20.6594C80.7472 20.4549 84.6926 23.268 86.977 22.5996C89.2614 21.9313 90.8126 19.8613 90.8475 18.8987C90.8824 17.9361 88.0244 15.492 85.5555 15.3674C83.0865 15.2427 79.7397 18.36 79.7397 18.36C80.144 17.9012 80.5109 17.4109 80.837 16.8936C80.7971 16.7839 79.201 17.4223 78.9068 18.5595C78.9068 18.5595 79.226 17.128 79.1063 17.1031C78.9866 17.0782 77.7446 18.3002 78.0239 19.2279C78.0239 19.2279 76.5874 20.4699 76.4578 21.8315C76.3281 23.1932 76.767 27.9016 77.8394 28.2308Z" fill="#263238"/>
<path d="M88.613 22.0809C87.9336 22.4493 87.2019 22.7117 86.4433 22.859C85.5918 22.935 84.7347 22.7979 83.9494 22.46C83.1583 22.1544 82.4234 21.7195 81.7747 21.1732C81.2011 20.7043 80.6874 20.1307 80.0739 19.7117C79.9193 19.602 79.7447 19.8265 79.8395 19.9661C80.863 21.4119 82.3252 22.4893 84.0093 23.0386C84.7914 23.2936 85.6264 23.3413 86.4324 23.1769C87.2385 23.0125 87.9881 22.6418 88.608 22.1009C88.608 22.1009 88.623 22.0809 88.613 22.0809Z" fill="#263238"/>
<path d="M78.7921 27.9864C78.7921 27.9864 77.3755 25.1135 76.0987 25.5774C74.8218 26.0412 75.5999 30.0165 76.9117 30.7447C77.0724 30.8487 77.2524 30.9191 77.441 30.9518C77.6295 30.9845 77.8227 30.9788 78.009 30.935C78.1954 30.8912 78.3709 30.8103 78.5252 30.697C78.6794 30.5837 78.8092 30.4405 78.9068 30.2758L78.7921 27.9864Z" fill="#F0AEA9"/>
<path d="M76.353 26.7096C76.353 26.7096 76.3231 26.7096 76.353 26.7495C77.2608 27.2882 77.6299 28.2458 77.8494 29.2434C77.808 29.1378 77.7443 29.0424 77.6625 28.9639C77.5807 28.8853 77.4828 28.8255 77.3756 28.7885C77.2684 28.7515 77.1544 28.7382 77.0416 28.7496C76.9288 28.761 76.8198 28.7967 76.7221 28.8543C76.6922 28.8543 76.7221 28.9092 76.7221 28.9092C76.9006 28.8815 77.0832 28.9097 77.2449 28.9901C77.4066 29.0705 77.5393 29.1991 77.6249 29.3581C77.7677 29.6245 77.8814 29.9054 77.9641 30.1961C77.994 30.2908 78.1586 30.2659 78.1436 30.1611C78.3581 28.9192 77.6598 27.0388 76.353 26.7096Z" fill="#263238"/>
<path d="M69.4399 40.815C68.4423 46.4662 74.5673 65.5045 78.4927 69.0608C84.3334 74.3479 95.132 77.8244 99.0474 78.9566C100.753 79.4554 105.472 67.4498 103.746 66.6567C100.05 64.9758 88.568 61.3846 87.4757 60.4868C86.3834 59.589 79.7995 50.0773 76.8667 44.6008C72.9413 37.2288 69.9337 37.957 69.4399 40.815Z" fill="#F0AEA9"/>
<path d="M100.838 65.5992C100.838 65.5992 105.936 66.9011 109.222 67.9036C111.058 68.4672 114.12 69.7092 115.283 70.7367C117.018 72.2779 123.293 79.8194 121.497 81.3806C119.871 82.7971 115.303 75.6297 115.303 75.6297C115.303 75.6297 120.55 82.4529 118.295 83.7947C116.041 85.1364 111.916 76.3529 111.916 76.3529C111.916 76.3529 117.148 83.4854 114.589 84.4979C112.654 85.2611 108.504 77.515 108.504 77.515C108.504 77.515 112.963 83.675 110.998 84.5478C108.833 85.5155 104.559 78.6024 104.559 78.6024C99.212 79.984 96.0797 78.4528 94.0197 77.1061C93.5359 76.7769 100.838 65.5992 100.838 65.5992Z" fill="#F0AEA9"/>
<path d="M113.637 73.1508C114.285 73.9289 114.943 74.717 115.517 75.55C116.091 76.3829 116.634 77.2408 117.128 78.1237C117.797 79.2656 118.333 80.4806 118.724 81.7448C117.866 79.5502 115.856 76.5326 115.283 75.6996C114.709 74.8666 114.175 74.0037 113.607 73.1708C113.592 73.1508 113.622 73.1309 113.637 73.1508Z" fill="#263238"/>
<path d="M110.589 75.1709C111.696 76.0487 114.016 79.3107 114.909 81.5004C114.948 81.5901 114.909 81.5852 114.844 81.5004C114.145 80.418 111.312 76.2283 110.564 75.1858C110.549 75.1709 110.574 75.1559 110.589 75.1709Z" fill="#263238"/>
<path d="M107.661 76.4477C109.037 77.8908 110.124 79.5838 110.863 81.4355C110.898 81.5252 110.828 81.5103 110.774 81.4355C109.741 79.7546 108.943 78.4428 107.606 76.4926C107.586 76.4477 107.631 76.4028 107.661 76.4477Z" fill="#263238"/>
<path d="M75.0063 41.229C70.4525 34.7898 67.7291 37.1739 68.6419 44.1668C69.4998 50.7058 71.7892 58.4967 71.7892 58.4967L83.2611 52.9303C83.2611 52.9303 77.9042 45.3539 75.0063 41.229Z" fill="#0060A8"/>
<path d="M77.7745 43.7628C77.9257 44.1265 78.0345 44.5064 78.0987 44.895C78.1687 45.2849 78.1938 45.6815 78.1735 46.0771C78.0239 45.7116 77.9168 45.33 77.8543 44.9399C77.7801 44.5522 77.7533 44.157 77.7745 43.7628Z" fill="white"/>
<path d="M70.9762 47.6782C71.7083 47.3804 72.496 47.2443 73.2855 47.2791C72.9217 47.4287 72.5417 47.5358 72.1533 47.5984C71.7656 47.6724 71.3704 47.6992 70.9762 47.6782Z" fill="white"/>
<path d="M71.2704 37.6627C70.9615 38.3917 70.5007 39.0463 69.9187 39.583C70.2276 38.8541 70.6884 38.1994 71.2704 37.6627Z" fill="white"/>
<path d="M80.9916 50.6859C80.8402 51.0507 80.6477 51.3971 80.418 51.7184C80.1943 52.0438 79.9331 52.3417 79.6399 52.6062C79.9488 51.8773 80.4096 51.2226 80.9916 50.6859Z" fill="white"/>
<path d="M73.0111 54.5913C72.6455 54.4417 72.2989 54.2491 71.9786 54.0177C71.6531 53.7942 71.3551 53.533 71.0908 53.2396C71.8198 53.5485 72.4744 54.0093 73.0111 54.5913Z" fill="white"/>
<path d="M76.5026 43.1693C77.1161 44.0122 77.7495 44.8352 78.378 45.6632C78.2184 45.2442 78.0787 44.8203 77.959 44.3913H77.9889C78.1136 44.7205 78.2583 45.0447 78.378 45.3889L78.5575 45.8877C78.573 45.9217 78.5863 45.9567 78.5974 45.9924C79.0962 46.6358 79.595 47.2792 80.0539 47.9376C80.6175 48.7257 81.1612 49.5237 81.7098 50.3218C82.2585 51.1198 82.8121 52.1124 83.4057 52.9154C83.4605 52.9853 82.4081 53.4142 82.2934 53.4691C82.1787 53.5239 82.1188 53.4292 82.2285 53.3943C82.3383 53.3593 83.1762 52.8456 83.1862 52.8356C82.6375 52.0276 82.0041 51.2844 81.4305 50.5013C80.8569 49.7183 80.2883 48.9352 79.7346 48.1421C78.6124 46.5261 77.5849 44.8502 76.4677 43.2292L76.5026 43.1693Z" fill="#263238"/>
<path d="M68.9112 48.7954C69.0858 49.1346 69.2753 49.4688 69.41 49.8179L69.5995 50.2518C69.3352 49.0099 69.1007 47.7579 68.8264 46.516C69.3551 48.5111 69.8888 50.5511 70.3776 52.5761C70.8415 54.5114 71.4051 56.4666 71.6744 58.4418C72.0223 58.2892 72.3827 58.1674 72.7518 58.0777C72.3814 58.3174 71.9827 58.5101 71.5647 58.6513C70.9635 56.6427 70.464 54.6051 70.0684 52.5462C69.9437 51.9876 69.829 51.429 69.7093 50.8703C69.5796 50.5312 69.4249 50.2069 69.2703 49.8728C69.1157 49.5386 68.9761 49.1645 68.8364 48.8104C68.8663 48.7904 68.9012 48.7705 68.9112 48.7954Z" fill="#263238"/>
<path d="M71.9588 56.5715C73.5549 55.6737 80.2235 52.2221 81.7149 51.5837C81.8196 51.5388 81.8745 51.5837 81.7698 51.6535C78.6043 53.4929 75.3408 55.1579 71.9937 56.6413C71.9538 56.6513 71.9139 56.5964 71.9588 56.5715Z" fill="#263238"/>
<path d="M254.726 187.7H102.758L124.729 63.0803H276.697L254.726 187.7Z" fill="#0060A8"/>
<path d="M176.742 50.172H127.009L124.729 63.0804H177.954L176.742 50.172Z" fill="#0060A8"/>
<g opacity="0.1">
<path d="M254.726 187.7H102.758L124.729 63.0803H276.697L254.726 187.7Z" fill="black"/>
<path d="M176.742 50.172H127.009L124.729 63.0804H177.954L176.742 50.172Z" fill="black"/>
</g>
<path d="M121.642 55.4391C121.309 54.0118 121.309 52.5271 121.642 51.0997C121.974 52.5271 121.974 54.0118 121.642 55.4391Z" fill="#263238"/>
<path d="M117.223 56.7159C116.715 56.1893 116.277 55.5991 115.921 54.9602C115.547 54.3346 115.254 53.6642 115.048 52.9651C115.557 53.4886 115.995 54.0773 116.35 54.7158C116.723 55.3436 117.016 56.0155 117.223 56.7159Z" fill="#263238"/>
<path d="M114.031 60.0328C112.629 59.6067 111.344 58.8644 110.275 57.8632C110.974 58.0664 111.644 58.358 112.27 58.731C112.909 59.0897 113.5 59.527 114.031 60.0328Z" fill="#263238"/>
<path d="M112.913 64.5019C111.486 64.8344 110.001 64.8344 108.574 64.5019C110.001 64.1693 111.486 64.1693 112.913 64.5019Z" fill="#263238"/>
<path d="M114.21 68.9211C113.681 69.4264 113.092 69.8637 112.454 70.223C111.829 70.5959 111.159 70.8876 110.459 71.0908C110.986 70.583 111.576 70.1454 112.215 69.789C112.84 69.4142 113.51 69.1225 114.21 68.9211Z" fill="#263238"/>
<path d="M117.522 72.1082C117.097 73.5118 116.355 74.7987 115.352 75.8689C115.555 75.1688 115.849 74.4981 116.225 73.8738C116.581 73.2326 117.016 72.6393 117.522 72.1082Z" fill="#263238"/>
<path d="M121.991 73.2106C122.165 73.9205 122.249 74.6494 122.24 75.3803C122.251 76.1112 122.167 76.8405 121.991 77.5499C121.812 76.8409 121.728 76.1113 121.742 75.3803C121.733 74.6494 121.817 73.9205 121.991 73.2106Z" fill="#263238"/>
<path d="M126.41 71.9586C126.918 72.4852 127.356 73.0753 127.712 73.7143C128.087 74.3388 128.379 75.0095 128.58 75.7094C127.577 74.6392 126.835 73.3523 126.41 71.9486V71.9586Z" fill="#263238"/>
<path d="M129.597 68.6168C130.297 68.8182 130.968 69.1099 131.593 69.4847C132.231 69.8411 132.822 70.2786 133.348 70.7865C132.648 70.5851 131.978 70.2934 131.353 69.9186C130.714 69.5623 130.124 69.1247 129.597 68.6168Z" fill="#263238"/>
<path d="M130.7 64.1478C132.129 63.8153 133.615 63.8153 135.044 64.1478C133.615 64.4802 132.129 64.4802 130.7 64.1478Z" fill="#263238"/>
<path d="M129.423 59.7285C129.951 59.2237 130.541 58.788 131.179 58.4317C131.802 58.0533 132.473 57.7598 133.174 57.5588C132.103 58.5615 130.817 59.3039 129.413 59.7285H129.423Z" fill="#263238"/>
<path d="M126.106 56.5413C126.311 55.8428 126.603 55.1726 126.974 54.5462C127.33 53.9073 127.768 53.3171 128.276 52.7905C128.074 53.4905 127.783 54.1611 127.408 54.7856C127.051 55.4246 126.614 56.0147 126.106 56.5413Z" fill="#263238"/>
<path d="M254.501 187.7H102.21L80.5825 67.6042H232.879L254.501 187.7Z" fill="#0060A8"/>
<path d="M133.358 141.019C136.854 141.019 139.688 138.186 139.688 134.69C139.688 131.194 136.854 128.36 133.358 128.36C129.862 128.36 127.029 131.194 127.029 134.69C127.029 138.186 129.862 141.019 133.358 141.019Z" fill="#263238"/>
<path d="M183.396 141.019C186.891 141.019 189.725 138.186 189.725 134.69C189.725 131.194 186.891 128.36 183.396 128.36C179.9 128.36 177.066 131.194 177.066 134.69C177.066 138.186 179.9 141.019 183.396 141.019Z" fill="#263238"/>
<path d="M167.47 142.032L167.121 141.369C167.091 141.309 163.819 135.264 157.24 135.264C151.254 135.264 149.758 140.955 149.718 141.199L149.539 141.922L148.087 141.573L148.262 140.845C148.262 140.775 150.047 133.767 157.24 133.767C164.721 133.767 168.298 140.391 168.447 140.675L168.796 141.334L167.47 142.032Z" fill="#263238"/>
<path d="M124.041 19.7466C123.802 22.0376 122.931 24.2171 121.526 26.0419C120.12 27.8667 118.235 29.265 116.081 30.0808C113.927 30.8966 111.588 31.0978 109.327 30.6619C107.065 30.2261 104.969 29.1703 103.272 27.6124L97.0522 28.5251L100.165 23.1483C99.4529 21.3988 99.1492 19.5101 99.2767 17.6256C99.4041 15.7412 99.9594 13.9105 100.9 12.2728C101.841 10.6351 103.143 9.23329 104.707 8.17395C106.27 7.11461 108.055 6.42557 109.925 6.15917C111.795 5.89277 113.701 6.05602 115.498 6.63651C117.295 7.217 118.937 8.19947 120.298 9.50929C121.658 10.8191 122.703 12.4218 123.351 14.1957C124 15.9696 124.236 17.868 124.041 19.7466Z" fill="white"/>
<path d="M124.041 19.7466C123.807 22.0364 122.944 24.2168 121.547 26.0462C120.865 26.9715 120.042 27.7843 119.108 28.4553C118.195 29.1514 117.187 29.714 116.116 30.1262C115.043 30.5485 113.916 30.8172 112.769 30.9242C112.195 30.9757 111.618 30.9874 111.043 30.9592C110.466 30.9443 109.89 30.8843 109.322 30.7796C107.03 30.3578 104.9 29.306 103.172 27.742L103.317 27.7869L97.1071 28.7396L96.6532 28.8094L96.8826 28.4104L99.9751 23.0236V23.2381C99.2454 21.4562 98.9351 19.5305 99.0683 17.6096C99.2015 15.6888 99.7745 13.8243 100.743 12.1602C101.711 10.5014 103.041 9.08274 104.634 8.01038C106.224 6.95226 108.034 6.26797 109.926 6.00882C111.819 5.74968 113.746 5.9224 115.562 6.51404C117.359 7.12544 118.997 8.13089 120.355 9.45684C121.711 10.7795 122.747 12.3935 123.386 14.1763C124.024 15.9592 124.248 17.8642 124.041 19.7466ZM124.041 19.7466C124.243 17.8735 124.011 15.979 123.364 14.2096C122.717 12.4401 121.672 10.843 120.31 9.54157C118.948 8.2401 117.305 7.26909 115.508 6.70351C113.711 6.13793 111.808 5.9929 109.946 6.27962C108.102 6.55246 106.346 7.24531 104.813 8.30466C103.293 9.37233 102.024 10.7577 101.092 12.3647C100.175 13.9753 99.6348 15.7726 99.5112 17.6218C99.3897 19.4836 99.6898 21.3487 100.389 23.0785L100.434 23.1882L100.374 23.2929L97.2418 28.6598L97.0223 28.3306L103.247 27.4577H103.332L103.392 27.5126C105.056 29.0613 107.118 30.1165 109.347 30.5601C109.903 30.6733 110.466 30.7417 111.033 30.7646C111.599 30.8045 112.168 30.8045 112.734 30.7646C113.869 30.6731 114.987 30.4264 116.056 30.0314C117.127 29.6415 118.135 29.0971 119.048 28.4154C119.978 27.7498 120.802 26.9477 121.492 26.0362C122.907 24.2156 123.789 22.0385 124.041 19.7466Z" fill="#263238"/>
<path d="M105.601 24.2506C105.592 24.0854 105.616 23.9201 105.673 23.7648C105.73 23.6095 105.818 23.4676 105.933 23.3479C106.047 23.2282 106.184 23.1332 106.337 23.0688C106.489 23.0044 106.653 22.9721 106.818 22.9737C107.157 22.9737 107.482 23.1082 107.721 23.3477C107.961 23.5872 108.095 23.9119 108.095 24.2506C108.095 24.5892 107.961 24.914 107.721 25.1535C107.482 25.3929 107.157 25.5275 106.818 25.5275C106.653 25.5291 106.489 25.4967 106.337 25.4324C106.184 25.368 106.047 25.273 105.933 25.1532C105.818 25.0335 105.73 24.8916 105.673 24.7363C105.616 24.581 105.592 24.4157 105.601 24.2506ZM106.1 21.3028L105.811 11.407H107.806L107.517 21.3028H106.1Z" fill="#0060A8"/>
<path d="M110.345 24.2506C110.335 24.0859 110.359 23.921 110.416 23.766C110.473 23.6111 110.561 23.4694 110.674 23.3497C110.788 23.2301 110.925 23.135 111.077 23.0703C111.228 23.0056 111.392 22.9727 111.557 22.9737C111.895 22.9737 112.22 23.1082 112.46 23.3477C112.699 23.5872 112.834 23.9119 112.834 24.2506C112.834 24.5892 112.699 24.914 112.46 25.1535C112.22 25.3929 111.895 25.5275 111.557 25.5275C111.392 25.5284 111.228 25.4955 111.077 25.4309C110.925 25.3662 110.788 25.2711 110.674 25.1514C110.561 25.0318 110.473 24.8901 110.416 24.7351C110.359 24.5802 110.335 24.4153 110.345 24.2506ZM110.843 21.3028L110.569 11.407H112.564L112.275 21.3028H110.843Z" fill="#0060A8"/>
<path d="M115.083 24.2506C115.074 24.0854 115.098 23.9201 115.155 23.7648C115.212 23.6095 115.3 23.4676 115.414 23.3479C115.528 23.2282 115.666 23.1332 115.818 23.0688C115.971 23.0044 116.135 22.9721 116.3 22.9737C116.639 22.9737 116.964 23.1082 117.203 23.3477C117.442 23.5872 117.577 23.9119 117.577 24.2506C117.577 24.5892 117.442 24.914 117.203 25.1535C116.964 25.3929 116.639 25.5275 116.3 25.5275C116.135 25.5291 115.971 25.4967 115.818 25.4324C115.666 25.368 115.528 25.273 115.414 25.1532C115.3 25.0335 115.212 24.8916 115.155 24.7363C115.098 24.581 115.074 24.4157 115.083 24.2506ZM115.582 21.3028L115.293 11.407H117.288L117.003 21.3028H115.582Z" fill="#0060A8"/>
</svg>
