<svg width="200" height="141" viewBox="0 0 200 141" fill="none" xmlns="http://www.w3.org/2000/svg">
<path d="M162 0H42C36.4772 0 32 4.47715 32 10V130C32 135.523 36.4772 140 42 140H162C167.523 140 172 135.523 172 130V10C172 4.47715 167.523 0 162 0Z" fill="url(#paint0_linear_3923_434542)"/>
<g filter="url(#filter0_d_3923_434542)">
<path d="M54 54H189C190.326 54 191.598 54.5268 192.536 55.4645C193.473 56.4021 194 57.6739 194 59V84C194 85.3261 193.473 86.5979 192.536 87.5355C191.598 88.4732 190.326 89 189 89H54C52.6739 89 51.4021 88.4732 50.4645 87.5355C49.5268 86.5979 49 85.3261 49 84V59C49 57.6739 49.5268 56.4021 50.4645 55.4645C51.4021 54.5268 52.6739 54 54 54V54Z" fill="white"/>
</g>
<path d="M128 62H102C100.343 62 99 63.3431 99 65C99 66.6569 100.343 68 102 68H128C129.657 68 131 66.6569 131 65C131 63.3431 129.657 62 128 62Z" fill="#B4DAFF"/>
<path d="M146 75H102C100.343 75 99 76.3431 99 78C99 79.6569 100.343 81 102 81H146C147.657 81 149 79.6569 149 78C149 76.3431 147.657 75 146 75Z" fill="#DEE9FC"/>
<path d="M79.5 81C84.7467 81 89 76.7467 89 71.5C89 66.2533 84.7467 62 79.5 62C74.2533 62 70 66.2533 70 71.5C70 76.7467 74.2533 81 79.5 81Z" fill="#0073E6"/>
<path d="M74.19 75H72.93V67.86H76.98V68.93H74.19V71.03H76.79V72.1H74.19V75ZM81.3809 75L79.4209 69.15H79.3809C79.3875 69.2833 79.3975 69.4733 79.4109 69.72C79.4242 69.96 79.4342 70.2233 79.4409 70.51C79.4542 70.79 79.4609 71.0533 79.4609 71.3V75H78.3109V67.86H80.0909L81.9709 73.47H82.0109L83.9709 67.86H85.7509V75H84.5309V71.24C84.5309 71.0133 84.5342 70.7667 84.5409 70.5C84.5542 70.2267 84.5642 69.97 84.5709 69.73C84.5842 69.4833 84.5942 69.2933 84.6009 69.16H84.5609L82.5209 75H81.3809Z" fill="white"/>
<g filter="url(#filter1_d_3923_434542)">
<path d="M11 97H146C147.326 97 148.598 97.5268 149.536 98.4645C150.473 99.4021 151 100.674 151 102V127C151 128.326 150.473 129.598 149.536 130.536C148.598 131.473 147.326 132 146 132H11C9.67392 132 8.40215 131.473 7.46447 130.536C6.52678 129.598 6 128.326 6 127V102C6 100.674 6.52678 99.4021 7.46447 98.4645C8.40215 97.5268 9.67392 97 11 97V97Z" fill="white"/>
</g>
<path d="M85 105H59C57.3431 105 56 106.343 56 108C56 109.657 57.3431 111 59 111H85C86.6569 111 88 109.657 88 108C88 106.343 86.6569 105 85 105Z" fill="#B4DAFF"/>
<path d="M103 118H59C57.3431 118 56 119.343 56 121C56 122.657 57.3431 124 59 124H103C104.657 124 106 122.657 106 121C106 119.343 104.657 118 103 118Z" fill="#DEE9FC"/>
<path d="M23.5 124C28.7467 124 33 119.747 33 114.5C33 109.253 28.7467 105 23.5 105C18.2533 105 14 109.253 14 114.5C14 119.747 18.2533 124 23.5 124Z" fill="#0073E6"/>
<path d="M21.22 111.84C20.8933 111.84 20.6033 111.9 20.35 112.02C20.0967 112.14 19.88 112.313 19.7 112.54C19.5267 112.767 19.3933 113.04 19.3 113.36C19.2133 113.68 19.17 114.04 19.17 114.44C19.17 114.98 19.2433 115.443 19.39 115.83C19.5367 116.21 19.76 116.503 20.06 116.71C20.3667 116.917 20.75 117.02 21.21 117.02C21.5167 117.02 21.81 116.99 22.09 116.93C22.3767 116.863 22.6767 116.777 22.99 116.67V117.76C22.6967 117.88 22.4 117.967 22.1 118.02C21.8067 118.073 21.4667 118.1 21.08 118.1C20.3467 118.1 19.74 117.95 19.26 117.65C18.78 117.343 18.4233 116.917 18.19 116.37C17.9567 115.817 17.84 115.17 17.84 114.43C17.84 113.89 17.9133 113.397 18.06 112.95C18.2133 112.503 18.43 112.117 18.71 111.79C18.9967 111.463 19.35 111.21 19.77 111.03C20.19 110.85 20.6733 110.76 21.22 110.76C21.58 110.76 21.9333 110.803 22.28 110.89C22.6333 110.97 22.9633 111.083 23.27 111.23L22.83 112.28C22.5767 112.167 22.3133 112.067 22.04 111.98C21.7733 111.887 21.5 111.84 21.22 111.84ZM27.3723 111.84C27.0457 111.84 26.7557 111.9 26.5023 112.02C26.249 112.14 26.0323 112.313 25.8523 112.54C25.679 112.767 25.5457 113.04 25.4523 113.36C25.3657 113.68 25.3223 114.04 25.3223 114.44C25.3223 114.98 25.3957 115.443 25.5423 115.83C25.689 116.21 25.9123 116.503 26.2123 116.71C26.519 116.917 26.9023 117.02 27.3623 117.02C27.669 117.02 27.9623 116.99 28.2423 116.93C28.529 116.863 28.829 116.777 29.1423 116.67V117.76C28.849 117.88 28.5523 117.967 28.2523 118.02C27.959 118.073 27.619 118.1 27.2323 118.1C26.499 118.1 25.8923 117.95 25.4123 117.65C24.9323 117.343 24.5757 116.917 24.3423 116.37C24.109 115.817 23.9923 115.17 23.9923 114.43C23.9923 113.89 24.0657 113.397 24.2123 112.95C24.3657 112.503 24.5823 112.117 24.8623 111.79C25.149 111.463 25.5023 111.21 25.9223 111.03C26.3423 110.85 26.8257 110.76 27.3723 110.76C27.7323 110.76 28.0857 110.803 28.4323 110.89C28.7857 110.97 29.1157 111.083 29.4223 111.23L28.9823 112.28C28.729 112.167 28.4657 112.067 28.1923 111.98C27.9257 111.887 27.6523 111.84 27.3723 111.84Z" fill="white"/>
<g filter="url(#filter2_d_3923_434542)">
<path d="M146 11H11C8.23858 11 6 13.2386 6 16V41C6 43.7614 8.23858 46 11 46H146C148.761 46 151 43.7614 151 41V16C151 13.2386 148.761 11 146 11Z" fill="white"/>
</g>
<path d="M83 19H57C55.3431 19 54 20.3431 54 22C54 23.6569 55.3431 25 57 25H83C84.6569 25 86 23.6569 86 22C86 20.3431 84.6569 19 83 19Z" fill="#B4DAFF"/>
<path d="M101 32H57C55.3431 32 54 33.3431 54 35C54 36.6569 55.3431 38 57 38H101C102.657 38 104 36.6569 104 35C104 33.3431 102.657 32 101 32Z" fill="#DEE9FC"/>
<path d="M36.5 38C41.7467 38 46 33.7467 46 28.5C46 23.2533 41.7467 19 36.5 19C31.2533 19 27 23.2533 27 28.5C27 33.7467 31.2533 38 36.5 38Z" fill="#0073E6"/>
<path d="M36.8882 28.36C36.8882 29.16 36.7348 29.83 36.4282 30.37C36.1282 30.91 35.6915 31.3167 35.1182 31.59C34.5515 31.8633 33.8648 32 33.0582 32H31.0482V24.86H33.2682C34.0082 24.86 34.6482 24.9933 35.1882 25.26C35.7282 25.5267 36.1448 25.92 36.4382 26.44C36.7382 26.9533 36.8882 27.5933 36.8882 28.36ZM35.5482 28.4C35.5482 27.8333 35.4615 27.3667 35.2882 27C35.1148 26.6333 34.8582 26.3633 34.5182 26.19C34.1782 26.01 33.7615 25.92 33.2682 25.92H32.3282V30.93H33.0982C33.9248 30.93 34.5382 30.72 34.9382 30.3C35.3448 29.8733 35.5482 29.24 35.5482 28.4ZM40.6687 32H39.3887V25.94H37.3387V24.86H42.7187V25.94H40.6687V32Z" fill="white"/>
<defs>
<filter id="filter0_d_3923_434542" x="43" y="51" width="157" height="47" filterUnits="userSpaceOnUse" color-interpolation-filters="sRGB">
<feFlood flood-opacity="0" result="BackgroundImageFix"/>
<feColorMatrix in="SourceAlpha" type="matrix" values="0 0 0 0 0 0 0 0 0 0 0 0 0 0 0 0 0 0 127 0" result="hardAlpha"/>
<feOffset dy="3"/>
<feGaussianBlur stdDeviation="3"/>
<feColorMatrix type="matrix" values="0 0 0 0 0 0 0 0 0 0 0 0 0 0 0 0 0 0 0.161 0"/>
<feBlend mode="normal" in2="BackgroundImageFix" result="effect1_dropShadow_3923_434542"/>
<feBlend mode="normal" in="SourceGraphic" in2="effect1_dropShadow_3923_434542" result="shape"/>
</filter>
<filter id="filter1_d_3923_434542" x="0" y="94" width="157" height="47" filterUnits="userSpaceOnUse" color-interpolation-filters="sRGB">
<feFlood flood-opacity="0" result="BackgroundImageFix"/>
<feColorMatrix in="SourceAlpha" type="matrix" values="0 0 0 0 0 0 0 0 0 0 0 0 0 0 0 0 0 0 127 0" result="hardAlpha"/>
<feOffset dy="3"/>
<feGaussianBlur stdDeviation="3"/>
<feColorMatrix type="matrix" values="0 0 0 0 0 0 0 0 0 0 0 0 0 0 0 0 0 0 0.161 0"/>
<feBlend mode="normal" in2="BackgroundImageFix" result="effect1_dropShadow_3923_434542"/>
<feBlend mode="normal" in="SourceGraphic" in2="effect1_dropShadow_3923_434542" result="shape"/>
</filter>
<filter id="filter2_d_3923_434542" x="0" y="8" width="157" height="47" filterUnits="userSpaceOnUse" color-interpolation-filters="sRGB">
<feFlood flood-opacity="0" result="BackgroundImageFix"/>
<feColorMatrix in="SourceAlpha" type="matrix" values="0 0 0 0 0 0 0 0 0 0 0 0 0 0 0 0 0 0 127 0" result="hardAlpha"/>
<feOffset dy="3"/>
<feGaussianBlur stdDeviation="3"/>
<feColorMatrix type="matrix" values="0 0 0 0 0 0 0 0 0 0 0 0 0 0 0 0 0 0 0.161 0"/>
<feBlend mode="normal" in2="BackgroundImageFix" result="effect1_dropShadow_3923_434542"/>
<feBlend mode="normal" in="SourceGraphic" in2="effect1_dropShadow_3923_434542" result="shape"/>
</filter>
<linearGradient id="paint0_linear_3923_434542" x1="102" y1="0" x2="102" y2="140" gradientUnits="userSpaceOnUse">
<stop stop-color="#E3ECFA"/>
<stop offset="1" stop-color="#DAE7FF"/>
</linearGradient>
</defs>
</svg>
