<svg width="283" height="200" viewBox="0 0 283 200" fill="none" xmlns="http://www.w3.org/2000/svg">
<path d="M47.3245 127.579C38.7894 135.933 37.3419 148.861 39.1512 160.185C39.2011 160.441 39.6004 160.372 39.6004 160.129C39.6004 157.552 39.5193 155 39.5256 152.455C39.5755 152.336 39.6129 152.224 39.6628 152.112C41.8902 150.489 43.9554 148.667 45.2032 146.172C46.632 143.364 47.1935 140.207 48.2791 137.275C48.3852 136.994 48.0857 137.075 47.8861 137.225C42.6951 141.049 41.023 145.174 39.5505 150.677C39.5799 147.797 39.8828 144.926 40.4552 142.104C41.5783 136.882 43.7932 131.697 47.5492 127.822C47.5814 127.793 47.6005 127.751 47.6023 127.707C47.604 127.663 47.5883 127.621 47.5585 127.588C47.5287 127.556 47.4873 127.537 47.4435 127.535C47.3996 127.534 47.3568 127.549 47.3245 127.579Z" fill="#A6A6A6"/>
<path d="M48.9468 128.552C50.413 128.602 51.3364 130.948 52.4782 131.635C52.5984 131.732 52.7379 131.803 52.8874 131.844C53.037 131.884 53.1933 131.892 53.3463 131.868C53.4993 131.844 53.6455 131.788 53.7754 131.704C53.9053 131.619 54.016 131.509 54.1004 131.379C55.2359 129.794 53.6761 127.841 52.2286 126.749C53.2768 127.18 54.1441 127.935 55.2734 128.153C55.4177 128.199 55.5701 128.214 55.7205 128.196C55.8708 128.178 56.0158 128.129 56.1456 128.051C56.2755 127.973 56.3872 127.869 56.4735 127.744C56.5598 127.62 56.6186 127.478 56.646 127.33C57.1389 125.171 54.4373 124.21 52.578 124.166C53.4765 123.542 56.0595 121.839 54.6869 121.003C53.3143 120.167 50.2695 122.594 49.2837 123.393C47.83 124.572 46.1018 126.331 46.0331 128.172C45.9208 130.324 47.7988 129.002 48.9468 128.552Z" fill="#DBDBDB"/>
<path d="M48.5037 128.914C50.3755 128.059 53.988 129.289 54.2937 128.577C54.9176 127.13 52.0351 126.138 50.4753 125.944C51.9103 125.557 54.6556 124.94 54.5744 123.561C54.4684 121.87 50.363 123.324 48.2791 124.915C45.6649 126.924 45.6774 128.864 46.1141 129.251C46.7068 129.781 48.1918 129.051 48.5037 128.914Z" fill="#EBEBEB"/>
<path d="M27.8833 126.749C36.7304 134.773 38.6583 147.638 37.2857 159.024C37.2857 159.28 36.849 159.23 36.8427 158.987C36.7429 156.41 36.7242 153.852 36.6181 151.313L36.4746 150.97C34.1911 149.441 32.0698 147.688 30.7096 145.23C29.1748 142.484 28.4947 139.346 27.2968 136.457C27.1845 136.183 27.484 136.251 27.6836 136.389C33.0181 140.02 34.8337 144.075 36.5308 149.522C36.3835 146.644 35.9657 143.787 35.283 140.987C33.9602 135.808 31.5394 130.717 27.6462 126.986C27.5214 126.83 27.7335 126.606 27.8833 126.749Z" fill="#A6A6A6"/>
<path d="M26.3173 127.785C24.8511 127.891 24.0213 130.281 22.9044 130.998C22.7885 131.101 22.6522 131.178 22.5044 131.224C22.3566 131.27 22.2007 131.285 22.0469 131.267C21.8931 131.248 21.7449 131.198 21.612 131.118C21.4792 131.039 21.3647 130.932 21.276 130.805C20.0843 129.264 21.563 127.255 22.9856 126.107C21.9561 126.581 21.1138 127.354 19.997 127.623C19.8531 127.675 19.6995 127.696 19.5468 127.683C19.3942 127.671 19.246 127.625 19.1126 127.55C18.9792 127.475 18.8637 127.371 18.774 127.247C18.6844 127.123 18.6227 126.981 18.5932 126.83C18.0129 124.69 20.6833 123.63 22.5363 123.511C21.6129 122.925 18.9675 121.321 20.3089 120.435C21.6504 119.549 24.7824 121.858 25.7994 122.619C27.2968 123.742 29.0937 125.433 29.2247 127.273C29.3932 129.445 27.4653 128.191 26.3173 127.785Z" fill="#DBDBDB"/>
<path d="M26.754 128.128C24.851 127.348 21.2884 128.715 20.9578 128.016C20.2839 126.593 23.1228 125.52 24.7013 125.239C23.2538 124.909 20.4898 124.391 20.521 123.012C20.5584 121.321 24.72 122.613 26.86 124.129C29.5491 126.038 29.6053 127.972 29.1872 128.378C28.5883 128.933 27.0722 128.259 26.754 128.128Z" fill="#EBEBEB"/>
<path d="M36.9301 147.944C37.5302 152.237 38.4499 156.478 39.6816 160.634C39.6996 160.716 39.7487 160.787 39.8185 160.832C39.8882 160.878 39.9731 160.894 40.0548 160.878C40.1365 160.861 40.2085 160.814 40.2554 160.745C40.3023 160.676 40.3203 160.591 40.3055 160.509C39.7253 156.604 38.6646 152.76 38.0844 148.855C37.4468 144.898 37.2189 140.885 37.4043 136.882C37.7724 130.293 39.5631 123.28 43.8619 118.127C43.9617 118.002 43.7558 117.834 43.6622 117.946C35.0522 127.985 36.4248 140.288 36.431 141.393C35.1832 137.237 33.9353 132.471 29.3433 128.24C29.1437 128.06 28.9877 128.147 29.0251 128.459C29.8424 136.189 31.9825 140.188 36.4684 144.3C36.5808 145.548 36.7367 146.746 36.9301 147.944Z" fill="#A6A6A6"/>
<path d="M43.9554 119.281C45.5027 118.595 47.6427 120.566 49.1713 120.697C49.3452 120.742 49.5268 120.749 49.7035 120.718C49.8803 120.686 50.0482 120.616 50.1957 120.514C50.3432 120.411 50.4668 120.278 50.5582 120.124C50.6495 119.969 50.7064 119.797 50.7249 119.618C51.1055 117.403 48.51 116.161 46.4386 115.768C47.7426 115.687 49.0216 116.03 50.3006 115.687C50.4725 115.66 50.6368 115.597 50.7828 115.502C50.9289 115.407 51.0535 115.283 51.1487 115.137C51.2439 114.992 51.3075 114.828 51.3355 114.656C51.3636 114.484 51.3553 114.308 51.3114 114.14C50.7436 111.644 47.4493 112.019 45.5027 112.892C46.1266 111.788 47.9422 108.724 46.1266 108.525C44.311 108.325 42.3457 112.399 41.728 113.728C40.8108 115.681 39.8999 118.383 40.7609 120.323C41.7093 122.638 42.9883 120.317 43.9554 119.281Z" fill="#DBDBDB"/>
<path d="M43.6747 119.867C45.197 118.039 49.5582 117.496 49.5145 116.604C49.4334 114.795 45.9457 115.213 44.2362 115.799C45.5215 114.676 48.0608 112.649 47.2809 111.257C46.3201 109.56 42.7887 113.129 41.4348 115.837C39.7315 119.237 40.7235 121.24 41.3662 121.421C42.2521 121.677 43.4251 120.173 43.6747 119.867Z" fill="#EBEBEB"/>
<path d="M31.265 150.265L27.4716 179.277H50.5565C50.0823 176.706 45.7835 150.234 45.7835 150.234L31.265 150.265Z" fill="#DBDBDB"/>
<path d="M256.587 65.4556H273.108V58.4739H256.587V65.4556Z" fill="#EBEBEB"/>
<path d="M265.802 56.6521H282.323V49.6705H265.802V56.6521Z" fill="#EBEBEB"/>
<path d="M247.365 56.6521H263.886V49.6705H247.365V56.6521Z" fill="#EBEBEB"/>
<path d="M9.46523 155.499H25.9866V148.518H9.46523V155.499Z" fill="#EBEBEB"/>
<path d="M0.250021 146.696H16.7714V139.714H0.250021V146.696Z" fill="#EBEBEB"/>
<path d="M265.802 155.493H282.323V148.512H265.802V155.493Z" fill="#EBEBEB"/>
<path d="M71.9756 0.33728H55.4542V7.31892H71.9756V0.33728Z" fill="#EBEBEB"/>
<path d="M62.7541 9.14075H46.2328V16.1224H62.7541V9.14075Z" fill="#EBEBEB"/>
<path d="M21.4633 179.252L51.4175 179.102L81.3718 179.046L141.287 178.94L201.195 179.046L231.156 179.102L261.11 179.252L231.156 179.408L201.195 179.458L141.287 179.564L81.3718 179.458L51.4175 179.402L21.4633 179.252Z" fill="#263238"/>
<path d="M93.4945 90.5682C93.3351 90.3849 93.1643 90.2119 92.9829 90.0503C92.8197 89.8705 92.6469 89.6997 92.4651 89.5387C92.3041 89.3569 92.1333 89.184 91.9534 89.0209C91.7919 88.8395 91.6189 88.6686 91.4356 88.5092C91.2734 88.3283 91.0987 88.1536 90.924 87.9914C90.7662 87.8086 90.5952 87.6376 90.4124 87.4798C90.2492 87.2979 90.0764 87.1251 89.8945 86.9619C89.7367 86.7791 89.5657 86.6081 89.3829 86.4503C89.2197 86.2705 89.0468 86.0997 88.8651 85.9387C88.3369 85.3565 87.7199 84.8616 87.037 84.4725V32.9119C87.037 32.6374 86.906 32.5002 86.906 32.2256C86.9398 31.9457 86.8921 31.6619 86.7687 31.4083C86.7687 31.271 86.6377 30.9965 86.6377 30.8593C86.5626 30.5788 86.4688 30.3036 86.3569 30.0357C86.2126 29.885 86.1189 29.6931 86.0886 29.4866C85.9315 29.2402 85.7474 29.0121 85.5396 28.8066C85.3961 28.6693 85.2651 28.401 85.1278 28.2575L84.5787 27.7085C84.5787 27.6274 84.4727 27.54 84.3541 27.4901L84.0858 27.2156H84.0546C84.0546 27.1282 83.9548 27.0471 83.8363 26.991L83.5618 26.7227C83.5618 26.6416 83.4557 26.5542 83.3371 26.4981L83.0689 26.2298C83.0689 26.1424 82.9628 26.0613 82.8442 26.0052L82.576 25.7307C82.576 25.6496 82.4699 25.5622 82.3513 25.5061L82.0768 25.2378V25.2066C82.0768 25.1255 81.9708 25.0443 81.8522 24.9882L81.5839 24.7137H81.5527C81.5527 24.6326 81.4529 24.5452 81.3344 24.4891L81.0598 24.2208V24.1896C81.0598 24.1085 80.9538 24.0274 80.8352 23.9712L80.5669 23.6967H80.5358C80.5358 23.6093 80.4359 23.5282 80.3174 23.4721L80.0429 23.2038C80.0429 23.1227 79.9368 23.0353 79.8182 22.9854L79.5188 22.6859C79.5188 22.5487 79.2505 22.4114 79.107 22.4114C79.1078 22.3937 79.1051 22.376 79.0989 22.3594C79.0927 22.3427 79.0831 22.3275 79.0709 22.3147C79.0586 22.3019 79.0439 22.2917 79.0276 22.2847C79.0113 22.2777 78.9937 22.2741 78.976 22.2742C78.7014 22.1431 78.5579 21.9996 78.2896 21.8624C78.0536 21.6912 77.8266 21.508 77.6096 21.3133C77.4723 21.3133 77.1978 21.1823 77.0605 21.1823C76.786 21.045 76.3742 21.045 76.237 20.9015C76.0005 20.9208 75.7633 20.8755 75.5506 20.7705H73.2297C73.0668 20.8751 72.8732 20.9213 72.6806 20.9015C72.2688 21.045 72.0006 21.045 71.8571 21.1823C71.5888 21.1823 71.4515 21.3133 71.308 21.5941C71.0151 21.6009 70.7307 21.6943 70.4907 21.8624C70.3597 21.9996 70.0789 22.1431 69.9416 22.2742C69.7593 22.4741 69.5232 22.6171 69.2616 22.6859C69.1593 22.8928 69.0197 23.0789 68.8498 23.235C68.7125 23.3723 68.7125 23.5033 68.5815 23.5033L17.7509 86.2756C16.5489 87.7189 15.949 89.5697 16.0756 91.4437C16.2022 93.3177 17.0457 95.071 18.431 96.3394C18.5914 96.5279 18.7666 96.7031 18.9551 96.8635C19.1117 97.0514 19.2851 97.2247 19.4729 97.3814C19.6333 97.5698 19.8086 97.7451 19.997 97.9054C20.1552 98.0938 20.3284 98.2691 20.5149 98.4295C20.6753 98.616 20.8506 98.7892 21.039 98.9474C21.1972 99.1358 21.3703 99.311 21.5568 99.4715C21.7173 99.6579 21.8925 99.8311 22.0809 99.9893C22.2391 100.178 22.4123 100.353 22.5988 100.513C22.7592 100.7 22.9345 100.873 23.1228 101.031C23.4455 101.398 23.8051 101.73 24.196 102.023C25.4809 103.14 27.1427 103.727 28.8442 103.664H66.7285V108.849C66.7173 109.904 66.9294 110.95 67.3509 111.918C67.7724 112.886 68.3937 113.754 69.1742 114.464C69.3364 114.639 69.5049 114.807 69.6733 114.963C69.8323 115.141 70.001 115.31 70.1787 115.469C70.3409 115.643 70.5094 115.812 70.6841 115.968C70.8431 116.146 71.0118 116.314 71.1895 116.473C71.3517 116.648 71.5201 116.816 71.6948 116.979C71.8522 117.158 72.021 117.327 72.2002 117.484C72.3562 117.659 72.5247 117.827 72.6993 117.989C72.8583 118.167 73.027 118.336 73.2047 118.495C73.3607 118.663 73.5292 118.832 73.7038 118.994C74.7344 120.108 76.0766 120.886 77.5556 121.226C79.0346 121.567 80.5819 121.454 81.9958 120.903C83.4098 120.351 84.6249 119.387 85.4829 118.135C86.3409 116.883 86.802 115.402 86.8061 113.884V103.639H88.1787C89.1776 103.656 90.1698 103.473 91.0975 103.103C92.0252 102.732 92.8699 102.181 93.5824 101.48C94.2948 100.78 94.8609 99.945 95.2475 99.0239C95.6341 98.1027 95.8335 97.1138 95.8342 96.1148C95.8493 95.0787 95.6491 94.0507 95.2464 93.096C94.8437 92.1412 94.2471 91.2805 93.4945 90.5682ZM66.716 61.2441V83.3557H48.8969L66.716 61.2441Z" fill="#0060A8"/>
<path opacity="0.1" d="M93.4945 90.5682C93.3351 90.3849 93.1643 90.2119 92.9829 90.0503C92.8197 89.8705 92.6469 89.6997 92.4651 89.5387C92.3041 89.3569 92.1333 89.184 91.9534 89.0209C91.7919 88.8395 91.6189 88.6686 91.4356 88.5092C91.2734 88.3283 91.0987 88.1536 90.924 87.9914C90.7662 87.8086 90.5952 87.6376 90.4124 87.4798C90.2492 87.2979 90.0764 87.1251 89.8945 86.9619C89.7367 86.7791 89.5657 86.6081 89.3829 86.4503C89.2197 86.2705 89.0468 86.0997 88.8651 85.9387C88.3369 85.3565 87.7199 84.8616 87.037 84.4725V32.9119C87.037 32.6374 86.906 32.5002 86.906 32.2256C86.9398 31.9457 86.8921 31.6619 86.7687 31.4083C86.7687 31.271 86.6377 30.9965 86.6377 30.8593C86.5626 30.5788 86.4688 30.3036 86.3569 30.0357C86.2126 29.885 86.1189 29.6931 86.0886 29.4866C85.9315 29.2402 85.7474 29.0121 85.5396 28.8066C85.3961 28.6693 85.2651 28.401 85.1278 28.2575L84.5787 27.7085C84.5787 27.6274 84.4727 27.54 84.3541 27.4901L84.0858 27.2156H84.0546C84.0546 27.1282 83.9548 27.0471 83.8363 26.991L83.5618 26.7227C83.5618 26.6416 83.4557 26.5542 83.3371 26.4981L83.0689 26.2298C83.0689 26.1424 82.9628 26.0613 82.8442 26.0052L82.576 25.7307C82.576 25.6496 82.4699 25.5622 82.3513 25.5061L82.0768 25.2378V25.2066C82.0768 25.1255 81.9708 25.0443 81.8522 24.9882L81.5839 24.7137H81.5527C81.5527 24.6326 81.4529 24.5452 81.3344 24.4891L81.0598 24.2208V24.1896C81.0598 24.1085 80.9538 24.0274 80.8352 23.9712L80.5669 23.6967H80.5358C80.5358 23.6093 80.4359 23.5282 80.3174 23.4721L80.0429 23.2038C80.0429 23.1227 79.9368 23.0353 79.8182 22.9854L79.5188 22.6859C79.5188 22.5487 79.2505 22.4114 79.107 22.4114C79.1078 22.3937 79.1051 22.376 79.0989 22.3594C79.0927 22.3427 79.0831 22.3275 79.0709 22.3147C79.0586 22.3019 79.0439 22.2917 79.0276 22.2847C79.0113 22.2777 78.9937 22.2741 78.976 22.2742C78.7014 22.1431 78.5579 21.9996 78.2896 21.8624C78.0536 21.6912 77.8266 21.508 77.6096 21.3133C77.4723 21.3133 77.1978 21.1823 77.0605 21.1823C76.786 21.045 76.3742 21.045 76.237 20.9015C76.0005 20.9208 75.7633 20.8755 75.5506 20.7705H73.2297C73.0668 20.8751 72.8732 20.9213 72.6806 20.9015C72.2688 21.045 72.0006 21.045 71.8571 21.1823C71.5888 21.1823 71.4515 21.3133 71.308 21.5941C71.0151 21.6009 70.7307 21.6943 70.4907 21.8624C70.3597 21.9996 70.0789 22.1431 69.9416 22.2742C69.7593 22.4741 69.5232 22.6171 69.2616 22.6859C69.1593 22.8928 69.0197 23.0789 68.8498 23.235C68.7125 23.3723 68.7125 23.5033 68.5815 23.5033L17.7509 86.2756C16.5489 87.7189 15.949 89.5697 16.0756 91.4437C16.2022 93.3177 17.0457 95.071 18.431 96.3394C18.5914 96.5279 18.7666 96.7031 18.9551 96.8635C19.1117 97.0514 19.2851 97.2247 19.4729 97.3814C19.6333 97.5698 19.8086 97.7451 19.997 97.9054C20.1552 98.0938 20.3284 98.2691 20.5149 98.4295C20.6753 98.616 20.8506 98.7892 21.039 98.9474C21.1972 99.1358 21.3703 99.311 21.5568 99.4715C21.7173 99.6579 21.8925 99.8311 22.0809 99.9893C22.2391 100.178 22.4123 100.353 22.5988 100.513C22.7592 100.7 22.9345 100.873 23.1228 101.031C23.4455 101.398 23.8051 101.73 24.196 102.023C25.4809 103.14 27.1427 103.727 28.8442 103.664H66.7285V108.849C66.7173 109.904 66.9294 110.95 67.3509 111.918C67.7724 112.886 68.3937 113.754 69.1742 114.464C69.3364 114.639 69.5049 114.807 69.6733 114.963C69.8323 115.141 70.001 115.31 70.1787 115.469C70.3409 115.643 70.5094 115.812 70.6841 115.968C70.8431 116.146 71.0118 116.314 71.1895 116.473C71.3517 116.648 71.5201 116.816 71.6948 116.979C71.8522 117.158 72.021 117.327 72.2002 117.484C72.3562 117.659 72.5247 117.827 72.6993 117.989C72.8583 118.167 73.027 118.336 73.2047 118.495C73.3607 118.663 73.5292 118.832 73.7038 118.994C74.7344 120.108 76.0766 120.886 77.5556 121.226C79.0346 121.567 80.5819 121.454 81.9958 120.903C83.4098 120.351 84.6249 119.387 85.4829 118.135C86.3409 116.883 86.802 115.402 86.8061 113.884V103.639H88.1787C89.1776 103.656 90.1698 103.473 91.0975 103.103C92.0252 102.732 92.8699 102.181 93.5824 101.48C94.2948 100.78 94.8609 99.945 95.2475 99.0239C95.6341 98.1027 95.8335 97.1138 95.8342 96.1148C95.8493 95.0787 95.6491 94.0507 95.2464 93.096C94.8437 92.1412 94.2471 91.2805 93.4945 90.5682ZM66.716 61.2441V83.3557H48.8969L66.716 61.2441Z" fill="black"/>
<path d="M90.7867 90.8989C90.786 91.8984 90.5863 92.8878 90.1993 93.8094C89.8124 94.731 89.2458 95.5663 88.5326 96.2667C87.8195 96.9671 86.9741 97.5185 86.0456 97.8887C85.1172 98.259 84.1244 98.4407 83.125 98.4233H81.7586V108.824C81.7586 110.82 80.9658 112.734 79.5547 114.145C78.1436 115.556 76.2297 116.349 74.2341 116.349C72.2385 116.349 70.3247 115.556 68.9135 114.145C67.5024 112.734 66.7097 110.82 66.7097 108.824V98.4233H23.6157C21.9244 98.4807 20.2744 97.8943 18.9987 96.7824C18.2083 96.1882 17.5465 95.44 17.0533 94.5829C16.5601 93.7259 16.2457 92.7777 16.1291 91.7958C16.0125 90.8138 16.096 89.8184 16.3748 88.8697C16.6535 87.9209 17.1216 87.0385 17.7509 86.2757L68.3506 23.3161C68.4879 23.3161 68.4879 23.1851 68.6251 23.0479C68.795 22.8918 68.9347 22.7056 69.0369 22.4988C69.2994 22.4278 69.5371 22.2853 69.7232 22.087C69.8542 21.9498 70.1288 21.8125 70.266 21.6752C70.5067 21.503 70.7937 21.4074 71.0896 21.4007C71.2269 21.1324 71.3641 20.9952 71.6386 20.9952C71.7697 20.8579 72.0442 20.8579 72.456 20.7206C72.6495 20.7412 72.844 20.6925 73.005 20.5834H75.3322C75.5405 20.6949 75.7771 20.7426 76.0123 20.7206C76.1496 20.8579 76.5613 20.8579 76.8359 20.9952C76.9731 20.9952 77.2477 21.1324 77.3849 21.1324C77.6532 21.4007 77.9277 21.538 78.065 21.6752C78.3395 21.8125 78.4768 21.9498 78.7513 22.087C78.7877 22.087 78.8226 22.1015 78.8484 22.1272C78.8741 22.153 78.8886 22.1879 78.8886 22.2243C79.0258 22.2243 79.3003 22.3615 79.3003 22.4988L79.8432 23.0479C79.9804 23.1851 80.1177 23.4534 80.2549 23.5907C80.4643 23.7971 80.6486 24.0274 80.804 24.277C80.8383 24.4834 80.934 24.6747 81.0785 24.826C81.1913 25.0902 81.2811 25.3637 81.3468 25.6434C81.3468 25.7806 81.4841 26.0551 81.4841 26.1924C81.6076 26.4481 81.6553 26.734 81.6213 27.016C81.6213 27.2843 81.7586 27.4215 81.7586 27.696V83.3745H83.125C85.1363 83.3644 87.0702 84.1496 88.5053 85.5589C89.9404 86.9683 90.7604 88.8877 90.7867 90.8989ZM66.7097 49.5831L39.4882 83.3745H66.7097V49.5831Z" fill="#0060A8"/>
<path d="M170.817 40.9792C169.272 38.6289 167.477 36.4533 165.463 34.4904C165.389 34.4088 165.31 34.3317 165.226 34.2596L165.158 34.191C165.095 34.1223 165.033 34.0537 164.964 33.9913C164.79 33.8041 164.602 33.6294 164.421 33.4485L164.372 33.4048L164.184 33.2177C164.163 33.1932 164.14 33.1703 164.116 33.149C164.053 33.0804 163.991 33.0118 163.922 32.9494C163.748 32.7622 163.56 32.5875 163.38 32.4066L163.33 32.3629L163.142 32.1757L163.074 32.1071C163.011 32.0384 162.949 31.9698 162.88 31.9074C162.706 31.7203 162.518 31.5456 162.338 31.3646L162.288 31.3209L162.1 31.1338C162.1 31.1338 162.057 31.0839 162.032 31.0651C161.97 30.994 161.903 30.9273 161.832 30.8655C161.664 30.6721 161.477 30.5036 161.296 30.3227L161.246 30.279C161.188 30.212 161.126 30.1494 161.059 30.0918C161.059 30.0918 161.015 30.0419 160.99 30.0232C155.493 24.358 148.331 20.6083 140.295 20.6083C129.482 20.6083 120.597 27.0409 114.845 35.7882C108.824 44.523 105.686 55.9095 105.549 68.4877C105.686 80.9661 108.824 92.4274 114.845 101.187C116.387 103.503 118.162 105.654 120.142 107.607L120.417 107.876V107.907L120.903 108.394C120.984 108.487 121.072 108.568 121.153 108.649L121.427 108.918L121.458 108.949L121.945 109.435L122.195 109.697L122.469 109.96C122.483 109.967 122.493 109.977 122.5 109.991L122.987 110.477L123.237 110.739L123.511 111.001C123.519 111.005 123.525 111.011 123.531 111.017C123.536 111.023 123.54 111.031 123.542 111.039L124.029 111.526L124.285 111.781L124.553 112.043L124.591 112.081L125.077 112.568C130.48 117.964 137.456 121.589 145.473 121.589C156.005 121.589 165.033 115.02 170.785 106.397C176.663 97.6621 179.951 86.1508 179.951 73.7037C179.969 61.0943 176.694 49.739 170.817 40.9792ZM153.016 92.6833C149.048 98.5606 144.531 101.162 140.295 101.162C137.688 101.099 135.165 100.227 133.076 98.6666C132.882 98.4171 132.695 98.155 132.508 97.8805C128.677 92.1342 125.938 83.3806 125.938 73.6662C125.938 63.8146 128.677 55.1983 132.508 49.3334C136.62 43.5872 141.243 40.8544 145.504 40.9854C147.974 40.9742 150.382 41.7621 152.367 43.2315C152.586 43.5248 152.798 43.8118 152.991 44.1175C156.822 50.001 159.555 58.6173 159.555 68.4503C159.58 78.1647 156.847 86.9307 153.016 92.6833Z" fill="#0060A8"/>
<path opacity="0.1" d="M170.817 40.9792C169.272 38.6289 167.477 36.4533 165.463 34.4904C165.389 34.4088 165.31 34.3317 165.226 34.2596L165.158 34.191C165.095 34.1223 165.033 34.0537 164.964 33.9913C164.79 33.8041 164.602 33.6294 164.421 33.4485L164.372 33.4048L164.184 33.2177C164.163 33.1932 164.14 33.1703 164.116 33.149C164.053 33.0804 163.991 33.0118 163.922 32.9494C163.748 32.7622 163.56 32.5875 163.38 32.4066L163.33 32.3629L163.142 32.1757L163.074 32.1071C163.011 32.0384 162.949 31.9698 162.88 31.9074C162.706 31.7203 162.518 31.5456 162.338 31.3646L162.288 31.3209L162.1 31.1338C162.1 31.1338 162.057 31.0839 162.032 31.0651C161.97 30.994 161.903 30.9273 161.832 30.8655C161.664 30.6721 161.477 30.5036 161.296 30.3227L161.246 30.279C161.188 30.212 161.126 30.1494 161.059 30.0918C161.059 30.0918 161.015 30.0419 160.99 30.0232C155.493 24.358 148.331 20.6083 140.295 20.6083C129.482 20.6083 120.597 27.0409 114.845 35.7882C108.824 44.523 105.686 55.9095 105.549 68.4877C105.686 80.9661 108.824 92.4274 114.845 101.187C116.387 103.503 118.162 105.654 120.142 107.607L120.417 107.876V107.907L120.903 108.394C120.984 108.487 121.072 108.568 121.153 108.649L121.427 108.918L121.458 108.949L121.945 109.435L122.195 109.697L122.469 109.96C122.483 109.967 122.493 109.977 122.5 109.991L122.987 110.477L123.237 110.739L123.511 111.001C123.519 111.005 123.525 111.011 123.531 111.017C123.536 111.023 123.54 111.031 123.542 111.039L124.029 111.526L124.285 111.781L124.553 112.043L124.591 112.081L125.077 112.568C130.48 117.964 137.456 121.589 145.473 121.589C156.005 121.589 165.033 115.02 170.785 106.397C176.663 97.6621 179.951 86.1508 179.951 73.7037C179.969 61.0943 176.694 49.739 170.817 40.9792ZM153.016 92.6833C149.048 98.5606 144.531 101.162 140.295 101.162C137.688 101.099 135.165 100.227 133.076 98.6666C132.882 98.4171 132.695 98.155 132.508 97.8805C128.677 92.1342 125.938 83.3806 125.938 73.6662C125.938 63.8146 128.677 55.1983 132.508 49.3334C136.62 43.5872 141.243 40.8544 145.504 40.9854C147.974 40.9742 150.382 41.7621 152.367 43.2315C152.586 43.5248 152.798 43.8118 152.991 44.1175C156.822 50.001 159.555 58.6173 159.555 68.4503C159.58 78.1647 156.847 86.9307 153.016 92.6833Z" fill="black"/>
<path d="M105.542 68.4628C105.68 55.8784 108.83 44.5231 114.845 35.7695C120.591 27.0347 129.482 20.5834 140.295 20.5834C150.826 20.5834 159.854 27.016 165.601 35.7695C171.484 44.5044 174.766 55.8784 174.766 68.4628C174.766 80.9412 171.484 92.4088 165.601 101.162C159.854 109.779 150.826 116.349 140.295 116.349C129.482 116.349 120.591 109.779 114.845 101.162C108.843 92.4088 105.68 80.9162 105.542 68.4628ZM159.58 68.4628C159.58 58.6174 156.847 49.9949 153.016 44.13C149.048 38.3837 144.537 35.651 140.295 35.7882C136.052 35.651 131.398 38.3837 127.298 44.13C123.468 50.0136 120.729 58.6361 120.729 68.4628C120.729 78.1772 123.468 86.937 127.298 92.6771C131.398 98.5606 136.033 101.162 140.295 101.162C144.556 101.162 149.029 98.5606 153.016 92.6771C156.847 86.937 159.58 78.1647 159.58 68.4628Z" fill="#0060A8"/>
<path d="M264.018 90.5682C263.855 90.3873 263.681 90.2126 263.506 90.0503C263.337 89.8694 263.163 89.7009 262.988 89.5387C262.82 89.3578 262.651 89.1831 262.476 89.0209C262.308 88.8399 262.133 88.6652 261.959 88.5093C261.79 88.3283 261.622 88.1536 261.447 87.9914C261.279 87.8105 261.104 87.6358 260.929 87.4798C260.761 87.2989 260.586 87.1242 260.418 86.9619C260.256 86.7822 260.086 86.6114 259.906 86.4503C259.737 86.2694 259.563 86.1009 259.388 85.9387C258.859 85.3546 258.24 84.8595 257.554 84.4725V32.912C257.554 32.6374 257.423 32.5002 257.423 32.2256C257.457 31.9457 257.409 31.6619 257.285 31.4083C257.285 31.271 257.154 30.9965 257.154 30.8593C257.079 30.5788 256.986 30.3036 256.874 30.0357C256.732 29.8832 256.639 29.6921 256.605 29.4866C256.45 29.2387 256.266 29.0104 256.056 28.8066C255.913 28.6693 255.782 28.401 255.645 28.2575L255.095 27.7085C255.095 27.6274 254.989 27.54 254.871 27.4901L254.603 27.2156H254.571C254.571 27.1282 254.472 27.0471 254.353 26.991L254.078 26.7227C254.078 26.6416 253.972 26.5542 253.854 26.4981L253.586 26.2298C253.586 26.1424 253.48 26.0613 253.361 26.0052L253.093 25.7307C253.093 25.6496 252.987 25.5622 252.868 25.5061L252.594 25.2378V25.2066C252.594 25.1255 252.488 25.0444 252.369 24.9882L252.101 24.7137H252.069C252.069 24.6326 251.97 24.5452 251.851 24.4891L251.577 24.2208V24.1896C251.577 24.1085 251.471 24.0274 251.352 23.9712L251.084 23.6967H251.052C251.052 23.6093 250.953 23.5282 250.834 23.4721L250.56 23.2038C250.56 23.1227 250.454 23.0353 250.335 22.9854L250.036 22.6859C250.036 22.5487 249.767 22.4114 249.624 22.4114C249.624 22.3934 249.62 22.3755 249.613 22.3589C249.606 22.3422 249.596 22.3271 249.584 22.3144C249.571 22.3016 249.556 22.2915 249.539 22.2846C249.522 22.2777 249.504 22.2742 249.486 22.2742C249.218 22.1431 249.075 21.9996 248.806 21.8624C248.57 21.6912 248.343 21.508 248.126 21.3133C247.989 21.3133 247.715 21.1823 247.577 21.1823C247.303 21.045 246.897 21.045 246.754 20.9015C246.517 20.9214 246.28 20.8761 246.067 20.7705H243.746C243.584 20.8751 243.39 20.9213 243.197 20.9015C242.786 21.045 242.517 21.045 242.374 21.1823C242.106 21.1823 241.968 21.3133 241.825 21.5941C241.532 21.6016 241.248 21.6949 241.007 21.8624C240.876 21.9996 240.596 22.1431 240.465 22.2742C240.278 22.4724 240.041 22.615 239.778 22.6859C239.674 22.8915 239.535 23.0773 239.367 23.235C239.229 23.3723 239.229 23.5033 239.098 23.5033L188.255 86.2756C187.053 87.7189 186.453 89.5697 186.58 91.4437C186.707 93.3177 187.55 95.071 188.935 96.3394C189.096 96.5279 189.271 96.7031 189.459 96.8635C189.616 97.0514 189.789 97.2247 189.977 97.3814C190.138 97.5698 190.313 97.7451 190.501 97.9055C191.024 98.4243 191.544 98.9464 192.061 99.4715C192.413 99.8146 192.76 100.162 193.103 100.513C193.263 100.7 193.439 100.873 193.627 101.031C193.95 101.398 194.309 101.73 194.7 102.023C195.985 103.14 197.647 103.727 199.348 103.664H237.233V108.849C237.222 109.904 237.434 110.95 237.855 111.918C238.277 112.886 238.898 113.754 239.678 114.464C239.841 114.645 240.015 114.814 240.184 114.97C240.34 115.144 240.508 115.307 240.683 115.469C240.844 115.647 241.015 115.815 241.195 115.974C241.357 116.149 241.519 116.311 241.694 116.473C241.856 116.654 242.031 116.823 242.205 116.985C242.368 117.16 242.53 117.328 242.704 117.484C242.867 117.665 243.041 117.833 243.216 117.996C243.378 118.17 243.541 118.339 243.715 118.495C243.874 118.674 244.043 118.845 244.221 119.006C245.252 120.121 246.594 120.899 248.074 121.239C249.553 121.579 251.101 121.466 252.515 120.914C253.93 120.362 255.145 119.396 256.002 118.143C256.86 116.891 257.32 115.408 257.323 113.89V103.639H258.695C259.695 103.657 260.688 103.475 261.617 103.105C262.546 102.735 263.392 102.183 264.105 101.483C264.819 100.783 265.386 99.9474 265.774 99.0258C266.162 98.1042 266.362 97.1146 266.363 96.1148C266.378 95.0782 266.177 94.05 265.773 93.0952C265.369 92.1404 264.771 91.2799 264.018 90.5682ZM237.233 61.2441V83.3557H219.414L237.233 61.2441Z" fill="#0060A8"/>
<path opacity="0.1" d="M264.018 90.5682C263.855 90.3873 263.681 90.2126 263.506 90.0503C263.337 89.8694 263.163 89.7009 262.988 89.5387C262.82 89.3578 262.651 89.1831 262.476 89.0209C262.308 88.8399 262.133 88.6652 261.959 88.5093C261.79 88.3283 261.622 88.1536 261.447 87.9914C261.279 87.8105 261.104 87.6358 260.929 87.4798C260.761 87.2989 260.586 87.1242 260.418 86.9619C260.256 86.7822 260.086 86.6114 259.906 86.4503C259.737 86.2694 259.563 86.1009 259.388 85.9387C258.859 85.3546 258.24 84.8595 257.554 84.4725V32.912C257.554 32.6374 257.423 32.5002 257.423 32.2256C257.457 31.9457 257.409 31.6619 257.285 31.4083C257.285 31.271 257.154 30.9965 257.154 30.8593C257.079 30.5788 256.986 30.3036 256.874 30.0357C256.732 29.8832 256.639 29.6921 256.605 29.4866C256.45 29.2387 256.266 29.0104 256.056 28.8066C255.913 28.6693 255.782 28.401 255.645 28.2575L255.095 27.7085C255.095 27.6274 254.989 27.54 254.871 27.4901L254.603 27.2156H254.571C254.571 27.1282 254.472 27.0471 254.353 26.991L254.078 26.7227C254.078 26.6416 253.972 26.5542 253.854 26.4981L253.586 26.2298C253.586 26.1424 253.48 26.0613 253.361 26.0052L253.093 25.7307C253.093 25.6496 252.987 25.5622 252.868 25.5061L252.594 25.2378V25.2066C252.594 25.1255 252.488 25.0444 252.369 24.9882L252.101 24.7137H252.069C252.069 24.6326 251.97 24.5452 251.851 24.4891L251.577 24.2208V24.1896C251.577 24.1085 251.471 24.0274 251.352 23.9712L251.084 23.6967H251.052C251.052 23.6093 250.953 23.5282 250.834 23.4721L250.56 23.2038C250.56 23.1227 250.454 23.0353 250.335 22.9854L250.036 22.6859C250.036 22.5487 249.767 22.4114 249.624 22.4114C249.624 22.3934 249.62 22.3755 249.613 22.3589C249.606 22.3422 249.596 22.3271 249.584 22.3144C249.571 22.3016 249.556 22.2915 249.539 22.2846C249.522 22.2777 249.504 22.2742 249.486 22.2742C249.218 22.1431 249.075 21.9996 248.806 21.8624C248.57 21.6912 248.343 21.508 248.126 21.3133C247.989 21.3133 247.715 21.1823 247.577 21.1823C247.303 21.045 246.897 21.045 246.754 20.9015C246.517 20.9214 246.28 20.8761 246.067 20.7705H243.746C243.584 20.8751 243.39 20.9213 243.197 20.9015C242.786 21.045 242.517 21.045 242.374 21.1823C242.106 21.1823 241.968 21.3133 241.825 21.5941C241.532 21.6016 241.248 21.6949 241.007 21.8624C240.876 21.9996 240.596 22.1431 240.465 22.2742C240.278 22.4724 240.041 22.615 239.778 22.6859C239.674 22.8915 239.535 23.0773 239.367 23.235C239.229 23.3723 239.229 23.5033 239.098 23.5033L188.255 86.2756C187.053 87.7189 186.453 89.5697 186.58 91.4437C186.707 93.3177 187.55 95.071 188.935 96.3394C189.096 96.5279 189.271 96.7031 189.459 96.8635C189.616 97.0514 189.789 97.2247 189.977 97.3814C190.138 97.5698 190.313 97.7451 190.501 97.9055C191.024 98.4243 191.544 98.9464 192.061 99.4715C192.413 99.8146 192.76 100.162 193.103 100.513C193.263 100.7 193.439 100.873 193.627 101.031C193.95 101.398 194.309 101.73 194.7 102.023C195.985 103.14 197.647 103.727 199.348 103.664H237.233V108.849C237.222 109.904 237.434 110.95 237.855 111.918C238.277 112.886 238.898 113.754 239.678 114.464C239.841 114.645 240.015 114.814 240.184 114.97C240.34 115.144 240.508 115.307 240.683 115.469C240.844 115.647 241.015 115.815 241.195 115.974C241.357 116.149 241.519 116.311 241.694 116.473C241.856 116.654 242.031 116.823 242.205 116.985C242.368 117.16 242.53 117.328 242.704 117.484C242.867 117.665 243.041 117.833 243.216 117.996C243.378 118.17 243.541 118.339 243.715 118.495C243.874 118.674 244.043 118.845 244.221 119.006C245.252 120.121 246.594 120.899 248.074 121.239C249.553 121.579 251.101 121.466 252.515 120.914C253.93 120.362 255.145 119.396 256.002 118.143C256.86 116.891 257.32 115.408 257.323 113.89V103.639H258.695C259.695 103.657 260.688 103.475 261.617 103.105C262.546 102.735 263.392 102.183 264.105 101.483C264.819 100.783 265.386 99.9474 265.774 99.0258C266.162 98.1042 266.362 97.1146 266.363 96.1148C266.378 95.0782 266.177 94.05 265.773 93.0952C265.369 92.1404 264.771 91.2799 264.018 90.5682ZM237.233 61.2441V83.3557H219.414L237.233 61.2441Z" fill="black"/>
<path d="M261.303 90.8989C261.303 91.8984 261.103 92.8878 260.716 93.8094C260.329 94.731 259.762 95.5663 259.049 96.2667C258.336 96.9671 257.491 97.5185 256.562 97.8887C255.634 98.259 254.641 98.4407 253.642 98.4233H252.275V108.824C252.275 110.82 251.483 112.734 250.071 114.145C248.66 115.556 246.746 116.349 244.751 116.349C242.755 116.349 240.841 115.556 239.43 114.145C238.019 112.734 237.226 110.82 237.226 108.824V98.4233H194.132C192.431 98.4887 190.768 97.9018 189.484 96.7824C188.69 96.1881 188.025 95.4386 187.53 94.5794C187.034 93.7202 186.718 92.7692 186.602 91.7842C186.485 90.7992 186.57 89.8008 186.851 88.8495C187.132 87.8983 187.603 87.0141 188.236 86.2507L238.867 23.3161C239.005 23.3161 239.005 23.1851 239.142 23.0479C239.312 22.8918 239.451 22.7056 239.554 22.4988C239.816 22.4278 240.054 22.2853 240.24 22.087C240.377 21.9498 240.652 21.8125 240.789 21.6752C241.027 21.5021 241.312 21.4063 241.606 21.4007C241.744 21.1324 241.881 20.9952 242.149 20.9952C242.286 20.8579 242.561 20.8579 242.973 20.7206C243.166 20.7412 243.361 20.6925 243.522 20.5834H245.849C246.057 20.6949 246.294 20.7426 246.529 20.7206C246.666 20.8579 247.078 20.8579 247.353 20.9952C247.49 20.9952 247.764 21.1324 247.902 21.1324C248.176 21.4007 248.444 21.538 248.582 21.6752C248.856 21.8125 248.993 21.9498 249.268 22.087C249.304 22.087 249.339 22.1015 249.365 22.1272C249.391 22.153 249.405 22.1879 249.405 22.2243C249.543 22.2243 249.811 22.3615 249.811 22.4988L250.36 23.0479C250.497 23.1851 250.634 23.4534 250.772 23.5907C250.981 23.7971 251.165 24.0274 251.321 24.277C251.355 24.4834 251.451 24.6747 251.595 24.826C251.708 25.091 251.799 25.3643 251.87 25.6434C251.87 25.7806 252.001 26.0551 252.001 26.1924C252.124 26.4481 252.172 26.734 252.138 27.016C252.138 27.2843 252.275 27.4215 252.275 27.696V83.3745H253.642C255.653 83.3644 257.587 84.1496 259.022 85.5589C260.457 86.9683 261.277 88.8877 261.303 90.8989ZM237.226 49.5831L210.005 83.3745H237.226V49.5831Z" fill="#0060A8"/>
<path d="M160.173 98.598C160.151 98.7408 160.18 98.8866 160.254 99.0107C160.328 99.1347 160.442 99.2292 160.578 99.2781C161.233 99.3779 162.032 99.484 162.918 99.6088C165.557 93.8812 168.252 89.3703 167.491 91.1547C166.328 93.9581 165.566 96.9111 165.226 99.927C166.256 100.064 168.658 100.357 169.856 100.501C172.613 90.2812 175.652 82.7693 175.296 85.1277C173.849 94.6424 174.105 97.7495 174.435 101.075C185.622 102.435 200.315 104.045 210.966 104.962C212.706 99.3468 214.335 93.2074 214.485 93.6566C215.651 96.9946 215.626 101.711 215.333 105.33C218.727 105.598 221.447 105.742 223.113 105.742C223.113 105.742 224.361 100.988 224.586 99.4154C225.254 95.3924 225.216 91.2839 224.473 87.2739C223.706 83.181 222.071 79.4999 220.543 75.7377C220.538 75.7144 220.532 75.6915 220.524 75.6691C219.51 73.2043 218.782 70.6316 218.353 68.0011C218.349 67.9805 218.349 67.9593 218.353 67.9387C218.068 66.0204 217.944 64.0815 217.985 62.1425C218.122 55.0424 214.94 48.6597 208.894 46.3512C198.568 35.8007 184.387 40.6423 180.381 49.5644C178.815 53.5637 177.262 58.7859 175.908 62.8101C175.912 62.8168 175.914 62.8243 175.914 62.832C175.914 62.8396 175.912 62.8472 175.908 62.8538C175.397 64.4323 174.791 65.9783 174.092 67.4833C170.38 74.6708 163.23 78.3769 160.173 98.598Z" fill="#263238"/>
<path d="M211.384 48.4476C215.258 51.0119 217.467 54.512 217.623 59.7155C217.723 62.7478 217.623 65.6989 218.478 68.6126C219.332 71.6199 220.88 74.153 222.483 76.6798C225.023 80.6979 226.695 84.641 226.688 89.7322C226.682 94.8234 225.915 100.963 223.862 105.636C223.862 105.667 223.812 105.636 223.825 105.636C225.572 100.863 226.208 94.1371 225.852 88.9835C225.459 83.3183 222.814 79.5873 220.156 75.1138C218.014 71.5627 216.83 67.5171 216.718 63.3717C216.643 60.8011 216.918 58.1495 216.169 55.6788C215.283 52.7339 213.162 50.7436 211.041 48.9654C210.76 48.7096 211.09 48.2541 211.384 48.4476Z" fill="#263238"/>
<path d="M166.468 74.9266C169.7 71.127 173 67.9263 175.134 63.0722C177.074 58.6486 178.378 53.9256 180.344 49.5145C180.344 49.4396 180.475 49.477 180.444 49.5581C177.324 57.4195 176.126 65.493 170.673 71.9006C167.703 75.3821 164.765 78.5953 162.631 82.8691C160.449 87.3763 159.084 92.2351 158.6 97.2192C158.6 97.3939 158.369 97.3689 158.369 97.2192C158.366 89.0677 161.233 81.1755 166.468 74.9266Z" fill="#263238"/>
<path d="M135.047 171.752C135.047 171.752 165.164 179.863 170.143 178.99C175.122 178.116 191.93 155.493 195.661 147.289C199.392 139.084 205.588 98.2674 204.396 93.7752C203.204 89.283 196.971 89.2206 191.712 100.801C186.452 112.38 174.017 137.836 171.802 139.933C169.587 142.029 132.62 169.581 135.047 171.752Z" fill="#FFC4C0"/>
<path d="M167.529 176.307C162.912 173.893 157.29 168.034 153.459 167.423C152.522 167.239 151.551 167.362 150.689 167.773C149.827 168.185 149.121 168.862 148.674 169.706C148.674 169.706 146.914 165.794 143.346 165.813C141.517 165.813 139.92 168.758 139.92 168.758C139.92 168.758 138.367 165.682 135.203 165.894C132.677 166.062 131.46 168.982 131.46 168.982C131.46 168.982 128.602 166.724 126.082 167.734C120.978 169.75 120.13 191.443 127.991 195.112C131.653 196.822 131.572 191.512 131.572 191.512C131.572 191.512 133.531 199.124 137.999 199.411C142.466 199.698 141.948 192.81 141.948 192.81C141.948 192.81 143.913 200.166 148.574 199.997C153.428 199.829 151.731 193.022 151.731 193.022C151.731 193.022 154.813 197.976 158.351 197.027C164.197 195.468 157.914 183.725 159.237 179.002H166.58L167.529 176.307Z" fill="#FFC4C0"/>
<path d="M160.865 171.69C165.438 173.599 170.654 166.381 175.359 168.059C181.461 170.236 175.82 177.767 166.574 178.99H159.23L160.865 171.69Z" fill="#FFC4C0"/>
<path d="M131.192 169.413C131.192 169.398 131.186 169.384 131.175 169.373C131.165 169.362 131.15 169.357 131.135 169.357C131.12 169.357 131.106 169.362 131.096 169.373C131.085 169.384 131.079 169.398 131.079 169.413C129.064 176.482 129.008 184.867 131.535 191.818C131.616 192.042 132.028 192.011 131.984 191.743C130.749 184.056 130.262 177.156 131.192 169.413Z" fill="#263238"/>
<path d="M139.877 168.633C139.877 168.546 139.746 168.527 139.721 168.633C137.68 175.933 137.849 185.373 141.736 193.047C141.867 193.309 142.254 193.409 142.123 193.097C139.945 187.806 139.003 175.615 139.877 168.633Z" fill="#263238"/>
<path d="M152.18 193.477C148.767 185.99 148.1 178.148 148.574 169.999C148.574 169.893 148.43 169.893 148.399 169.999C147.083 173.924 147.326 179.146 147.856 183.195C148.271 186.953 149.663 190.537 151.893 193.59C152.006 193.721 152.255 193.639 152.18 193.477Z" fill="#263238"/>
<path d="M175.721 167.485C172.726 166.487 169.65 168.882 167.129 170.224C166.322 170.704 165.472 171.107 164.59 171.428C162.593 172.052 161.115 171.653 160.222 171.097C158.825 170.205 154.464 165.85 151.313 167.298C150.226 167.806 149.295 168.597 148.618 169.587C147.657 167.84 146.428 165.938 144.3 165.588C143.831 165.509 143.351 165.529 142.891 165.649C142.431 165.768 142.001 165.983 141.63 166.281C141.233 166.587 140.88 166.946 140.582 167.348C140.285 167.709 140.042 168.11 139.858 168.539C139.857 168.525 139.857 168.51 139.858 168.496L139.789 168.365L139.658 168.096C139.48 167.737 139.227 167.42 138.916 167.167C138.856 167.106 138.785 167.058 138.707 167.026C138.629 166.994 138.545 166.978 138.46 166.979C138.447 166.979 138.434 166.985 138.425 166.994C138.416 167.003 138.41 167.016 138.41 167.029C138.41 167.043 138.416 167.055 138.425 167.065C138.434 167.074 138.447 167.079 138.46 167.079C138.606 167.149 138.725 167.265 138.797 167.41C138.897 167.56 138.991 167.716 139.097 167.859C139.203 168.003 139.302 168.152 139.409 168.296L139.565 168.527L139.633 168.645C139.663 168.684 139.697 168.719 139.733 168.751C139.742 168.763 139.753 168.772 139.766 168.779C139.779 168.785 139.793 168.789 139.808 168.789C139.822 168.789 139.837 168.785 139.85 168.779C139.863 168.772 139.874 168.763 139.883 168.751C140.204 168.466 140.494 168.148 140.75 167.803C141.064 167.438 141.413 167.103 141.792 166.805C142.152 166.527 142.566 166.327 143.008 166.22C143.449 166.112 143.909 166.099 144.356 166.181C146.265 166.555 147.476 168.252 148.493 169.768C148.493 169.768 148.493 169.768 148.524 169.768C148.493 169.818 148.561 169.862 148.599 169.825C149.647 168.907 150.645 167.878 152.093 167.666C153.653 167.435 155.131 168.184 156.423 168.97C157.07 169.35 157.695 169.767 158.295 170.218C158.825 170.629 159.33 171.091 159.898 171.465C162.325 172.994 164.983 171.809 165.644 171.528C166.949 170.94 168.214 170.269 169.431 169.519C170.656 168.698 172.036 168.139 173.487 167.878C174.153 167.78 174.833 167.852 175.463 168.088C176.094 168.323 176.655 168.715 177.093 169.226C177.549 169.812 178.129 170.91 176.937 173.412C176.937 173.412 176.937 173.462 176.975 173.443C177.599 172.794 179.583 168.776 175.721 167.485Z" fill="#263238"/>
<path d="M202.031 131.684L173.612 127.142C173.612 127.142 187.188 100.258 195.343 92.4588C203.391 84.7596 207.309 92.6459 206.124 104.538C204.814 117.721 202.031 131.684 202.031 131.684Z" fill="#37474F"/>
<path d="M201.108 126.394C200.309 126.206 199.492 126.088 198.693 125.907C197.895 125.726 197.127 125.614 196.341 125.495C194.738 125.246 193.128 125.021 191.524 124.803C188.355 124.366 185.185 123.886 182.003 123.555C180.194 123.355 178.397 123.081 176.582 122.931C176.525 122.931 176.519 123.018 176.582 123.031C179.732 123.767 182.939 124.279 186.134 124.834C189.328 125.389 192.473 125.838 195.655 126.182C196.547 126.281 197.445 126.394 198.338 126.437C199.23 126.481 200.178 126.568 201.095 126.581C201.12 126.582 201.145 126.574 201.163 126.558C201.182 126.541 201.193 126.518 201.195 126.493C201.197 126.469 201.189 126.444 201.172 126.425C201.156 126.407 201.133 126.395 201.108 126.394Z" fill="#263238"/>
<path d="M186.209 179.239H261.472C261.472 179.239 230.189 101.599 214.285 90.2563C209.512 86.8497 201.906 86.4691 196.778 93.3073C192.573 98.9225 180.899 121.228 180.369 129.251C179.838 137.275 186.134 145.205 186.134 145.205L186.209 179.239Z" fill="#455A64"/>
<path d="M211.128 126.631C211.321 126.581 211.509 126.556 211.696 126.518C211.861 126.481 212.032 126.481 212.197 126.519C212.362 126.557 212.516 126.631 212.649 126.736C212.781 126.842 212.888 126.976 212.962 127.128C213.036 127.28 213.074 127.447 213.075 127.617C213.07 127.767 213.104 127.916 213.174 128.05C213.244 128.183 213.347 128.296 213.474 128.378C213.615 128.467 213.776 128.522 213.942 128.54C214.133 128.568 214.322 128.605 214.51 128.652C214.322 128.702 214.135 128.727 213.942 128.765C213.733 128.806 213.516 128.787 213.318 128.708C213.107 128.618 212.927 128.468 212.802 128.276C212.676 128.083 212.61 127.858 212.613 127.629C212.609 127.479 212.568 127.332 212.493 127.203C212.417 127.073 212.311 126.964 212.182 126.887C212.034 126.806 211.87 126.757 211.702 126.743C211.509 126.706 211.321 126.681 211.128 126.631Z" fill="white"/>
<path d="M182.34 126.631C182.528 126.581 182.715 126.556 182.902 126.518C183.067 126.481 183.238 126.481 183.403 126.519C183.568 126.557 183.723 126.631 183.855 126.736C183.987 126.842 184.094 126.976 184.168 127.128C184.242 127.28 184.28 127.447 184.281 127.617C184.277 127.768 184.313 127.917 184.384 128.05C184.455 128.184 184.559 128.296 184.686 128.378C184.827 128.469 184.987 128.524 185.154 128.54C185.341 128.577 185.529 128.596 185.716 128.652C185.529 128.702 185.341 128.727 185.154 128.765C184.945 128.805 184.729 128.786 184.53 128.708C184.321 128.616 184.142 128.465 184.017 128.274C183.892 128.082 183.825 127.858 183.825 127.629C183.822 127.479 183.78 127.332 183.705 127.203C183.63 127.073 183.523 126.964 183.395 126.887C183.247 126.805 183.083 126.756 182.914 126.743C182.715 126.706 182.528 126.681 182.34 126.631Z" fill="white"/>
<path d="M221.585 164.028C221.772 163.978 221.965 163.953 222.152 163.916C222.317 163.881 222.488 163.883 222.652 163.922C222.817 163.961 222.97 164.036 223.101 164.142C223.233 164.248 223.339 164.381 223.412 164.533C223.486 164.685 223.524 164.852 223.525 165.02C223.523 165.171 223.56 165.32 223.631 165.453C223.701 165.586 223.805 165.699 223.931 165.782C224.073 165.869 224.233 165.922 224.399 165.938C224.586 165.975 224.779 166 224.966 166.05C224.779 166.106 224.586 166.131 224.399 166.168C224.189 166.208 223.972 166.186 223.775 166.106C223.563 166.016 223.383 165.865 223.257 165.673C223.13 165.481 223.063 165.256 223.063 165.027C223.062 164.877 223.022 164.73 222.947 164.601C222.871 164.472 222.763 164.365 222.633 164.29C222.488 164.206 222.326 164.157 222.159 164.147C221.965 164.109 221.772 164.084 221.585 164.028Z" fill="white"/>
<path d="M234.6 128.652C234.787 128.596 234.98 128.577 235.167 128.54C235.332 128.502 235.503 128.502 235.668 128.54C235.833 128.578 235.987 128.652 236.119 128.758C236.25 128.863 236.357 128.997 236.43 129.15C236.503 129.302 236.54 129.469 236.54 129.638C236.538 129.789 236.574 129.938 236.645 130.071C236.716 130.204 236.819 130.317 236.946 130.399C237.086 130.49 237.247 130.543 237.413 130.555C237.601 130.599 237.794 130.618 237.981 130.674C237.794 130.724 237.601 130.749 237.413 130.786C237.204 130.828 236.988 130.808 236.79 130.73C236.578 130.639 236.398 130.489 236.272 130.297C236.145 130.105 236.078 129.88 236.078 129.65C236.077 129.5 236.037 129.352 235.961 129.222C235.886 129.092 235.778 128.984 235.648 128.908C235.502 128.826 235.34 128.777 235.174 128.765C234.98 128.702 234.787 128.702 234.6 128.652Z" fill="white"/>
<path d="M201.326 109.629C201.52 109.579 201.707 109.554 201.894 109.517C202.102 109.471 202.318 109.486 202.518 109.56C202.734 109.641 202.921 109.786 203.054 109.975C203.187 110.165 203.258 110.39 203.26 110.621C203.26 110.771 203.297 110.92 203.367 111.053C203.438 111.185 203.541 111.299 203.666 111.382C203.809 111.466 203.969 111.52 204.134 111.538C204.327 111.576 204.514 111.601 204.702 111.65C204.514 111.707 204.327 111.725 204.134 111.769C203.924 111.805 203.708 111.784 203.51 111.707C203.296 111.615 203.114 111.462 202.988 111.266C202.863 111.07 202.799 110.841 202.805 110.609C202.802 110.459 202.761 110.313 202.686 110.184C202.61 110.055 202.503 109.948 202.374 109.872C202.228 109.786 202.063 109.735 201.894 109.723C201.707 109.704 201.52 109.685 201.326 109.629Z" fill="white"/>
<path d="M221.809 109.198C221.997 109.149 222.184 109.124 222.377 109.086C222.585 109.042 222.801 109.057 223.001 109.13C223.217 109.212 223.404 109.357 223.538 109.546C223.671 109.735 223.745 109.959 223.75 110.19C223.747 110.341 223.783 110.491 223.854 110.624C223.925 110.757 224.028 110.87 224.155 110.952C224.297 111.039 224.457 111.093 224.623 111.108C224.81 111.145 224.998 111.17 225.191 111.22C224.998 111.276 224.81 111.301 224.623 111.339C224.414 111.378 224.197 111.356 223.999 111.276C223.788 111.186 223.608 111.035 223.482 110.843C223.355 110.651 223.288 110.427 223.288 110.197C223.286 110.047 223.245 109.901 223.17 109.772C223.094 109.643 222.987 109.536 222.858 109.461C222.713 109.376 222.551 109.327 222.383 109.317C222.19 109.287 221.999 109.248 221.809 109.198Z" fill="white"/>
<path d="M208.551 89.5388C208.738 89.4889 208.932 89.464 209.119 89.4265C209.284 89.389 209.455 89.3891 209.619 89.4268C209.784 89.4646 209.938 89.539 210.07 89.6445C210.202 89.7501 210.308 89.884 210.381 90.0364C210.454 90.1888 210.492 90.3557 210.492 90.5246C210.488 90.6756 210.524 90.825 210.595 90.9583C210.666 91.0916 210.77 91.2044 210.897 91.2858C211.038 91.3758 211.198 91.4314 211.365 91.448C211.552 91.4854 211.746 91.5042 211.933 91.5603C211.746 91.6102 211.552 91.6352 211.365 91.6726C211.156 91.7145 210.939 91.695 210.741 91.6165C210.53 91.526 210.35 91.3755 210.223 91.1836C210.097 90.9917 210.03 90.7669 210.03 90.5371C210.029 90.3866 209.988 90.239 209.913 90.1089C209.837 89.9787 209.729 89.8704 209.599 89.7946C209.454 89.7129 209.292 89.6639 209.125 89.6511C208.932 89.6137 208.738 89.5887 208.551 89.5388Z" fill="white"/>
<path d="M196.304 142.279C196.491 142.229 196.678 142.204 196.865 142.166C197.073 142.12 197.29 142.136 197.489 142.21C197.706 142.289 197.893 142.433 198.027 142.621C198.161 142.809 198.234 143.033 198.238 143.264C198.234 143.415 198.27 143.565 198.341 143.698C198.412 143.831 198.516 143.944 198.643 144.025C198.784 144.116 198.944 144.172 199.111 144.188C199.298 144.225 199.486 144.25 199.673 144.3C199.486 144.356 199.298 144.375 199.111 144.412C198.902 144.453 198.686 144.433 198.487 144.356C198.278 144.264 198.099 144.113 197.974 143.921C197.849 143.73 197.782 143.506 197.782 143.277C197.779 143.127 197.737 142.98 197.662 142.85C197.587 142.721 197.48 142.612 197.352 142.534C197.203 142.453 197.04 142.405 196.871 142.391C196.678 142.353 196.491 142.335 196.304 142.279Z" fill="white"/>
<path d="M218.652 176.55C218.84 176.494 219.033 176.469 219.22 176.432C219.385 176.397 219.556 176.399 219.72 176.438C219.884 176.477 220.038 176.552 220.169 176.658C220.3 176.763 220.407 176.897 220.48 177.049C220.553 177.201 220.592 177.367 220.593 177.536C220.591 177.687 220.627 177.836 220.698 177.969C220.769 178.102 220.872 178.215 220.998 178.297C221.139 178.387 221.3 178.441 221.466 178.453C221.653 178.491 221.847 178.516 222.034 178.566C221.847 178.622 221.653 178.647 221.466 178.684C221.257 178.723 221.04 178.702 220.842 178.622C220.631 178.532 220.45 178.382 220.324 178.19C220.197 177.998 220.13 177.772 220.131 177.542C220.13 177.393 220.09 177.246 220.014 177.117C219.939 176.988 219.83 176.881 219.701 176.806C219.556 176.722 219.394 176.672 219.226 176.663C219.014 176.625 218.821 176.6 218.652 176.55Z" fill="white"/>
<path d="M207.64 158.132C207.827 158.082 208.014 158.057 208.202 158.02C208.41 157.977 208.626 157.992 208.826 158.064C209.043 158.144 209.231 158.289 209.364 158.478C209.498 158.667 209.571 158.893 209.574 159.124C209.571 159.275 209.607 159.424 209.678 159.558C209.749 159.691 209.853 159.804 209.98 159.886C210.121 159.974 210.282 160.028 210.448 160.042C210.635 160.079 210.822 160.104 211.016 160.154C210.822 160.21 210.635 160.229 210.448 160.272C210.238 160.308 210.023 160.286 209.824 160.21C209.614 160.118 209.436 159.967 209.311 159.775C209.186 159.584 209.119 159.36 209.119 159.131C209.115 158.982 209.073 158.836 208.998 158.707C208.923 158.579 208.816 158.471 208.688 158.394C208.543 158.306 208.378 158.257 208.208 158.251C208.046 158.207 207.827 158.189 207.64 158.132Z" fill="white"/>
<path d="M187.294 161.483C187.488 161.427 187.675 161.402 187.862 161.364C188.027 161.329 188.198 161.331 188.362 161.37C188.526 161.409 188.679 161.484 188.811 161.59C188.942 161.696 189.049 161.829 189.122 161.981C189.195 162.133 189.234 162.3 189.235 162.468C189.233 162.619 189.269 162.768 189.34 162.901C189.411 163.034 189.514 163.147 189.64 163.23C189.781 163.319 189.942 163.373 190.108 163.386C190.301 163.423 190.489 163.448 190.676 163.498C190.489 163.547 190.299 163.587 190.108 163.616C189.898 163.656 189.682 163.634 189.484 163.554C189.272 163.464 189.092 163.314 188.965 163.122C188.839 162.93 188.772 162.705 188.773 162.475C188.772 162.326 188.732 162.18 188.658 162.051C188.584 161.922 188.477 161.814 188.349 161.738C188.201 161.655 188.037 161.606 187.868 161.595C187.675 161.558 187.488 161.533 187.294 161.483Z" fill="white"/>
<path d="M217.005 142.728C217.192 142.678 217.38 142.653 217.567 142.615C217.732 142.58 217.903 142.582 218.068 142.621C218.232 142.66 218.386 142.736 218.518 142.841C218.65 142.947 218.756 143.08 218.83 143.232C218.904 143.384 218.944 143.551 218.946 143.72C218.943 143.871 218.979 144.02 219.05 144.153C219.121 144.286 219.224 144.399 219.351 144.481C219.492 144.57 219.653 144.623 219.819 144.637C220.006 144.674 220.193 144.699 220.381 144.749C220.193 144.805 220.006 144.824 219.819 144.868C219.609 144.906 219.393 144.884 219.195 144.805C218.986 144.713 218.807 144.562 218.682 144.371C218.557 144.179 218.49 143.955 218.49 143.726C218.486 143.577 218.445 143.431 218.369 143.303C218.294 143.174 218.188 143.066 218.06 142.99C217.914 142.903 217.749 142.854 217.579 142.846C217.405 142.803 217.192 142.784 217.005 142.728Z" fill="white"/>
<path d="M243.016 167.94C243.204 167.89 243.397 167.865 243.584 167.828C243.792 167.782 244.009 167.798 244.208 167.872C244.425 167.952 244.612 168.097 244.744 168.287C244.877 168.476 244.949 168.701 244.951 168.932C244.95 169.083 244.987 169.231 245.057 169.364C245.128 169.497 245.231 169.61 245.356 169.693C245.499 169.778 245.659 169.831 245.824 169.849C246.017 169.887 246.205 169.912 246.392 169.962C246.205 170.018 246.017 170.037 245.824 170.08C245.658 170.111 245.487 170.104 245.324 170.061C245.162 170.017 245.01 169.938 244.882 169.828C244.753 169.719 244.651 169.582 244.582 169.428C244.513 169.275 244.479 169.107 244.483 168.939C244.482 168.789 244.441 168.642 244.366 168.513C244.29 168.384 244.182 168.277 244.052 168.202C243.908 168.116 243.746 168.064 243.578 168.053C243.397 168.009 243.204 168.009 243.016 167.94Z" fill="white"/>
<path d="M232.69 152.548C232.878 152.498 233.071 152.473 233.258 152.436C233.423 152.401 233.594 152.403 233.758 152.442C233.922 152.481 234.076 152.556 234.207 152.662C234.339 152.767 234.445 152.901 234.518 153.053C234.591 153.205 234.63 153.372 234.631 153.54C234.628 153.691 234.664 153.84 234.735 153.974C234.806 154.107 234.91 154.22 235.036 154.301C235.177 154.392 235.338 154.446 235.504 154.457C235.691 154.495 235.885 154.52 236.072 154.57C235.885 154.626 235.691 154.651 235.504 154.688C235.295 154.728 235.078 154.706 234.88 154.626C234.669 154.536 234.488 154.386 234.362 154.194C234.235 154.002 234.168 153.776 234.169 153.546C234.168 153.397 234.128 153.25 234.052 153.121C233.977 152.992 233.869 152.885 233.739 152.81C233.594 152.726 233.432 152.676 233.264 152.667C233.071 152.629 232.878 152.604 232.69 152.548Z" fill="white"/>
<path d="M254.64 174.978C254.833 174.928 255.02 174.903 255.208 174.866C255.373 174.83 255.543 174.832 255.708 174.872C255.872 174.911 256.025 174.986 256.157 175.091C256.288 175.197 256.394 175.331 256.468 175.483C256.541 175.635 256.579 175.801 256.58 175.97C256.579 176.121 256.615 176.269 256.686 176.403C256.757 176.536 256.86 176.649 256.986 176.731C257.127 176.821 257.287 176.874 257.454 176.887C257.647 176.925 257.834 176.95 258.022 177C257.834 177.049 257.645 177.088 257.454 177.118C257.244 177.157 257.028 177.136 256.83 177.056C256.618 176.966 256.438 176.816 256.313 176.624C256.187 176.431 256.122 176.206 256.125 175.976C256.121 175.827 256.079 175.682 256.004 175.553C255.929 175.424 255.822 175.317 255.694 175.24C255.547 175.156 255.383 175.107 255.214 175.097C255.02 175.059 254.84 175.034 254.64 174.978Z" fill="white"/>
<path d="M203.054 120.254C202.961 120.423 202.842 120.572 202.736 120.735C202.646 120.878 202.524 120.999 202.38 121.088C202.237 121.178 202.075 121.234 201.906 121.253C201.738 121.271 201.567 121.252 201.408 121.196C201.248 121.139 201.103 121.048 200.983 120.928C200.879 120.819 200.748 120.739 200.604 120.695C200.46 120.651 200.307 120.646 200.159 120.679C199.997 120.715 199.845 120.79 199.716 120.897C199.562 121.012 199.402 121.118 199.236 121.215C199.336 121.047 199.448 120.897 199.554 120.735C199.677 120.555 199.848 120.415 200.047 120.329C200.258 120.246 200.489 120.227 200.71 120.273C200.932 120.32 201.135 120.43 201.295 120.591C201.403 120.695 201.536 120.77 201.681 120.808C201.827 120.847 201.979 120.847 202.125 120.81C202.287 120.765 202.436 120.684 202.562 120.572C202.761 120.466 202.911 120.348 203.054 120.254Z" fill="white"/>
<path d="M195.524 107.62C195.43 107.788 195.312 107.938 195.206 108.1C195.115 108.243 194.993 108.364 194.849 108.454C194.706 108.544 194.544 108.6 194.375 108.619C194.207 108.637 194.037 108.618 193.877 108.561C193.717 108.505 193.572 108.414 193.452 108.294C193.349 108.184 193.218 108.103 193.074 108.06C192.929 108.016 192.776 108.011 192.629 108.044C192.466 108.081 192.314 108.156 192.186 108.263C192.031 108.377 191.871 108.483 191.705 108.581C191.805 108.412 191.917 108.263 192.024 108.1C192.146 107.921 192.317 107.78 192.516 107.695C192.727 107.612 192.958 107.593 193.18 107.639C193.401 107.686 193.605 107.796 193.764 107.957C193.872 108.062 194.005 108.137 194.15 108.175C194.296 108.213 194.449 108.213 194.594 108.175C194.756 108.131 194.906 108.05 195.031 107.938C195.206 107.832 195.355 107.714 195.524 107.62Z" fill="white"/>
<path d="M233.626 142.247C233.527 142.422 233.414 142.572 233.308 142.728C233.19 142.909 233.023 143.053 232.828 143.146C232.621 143.236 232.392 143.263 232.17 143.223C231.948 143.183 231.742 143.078 231.58 142.921C231.475 142.814 231.344 142.734 231.2 142.691C231.056 142.647 230.904 142.64 230.756 142.672C230.594 142.708 230.442 142.783 230.313 142.89C230.151 142.996 230.001 143.115 229.833 143.208C229.927 143.04 230.045 142.89 230.151 142.728C230.271 142.549 230.44 142.408 230.638 142.322C230.849 142.242 231.079 142.224 231.3 142.27C231.521 142.317 231.725 142.426 231.886 142.584C231.992 142.689 232.124 142.764 232.269 142.802C232.413 142.841 232.565 142.841 232.709 142.803C232.872 142.76 233.024 142.681 233.152 142.572C233.327 142.466 233.477 142.347 233.626 142.247Z" fill="white"/>
<path d="M214.572 101.3C214.478 101.468 214.36 101.618 214.254 101.78C214.137 101.959 213.973 102.101 213.78 102.192C213.569 102.287 213.335 102.317 213.107 102.278C212.879 102.239 212.668 102.133 212.501 101.974C212.396 101.865 212.266 101.784 212.122 101.739C211.978 101.695 211.825 101.687 211.677 101.718C211.514 101.755 211.363 101.83 211.234 101.936C211.072 102.042 210.922 102.161 210.754 102.261C210.847 102.086 210.966 101.936 211.072 101.774C211.193 101.595 211.364 101.456 211.565 101.375C211.776 101.292 212.006 101.272 212.228 101.319C212.45 101.365 212.653 101.476 212.812 101.637C212.922 101.746 213.057 101.825 213.206 101.866C213.354 101.908 213.511 101.91 213.661 101.874C213.822 101.827 213.971 101.746 214.098 101.637C214.285 101.512 214.403 101.393 214.572 101.3Z" fill="white"/>
<path d="M201.357 91.9658C201.264 92.1343 201.145 92.284 201.039 92.4462C200.921 92.6255 200.758 92.7699 200.565 92.8643C200.354 92.9586 200.119 92.9876 199.891 92.9476C199.663 92.9076 199.452 92.8003 199.286 92.6396C199.182 92.5305 199.051 92.4501 198.907 92.4064C198.763 92.3627 198.609 92.357 198.462 92.3901C198.299 92.4254 198.147 92.5004 198.019 92.6084C197.857 92.7145 197.707 92.8331 197.539 92.9267C197.633 92.7582 197.751 92.6084 197.857 92.4462C197.978 92.2655 198.149 92.1244 198.35 92.0407C198.561 91.9578 198.791 91.9384 199.013 91.985C199.235 92.0315 199.438 92.142 199.598 92.3027C199.705 92.408 199.838 92.4835 199.984 92.5217C200.129 92.56 200.282 92.5598 200.428 92.5211C200.59 92.4769 200.739 92.3958 200.864 92.284C201.039 92.1779 201.183 92.0594 201.357 91.9658Z" fill="white"/>
<path d="M213.829 113.179C213.886 113.366 213.904 113.56 213.948 113.747C213.987 113.955 213.972 114.17 213.904 114.371C213.822 114.586 213.677 114.772 213.488 114.905C213.299 115.037 213.074 115.11 212.844 115.113C212.693 115.111 212.544 115.147 212.411 115.218C212.278 115.289 212.165 115.392 212.082 115.519C211.992 115.659 211.938 115.82 211.927 115.987C211.883 116.174 211.864 116.367 211.808 116.554C211.758 116.367 211.733 116.174 211.696 115.987C211.653 115.777 211.675 115.56 211.758 115.363C211.847 115.151 211.997 114.97 212.19 114.843C212.382 114.716 212.607 114.65 212.837 114.652C212.987 114.65 213.133 114.609 213.263 114.534C213.392 114.458 213.499 114.351 213.574 114.221C213.655 114.075 213.704 113.913 213.717 113.747C213.755 113.56 213.78 113.366 213.829 113.179Z" fill="white"/>
<path d="M209.331 146.415C209.381 146.602 209.406 146.796 209.443 146.983C209.479 147.148 209.477 147.319 209.438 147.483C209.398 147.647 209.323 147.8 209.218 147.932C209.112 148.063 208.978 148.17 208.826 148.243C208.674 148.316 208.508 148.355 208.339 148.356C208.188 148.353 208.039 148.388 207.906 148.459C207.773 148.53 207.66 148.634 207.578 148.761C207.49 148.903 207.437 149.063 207.422 149.229C207.384 149.416 207.359 149.61 207.31 149.797C207.253 149.61 207.228 149.416 207.191 149.229C207.151 149.019 207.173 148.803 207.253 148.605C207.344 148.394 207.494 148.214 207.686 148.087C207.878 147.961 208.103 147.894 208.333 147.894C208.482 147.893 208.629 147.853 208.758 147.777C208.888 147.701 208.995 147.593 209.069 147.463C209.154 147.319 209.203 147.156 209.213 146.989C209.25 146.796 209.294 146.602 209.331 146.415Z" fill="white"/>
<path d="M252.968 161.813C253.024 162.001 253.049 162.188 253.086 162.375C253.121 162.54 253.119 162.711 253.08 162.876C253.041 163.04 252.966 163.194 252.861 163.326C252.755 163.458 252.621 163.565 252.469 163.639C252.318 163.713 252.151 163.752 251.982 163.754C251.831 163.751 251.682 163.787 251.549 163.858C251.416 163.929 251.303 164.033 251.221 164.159C251.129 164.299 251.076 164.46 251.065 164.627C251.027 164.815 251.002 165.002 250.953 165.189C250.896 165.002 250.871 164.815 250.834 164.627C250.796 164.418 250.817 164.201 250.896 164.003C250.988 163.793 251.139 163.615 251.331 163.489C251.522 163.364 251.747 163.298 251.976 163.298C252.125 163.294 252.27 163.253 252.399 163.178C252.528 163.102 252.635 162.996 252.712 162.868C252.796 162.721 252.845 162.556 252.856 162.387C252.899 162.188 252.924 162.001 252.968 161.813Z" fill="white"/>
<path d="M232.753 117.784C232.803 117.971 232.828 118.158 232.865 118.351C232.909 118.559 232.894 118.775 232.822 118.975C232.739 119.192 232.595 119.378 232.406 119.512C232.217 119.645 231.992 119.719 231.761 119.724C231.61 119.721 231.461 119.757 231.328 119.828C231.194 119.899 231.082 120.003 231 120.13C230.912 120.271 230.858 120.431 230.844 120.597C230.806 120.785 230.781 120.972 230.731 121.165C230.675 120.972 230.657 120.785 230.613 120.597C230.582 120.432 230.589 120.261 230.633 120.098C230.676 119.935 230.755 119.784 230.865 119.655C230.974 119.527 231.111 119.424 231.265 119.355C231.419 119.286 231.586 119.252 231.755 119.256C231.904 119.254 232.05 119.213 232.179 119.138C232.308 119.062 232.416 118.955 232.491 118.826C232.578 118.682 232.627 118.519 232.634 118.351C232.678 118.158 232.697 117.971 232.753 117.784Z" fill="white"/>
<path d="M232.753 171.129C232.803 171.316 232.828 171.503 232.865 171.69C232.9 171.855 232.898 172.026 232.859 172.191C232.82 172.355 232.745 172.509 232.639 172.641C232.534 172.773 232.4 172.88 232.248 172.954C232.096 173.028 231.93 173.067 231.761 173.069C231.61 173.066 231.461 173.102 231.328 173.173C231.194 173.244 231.081 173.348 231 173.474C230.911 173.616 230.857 173.776 230.844 173.942C230.806 174.13 230.781 174.317 230.731 174.504C230.675 174.317 230.656 174.13 230.613 173.942C230.578 173.733 230.599 173.517 230.675 173.318C230.767 173.109 230.918 172.931 231.11 172.805C231.302 172.68 231.526 172.614 231.755 172.613C231.904 172.609 232.049 172.568 232.178 172.493C232.307 172.417 232.414 172.311 232.491 172.183C232.579 172.038 232.628 171.872 232.634 171.703C232.678 171.522 232.697 171.334 232.753 171.129Z" fill="white"/>
<path d="M243.016 140.588C243.072 140.775 243.091 140.968 243.129 141.156C243.166 141.32 243.166 141.491 243.128 141.656C243.091 141.821 243.016 141.975 242.911 142.107C242.805 142.239 242.671 142.345 242.519 142.418C242.366 142.491 242.2 142.529 242.031 142.528C241.88 142.526 241.731 142.562 241.598 142.633C241.465 142.704 241.352 142.807 241.269 142.934C241.179 143.074 241.125 143.235 241.113 143.402C241.07 143.589 241.051 143.782 240.995 143.969C240.945 143.782 240.92 143.589 240.883 143.402C240.84 143.192 240.862 142.975 240.945 142.778C241.034 142.566 241.183 142.386 241.374 142.26C241.565 142.133 241.789 142.066 242.018 142.066C242.169 142.065 242.316 142.025 242.446 141.949C242.576 141.874 242.685 141.766 242.761 141.636C242.842 141.49 242.891 141.328 242.904 141.162C242.941 140.968 242.985 140.775 243.016 140.588Z" fill="white"/>
<path d="M191.007 147.607C191.063 147.794 191.081 147.981 191.119 148.168C191.156 148.333 191.156 148.505 191.118 148.67C191.081 148.835 191.006 148.989 190.901 149.121C190.795 149.254 190.662 149.361 190.509 149.435C190.357 149.508 190.19 149.547 190.021 149.547C189.87 149.544 189.72 149.579 189.587 149.65C189.454 149.721 189.341 149.825 189.26 149.953C189.168 150.093 189.114 150.254 189.104 150.421C189.06 150.608 189.041 150.795 188.985 150.982C188.935 150.795 188.91 150.608 188.873 150.421C188.832 150.211 188.853 149.994 188.935 149.797C189.025 149.587 189.174 149.408 189.365 149.282C189.556 149.157 189.78 149.091 190.008 149.092C190.158 149.088 190.305 149.047 190.435 148.972C190.564 148.896 190.673 148.79 190.751 148.661C190.833 148.514 190.882 148.35 190.894 148.181C190.932 147.981 190.957 147.794 191.007 147.607Z" fill="white"/>
<path d="M192.017 117.784C192.064 117.971 192.102 118.16 192.13 118.351C192.176 118.559 192.163 118.775 192.092 118.975C192.01 119.192 191.865 119.378 191.676 119.512C191.487 119.645 191.263 119.719 191.031 119.724C190.88 119.721 190.731 119.756 190.598 119.827C190.464 119.898 190.352 120.002 190.27 120.13C190.18 120.27 190.126 120.431 190.114 120.597C190.071 120.785 190.052 120.972 189.996 121.165C189.946 120.972 189.921 120.785 189.883 120.597C189.842 120.388 189.861 120.172 189.94 119.974C190.03 119.762 190.181 119.582 190.372 119.456C190.564 119.329 190.789 119.262 191.019 119.262C191.169 119.26 191.316 119.219 191.446 119.144C191.576 119.068 191.685 118.961 191.761 118.832C191.843 118.686 191.892 118.524 191.905 118.358C191.942 118.158 191.967 117.971 192.017 117.784Z" fill="white"/>
<path d="M202.898 98.3984C202.948 98.5856 202.973 98.7728 203.011 98.9662C203.054 99.1742 203.039 99.3903 202.967 99.5901C202.885 99.8064 202.74 99.9933 202.551 100.127C202.362 100.26 202.138 100.334 201.906 100.339C201.755 100.336 201.606 100.372 201.473 100.443C201.34 100.514 201.227 100.618 201.145 100.744C201.057 100.886 201.004 101.046 200.989 101.212C200.952 101.399 200.927 101.587 200.877 101.78C200.821 101.587 200.802 101.399 200.758 101.212C200.72 101.003 200.742 100.786 200.821 100.588C200.913 100.379 201.064 100.201 201.256 100.075C201.447 99.9501 201.671 99.8834 201.9 99.8834C202.05 99.8811 202.196 99.8403 202.325 99.7649C202.454 99.6894 202.561 99.582 202.636 99.4529C202.723 99.3095 202.773 99.1463 202.78 98.9787C202.824 98.7541 202.842 98.5856 202.898 98.3984Z" fill="white"/>
<path d="M199.978 128.365C200.028 128.559 200.053 128.746 200.091 128.933C200.126 129.098 200.124 129.269 200.085 129.434C200.046 129.598 199.971 129.752 199.865 129.884C199.759 130.016 199.626 130.123 199.474 130.197C199.322 130.271 199.155 130.31 198.986 130.312C198.836 130.309 198.686 130.345 198.553 130.416C198.42 130.487 198.307 130.591 198.225 130.717C198.136 130.859 198.083 131.019 198.069 131.185C198.032 131.373 198.007 131.56 197.957 131.747C197.901 131.56 197.876 131.373 197.838 131.185C197.8 130.976 197.822 130.759 197.901 130.561C197.993 130.352 198.144 130.174 198.336 130.048C198.527 129.923 198.751 129.856 198.98 129.856C199.129 129.852 199.275 129.811 199.404 129.736C199.532 129.66 199.64 129.554 199.716 129.426C199.8 129.279 199.849 129.114 199.86 128.945C199.897 128.746 199.935 128.559 199.978 128.365Z" fill="white"/>
<path d="M226.202 132.396C226.252 132.583 226.277 132.776 226.314 132.964C226.349 133.129 226.347 133.299 226.308 133.463C226.269 133.628 226.194 133.781 226.088 133.912C225.983 134.044 225.849 134.15 225.697 134.223C225.545 134.297 225.378 134.335 225.21 134.336C225.059 134.334 224.91 134.371 224.777 134.442C224.644 134.512 224.531 134.616 224.449 134.742C224.362 134.884 224.308 135.044 224.293 135.21C224.255 135.397 224.23 135.59 224.18 135.777C224.124 135.59 224.105 135.397 224.062 135.21C224.023 135 224.044 134.783 224.124 134.586C224.215 134.374 224.365 134.194 224.557 134.068C224.749 133.942 224.974 133.874 225.204 133.874C225.353 133.873 225.5 133.833 225.629 133.758C225.758 133.682 225.865 133.574 225.94 133.444C226.027 133.301 226.076 133.137 226.083 132.97C226.139 132.776 226.139 132.583 226.202 132.396Z" fill="white"/>
<path d="M201.963 166.05C202.013 166.243 202.037 166.43 202.075 166.618C202.112 166.783 202.112 166.954 202.074 167.119C202.037 167.284 201.962 167.438 201.857 167.571C201.751 167.703 201.618 167.81 201.465 167.884C201.313 167.957 201.146 167.996 200.977 167.996C200.826 167.992 200.676 168.027 200.542 168.098C200.409 168.169 200.296 168.274 200.216 168.402C200.126 168.541 200.07 168.699 200.053 168.864C200.026 169.055 199.988 169.244 199.941 169.431C199.891 169.244 199.866 169.057 199.829 168.864C199.787 168.655 199.807 168.438 199.885 168.24C199.975 168.029 200.126 167.849 200.318 167.724C200.51 167.598 200.735 167.532 200.964 167.535C201.114 167.531 201.261 167.49 201.391 167.415C201.52 167.339 201.629 167.233 201.707 167.104C201.788 166.956 201.837 166.792 201.85 166.624C201.888 166.43 201.913 166.243 201.963 166.05Z" fill="white"/>
<path d="M221.703 122.881C221.803 122.713 221.922 122.563 222.028 122.401C222.143 122.22 222.307 122.077 222.502 121.989C222.708 121.899 222.937 121.871 223.159 121.91C223.381 121.949 223.586 122.052 223.75 122.207C223.855 122.316 223.987 122.396 224.132 122.441C224.277 122.486 224.431 122.493 224.579 122.463C224.74 122.425 224.89 122.35 225.016 122.245C225.178 122.132 225.328 122.02 225.503 121.92C225.403 122.095 225.285 122.245 225.178 122.407C225.058 122.584 224.889 122.723 224.692 122.806C224.481 122.887 224.251 122.906 224.029 122.859C223.808 122.813 223.605 122.703 223.444 122.544C223.336 122.441 223.204 122.368 223.06 122.329C222.916 122.291 222.765 122.29 222.62 122.326C222.459 122.372 222.311 122.453 222.184 122.563C222.028 122.669 221.878 122.787 221.703 122.881Z" fill="white"/>
<path d="M206.411 136.738C206.505 136.57 206.623 136.42 206.729 136.258C206.82 136.115 206.942 135.994 207.085 135.904C207.229 135.815 207.391 135.758 207.559 135.74C207.728 135.721 207.898 135.741 208.058 135.797C208.218 135.853 208.363 135.945 208.483 136.064C208.586 136.174 208.717 136.255 208.861 136.299C209.006 136.342 209.159 136.348 209.306 136.314C209.469 136.278 209.621 136.203 209.749 136.096C209.903 135.981 210.064 135.875 210.23 135.777C210.13 135.946 210.017 136.096 209.911 136.258C209.816 136.398 209.69 136.514 209.544 136.599C209.398 136.684 209.234 136.736 209.066 136.749C208.897 136.763 208.728 136.739 208.569 136.679C208.411 136.619 208.269 136.524 208.152 136.401C208.045 136.297 207.913 136.222 207.769 136.184C207.624 136.146 207.473 136.145 207.328 136.183C207.167 136.23 207.018 136.311 206.892 136.42C206.729 136.526 206.58 136.645 206.411 136.738Z" fill="white"/>
<path d="M196.042 157.153C196.141 156.978 196.26 156.828 196.366 156.672C196.457 156.529 196.578 156.408 196.722 156.319C196.866 156.229 197.028 156.173 197.196 156.154C197.365 156.136 197.535 156.155 197.695 156.211C197.855 156.268 198 156.359 198.119 156.479C198.224 156.587 198.355 156.667 198.499 156.71C198.643 156.754 198.796 156.76 198.943 156.729C199.106 156.692 199.258 156.617 199.386 156.51C199.54 156.396 199.7 156.289 199.866 156.192C199.766 156.36 199.654 156.51 199.548 156.672C199.453 156.812 199.328 156.929 199.183 157.014C199.037 157.099 198.874 157.15 198.706 157.164C198.538 157.177 198.368 157.153 198.211 157.093C198.053 157.033 197.911 156.938 197.795 156.816C197.687 156.711 197.554 156.636 197.409 156.598C197.263 156.56 197.11 156.559 196.965 156.597C196.803 156.639 196.654 156.718 196.528 156.828C196.366 156.941 196.191 157.053 196.042 157.153Z" fill="white"/>
<path d="M200.521 178.36C200.621 178.191 200.74 178.042 200.846 177.879C200.961 177.699 201.125 177.556 201.32 177.467C201.527 177.379 201.755 177.353 201.976 177.391C202.198 177.43 202.403 177.532 202.568 177.686C202.672 177.795 202.802 177.876 202.946 177.921C203.09 177.966 203.244 177.973 203.391 177.942C203.555 177.903 203.706 177.826 203.834 177.717C203.99 177.611 204.14 177.499 204.315 177.399C204.215 177.574 204.103 177.723 203.996 177.879C203.874 178.059 203.703 178.2 203.504 178.285C203.292 178.366 203.062 178.385 202.841 178.338C202.62 178.292 202.416 178.182 202.256 178.023C202.148 177.92 202.016 177.846 201.872 177.808C201.728 177.77 201.577 177.769 201.432 177.804C201.271 177.851 201.122 177.932 200.995 178.041C200.846 178.148 200.696 178.266 200.521 178.36Z" fill="white"/>
<path d="M220.58 155.05C220.674 154.882 220.792 154.732 220.898 154.57C221.015 154.391 221.179 154.249 221.373 154.158C221.583 154.063 221.818 154.033 222.045 154.072C222.273 154.111 222.484 154.217 222.652 154.376C222.756 154.486 222.886 154.566 223.03 154.611C223.174 154.656 223.327 154.663 223.475 154.632C223.637 154.593 223.788 154.518 223.918 154.414C224.074 154.308 224.224 154.189 224.399 154.089C224.299 154.264 224.186 154.414 224.08 154.576C223.96 154.755 223.788 154.894 223.587 154.975C223.377 155.058 223.146 155.078 222.924 155.031C222.703 154.984 222.499 154.874 222.34 154.713C222.231 154.611 222.097 154.537 221.953 154.499C221.808 154.461 221.655 154.459 221.51 154.495C221.349 154.542 221.2 154.623 221.073 154.732C220.898 154.838 220.749 154.957 220.58 155.05Z" fill="white"/>
<path d="M234.381 163.498C234.475 163.33 234.593 163.18 234.7 163.018C234.818 162.84 234.982 162.698 235.174 162.606C235.381 162.517 235.609 162.491 235.83 162.53C236.052 162.568 236.257 162.671 236.422 162.824C236.526 162.933 236.656 163.013 236.8 163.058C236.944 163.103 237.097 163.11 237.245 163.08C237.408 163.042 237.559 162.967 237.688 162.862C237.85 162.756 238 162.637 238.169 162.537C238.075 162.712 237.956 162.862 237.85 163.024C237.731 163.204 237.559 163.344 237.357 163.423C237.147 163.506 236.916 163.525 236.694 163.479C236.473 163.432 236.269 163.322 236.11 163.161C236 163.058 235.867 162.985 235.722 162.946C235.578 162.908 235.425 162.907 235.28 162.943C235.119 162.989 234.97 163.07 234.843 163.18C234.7 163.286 234.55 163.404 234.381 163.498Z" fill="white"/>
<path d="M211.165 169.912C211.259 169.743 211.377 169.594 211.483 169.431C211.598 169.251 211.763 169.108 211.958 169.02C212.168 168.925 212.403 168.895 212.631 168.933C212.858 168.972 213.07 169.078 213.237 169.238C213.341 169.347 213.471 169.428 213.615 169.473C213.759 169.518 213.913 169.525 214.06 169.494C214.224 169.455 214.375 169.378 214.503 169.269C214.659 169.163 214.809 169.051 214.984 168.951C214.884 169.126 214.772 169.276 214.665 169.431C214.545 169.612 214.373 169.754 214.173 169.837C213.962 169.92 213.731 169.939 213.509 169.893C213.288 169.846 213.084 169.736 212.925 169.575C212.816 169.472 212.683 169.398 212.538 169.36C212.393 169.322 212.24 169.321 212.095 169.357C211.934 169.403 211.785 169.484 211.658 169.594C211.483 169.7 211.334 169.818 211.165 169.912Z" fill="white"/>
<path d="M241.113 178.36C241.213 178.191 241.326 178.042 241.432 177.879C241.548 177.7 241.712 177.558 241.906 177.468C242.116 177.372 242.351 177.342 242.579 177.381C242.807 177.42 243.018 177.526 243.185 177.686C243.289 177.795 243.42 177.875 243.564 177.92C243.708 177.965 243.861 177.972 244.008 177.942C244.171 177.904 244.322 177.829 244.451 177.723C244.614 177.611 244.763 177.499 244.932 177.399C244.838 177.574 244.72 177.723 244.614 177.886C244.493 178.063 244.324 178.202 244.127 178.285C243.916 178.367 243.686 178.386 243.464 178.339C243.242 178.293 243.039 178.183 242.879 178.023C242.771 177.921 242.639 177.847 242.495 177.809C242.351 177.771 242.2 177.769 242.056 177.804C241.892 177.85 241.741 177.931 241.613 178.042C241.425 178.148 241.276 178.266 241.113 178.36Z" fill="white"/>
<path d="M244.489 155.531C244.582 155.356 244.701 155.206 244.807 155.044C244.925 154.867 245.089 154.724 245.281 154.632C245.492 154.537 245.726 154.507 245.954 154.546C246.182 154.585 246.393 154.691 246.56 154.85C246.665 154.959 246.795 155.04 246.939 155.085C247.083 155.129 247.236 155.137 247.384 155.106C247.546 155.069 247.698 154.994 247.827 154.888C247.989 154.782 248.139 154.663 248.307 154.564C248.214 154.738 248.095 154.888 247.989 155.05C247.87 155.231 247.697 155.37 247.496 155.449C247.285 155.532 247.055 155.552 246.833 155.505C246.611 155.459 246.408 155.348 246.248 155.187C246.14 155.085 246.008 155.012 245.864 154.974C245.72 154.935 245.569 154.934 245.425 154.969C245.261 155.014 245.11 155.095 244.982 155.206C244.807 155.318 244.657 155.437 244.489 155.531Z" fill="white"/>
<path d="M189.796 172.838C189.896 172.663 190.008 172.514 190.114 172.351C190.233 172.174 190.396 172.032 190.589 171.94C190.799 171.844 191.034 171.814 191.261 171.853C191.489 171.892 191.7 171.998 191.868 172.158C191.972 172.267 192.102 172.347 192.246 172.392C192.39 172.437 192.543 172.444 192.691 172.414C192.854 172.376 193.005 172.301 193.134 172.195C193.296 172.089 193.446 171.971 193.615 171.871C193.521 172.046 193.402 172.195 193.296 172.358C193.178 172.536 193.008 172.675 192.81 172.757C192.599 172.839 192.368 172.858 192.147 172.811C191.925 172.765 191.722 172.655 191.562 172.495C191.454 172.392 191.322 172.319 191.178 172.282C191.033 172.245 190.882 172.245 190.738 172.283C190.574 172.323 190.422 172.402 190.295 172.514C190.114 172.62 189.952 172.738 189.796 172.838Z" fill="white"/>
<path d="M188.08 137.219C188.174 137.05 188.292 136.9 188.399 136.738C188.516 136.559 188.68 136.415 188.873 136.32C189.084 136.226 189.319 136.197 189.547 136.237C189.774 136.277 189.985 136.384 190.152 136.545C190.256 136.654 190.386 136.734 190.531 136.778C190.675 136.822 190.828 136.827 190.975 136.794C191.14 136.762 191.293 136.687 191.418 136.576C191.581 136.47 191.73 136.351 191.899 136.258C191.801 136.424 191.695 136.584 191.58 136.738C191.461 136.917 191.292 137.058 191.094 137.144C190.883 137.226 190.653 137.245 190.431 137.198C190.209 137.152 190.006 137.042 189.846 136.882C189.739 136.778 189.607 136.704 189.463 136.665C189.318 136.627 189.167 136.626 189.022 136.663C188.859 136.709 188.708 136.79 188.579 136.9C188.405 137.007 188.255 137.125 188.08 137.219Z" fill="white"/>
<path d="M208.439 89.6947C208.208 90.8615 202.942 98.5419 197.651 98.4733C195.929 98.4421 195.655 89.0334 195.655 89.0334L195.474 88.3471L192.978 78.6888L204.165 70.971L205.787 69.9478C205.787 69.9478 206.293 72.6368 206.898 75.9873C206.898 76.1433 206.954 76.2992 206.979 76.4677C207.004 76.6361 207.06 76.8296 207.085 77.0105C207.185 77.5096 207.278 78.0212 207.366 78.5329C207.434 78.9197 207.497 79.294 207.553 79.7058C207.609 80.1176 207.671 80.5169 207.74 80.9537C208.172 83.848 208.405 86.7685 208.439 89.6947Z" fill="#FFC4C0"/>
<path d="M206.898 75.9873C206.004 78.7528 204.519 81.2907 202.547 83.425C200.574 85.5593 198.161 87.2389 195.474 88.3471L192.978 78.6888L204.165 70.971L205.787 69.9478C205.787 69.9478 206.293 72.6368 206.898 75.9873Z" fill="#263238"/>
<path d="M179.264 64.345C178.803 81.8521 189.247 84.1044 192.991 84.198C196.416 84.2854 208.096 84.1481 210.367 66.7845C212.638 49.4209 204.639 43.6995 196.815 43.0756C188.991 42.4517 179.726 46.8378 179.264 64.345Z" fill="#FFC4C0"/>
<path d="M181.922 59.048C182.334 58.9794 182.696 58.8546 183.095 58.7485C183.522 58.6965 183.92 58.5083 184.231 58.212C184.31 58.0995 184.351 57.9638 184.345 57.8261C184.339 57.6884 184.288 57.5564 184.2 57.4508C183.992 57.2696 183.74 57.1469 183.469 57.0954C183.198 57.0438 182.918 57.0653 182.659 57.1576C182.106 57.262 181.612 57.5691 181.273 58.0186C181.203 58.1257 181.164 58.251 181.163 58.3795C181.161 58.508 181.197 58.6341 181.266 58.7428C181.334 58.8515 181.432 58.9381 181.549 58.9922C181.665 59.0464 181.795 59.0657 181.922 59.048Z" fill="#263238"/>
<path d="M193.627 61.606C193.224 61.5618 192.824 61.4951 192.429 61.4064C192.002 61.3947 191.59 61.2435 191.256 60.9759C191.167 60.8709 191.114 60.7394 191.108 60.6016C191.101 60.4639 191.14 60.3279 191.219 60.2147C191.409 60.0153 191.65 59.8703 191.915 59.7947C192.181 59.719 192.461 59.7154 192.729 59.7842C193.289 59.8418 193.807 60.1066 194.182 60.5266C194.264 60.6264 194.315 60.7479 194.329 60.8762C194.342 61.0045 194.318 61.1339 194.259 61.2487C194.2 61.3634 194.109 61.4584 193.996 61.5218C193.884 61.5853 193.756 61.6146 193.627 61.606Z" fill="#263238"/>
<path d="M184.505 64.7443C184.505 64.7006 184.418 64.8067 184.418 64.8566C184.537 66.0421 184.474 67.4209 183.426 67.8889C183.389 67.8889 183.426 67.9637 183.426 67.9575C184.736 67.683 184.805 65.8487 184.505 64.7443Z" fill="#263238"/>
<path d="M183.357 63.5714C181.436 63.5714 181.542 67.4023 183.326 67.421C185.111 67.4397 184.961 63.5901 183.357 63.5714Z" fill="#263238"/>
<path d="M182.565 63.8521C182.266 64.0642 181.979 64.4386 181.61 64.476C181.242 64.5134 180.868 64.1079 180.587 63.7148C180.587 63.6774 180.531 63.7148 180.531 63.7585C180.531 64.4947 180.799 65.2559 181.504 65.3744C182.209 65.493 182.609 64.8441 182.752 64.1266C182.796 63.9706 182.684 63.7647 182.565 63.8521Z" fill="#263238"/>
<path d="M192.336 74.9329C192.042 75.2012 191.743 75.5568 191.306 75.6005C190.87 75.5716 190.446 75.4526 190.058 75.2511C190.05 75.247 190.04 75.2457 190.031 75.2475C190.021 75.2493 190.013 75.2541 190.007 75.2612C190 75.2682 189.996 75.2771 189.996 75.2866C189.995 75.296 189.997 75.3055 190.002 75.3135C190.165 75.5549 190.39 75.7475 190.654 75.8706C190.918 75.9937 191.21 76.0427 191.5 76.0123C191.746 75.96 191.971 75.8343 192.145 75.6516C192.319 75.469 192.433 75.238 192.473 74.9891C192.448 74.9204 192.379 74.8955 192.336 74.9329Z" fill="#263238"/>
<path d="M186.371 70.1474C186.371 70.1474 186.234 71.9318 186.277 72.7679C187.911 72.6782 189.55 72.821 191.144 73.1922C191.518 73.292 191.493 72.9863 191.069 72.7617C189.805 72.1032 188.373 71.838 186.957 72.0005C186.882 71.7696 187.226 69.2552 187.095 69.2552C186.45 69.3499 185.82 69.5304 185.223 69.7918C185.41 66.0483 186.196 62.4046 186.327 58.6923C186.329 58.6651 186.321 58.6382 186.304 58.6166C186.288 58.5949 186.264 58.58 186.237 58.5747C186.21 58.5693 186.183 58.5739 186.159 58.5875C186.135 58.6011 186.118 58.6228 186.109 58.6486C185.011 62.4358 184.699 66.7159 184.406 70.5592C184.368 71.0334 186.046 70.3097 186.371 70.1474Z" fill="#263238"/>
<path d="M194.7 64.8067C193.999 64.5319 193.233 64.4711 192.498 64.632C192.104 64.7215 191.731 64.8868 191.4 65.1186C191.058 65.3734 190.779 65.7018 190.582 66.0795L190.214 66.7595L190.969 66.6784C191.5 66.6222 192.035 66.6222 192.566 66.6784C193.12 66.7268 193.653 66.9158 194.114 67.2275C193.812 66.6763 193.306 66.2661 192.704 66.0857C192.117 65.8918 191.497 65.8217 190.882 65.8798L191.269 66.5037C191.592 65.9623 192.089 65.5465 192.679 65.3245C193.328 65.0687 194.007 64.8947 194.7 64.8067Z" fill="#263238"/>
<path d="M192.535 67.9076C191.97 67.775 191.427 67.5651 190.919 67.2837C190.801 67.2088 190.345 66.8657 190.37 66.7659C190.435 66.4757 190.535 66.1949 190.67 65.9298C190.46 66.1654 190.301 66.4414 190.202 66.7409C190.237 66.9058 190.307 67.0611 190.408 67.1959C190.51 67.3306 190.639 67.4415 190.788 67.5208C191.325 67.8057 191.929 67.9394 192.535 67.9076Z" fill="#263238"/>
<path d="M188.392 72.6432C188.392 72.6432 189.478 74.2029 190.726 74.3901C192.161 74.6147 192.329 73.3232 190.726 72.587C189.915 72.2064 188.392 72.6432 188.392 72.6432Z" fill="#263238"/>
<path d="M190.72 74.4213C190.176 74.3084 189.676 74.0421 189.278 73.6539C189.578 73.2109 190.264 72.718 191.805 73.5478C192.03 74.0719 191.63 74.5336 190.72 74.4213Z" fill="#FF99BA"/>
<path d="M210.261 67.2026C207.378 67.5645 206.417 61.5312 206.417 61.5312C206.417 61.5312 200.54 61.8307 198.188 53.4702C198.48 55.9959 199.503 58.3814 201.133 60.3333C201.133 60.3333 190.707 59.7093 185.922 51.2677C185.922 51.2677 187.881 55.604 189.59 57.0951C189.59 57.0951 185.179 56.0969 182.889 52.6653C182.889 52.6653 181.317 57.7627 179.988 59.2164C179.988 59.2164 179.533 41.0542 196.435 42.1648C196.435 42.1648 206.991 42.352 211.178 50.5003C215.364 58.6487 210.261 67.2026 210.261 67.2026Z" fill="#263238"/>
<path d="M207.565 68.051C207.565 68.051 211.053 62.3672 213.611 63.5776C216.169 64.788 213.773 72.8739 210.934 74.128C210.582 74.3148 210.194 74.4281 209.796 74.4611C209.398 74.4942 208.998 74.4463 208.619 74.3204C208.24 74.1945 207.89 73.9931 207.591 73.7284C207.292 73.4637 207.05 73.1412 206.879 72.7803L207.565 68.051Z" fill="#FFC4C0"/>
<path d="M212.869 65.8799C212.912 65.8799 212.925 65.936 212.869 65.9547C210.878 66.9031 209.924 68.856 209.287 70.865C209.849 70.0726 210.647 69.6172 211.702 70.2411C211.758 70.2723 211.702 70.3596 211.652 70.3534C211.287 70.2599 210.903 70.2823 210.552 70.4176C210.201 70.5529 209.9 70.7944 209.693 71.1083C209.343 71.6313 209.055 72.1923 208.832 72.7804C208.744 72.9676 208.414 72.8927 208.47 72.6806C208.466 72.6641 208.466 72.6471 208.47 72.6307C208.295 70.0539 210.092 66.3104 212.869 65.8799Z" fill="#263238"/>
<path d="M209.294 73.2172C209.303 73.3788 209.359 73.534 209.456 73.6633C209.554 73.7926 209.687 73.8902 209.84 73.9436C209.993 73.997 210.158 74.0039 210.314 73.9633C210.471 73.9228 210.612 73.8367 210.72 73.7159C210.827 73.5951 210.897 73.4451 210.919 73.2848C210.942 73.1246 210.916 72.9613 210.845 72.8157C210.775 72.6701 210.662 72.5487 210.523 72.4669C210.383 72.3851 210.223 72.3466 210.061 72.3562C209.954 72.3618 209.849 72.3885 209.752 72.4349C209.656 72.4813 209.569 72.5464 209.498 72.6265C209.426 72.7066 209.371 72.8 209.336 72.9014C209.301 73.0028 209.287 73.1101 209.294 73.2172Z" fill="white"/>
<path d="M211.253 71.8633C211.258 71.967 211.294 72.0669 211.356 72.1502C211.418 72.2336 211.503 72.2966 211.601 72.3313C211.699 72.3661 211.805 72.371 211.905 72.3454C212.006 72.3198 212.097 72.2648 212.166 72.1876C212.236 72.1103 212.28 72.0141 212.295 71.9113C212.31 71.8085 212.293 71.7036 212.248 71.61C212.203 71.5165 212.131 71.4384 212.042 71.3857C211.952 71.3331 211.849 71.3082 211.746 71.3142C211.677 71.3174 211.61 71.3342 211.548 71.3636C211.486 71.393 211.43 71.4345 211.384 71.4856C211.338 71.5367 211.303 71.5964 211.281 71.6612C211.258 71.7261 211.248 71.7948 211.253 71.8633Z" fill="white"/>
<path d="M154.477 105.914L145.416 108.019L151.933 136.072L160.995 133.966L154.477 105.914Z" fill="#EBEBEB"/>
<path d="M132.389 31.4521C124.819 33.2134 117.941 37.1796 112.624 42.8494C107.307 48.5193 103.791 55.6381 102.519 63.306C101.248 70.974 102.278 78.8468 105.48 85.9292C108.682 93.0117 113.912 98.9858 120.509 103.096C127.106 107.207 134.773 109.27 142.542 109.023C150.31 108.777 157.832 106.233 164.155 101.713C170.478 97.1931 175.319 90.8998 178.066 83.6288C180.814 76.3578 181.343 68.4356 179.589 60.8635C178.423 55.832 176.277 51.0796 173.273 46.878C170.27 42.6763 166.468 39.1078 162.084 36.3763C157.701 33.6449 152.822 31.804 147.727 30.9591C142.632 30.1142 137.42 30.2817 132.389 31.4521ZM148.312 100.002C142.33 101.393 136.071 100.979 130.324 98.8125C124.578 96.6457 119.604 92.8234 116.03 87.8291C112.457 82.8349 110.444 76.8929 110.248 70.7549C110.052 64.6169 111.68 58.5586 114.928 53.3462C118.175 48.1339 122.895 44.0017 128.491 41.4724C134.088 38.943 140.308 38.1301 146.366 39.1365C152.424 40.1429 158.048 42.9234 162.526 47.1262C167.003 51.3291 170.134 56.7655 171.522 62.7478C173.381 70.7656 171.981 79.1938 167.629 86.1797C163.277 93.1655 156.329 98.1372 148.312 100.002Z" fill="#A6A6A6"/>
<path d="M157.569 126.028L151.492 127.44C149.387 127.929 148.078 130.031 148.567 132.136L156.34 165.591C156.829 167.696 158.931 169.005 161.036 168.516L167.113 167.104C169.217 166.615 170.527 164.513 170.038 162.409L162.265 128.953C161.776 126.849 159.674 125.539 157.569 126.028Z" fill="#263238"/>
<g opacity="0.3">
<path d="M171.522 62.7353C172.908 68.7153 172.491 74.9722 170.322 80.7149C168.153 86.4577 164.33 91.4284 159.337 94.9985C154.343 98.5687 148.403 100.578 142.267 100.772C136.132 100.967 130.076 99.3375 124.866 96.0906C119.657 92.8438 115.527 88.125 112.999 82.5311C110.471 76.9371 109.658 70.7192 110.664 64.6635C111.669 58.6077 114.448 52.9861 118.648 48.5094C122.848 44.0328 128.282 40.902 134.261 39.5131C138.233 38.5898 142.347 38.4581 146.369 39.1256C150.392 39.7931 154.243 41.2467 157.703 43.4033C161.164 45.5599 164.165 48.3772 166.536 51.6943C168.907 55.0114 170.601 58.7632 171.522 62.7353Z" fill="white"/>
<path d="M172.283 71.4827C171.825 79.6542 168.159 87.3146 162.084 92.7987C156.009 98.2827 148.015 101.147 139.839 100.769L172.283 71.4827Z" fill="#EBEBEB"/>
<path d="M158.001 43.5998L113.56 83.7114C112.454 81.5088 111.616 79.1816 111.064 76.7797C110.417 74.0278 110.157 71.1993 110.29 68.3755L143.102 38.7582C148.401 39.0699 153.531 40.737 158.001 43.5998Z" fill="#EBEBEB"/>
<path d="M170.667 59.7593L128.334 97.9618C126.484 97.1116 124.722 96.0814 123.074 94.8859L168.152 54.2064C169.177 55.9673 170.019 57.8278 170.667 59.7593Z" fill="#EBEBEB"/>
<path d="M161.414 46.1329L115.706 87.3738C115.494 87.0619 115.282 86.7499 115.082 86.4317L160.528 45.4216C160.84 45.6462 161.133 45.8771 161.414 46.1329Z" fill="#EBEBEB"/>
<path d="M132.751 39.9061L112.474 58.1994C112.817 57.3322 113.204 56.4836 113.628 55.66L130.118 40.7734C130.973 40.4552 131.853 40.1619 132.751 39.9061Z" fill="#EBEBEB"/>
</g>
<path d="M119.25 75.1264C119.247 75.0848 119.247 75.0431 119.25 75.0016C119.137 74.3777 119.331 75.5943 119.25 75.1887C119.169 74.7832 119.125 74.2279 119.088 73.7475C118.944 72.0535 118.944 70.3503 119.088 68.6563C119.088 68.413 119.131 68.1759 119.15 67.9388C119.15 67.864 119.081 68.5003 119.15 67.995L119.206 67.5582C119.281 66.9967 119.375 66.4352 119.487 65.8799C119.723 64.6556 120.042 63.4487 120.441 62.2674C120.535 61.9867 120.641 61.7059 120.741 61.4251C120.872 61.0445 120.566 61.8431 120.772 61.344L120.978 60.8511C121.246 60.2272 121.54 59.6033 121.852 58.9794C122.163 58.3554 122.569 57.6879 122.962 57.0702C123.149 56.7832 123.336 56.5024 123.53 56.2217C123.861 55.7412 123.374 56.4151 123.63 56.0782L123.998 55.5915C125.134 54.1632 126.404 52.847 127.791 51.6608C127.791 51.6608 128.078 51.43 127.866 51.6047C127.654 51.7794 127.978 51.5111 128.016 51.4799L128.64 50.987C129.058 50.675 129.482 50.3631 129.919 50.0885C130.834 49.4771 131.779 48.9127 132.751 48.3977C133.012 48.2339 133.238 48.0203 133.416 47.7692C133.594 47.5181 133.72 47.2344 133.789 46.9342C133.857 46.6341 133.866 46.3235 133.814 46.0201C133.762 45.7167 133.651 45.4264 133.488 45.1658C133.324 44.9053 133.11 44.6796 132.859 44.5015C132.608 44.3235 132.324 44.1967 132.024 44.1284C131.724 44.06 131.413 44.0514 131.11 44.1031C130.807 44.1548 130.516 44.2657 130.256 44.4296C124.091 47.7176 119.025 52.9086 116.48 59.4535C114.756 63.8549 114.021 68.5814 114.327 73.2983C114.389 74.346 114.523 75.3882 114.726 76.4179C114.904 77.0117 115.31 77.5111 115.854 77.8069C116.399 78.1027 117.039 78.1708 117.634 77.9964C118.219 77.8037 118.708 77.3947 119.002 76.8531C119.295 76.3114 119.371 75.6781 119.212 75.0827L119.25 75.1264Z" fill="white"/>
<path d="M121.321 81.7648C121.45 82.2 121.447 82.6637 121.313 83.0973C121.179 83.5309 120.919 83.915 120.566 84.2009C120.214 84.4869 119.784 84.6619 119.332 84.7039C118.88 84.7458 118.426 84.6528 118.027 84.4367C117.628 84.2205 117.301 83.8909 117.089 83.4894C116.878 83.088 116.789 82.6327 116.836 82.1812C116.883 81.7296 117.063 81.3021 117.352 80.9525C117.642 80.603 118.029 80.3472 118.464 80.2175C118.753 80.1303 119.056 80.1013 119.357 80.132C119.657 80.1627 119.949 80.2525 120.215 80.3964C120.48 80.5402 120.715 80.7351 120.905 80.97C121.095 81.2048 121.236 81.475 121.321 81.7648Z" fill="white"/>
<path d="M220.605 101.437C226.22 121.739 228.916 142.123 225.809 152.636C223.825 159.337 219.039 163.866 215.994 165.364C208.876 168.882 185.26 163.891 169.874 160.796C166.094 160.035 175.009 129.569 178.809 131.185C184.424 133.562 201.613 136.769 202.087 136.925C203.104 137.275 205.207 115.244 206.692 102.329C208.745 84.3354 217.367 89.7135 220.605 101.437Z" fill="#FFC4C0"/>
<path d="M140.307 125.383C138.635 128.109 140.806 130.605 140.806 130.605C139.381 131.318 138.25 132.508 137.612 133.968C136.607 136.588 140.276 139.315 140.276 139.315C138.952 140.361 137.975 141.784 137.474 143.395C136.763 146.003 140.076 149.279 140.076 149.279C139.392 150.912 139.319 152.737 139.87 154.42C141.524 158.856 148.605 160.31 153.097 161.283C157.589 162.256 171.241 160.784 173.874 160.771L180.331 131.99C180.331 131.99 161.42 121.914 155.998 121.527C151.388 121.215 142.185 122.326 140.307 125.383Z" fill="#FFC4C0"/>
<path d="M141.106 130.187C146.097 129.37 151.001 130.056 155.961 130.462C155.984 130.462 156.006 130.471 156.023 130.487C156.039 130.504 156.048 130.526 156.048 130.549C156.048 130.572 156.039 130.594 156.023 130.611C156.006 130.627 155.984 130.636 155.961 130.636C151.026 130.175 146.066 130.692 141.131 130.43C141.102 130.428 141.075 130.415 141.055 130.395C141.034 130.374 141.022 130.348 141.019 130.319C141.016 130.29 141.023 130.261 141.039 130.237C141.054 130.213 141.078 130.196 141.106 130.187Z" fill="#263238"/>
<path d="M140.457 138.959C141.601 138.88 142.751 138.953 143.876 139.178C145.078 139.336 146.278 139.515 147.476 139.714C149.876 140.13 152.263 140.59 154.638 141.093C154.744 141.093 154.738 141.28 154.638 141.262C152.243 140.869 149.847 140.513 147.445 140.22C146.24 140.07 145.036 139.939 143.826 139.808C142.681 139.761 141.545 139.588 140.438 139.29C140.404 139.276 140.375 139.253 140.356 139.222C140.336 139.191 140.326 139.155 140.329 139.118C140.331 139.081 140.344 139.046 140.367 139.018C140.39 138.99 140.421 138.969 140.457 138.959Z" fill="#263238"/>
<path d="M140.176 149.291C141.149 149.123 142.285 149.472 143.246 149.653C144.338 149.859 145.423 150.053 146.515 150.246C148.699 150.633 150.882 151.013 153.079 151.325C153.185 151.325 153.172 151.513 153.079 151.494C150.845 151.194 148.611 150.92 146.384 150.602C145.292 150.446 144.194 150.277 143.102 150.109C142.173 149.965 141 149.89 140.17 149.404C140.159 149.398 140.151 149.39 140.145 149.379C140.14 149.369 140.137 149.357 140.138 149.346C140.138 149.334 140.142 149.323 140.149 149.313C140.156 149.303 140.165 149.296 140.176 149.291Z" fill="#263238"/>
<path d="M146.471 122.401C144.206 122.694 141.611 123.193 140.145 125.121C139.467 125.939 139.134 126.988 139.215 128.047C139.344 129.036 139.844 129.939 140.613 130.574C139.707 130.865 138.903 131.407 138.291 132.135C137.68 132.863 137.287 133.75 137.156 134.692C137.118 135.163 137.178 135.638 137.331 136.086C137.485 136.533 137.729 136.944 138.048 137.293C138.36 137.662 138.716 137.986 139.059 138.323C139.402 138.66 139.783 138.947 140.139 139.24C139.754 139.54 139.393 139.87 139.059 140.226C138.685 140.586 138.348 140.983 138.055 141.411C137.447 142.26 137.104 143.269 137.069 144.313C137.121 145.349 137.481 146.346 138.105 147.176C138.611 148.034 139.326 148.751 140.182 149.26C140.193 149.265 140.205 149.267 140.217 149.264C140.228 149.261 140.238 149.253 140.245 149.244C140.252 149.234 140.255 149.222 140.254 149.21C140.252 149.198 140.247 149.187 140.238 149.179C139.565 148.564 138.994 147.846 138.548 147.052C138.008 146.204 137.712 145.224 137.693 144.219C137.775 143.266 138.097 142.35 138.629 141.555C138.893 141.124 139.18 140.707 139.49 140.307C139.798 139.98 140.085 139.634 140.351 139.271C140.351 139.271 139.608 138.485 139.346 138.148C139.084 137.811 138.828 137.449 138.591 137.081C138.089 136.383 137.866 135.521 137.967 134.667C138.114 133.869 138.477 133.127 139.015 132.52C139.54 131.897 140.22 131.404 140.769 130.792C140.788 130.76 140.801 130.724 140.807 130.686C140.812 130.649 140.81 130.61 140.8 130.574C139.552 128.627 139.708 126.78 141.043 125.339C141.723 124.64 142.519 124.064 143.395 123.636C144.404 123.177 145.447 122.8 146.515 122.507C146.559 122.5 146.54 122.394 146.471 122.401Z" fill="#263238"/>
<path d="M187.837 164.322C186.508 163.91 185.104 163.698 183.744 163.398C182.384 163.099 181.011 162.818 179.639 162.543C178.266 162.269 176.837 161.994 175.44 161.732C174.042 161.47 172.738 161.177 171.378 161.015C170.065 160.888 168.741 160.917 167.435 161.102C166.116 161.252 164.794 161.358 163.467 161.42C160.794 161.549 158.115 161.491 155.449 161.246C152.434 160.966 149.448 160.433 146.521 159.655C146.459 159.655 146.44 159.73 146.521 159.748C151.595 161.442 156.914 162.285 162.263 162.244C163.585 162.244 164.914 162.163 166.231 162.032C167.546 161.845 168.871 161.733 170.199 161.695C171.603 161.788 172.997 161.996 174.367 162.319C175.745 162.575 177.118 162.837 178.497 163.08C180.057 163.355 181.617 163.635 183.183 163.879C184.749 164.122 186.302 164.471 187.837 164.584C187.949 164.559 187.956 164.353 187.837 164.322Z" fill="#263238"/>
<path d="M207.216 138.186C205.219 137.506 203.11 137.081 201.058 136.588C199.005 136.096 196.927 135.621 194.862 135.153C190.919 134.261 186.926 133.506 183.008 132.414C181.978 132.127 180.961 131.791 179.957 131.454C179.452 131.273 178.959 131.073 178.466 130.83C177.973 130.586 177.405 130.437 176.918 130.206C176.862 130.168 176.819 130.256 176.875 130.293C177.268 130.536 177.63 130.83 178.035 131.067C178.441 131.304 178.934 131.541 179.395 131.753C180.239 132.139 181.104 132.478 181.985 132.77C183.819 133.394 185.728 133.825 187.6 134.261C191.718 135.203 195.842 136.133 199.972 137.025C201.133 137.275 202.299 137.524 203.466 137.755C204.633 137.986 205.906 138.273 207.141 138.41C207.17 138.418 207.202 138.415 207.228 138.401C207.255 138.386 207.275 138.362 207.285 138.334C207.295 138.305 207.293 138.273 207.28 138.246C207.267 138.218 207.244 138.197 207.216 138.186Z" fill="#263238"/>
<path d="M200.721 130.636L229.259 134.517C229.259 134.517 224.043 104.85 218.496 95.023C213.025 85.3274 206.985 91.735 204.683 103.465C202.1 116.467 200.721 130.636 200.721 130.636Z" fill="#37474F"/>
<path d="M227.119 130.218C226.32 130.031 225.503 129.913 224.704 129.738C223.906 129.563 223.138 129.445 222.352 129.32C220.749 129.07 219.139 128.846 217.529 128.627C214.36 128.191 211.197 127.71 208.015 127.379C206.205 127.18 204.402 126.911 202.593 126.755C202.58 126.755 202.567 126.761 202.557 126.77C202.548 126.779 202.543 126.792 202.543 126.805C202.543 126.819 202.548 126.831 202.557 126.841C202.567 126.85 202.58 126.855 202.593 126.855C205.744 127.592 208.957 128.141 212.151 128.658C215.346 129.176 218.49 129.663 221.672 130.012C222.564 130.106 223.457 130.224 224.355 130.268C225.253 130.312 226.196 130.393 227.113 130.412C227.138 130.412 227.163 130.403 227.182 130.386C227.201 130.368 227.212 130.344 227.213 130.318C227.213 130.292 227.204 130.267 227.186 130.249C227.169 130.23 227.145 130.219 227.119 130.218Z" fill="#263238"/>
<path d="M242.754 22.5798C242.388 26.0897 241.054 29.4287 238.9 32.2242C236.746 35.0198 233.858 37.1619 230.558 38.4115C227.258 39.6611 223.675 39.969 220.21 39.3008C216.745 38.6327 213.534 37.0148 210.935 34.6277L201.401 36.0315L206.174 27.7895C205.08 25.107 204.611 22.2101 204.805 19.3193C204.998 16.4285 205.848 13.6199 207.29 11.107C208.732 8.59408 210.728 6.44314 213.127 4.81772C215.525 3.1923 218.262 2.13521 221.131 1.72684C223.999 1.31848 226.923 1.56959 229.68 2.46108C232.436 3.35257 234.953 4.86096 237.039 6.87154C239.126 8.88212 240.726 11.3419 241.718 14.0639C242.711 16.7859 243.069 19.6984 242.767 22.5798H242.754Z" fill="white"/>
<path d="M242.754 22.5799C242.389 26.0923 241.059 29.4352 238.911 32.2381C237.856 33.6489 236.594 34.8921 235.167 35.9255C232.333 38.0532 228.968 39.3611 225.441 39.7064C224.561 39.7886 223.677 39.8053 222.795 39.7563C221.912 39.7369 221.031 39.6451 220.162 39.4818C216.649 38.8383 213.384 37.2288 210.735 34.8336L210.96 34.9023L201.445 36.3622L200.752 36.4683L201.102 35.8444L205.843 27.5899V27.9144C204.458 24.5051 204.077 20.7706 204.745 17.1517C205.414 13.5329 207.104 10.1809 209.615 7.49132C212.127 4.80178 215.356 2.88704 218.921 1.97316C222.485 1.05927 226.237 1.18439 229.733 2.33375C232.486 3.26916 234.995 4.80826 237.077 6.83843C239.154 8.86055 240.745 11.3284 241.728 14.0554C242.712 16.7824 243.063 19.6973 242.754 22.5799ZM242.754 22.5799C243.055 19.7132 242.694 16.8158 241.699 14.1106C240.704 11.4054 239.102 8.96445 237.015 6.9757C234.929 4.98695 232.414 3.50337 229.664 2.63912C226.915 1.77488 224.003 1.55302 221.154 1.9906C218.326 2.4165 215.633 3.48356 213.28 5.11018C210.951 6.75087 209.007 8.8801 207.584 11.3494C206.179 13.8191 205.351 16.5751 205.163 19.4104C204.99 22.2416 205.448 25.0759 206.505 27.7085L206.573 27.8832L206.486 28.0392L201.688 36.2624L201.345 35.757L210.885 34.4218H211.016L211.109 34.5092C213.658 36.891 216.818 38.5175 220.237 39.2073C221.088 39.3819 221.952 39.4883 222.82 39.5255C223.688 39.5848 224.56 39.5848 225.428 39.5255C227.167 39.3899 228.879 39.0119 230.513 38.4024C232.161 37.8028 233.711 36.9618 235.111 35.9068C235.816 35.3905 236.487 34.8299 237.12 34.2284C237.738 33.6091 238.317 32.9527 238.855 32.2631C241.027 29.4589 242.377 26.1066 242.754 22.5799Z" fill="#263238"/>
<path d="M214.491 29.4991C214.479 29.246 214.519 28.9932 214.607 28.7559C214.696 28.5186 214.832 28.3019 215.007 28.1187C215.182 27.9355 215.393 27.7898 215.626 27.6903C215.858 27.5908 216.109 27.5397 216.363 27.54C216.882 27.54 217.38 27.7464 217.748 28.1138C218.115 28.4812 218.322 28.9795 218.322 29.4991C218.322 30.0186 218.115 30.517 217.748 30.8844C217.38 31.2518 216.882 31.4582 216.363 31.4582C216.109 31.4584 215.858 31.4073 215.626 31.3078C215.393 31.2083 215.182 31.0626 215.007 30.8794C214.832 30.6963 214.696 30.4795 214.607 30.2422C214.519 30.0049 214.479 29.7521 214.491 29.4991ZM215.283 24.9819L214.84 9.81445H217.872L217.405 24.9632L215.283 24.9819Z" fill="#0060A8"/>
<path d="M221.772 29.4991C221.76 29.246 221.8 28.9932 221.889 28.7559C221.977 28.5186 222.113 28.3019 222.288 28.1187C222.463 27.9355 222.674 27.7898 222.907 27.6903C223.14 27.5908 223.39 27.5397 223.644 27.54C224.163 27.54 224.662 27.7464 225.029 28.1138C225.397 28.4812 225.603 28.9795 225.603 29.4991C225.603 30.0186 225.397 30.517 225.029 30.8844C224.662 31.2518 224.163 31.4582 223.644 31.4582C223.39 31.4584 223.14 31.4073 222.907 31.3078C222.674 31.2083 222.463 31.0626 222.288 30.8794C222.113 30.6963 221.977 30.4795 221.889 30.2422C221.8 30.0049 221.76 29.7521 221.772 29.4991ZM222.564 24.9819L222.121 9.81445H225.154L224.711 24.9819H222.564Z" fill="#0060A8"/>
<path d="M229.028 29.4991C229.016 29.246 229.056 28.9932 229.145 28.7559C229.234 28.5186 229.37 28.3019 229.545 28.1187C229.72 27.9355 229.93 27.7898 230.163 27.6903C230.396 27.5908 230.647 27.5397 230.9 27.54C231.42 27.54 231.918 27.7464 232.285 28.1138C232.653 28.4812 232.859 28.9795 232.859 29.4991C232.859 30.0186 232.653 30.517 232.285 30.8844C231.918 31.2518 231.42 31.4582 230.9 31.4582C230.647 31.4584 230.396 31.4073 230.163 31.3078C229.93 31.2083 229.72 31.0626 229.545 30.8794C229.37 30.6963 229.234 30.4795 229.145 30.2422C229.056 30.0049 229.016 29.7521 229.028 29.4991ZM229.821 24.9819L229.378 9.81445H232.41L231.967 24.9819H229.821Z" fill="#0060A8"/>
</svg>
